<svg width="188" height="150" viewBox="0 0 188 150" fill="none" xmlns="http://www.w3.org/2000/svg">
<path d="M53.4 150C42.7333 150 33.4 147.767 25.4 143.3C17.4 138.833 11.1667 132.6 6.7 124.6C2.23333 116.6 5.96046e-08 107.267 5.96046e-08 96.6V53.4C5.96046e-08 42.7333 2.23333 33.4 6.7 25.4C11.1667 17.4 17.4 11.1667 25.4 6.69999C33.4 2.23333 42.7333 -2.86102e-06 53.4 -2.86102e-06C64.0667 -2.86102e-06 73.4 2.23333 81.4 6.69999C89.4 11.1667 95.6333 17.4 100.1 25.4C104.567 33.4 106.8 42.7333 106.8 53.4V96.6C106.8 107.267 104.567 116.6 100.1 124.6C95.6333 132.6 89.4 138.833 81.4 143.3C73.4 147.767 64.0667 150 53.4 150ZM53.4 124.2C58.2 124.2 62.5333 123.067 66.4 120.8C70.2667 118.533 73.3333 115.467 75.6 111.6C77.8667 107.733 79 103.4 79 98.6V51.2C79 46.4 77.8667 42.0667 75.6 38.2C73.3333 34.3333 70.2667 31.2667 66.4 29C62.5333 26.7333 58.2 25.6 53.4 25.6C48.6 25.6 44.2667 26.7333 40.4 29C36.5333 31.2667 33.4667 34.3333 31.2 38.2C28.9333 42.0667 27.8 46.4 27.8 51.2V98.6C27.8 103.4 28.9333 107.733 31.2 111.6C33.4667 115.467 36.5333 118.533 40.4 120.8C44.2667 123.067 48.6 124.2 53.4 124.2ZM159.766 147V32.6L132.766 49.2V19.2L159.766 2.99999H187.566V147H159.766Z" fill="#F6F6F6"/>
</svg>
