<svg width="266" height="120" viewBox="0 0 266 120" fill="none" xmlns="http://www.w3.org/2000/svg">
<rect width="266" height="120" rx="8" fill="#F5F5F5"/>
<g clip-path="url(#clip0_4_618)">
<path d="M21.229 36.2009H61.8185V69.6726L41.5254 89.7187L21.229 69.6726V36.2009Z" fill="white"/>
<path d="M41.5254 90L62.0218 69.7496L41.5254 49.4992V90Z" fill="#ECB73A"/>
<path d="M21.0259 36V69.7496L41.5257 90V49.4992L62.0221 69.7496V36H21.0259Z" fill="#27A686"/>
<path d="M88.9276 54.7233H84.1551L86.443 44.506H86.5074L88.9276 54.7233ZM81.8028 63.5944L83.1586 58.3602H89.9885L91.3172 63.5944H96.5879L90.0936 39.9516H83.4942L76.8643 63.5944H81.8028ZM105.963 53.2499H108.878C111.4 53.2499 112.193 54.5258 112.193 56.6221C112.193 59.9308 109.807 59.9643 108.746 59.9643H105.963V53.2499ZM105.963 43.5918H109.044C110.736 43.5918 111.929 44.8677 111.929 46.6024C111.929 48.893 110.407 49.613 109.309 49.613H105.963V43.5918ZM109.807 63.5944C111.929 63.5944 117.196 63.3332 117.196 57.3388C117.196 54.0971 116.271 51.8367 112.725 51.3477V51.2807C115.44 50.7583 116.8 48.7926 116.8 46.0767C116.8 41.0333 113.654 39.9516 109.841 39.9516H100.96V63.5944H109.807ZM123.131 63.5944V39.955H129.893L136.255 56.3274H136.323V39.955H140.994V63.5944H134.401L127.87 46.3077H127.802V63.5944H123.131ZM145.41 50.0718L148.61 46.9072L151.82 50.0718L148.61 53.2432L145.41 50.0718ZM166.276 54.7233H161.507L163.792 44.506H163.856L166.276 54.7233ZM159.152 63.5944L160.507 58.3602H167.334L168.666 63.5944H173.937L167.439 39.9516H160.843L154.21 63.5944H159.152ZM177.872 63.5944V39.955H185.929L189.674 56.0327H189.742L193.718 39.955H201.507V63.5944H196.636V45.36H196.569L191.962 63.5944H187.19L182.81 45.36H182.746V63.5944H177.872ZM213.489 43.5918H215.706C217.302 43.5918 218.261 44.4391 218.261 46.6995C218.261 48.2065 217.699 50.1723 215.706 50.1723H213.489V43.5918ZM213.489 53.8058H214.784C218.624 53.8058 218.36 56.1968 218.36 59.0132C218.36 60.5503 218.228 62.1544 218.892 63.5944H223.797C223.329 62.6132 223.234 58.1593 223.234 56.6523C223.234 52.3959 219.987 52.1313 218.892 52.0007V51.9405C222.139 51.4147 223.332 49.1576 223.332 46.1436C223.332 42.115 221.143 39.955 217.736 39.955H208.486V63.5978H213.496V53.8058H213.489ZM236.721 60.4532C233.904 60.4532 233.541 57.8344 233.541 51.773C233.541 45.715 233.901 43.0962 236.721 43.0962C239.541 43.0962 239.904 45.715 239.904 51.773C239.904 57.8344 239.537 60.4532 236.721 60.4532ZM236.721 63.9862C244.978 63.9862 244.978 57.9684 244.978 51.773C244.978 45.5207 244.978 39.5632 236.721 39.5632C228.471 39.5632 228.471 45.5241 228.471 51.773C228.471 57.9684 228.471 63.9862 236.721 63.9862Z" fill="black"/>
</g>
<defs>
<clipPath id="clip0_4_618">
<rect width="224" height="54" fill="white" transform="translate(21 36)"/>
</clipPath>
</defs>
</svg>
