<svg width="266" height="120" viewBox="0 0 266 120" fill="none" xmlns="http://www.w3.org/2000/svg">
<rect width="266" height="120" rx="8" fill="#F5F5F5"/>
<g clip-path="url(#clip0_4_621)">
<path d="M189.293 48.7959C191.816 48.7959 194.687 51.0001 194.687 54.0448C194.687 55.76 194.144 57.0848 193.345 58.2951C192.833 59.0663 192.442 59.9538 192.281 60.5972C192.107 61.3227 191.727 63.0798 193.861 63.1093C195.25 63.1443 198.667 61.9281 201.427 58.5777C203.551 55.887 204.814 52.4742 204.814 48.7519C204.814 40.0539 197.873 33 189.293 33C180.711 33 173.758 40.0539 173.758 48.7519C173.758 52.4742 175.019 55.887 177.144 58.5777C179.909 61.9281 183.324 63.1439 184.71 63.1093C186.845 63.0798 186.458 61.3227 186.293 60.5972C186.136 59.9543 185.743 59.0663 185.227 58.2951C184.43 57.0848 183.884 55.76 183.884 54.0448C183.891 51.0001 186.758 48.7959 189.293 48.7959ZM216.747 64.7162C216.111 64.1861 214.995 63.4124 212.704 63.0571C209.525 62.5787 206.688 63.329 204.979 64.0113C202.733 64.9061 199.967 66.9397 198.056 69.5885C196.039 72.3878 194.996 76.6129 195.996 81.0175C196.279 82.2572 196.585 82.9554 197.041 83.8249C197.638 85.0061 199.213 86.655 200.591 86.9525C201.68 87.1791 202.531 86.549 202.948 86.0727C205.725 82.8357 216.247 70.2978 217.388 68.6968C218.508 67.1056 217.776 65.5772 216.747 64.7167M173.601 64.0113C171.893 63.329 169.058 62.5791 165.878 63.0571C163.587 63.4128 162.461 64.1861 161.833 64.7162C160.804 65.5772 160.066 67.106 161.192 68.6963C162.327 70.2978 172.847 82.8352 175.624 86.0723C176.041 86.549 176.893 87.1796 177.983 86.9525C179.37 86.655 180.938 85.0057 181.533 83.8245C181.996 82.9554 182.295 82.2568 182.586 81.0175C183.584 76.6129 182.525 72.3874 180.527 69.5881C178.614 66.9397 175.843 64.9061 173.601 64.0113ZM155.087 75.4779H142.118L147.44 68.4244H133.031L127.897 75.2162C125.978 77.9151 125.792 80.6391 125.792 82.5296V83.5983C125.792 84.8338 126.553 85.5054 127.68 85.5054H155.087C156.193 85.5054 156.938 84.892 156.938 83.636V77.3542C156.938 76.0896 156.193 75.4779 155.087 75.4779ZM81.2594 50.5598C81.053 49.3782 80.2574 48.7959 79.2227 48.7959H75.5571C71.7433 48.7959 68.3771 50.8321 66.4912 53.9076C66.4912 53.9076 62.9934 59.537 59.0738 65.8731H83.9578L81.2594 50.5598ZM122.247 50.6658C122.247 49.4098 121.503 48.7959 120.39 48.7959H112.928C111.823 48.7959 111.077 49.4098 111.077 50.6658V64.8984L104.005 52.1027C102.592 49.7446 100.212 48.8485 97.4352 48.7963H91.9206C90.8256 48.7963 90.0772 49.4098 90.0772 50.6663V65.8812H99.3461L100.772 68.4249H90.0776V83.6364C90.0776 84.892 90.8256 85.5161 91.9211 85.5161H99.4001C100.511 85.5161 101.247 84.892 101.247 83.6364L101.243 69.3149L108.381 82.2141C109.78 84.5594 112.169 85.4558 114.927 85.5161H120.39C121.503 85.5161 122.247 84.892 122.247 83.6364V68.4249H113.044L111.623 65.8812H122.247V50.6658ZM84.4 68.4244H72.1107C72.425 70.1546 74.6919 83.0186 74.8257 83.7672C75.0347 84.9253 75.7516 85.5157 76.8029 85.5157H85.258C86.0327 85.5157 86.4231 85.2707 86.7871 84.8257C87.0347 84.5158 87.1379 84.0455 87.0224 83.3572L84.4 68.4244ZM48.3199 83.214C47.9848 83.7899 47.9848 84.3952 48.1895 84.7881C48.4253 85.2477 48.9499 85.5161 49.516 85.5161H58.2969C59.4047 85.5161 60.3943 84.9151 60.9457 84.0164L70.6359 68.4244H57.4912C52.9786 75.7049 48.4334 83.046 48.3199 83.214ZM127.926 58.8111H140.282L134.953 65.8727H149.358L154.612 58.9171C156.234 56.7668 156.61 54.8417 156.61 53.1381V50.7154C156.61 49.4739 155.864 48.7959 154.728 48.7959H127.926C126.821 48.7959 126.081 49.4098 126.081 50.6658V56.9476C126.081 58.2002 126.821 58.8111 127.926 58.8111Z" fill="#007DBA"/>
</g>
<defs>
<clipPath id="clip0_4_621">
<rect width="170" height="54" fill="white" transform="translate(48 33)"/>
</clipPath>
</defs>
</svg>
