<svg width="261" height="40" viewBox="0 0 261 40" fill="none" xmlns="http://www.w3.org/2000/svg">
<path d="M0 19.9828C0 6.67281 9.55377 0.0178223 18.4951 0.0178223C25.3951 0.0178223 29.8045 3.77401 30.7844 5.9379H31.0293V0.752729H40.9506V39.2536H31.0293V34.0685H30.7844C29.8453 36.1915 25.3951 39.9885 18.4951 39.9885C9.51294 39.9477 0 33.2927 0 19.9828ZM31.2335 19.9828C31.6009 14.226 27.1915 9.24497 21.4347 8.91835C21.1081 8.91835 20.8223 8.87752 20.4957 8.91835C14.6981 8.79586 9.8804 13.3686 9.75791 19.1662C9.75791 19.452 9.75791 19.7378 9.75791 20.0236C9.43129 25.8212 13.8407 30.7614 19.6383 31.088C19.9241 31.088 20.2099 31.1288 20.4957 31.088C26.2525 31.2513 31.0702 26.7194 31.2335 20.9218C31.2335 20.5952 31.2335 20.3094 31.2335 19.9828Z" fill="#380000"/>
<path d="M44.8291 29.1691L52.7497 27.046C53.403 30.0265 56.0568 32.1904 59.1189 32.1495C61.6503 32.1495 64.1 30.8839 64.1 28.1484C64.1 26.3111 62.9159 24.9638 59.8947 23.8206L55.1586 22.0242C48.7894 19.7378 46.1356 15.655 46.1356 11.0006C46.0539 4.14146 52.0965 0.0178223 59.3639 0.0178223C66.3047 0.0178223 71.449 3.93732 72.6738 9.85739L64.9165 11.858C64.4266 9.44912 62.2627 7.73434 59.813 7.77517C57.2408 7.77517 55.6894 9.20414 55.6894 11.1231C55.6894 12.7562 56.6284 14.1443 59.6905 15.2059L64.0183 16.839C68.7544 18.5538 73.9395 21.3709 73.9395 28.1484C73.9395 35.8649 67.3662 39.9885 59.2822 39.9885C51.5657 39.9477 45.9315 36.2732 44.8291 29.1691Z" fill="#380000"/>
<path d="M87.9027 0.752686H77.9814V39.2536H87.9027V0.752686Z" fill="#380000"/>
<path d="M92.1084 19.9828C92.1084 6.67281 101.662 0.0178223 110.604 0.0178223C117.503 0.0178223 121.913 3.77401 122.934 5.9379H123.138V0.752729H133.059V39.2536H123.097V34.0685H122.934C121.995 36.1915 117.544 39.9885 110.644 39.9885C101.662 39.9477 92.1084 33.2927 92.1084 19.9828ZM123.383 19.9828C123.383 14.0627 118.565 9.24497 112.645 9.24497C106.725 9.24497 101.907 14.0627 101.907 19.9828C101.907 25.9028 106.725 30.7205 112.645 30.7205C118.565 30.7205 123.342 25.9437 123.383 19.9828Z" fill="#380000"/>
<path d="M157.27 39.9477C168.296 39.9477 177.235 31.0091 177.235 19.9828C177.235 8.95643 168.296 0.0178223 157.27 0.0178223C146.244 0.0178223 137.305 8.95643 137.305 19.9828C137.305 31.0091 146.244 39.9477 157.27 39.9477Z" fill="#FF6D00"/>
<path d="M217.736 16.5941V39.2537H207.815V18.2272C207.815 12.5929 204.794 8.9184 199.609 8.9184C194.423 8.9184 191.402 12.5929 191.402 18.2272V39.2537H181.481V0.752785H191.361V6.01961C193.934 2.05928 198.425 -0.22709 203.12 0.0178783C211.081 0.0178783 217.736 4.87642 217.736 16.5941Z" fill="#FF6D00"/>
<path d="M260.116 23.8206H231.332C232.761 29.0874 237.334 31.8229 243.091 31.8229C246.724 31.9454 250.236 30.6797 253.012 28.3525L257.503 33.1702C253.624 37.6613 247.908 40.1927 241.947 39.9885C231.373 39.9885 221.901 32.762 221.901 20.0236C221.901 7.28523 231.536 0.0586528 241.376 0.0586528C251.256 0.0178247 262.28 6.87694 260.116 23.8206ZM231.21 16.594H251.338C250.726 11.0822 246.153 8.38759 241.498 8.38759C236.517 8.22428 232.149 11.6947 231.21 16.594Z" fill="#FF6D00"/>
</svg>
