<svg width="266" height="120" viewBox="0 0 266 120" fill="none" xmlns="http://www.w3.org/2000/svg">
<rect width="266" height="120" rx="8" fill="#F5F5F5"/>
<g clip-path="url(#clip0_4_624)">
<path d="M16 22H250V98H16V22Z" fill="#FFEF38"/>
<path fill-rule="evenodd" clip-rule="evenodd" d="M28.0156 70.7324L31.0893 68.6689L34.1723 70.7324L28.0156 74.8596V70.7324ZM57.5714 49.2676L54.4883 51.3311L51.4147 49.2676L57.5714 45.1404V49.2676ZM57.5714 64.9469L51.4147 60.8292L44.0304 65.7855L47.1135 67.8491L43.1121 70.5346L34.4909 64.7585L48.6503 55.2698L45.5766 53.2062L28.0156 64.9469L42.7935 74.8596L57.5714 64.9469ZM28.0156 55.0437L34.1723 59.1708L41.5565 54.2145L38.4829 52.1603L42.4842 49.4749L51.1054 55.251L36.9461 64.749L40.0291 66.8126L57.5714 55.0437L42.7935 45.1404L28.0156 55.0437ZM68.4416 58.2003V53.1403H70.222C71.8338 53.1403 72.9771 54.2145 72.9771 55.6656C72.9771 57.5878 71.5152 58.1908 70.475 58.1908H68.807L68.4416 58.2003ZM69.4255 61.2344H70.0534C72.4617 61.2344 73.2207 62.3086 73.2207 64.0612C73.2207 66.8315 70.9436 66.8597 69.9222 66.8597H68.4228V61.2626L69.4255 61.2344ZM97.5006 69.8938V59.086L101.989 69.8938H106.825V53.6868H103.339V64.1648L98.9719 53.6868H94.0147V69.8938H97.5006ZM114.602 70.3744C118.163 70.3744 120.244 68.9516 120.244 64.5323H116.196C116.149 65.8326 116.121 67.8962 114.602 67.8962C112.878 67.8962 112.625 66.8503 112.625 61.828C112.625 56.6361 113.019 55.7598 114.518 55.7598C115.596 55.7598 116.083 56.5796 116.083 58.7845H120.113C120.262 55.2321 118.304 53.291 114.424 53.291C108.643 53.291 108.474 56.9847 108.474 61.828C108.474 66.709 108.324 70.3744 114.602 70.3744ZM82.4229 69.8938L83.435 66.3038H87.783L88.767 69.8938H93.0682L88.2235 53.6868H83.3038L78.3653 69.8938H82.4229ZM87.1364 63.8162H84.0253L85.5059 57.1826L87.1364 63.8162ZM127.712 67.8962C125.876 67.8962 125.641 66.0682 125.641 61.828C125.641 57.5878 125.876 55.7598 127.712 55.7598C129.549 55.7598 129.783 57.5878 129.783 61.828C129.793 66.0682 129.549 67.8962 127.712 67.8962ZM127.712 70.3744C133.981 70.3744 133.981 66.1624 133.981 61.8374C133.981 57.4653 133.981 53.3005 127.712 53.3005C121.443 53.3005 121.443 57.4653 121.443 61.8374C121.443 66.1624 121.443 70.3744 127.712 70.3744ZM227.634 69.8938V53.6868H223.529V69.8938H227.634ZM238.926 69.8938V67.4439H234.137V53.6868H230.033V69.8938H238.926ZM176.947 69.8938C178.877 69.8938 183.675 69.6771 183.675 64.6548C183.675 61.9411 182.832 60.0471 179.599 59.6325C182.073 59.1425 183.31 57.4936 183.31 55.2133C183.31 50.9919 180.442 50.0873 176.975 50.0873H168.888V69.8844H176.947V69.8938ZM173.854 58.2285V53.1685H176.253C177.565 53.1685 178.502 54.2427 178.502 55.6938C178.502 57.6161 177.312 58.2191 176.46 58.2191H175.101L173.854 58.2285ZM175.11 61.2626H176.132C178.09 61.2626 178.709 62.3368 178.709 64.0894C178.709 66.8597 176.853 66.888 176.029 66.888H173.864V61.3003L175.11 61.2626ZM142.528 56.165H144.196C146.435 56.165 146.435 58.8033 146.435 61.7903C146.435 65.8703 146.051 67.4157 144.083 67.4157H142.528V56.165ZM138.442 69.8938H144.571C150.999 69.8938 150.568 64.1743 150.568 61.6772C150.568 56.6078 149.65 53.6397 144.72 53.6397H138.442V69.8938ZM158.374 67.9056C156.537 67.9056 156.303 66.0776 156.303 61.8657C156.303 57.6443 156.537 55.8257 158.374 55.8257C160.21 55.8257 160.445 57.6537 160.445 61.8657C160.445 66.0871 160.21 67.9056 158.374 67.9056ZM158.374 70.3744C164.652 70.3744 164.652 66.1813 164.652 61.8751C164.652 57.5218 164.652 53.3758 158.374 53.3758C152.095 53.3758 152.095 57.5218 152.095 61.8751C152.095 66.1813 152.095 70.3744 158.374 70.3744ZM205.191 63.8256H202.08L203.56 57.192L205.191 63.8256ZM216.576 69.8938C219.275 69.8938 222.011 69.5358 222.011 65.3332C222.011 60.49 215.03 60.9705 215.03 57.8987C215.03 56.7774 215.714 56.1744 216.857 56.1744H220.596V53.6774H215.349C211.029 53.6774 209.96 55.6373 209.96 58.172C209.96 62.9964 217.701 62.8833 217.701 65.5971C217.701 66.6995 217.11 67.4345 215.92 67.4345H210.382L206.278 53.6868H201.358L196.813 68.4333L193.964 62.0918C196.054 61.6961 196.888 60.3675 196.888 57.927C196.897 55.1662 195.258 53.6868 192.718 53.6868H185.034V69.8938H189.241V56.1744H190.638C191.828 56.1744 192.849 57.0413 192.849 58.6337C192.849 59.9812 192.175 61.093 191.097 61.0271L189.926 61.0459L193.749 69.8938H200.468L201.48 66.3038H205.828L206.812 69.8938H216.576ZM71.5339 69.8938C73.4643 69.8938 78.2622 69.6771 78.2622 64.6548C78.2622 61.9411 77.4189 60.0471 74.1859 59.6325C76.6598 59.1425 77.8968 57.4936 77.8968 55.2133C77.8968 50.9919 75.0293 50.0873 71.5621 50.0873H63.475V69.8844H71.5339V69.8938Z" fill="#003DA4"/>
</g>
<defs>
<clipPath id="clip0_4_624">
<rect width="234" height="72" fill="white" transform="translate(16 22)"/>
</clipPath>
</defs>
</svg>
