<svg width="266" height="120" viewBox="0 0 266 120" fill="none" xmlns="http://www.w3.org/2000/svg">
<rect width="266" height="120" rx="8" fill="#F5F5F5"/>
<path fill-rule="evenodd" clip-rule="evenodd" d="M125.11 53.8273V72.9677H129.901V59.7926H134.703V57.5379H129.901V53.3222C129.901 52.2619 130.992 51.299 132.456 51.299C133.924 51.299 136.721 52.9078 136.721 52.9078V49.1892C136.721 48.9563 136.171 48.2291 132.226 48.2291C126.81 48.2291 125.11 50.6571 125.11 53.8273ZM76.1375 73.0002H70.7979V58.0958C70.7979 56.5791 69.7443 55.2899 68.1355 55.2899C66.5267 55.2899 63.8372 56.9921 63.8372 56.9921V73.0164H58.4692V56.1715C58.4692 53.6012 57.3682 53.004 57.3682 52.2267H63.129L63.1425 53.8043C65.3242 53.7881 64.9951 52.0967 69.5913 52.0858C74.8185 52.0682 76.1388 55.6907 76.1388 57.6597L76.1375 73.0002ZM79.1194 73.0002V52.3594C79.1194 49.7837 78.0117 49.1905 78.0117 48.4078H84.3954V73.0002H79.1194ZM89.815 52.2389H96.6659L90.0072 60.3208L97.7912 72.9988H91.2802C91.2802 72.9988 85.8431 62.5227 84.91 61.8361C84.3575 61.4285 84.6663 61.1021 84.91 61.0033C85.1565 60.9112 90.446 55.1247 90.446 53.4631C90.446 52.4379 89.815 52.2389 89.815 52.2389ZM231.467 73.0002H226.125V58.0958C226.125 56.5791 225.07 55.2899 223.461 55.2899C221.858 55.2899 219.166 56.9921 219.166 56.9921V73.0164H213.799V56.1715C213.799 53.6012 212.694 53.004 212.694 52.2267H218.458L218.471 53.8043C220.65 53.7881 220.328 52.0967 224.92 52.0858C230.14 52.0682 231.469 55.6907 231.469 57.6597L231.467 73.0002ZM164.728 52.0845C158.962 52.1292 159.439 55.4429 158.579 55.4212L158.126 52.2253H152.366C152.366 53.0026 153.465 53.5998 153.465 56.1701V73.0151H158.835V61.5829C158.758 55.6623 164.728 56.6468 164.728 56.6468V52.0845ZM144.341 73.0002V50.0559C144.341 47.4829 143.238 46.8884 143.238 46.1111H150.059V73.0002H144.341ZM185.475 73.0002V52.3594C185.475 49.7837 184.376 49.1905 184.376 48.4078H190.756V73.0002H185.475ZM122.763 62.7624C122.814 71.6744 118.265 73.5893 113.367 73.5893C108.469 73.5893 103.763 71.5295 103.763 62.2275C103.763 52.9282 109.794 51.7514 113.56 51.7514C118.647 51.7527 122.711 54.1984 122.763 62.7624ZM113.312 54.3419C110.721 54.3419 109.248 55.9602 109.248 62.1313C109.248 68.2997 109.941 71.0433 113.412 71.0433C116.89 71.0433 117.278 67.9124 117.278 62.2275C117.277 56.5547 116.152 54.3419 113.312 54.3419ZM46.9151 51.5049C50.4902 51.5049 55.3884 52.3851 55.3884 57.4796V68.6451C55.3884 71.4848 56.4622 72.9988 56.4622 72.9988H51.1795C51.1795 72.9988 50.4902 71.9723 50.4902 71.5295C50.4902 70.7007 48.532 73.5459 44.0279 73.4918C40.0628 73.443 37.1675 71.2898 37.1675 67.1256C37.1675 57.871 50.0975 62.8166 50.0975 56.7944C50.0975 54.5437 48.1867 53.8544 46.7702 53.8544C45.3429 53.8544 43.1951 54.0535 43.1951 58.1148H38.5393C38.538 58.1148 37.1215 51.5049 46.9151 51.5049ZM42.8024 66.8318C42.8024 68.985 43.7815 70.7007 45.8399 70.7007C48.6255 70.7007 50.3439 68.2997 50.3439 68.2997V60.8557C47.4541 63.2093 42.8024 61.8849 42.8024 66.8318ZM202.437 51.5049C206.019 51.5049 210.912 52.3851 210.912 57.4796V68.6451C210.912 71.4848 211.983 72.9988 211.983 72.9988H206.705C206.705 72.9988 206.019 71.9723 206.019 71.5295C206.019 70.7007 204.054 73.5459 199.556 73.4918C195.582 73.443 192.69 71.2898 192.69 67.1256C192.69 57.871 205.629 62.8166 205.629 56.7944C205.629 54.5437 203.717 53.8544 202.291 53.8544C200.871 53.8544 198.717 54.0535 198.717 58.1148H194.07C194.068 58.1148 192.64 51.5049 202.437 51.5049ZM198.326 66.8318C198.326 68.985 199.305 70.7007 201.359 70.7007C204.152 70.7007 205.864 68.2997 205.864 68.2997V60.8557C202.976 63.2093 198.326 61.8849 198.326 66.8318ZM26.8553 73.0002H15.4529V52.0615C15.4529 49.4952 14.356 48.8926 14.356 48.1167H27.9292C30.5292 48.1167 34.2817 49.7417 34.2817 53.6594C34.2817 57.4336 31.3946 58.7526 28.7471 59.4365C31.3472 59.5841 35.6562 61.3987 35.6562 65.9028C35.6549 70.7996 31.7087 73.0002 26.8553 73.0002ZM21.1107 50.7222V58.5576H23.5104C24.9756 58.5576 28.5467 58.6564 28.5467 54.4435C28.5467 51.4561 26.1971 50.7222 24.2958 50.7222H21.1107ZM21.1107 60.9071V70.3094H23.9844C25.7516 70.3094 29.4892 70.1306 29.5041 65.5182C29.5149 62.4265 27.0178 60.9071 24.7305 60.9071H21.1107ZM247.24 72.1172C246.807 72.1172 246.074 73.8885 242.19 73.8885C238.333 73.8885 233.584 71.4347 233.584 62.5227C233.584 53.6134 239.07 51.8448 242.35 51.8448C244.601 51.8448 245.466 52.1089 247.079 53.1421C247.057 49.1012 245.974 49.1905 245.974 48.4078H252.356V73.0002H247.566C247.565 72.5113 247.477 72.1172 247.24 72.1172ZM247.144 56.4965C247.144 56.4965 245.826 54.6399 243.714 54.6399C241.61 54.6399 239.455 55.8654 239.455 62.6676C239.455 69.4725 241.169 70.8483 243.525 70.8483C245.284 70.8483 247.144 68.8861 247.144 68.8861V56.4965ZM182.719 62.7042H170.237C170.237 69.9532 171.888 70.7346 174.316 70.7346C176.708 70.7346 177.622 69.7785 177.67 65.3638H182.585C182.585 71.6554 178.381 73.2846 174.296 73.2846C170.206 73.2846 164.727 71.5173 164.727 62.2004C164.727 52.8808 171.151 51.8272 174.228 51.8272C182.441 51.8272 182.719 57.7004 182.719 62.7042ZM170.459 60.4101H177.622C177.622 57.7004 177.53 53.9777 174.133 54.0345C170.505 54.0332 170.459 57.8371 170.459 60.4101Z" fill="black"/>
</svg>
