<svg width="219" height="40" viewBox="0 0 219 40" fill="none" xmlns="http://www.w3.org/2000/svg">
<path d="M0.835205 0H16.7935C19.8332 0 22.1129 0.757857 23.8016 2.02095C25.6592 3.53666 26.6724 5.72602 26.6724 8.42062C26.6724 11.5363 25.4059 13.473 22.8728 14.6519V14.8203C26.2503 15.915 28.1923 18.9464 28.1923 22.5673C28.1923 26.0197 26.8413 28.7143 24.646 30.3984C22.7884 31.7457 20.4242 32.3352 17.2157 32.3352H0.835205V0ZM15.1892 12.6309C16.8779 12.6309 18.1445 11.7047 18.1445 9.76792C18.1445 7.91539 16.8779 6.98912 15.1048 6.98912H9.61649V12.5467H15.1892V12.6309ZM15.9491 25.1777C17.8911 25.1777 19.3265 23.9988 19.3265 21.8936C19.3265 19.6201 17.8067 18.6096 15.9491 18.6096H9.70092V25.2619H15.9491V25.1777ZM29.6277 0H37.9868V32.4194H29.6277V0ZM39.6755 20.8831C39.6755 13.5572 44.4039 8.67324 51.7497 8.67324C59.0956 8.67324 63.7396 13.6414 63.7396 20.8831C63.7396 28.2091 59.0956 33.0931 51.7497 33.0931C44.4039 33.0931 39.6755 28.2091 39.6755 20.8831ZM55.3805 20.8831C55.3805 16.8412 54.1139 14.3151 51.5809 14.3151C49.0478 14.3151 47.8657 16.8412 47.8657 20.8831C47.8657 24.925 49.0478 27.5354 51.5809 27.5354C54.1139 27.4512 55.3805 24.925 55.3805 20.8831ZM64.6684 20.8831C64.6684 13.5572 69.3967 8.67324 76.7426 8.67324C84.0885 8.67324 88.648 13.5572 88.648 20.8831C88.648 28.2091 84.0041 33.0931 76.6582 33.0931C69.3967 33.0931 64.6684 28.2091 64.6684 20.8831ZM80.3733 20.8831C80.3733 16.8412 79.1068 14.3151 76.5737 14.3151C74.0407 14.3151 72.8586 16.8412 72.8586 20.8831C72.8586 24.925 74.0407 27.5354 76.5737 27.5354C79.1068 27.4512 80.3733 24.925 80.3733 20.8831ZM90.3367 9.26268H98.1048V12.7151H98.2736C99.7935 10.0205 101.904 8.58904 105.282 8.58904C108.237 8.58904 110.432 10.0205 111.53 12.5467H111.699C113.556 9.5153 116.005 8.58904 118.876 8.58904C124.28 8.58904 126.559 12.5467 126.559 17.8517V32.3352H118.454V19.2832C118.454 16.9255 117.694 15.4097 115.667 15.4097C113.641 15.4097 112.628 17.2623 112.628 19.7885V32.3352H104.522V19.2832C104.522 16.9255 103.762 15.4097 101.735 15.4097C99.709 15.4097 98.6958 17.2623 98.6958 19.7885V32.3352H90.3367V9.26268ZM136.776 29.3038H136.692V32.3352H128.924V0H137.029V11.6205H137.198C138.718 9.59951 140.829 8.50483 143.784 8.50483C149.61 8.50483 152.988 13.7256 152.988 20.7147C152.988 28.5459 149.357 33.0931 143.278 33.0931C140.745 33.0931 138.127 31.9142 136.776 29.3038ZM144.629 20.6305C144.629 16.9255 143.278 14.4835 140.829 14.4835C138.296 14.4835 136.776 16.9255 136.776 20.6305C136.776 24.3356 138.38 26.7776 140.829 26.7776C143.278 26.7776 144.629 24.4198 144.629 20.6305ZM153.917 20.7989C153.917 13.5572 158.729 8.58904 165.653 8.58904C169.115 8.58904 171.732 9.68372 173.759 11.6205C176.461 14.2309 177.643 18.2728 177.558 22.9883H162.022C162.36 25.8513 163.711 27.367 166.16 27.367C167.595 27.367 168.862 26.6934 169.368 25.1777H177.221C175.87 30.4827 171.732 33.0931 165.906 33.0931C158.729 33.0088 153.917 28.1249 153.917 20.7989ZM162.022 18.357H169.453C169.284 15.5782 167.764 14.1466 165.822 14.1466C163.542 14.0624 162.276 15.6624 162.022 18.357ZM186.762 13.2204H186.931C188.619 10.0205 190.815 8.75745 193.601 8.75745C194.277 8.75745 194.699 8.84165 194.952 9.01007V16.0834H194.783C189.97 15.2413 187.184 17.5149 187.184 22.7357V32.4194H178.994V9.26268H186.762V13.2204ZM195.797 32.4194H203.649C203.987 33.4299 205 34.3561 206.942 34.3561C209.559 34.3561 210.488 32.7562 210.488 30.3142V28.6301H210.319C209.053 30.1458 207.28 31.2405 204.747 31.2405C199.765 31.2405 195.374 27.5354 195.374 20.2937C195.374 13.6414 198.921 8.50483 204.324 8.50483C207.449 8.50483 209.306 9.76792 210.573 11.7047H210.742V9.17848H218.51V29.2196C218.51 32.9246 217.243 35.7876 215.301 37.4718C213.275 39.2401 210.404 39.998 207.111 39.998C200.863 40.0822 196.556 37.556 195.797 32.4194ZM210.826 19.9569C210.826 17.0939 209.475 14.7361 207.111 14.7361C204.831 14.7361 203.396 16.757 203.396 19.9569C203.396 23.0725 204.831 25.2619 207.111 25.2619C209.391 25.2619 210.826 22.9883 210.826 19.9569Z" fill="black"/>
</svg>
