<svg width="71" height="71" viewBox="0 0 71 71" fill="none" xmlns="http://www.w3.org/2000/svg">
<circle cx="35.5" cy="35.5" r="35.5" fill="#4580FF"/>
<path d="M29.3585 46.42C27.9305 46.42 26.6705 46.1167 25.5785 45.51C24.4865 44.894 23.6325 44.04 23.0165 42.948C22.4098 41.856 22.1065 40.596 22.1065 39.168V32.672C22.1065 31.244 22.4098 29.984 23.0165 28.892C23.6325 27.8 24.4865 26.9507 25.5785 26.344C26.6705 25.728 27.9305 25.42 29.3585 25.42C30.7865 25.42 32.0418 25.728 33.1245 26.344C34.2165 26.9507 35.0705 27.8 35.6865 28.892C36.3025 29.984 36.6105 31.244 36.6105 32.672V39.168C36.6105 40.596 36.3025 41.856 35.6865 42.948C35.0705 44.04 34.2165 44.894 33.1245 45.51C32.0418 46.1167 30.7865 46.42 29.3585 46.42ZM29.3585 43.214C30.0678 43.214 30.7118 43.046 31.2905 42.71C31.8692 42.3647 32.3265 41.9073 32.6625 41.338C32.9985 40.7593 33.1665 40.1153 33.1665 39.406V32.42C33.1665 31.7013 32.9985 31.0573 32.6625 30.488C32.3265 29.9093 31.8692 29.452 31.2905 29.116C30.7118 28.7707 30.0678 28.598 29.3585 28.598C28.6492 28.598 28.0052 28.7707 27.4265 29.116C26.8478 29.452 26.3905 29.9093 26.0545 30.488C25.7185 31.0573 25.5505 31.7013 25.5505 32.42V39.406C25.5505 40.1153 25.7185 40.7593 26.0545 41.338C26.3905 41.9073 26.8478 42.3647 27.4265 42.71C28.0052 43.046 28.6492 43.214 29.3585 43.214ZM44.0362 46V29.522L40.2562 31.832V28.108L44.0362 25.84H47.4802V46H44.0362Z" fill="white"/>
</svg>
