<svg width="71" height="71" viewBox="0 0 71 71" fill="none" xmlns="http://www.w3.org/2000/svg">
<circle cx="35.5" cy="35.5" r="35.5" fill="#4580FF"/>
<path d="M27.3624 46.42C25.9344 46.42 24.6744 46.1167 23.5824 45.51C22.4904 44.894 21.6364 44.04 21.0204 42.948C20.4137 41.856 20.1104 40.596 20.1104 39.168V32.672C20.1104 31.244 20.4137 29.984 21.0204 28.892C21.6364 27.8 22.4904 26.9507 23.5824 26.344C24.6744 25.728 25.9344 25.42 27.3624 25.42C28.7904 25.42 30.0457 25.728 31.1284 26.344C32.2204 26.9507 33.0744 27.8 33.6904 28.892C34.3064 29.984 34.6144 31.244 34.6144 32.672V39.168C34.6144 40.596 34.3064 41.856 33.6904 42.948C33.0744 44.04 32.2204 44.894 31.1284 45.51C30.0457 46.1167 28.7904 46.42 27.3624 46.42ZM27.3624 43.214C28.0717 43.214 28.7157 43.046 29.2944 42.71C29.8731 42.3647 30.3304 41.9073 30.6664 41.338C31.0024 40.7593 31.1704 40.1153 31.1704 39.406V32.42C31.1704 31.7013 31.0024 31.0573 30.6664 30.488C30.3304 29.9093 29.8731 29.452 29.2944 29.116C28.7157 28.7707 28.0717 28.598 27.3624 28.598C26.6531 28.598 26.0091 28.7707 25.4304 29.116C24.8517 29.452 24.3944 29.9093 24.0584 30.488C23.7224 31.0573 23.5544 31.7013 23.5544 32.42V39.406C23.5544 40.1153 23.7224 40.7593 24.0584 41.338C24.3944 41.9073 24.8517 42.3647 25.4304 42.71C26.0091 43.046 26.6531 43.214 27.3624 43.214ZM44.3081 46.378C43.3001 46.378 42.3481 46.182 41.4521 45.79C40.5561 45.398 39.7767 44.8427 39.1141 44.124C38.4607 43.4053 37.9894 42.556 37.7001 41.576L40.9621 40.694C41.1954 41.4967 41.6201 42.1173 42.2361 42.556C42.8614 42.9853 43.5474 43.1953 44.2941 43.186C44.9567 43.186 45.5494 43.032 46.0721 42.724C46.5947 42.416 47.0054 42.0007 47.3041 41.478C47.6027 40.946 47.7521 40.3533 47.7521 39.7C47.7521 38.7013 47.4301 37.866 46.7861 37.194C46.1421 36.522 45.3114 36.186 44.2941 36.186C43.9861 36.186 43.6827 36.228 43.3841 36.312C43.0947 36.396 42.8147 36.5127 42.5441 36.662L41.0041 34.002L47.7801 28.206L48.0741 29.018H38.4841V25.84H50.8461V29.032L45.4001 34.268L45.3721 33.274C46.5947 33.358 47.6354 33.6987 48.4941 34.296C49.3621 34.8933 50.0247 35.6633 50.4821 36.606C50.9487 37.5487 51.1821 38.58 51.1821 39.7C51.1821 40.9693 50.8694 42.108 50.2441 43.116C49.6281 44.124 48.7974 44.922 47.7521 45.51C46.7161 46.0887 45.5681 46.378 44.3081 46.378Z" fill="white"/>
</svg>
