<svg width="71" height="71" viewBox="0 0 71 71" fill="none" xmlns="http://www.w3.org/2000/svg">
<circle cx="35.5" cy="35.5" r="35.5" fill="#4580FF"/>
<path d="M26.4796 46.42C25.0516 46.42 23.7916 46.1167 22.6996 45.51C21.6076 44.894 20.7536 44.04 20.1376 42.948C19.5309 41.856 19.2276 40.596 19.2276 39.168V32.672C19.2276 31.244 19.5309 29.984 20.1376 28.892C20.7536 27.8 21.6076 26.9507 22.6996 26.344C23.7916 25.728 25.0516 25.42 26.4796 25.42C27.9076 25.42 29.1629 25.728 30.2456 26.344C31.3376 26.9507 32.1916 27.8 32.8076 28.892C33.4236 29.984 33.7316 31.244 33.7316 32.672V39.168C33.7316 40.596 33.4236 41.856 32.8076 42.948C32.1916 44.04 31.3376 44.894 30.2456 45.51C29.1629 46.1167 27.9076 46.42 26.4796 46.42ZM26.4796 43.214C27.1889 43.214 27.8329 43.046 28.4116 42.71C28.9902 42.3647 29.4476 41.9073 29.7836 41.338C30.1196 40.7593 30.2876 40.1153 30.2876 39.406V32.42C30.2876 31.7013 30.1196 31.0573 29.7836 30.488C29.4476 29.9093 28.9902 29.452 28.4116 29.116C27.8329 28.7707 27.1889 28.598 26.4796 28.598C25.7702 28.598 25.1262 28.7707 24.5476 29.116C23.9689 29.452 23.5116 29.9093 23.1756 30.488C22.8396 31.0573 22.6716 31.7013 22.6716 32.42V39.406C22.6716 40.1153 22.8396 40.7593 23.1756 41.338C23.5116 41.9073 23.9689 42.3647 24.5476 42.71C25.1262 43.046 25.7702 43.214 26.4796 43.214ZM46.0293 46V42.668H37.0973V39.518L43.5513 25.84H47.4013L40.9473 39.518H46.0293V34.268H49.4453V39.518H51.3353V42.668H49.4453V46H46.0293Z" fill="white"/>
</svg>
