<svg width="71" height="71" viewBox="0 0 71 71" fill="none" xmlns="http://www.w3.org/2000/svg">
<circle cx="35.5" cy="35.5" r="35.5" fill="#4580FF"/>
<path d="M26.6573 46.42C25.2293 46.42 23.9693 46.1167 22.8773 45.51C21.7853 44.894 20.9313 44.04 20.3153 42.948C19.7086 41.856 19.4053 40.596 19.4053 39.168V32.672C19.4053 31.244 19.7086 29.984 20.3153 28.892C20.9313 27.8 21.7853 26.9507 22.8773 26.344C23.9693 25.728 25.2293 25.42 26.6573 25.42C28.0853 25.42 29.3406 25.728 30.4233 26.344C31.5153 26.9507 32.3693 27.8 32.9853 28.892C33.6013 29.984 33.9093 31.244 33.9093 32.672V39.168C33.9093 40.596 33.6013 41.856 32.9853 42.948C32.3693 44.04 31.5153 44.894 30.4233 45.51C29.3406 46.1167 28.0853 46.42 26.6573 46.42ZM26.6573 43.214C27.3666 43.214 28.0106 43.046 28.5893 42.71C29.168 42.3647 29.6253 41.9073 29.9613 41.338C30.2973 40.7593 30.4653 40.1153 30.4653 39.406V32.42C30.4653 31.7013 30.2973 31.0573 29.9613 30.488C29.6253 29.9093 29.168 29.452 28.5893 29.116C28.0106 28.7707 27.3666 28.598 26.6573 28.598C25.948 28.598 25.304 28.7707 24.7253 29.116C24.1466 29.452 23.6893 29.9093 23.3533 30.488C23.0173 31.0573 22.8493 31.7013 22.8493 32.42V39.406C22.8493 40.1153 23.0173 40.7593 23.3533 41.338C23.6893 41.9073 24.1466 42.3647 24.7253 42.71C25.304 43.046 25.948 43.214 26.6573 43.214ZM37.275 45.972V43.032L45.899 35.346C46.571 34.7487 47.0377 34.184 47.299 33.652C47.5603 33.12 47.691 32.6067 47.691 32.112C47.691 31.44 47.5463 30.8427 47.257 30.32C46.9677 29.788 46.5663 29.368 46.053 29.06C45.549 28.752 44.9657 28.598 44.303 28.598C43.603 28.598 42.9823 28.7613 42.441 29.088C41.909 29.4053 41.4937 29.83 41.195 30.362C40.8963 30.894 40.7563 31.468 40.775 32.084H37.303C37.303 30.74 37.6017 29.5687 38.199 28.57C38.8057 27.5713 39.6363 26.7967 40.691 26.246C41.755 25.6953 42.9823 25.42 44.373 25.42C45.661 25.42 46.8183 25.7093 47.845 26.288C48.8717 26.8573 49.679 27.6507 50.267 28.668C50.855 29.676 51.149 30.838 51.149 32.154C51.149 33.1153 51.0183 33.9227 50.757 34.576C50.4957 35.2293 50.1037 35.8313 49.581 36.382C49.0677 36.9327 48.4283 37.544 47.663 38.216L41.545 43.634L41.237 42.794H51.149V45.972H37.275Z" fill="white"/>
</svg>
