<svg width="137" height="137" viewBox="0 0 137 137" fill="none" xmlns="http://www.w3.org/2000/svg">
<rect x="0.428711" y="0.428589" width="135.714" height="135.714" rx="67.8571" fill="white"/>
<path d="M88.5153 53.478V60.7183C88.5145 61.0381 88.387 61.3445 88.1609 61.5706C87.9348 61.7967 87.6284 61.9242 87.3086 61.9251H42.6576C40.9011 61.926 39.2042 61.288 37.8834 60.13C36.5626 58.9721 35.7081 57.3732 35.4792 55.6317C35.2503 53.8902 35.6627 52.1248 36.6394 50.6649C37.6161 49.205 39.0905 48.1502 40.7876 47.6972C41.396 47.5255 42.0254 47.4397 42.6576 47.4422H82.4815C84.082 47.4425 85.6169 48.0786 86.7484 49.2105C87.88 50.3424 88.5156 51.8775 88.5153 53.478Z" fill="#C6E5FF"/>
<path d="M88.5154 53.4781V60.7184C88.5145 61.0381 88.3871 61.3445 88.161 61.5706C87.9349 61.7968 87.6284 61.9242 87.3087 61.9251H42.6576C41.3905 61.9277 40.1453 61.5947 39.0488 60.9598C39.0372 60.5858 39.0372 60.2115 39.0372 59.8264C39.0302 55.7208 39.6197 51.6359 40.7873 47.6998C41.3957 47.528 42.0252 47.4422 42.6573 47.4448H82.4815C84.0816 47.4451 85.6161 48.0808 86.7476 49.2122C87.8791 50.3435 88.5149 51.878 88.5154 53.4781Z" fill="#EAF7FF"/>
<path d="M88.5154 53.478V60.7183C88.5145 61.0381 88.387 61.3445 88.1609 61.5706C87.9348 61.7967 87.6284 61.9242 87.3086 61.9251H61.797C60.0159 57.319 59.4387 52.3348 60.12 47.4436H82.4815C84.0818 47.4439 85.6164 48.0798 86.7479 49.2114C87.8795 50.343 88.5152 51.8777 88.5154 53.478Z" fill="white"/>
<path d="M91.6646 59.7049C91.6666 59.7455 91.6626 59.7861 91.653 59.8256C91.5289 60.6102 91.1758 61.3407 90.6381 61.9254C90.5025 62.0753 90.3574 62.2164 90.2038 62.3478L71.5834 77.9756L62.8715 85.289C62.6569 85.4734 62.3819 85.5721 62.0991 85.5664C61.9247 85.567 61.7523 85.5295 61.594 85.4566C61.4356 85.3836 61.2951 85.2769 61.1822 85.144L41.0038 61.1167C40.8017 60.8696 40.7023 60.5542 40.7261 60.2359C40.7382 60.0777 40.7818 59.9235 40.8544 59.7824C40.9269 59.6412 41.0269 59.5161 41.1486 59.4142L47.1708 54.359L64.7415 39.612L68.4815 36.4741C69.2466 35.8182 70.2259 35.4661 71.2335 35.4847C71.7313 35.4883 72.2223 35.6003 72.6725 35.8128C73.1226 36.0254 73.5211 36.3334 73.8401 36.7155L90.9047 57.0379C91.2189 57.4048 91.4458 57.8381 91.5686 58.3052C91.698 58.76 91.7307 59.2367 91.6646 59.7049Z" fill="#FE9C39"/>
<path d="M91.6647 59.7049C91.6666 59.7455 91.6627 59.7861 91.6531 59.8256C91.529 60.6102 91.1759 61.3407 90.6382 61.9254C90.5026 62.0753 90.3575 62.2164 90.2039 62.3478L71.5835 77.9756C66.0344 76.0647 60.9723 72.9593 56.7542 68.8787C52.536 64.7981 49.2647 59.8417 47.1709 54.359L64.7415 39.612L68.4815 36.4741C69.2466 35.8182 70.226 35.4661 71.2335 35.4847C71.7313 35.4883 72.2224 35.6003 72.6725 35.8128C73.1227 36.0254 73.5211 36.3334 73.8402 36.7155L90.9048 57.0379C91.2189 57.4048 91.4459 57.8381 91.5687 58.3052C91.698 58.76 91.7308 59.2367 91.6647 59.7049Z" fill="#FED154"/>
<path d="M91.6649 59.7049C91.5082 59.7171 91.3515 59.7171 91.1948 59.7171C85.1911 59.73 79.3496 57.7691 74.5697 54.1362C69.7898 50.5034 66.3366 45.4001 64.7417 39.612L68.4817 36.4741C69.2468 35.8182 70.2261 35.4661 71.2337 35.4847C71.7315 35.4883 72.2225 35.6003 72.6727 35.8128C73.1228 36.0254 73.5213 36.3334 73.8404 36.7155L90.905 57.0379C91.2191 57.4048 91.4461 57.8381 91.5688 58.3052C91.6982 58.76 91.7309 59.2367 91.6649 59.7049Z" fill="#FEEC88"/>
<path d="M58.2215 80.9501C58.0452 80.9504 57.8711 80.912 57.7114 80.8376C57.5517 80.7632 57.4103 80.6545 57.2972 80.5194L44.883 65.7362C44.6769 65.4907 44.5768 65.1733 44.6047 64.854C44.6325 64.5347 44.786 64.2395 45.0314 64.0334L66.0548 46.3902C66.3001 46.1848 66.6168 46.0851 66.9355 46.1129C67.2542 46.1408 67.5488 46.2939 67.7548 46.5387C68.6875 47.6502 71.5475 47.1807 72.9197 46.0287C73.1649 45.8233 73.4817 45.7236 73.8004 45.7514C74.119 45.7792 74.4137 45.9323 74.6197 46.1771L81.7135 54.6267C81.9194 54.8716 82.0195 55.1883 81.992 55.5071C81.9644 55.8259 81.8113 56.1207 81.5664 56.3267C80.1942 57.4779 79.236 60.2101 80.1702 61.3238C80.2722 61.4452 80.3492 61.5855 80.3969 61.7367C80.4446 61.8879 80.4619 62.047 80.448 62.2049C80.4341 62.3629 80.3891 62.5165 80.3157 62.657C80.2423 62.7975 80.1419 62.9222 80.0203 63.0238L58.9969 80.6673C58.7801 80.8501 58.5057 80.9505 58.222 80.9506M47.5078 65.1075L58.3688 78.0442L77.6967 61.8262C76.8736 59.7579 77.8066 57.0532 79.17 55.3529L73.4668 48.5574C71.5554 49.6074 68.7292 50.0562 66.8331 48.8906L47.5078 65.1075Z" fill="white"/>
<path d="M95.7562 65.5458V94.5087C95.7558 96.1091 95.1198 97.644 93.9881 98.7757C92.8564 99.9074 91.3216 100.543 89.7212 100.544H41.4516C39.8512 100.543 38.3164 99.9074 37.1847 98.7757C36.053 97.644 35.417 96.1091 35.4166 94.5087V55.8915C35.4121 55.7758 35.4326 55.6605 35.4767 55.5535C35.6091 56.6692 36.0012 57.7384 36.6215 58.6752C37.2418 59.612 38.0731 60.3904 39.0487 60.9479C40.1419 61.5921 41.3886 61.9297 42.6575 61.9253H90.6383C91.1757 61.3405 91.5285 60.6101 91.6524 59.8256C92.8486 60.2303 93.8878 60.9998 94.624 62.0259C95.3601 63.0519 95.7561 64.283 95.7562 65.5458Z" fill="#566FF8"/>
<path d="M95.7563 65.5458V94.5087C95.7559 96.1091 95.12 97.6439 93.9883 98.7757C92.8566 99.9074 91.3218 100.543 89.7213 100.544H68.0367C51.4792 94.7382 39.5197 79.2549 39.0488 60.9478C40.1421 61.5921 41.3887 61.9297 42.6576 61.9253H90.6384C91.1758 61.3405 91.5286 60.6101 91.6525 59.8256C92.8487 60.2303 93.888 60.9998 94.6241 62.0259C95.3602 63.0519 95.7562 64.283 95.7563 65.5458Z" fill="#6C95F8"/>
<path d="M95.7561 65.5458V80.1601C93.6949 80.6119 91.5907 80.8384 89.4805 80.8359C83.496 80.8491 77.6477 79.0494 72.7061 75.6738C67.7644 72.2981 63.961 67.5049 61.7969 61.9253H90.6382C91.1756 61.3405 91.5284 60.6101 91.6523 59.8256C92.8485 60.2303 93.8878 60.9998 94.6239 62.0259C95.36 63.0519 95.756 64.283 95.7561 65.5458Z" fill="#8FB6F8"/>
<path d="M100.583 76.4068V86.0614C100.58 87.0207 100.198 87.9399 99.5197 88.6182C98.8414 89.2965 97.9222 89.6788 96.9629 89.6815H87.3086C85.0689 89.6791 82.9216 88.7883 81.3379 87.2046C79.7543 85.6209 78.8634 83.4736 78.861 81.234C78.8582 80.7767 78.8988 80.3202 78.982 79.8706C79.3052 77.8946 80.3198 76.0977 81.8449 74.8003C83.37 73.503 85.3063 72.7895 87.3086 72.7872H96.9629C97.787 72.7908 98.586 73.0713 99.2315 73.5837C99.6527 73.924 99.9927 74.354 100.227 74.8424C100.46 75.3309 100.582 75.8653 100.583 76.4068Z" fill="#FE9C39"/>
<path d="M99.2315 73.5831C97.6233 79.5557 94.6395 85.0689 90.5187 89.6815H87.3086C85.0689 89.6791 82.9216 88.7883 81.3379 87.2046C79.7543 85.6209 78.8634 83.4736 78.861 81.234C78.8582 80.7767 78.8988 80.3202 78.982 79.8706C79.3052 77.8946 80.3198 76.0977 81.8449 74.8003C83.37 73.503 85.3063 72.7895 87.3086 72.7872H96.9629C97.7869 72.7907 98.5859 73.071 99.2315 73.5831Z" fill="#FED154"/>
<path d="M87.9486 72.7866C85.4915 75.7524 82.436 78.1662 78.9819 79.87C79.3052 77.894 80.3198 76.0971 81.8449 74.7997C83.37 73.5023 85.3063 72.7889 87.3085 72.7866H87.9486Z" fill="#FEEC88"/>
<path d="M92.1355 81.234C92.1356 81.7114 91.9941 82.1781 91.7289 82.5751C91.4637 82.9721 91.0867 83.2815 90.6456 83.4642C90.2046 83.6469 89.7192 83.6948 89.251 83.6016C88.7828 83.5085 88.3526 83.2786 88.0151 82.941C87.6775 82.6034 87.4476 82.1733 87.3545 81.7051C87.2613 81.2369 87.3092 80.7515 87.4919 80.3105C87.6746 79.8694 87.984 79.4924 88.381 79.2272C88.778 78.962 89.2447 78.8205 89.7221 78.8206C90.3621 78.8208 90.9759 79.0751 91.4284 79.5277C91.881 79.9802 92.1353 80.594 92.1355 81.234Z" fill="white"/>
<path d="M45.071 88.4749C44.9125 88.4749 44.7556 88.4437 44.6091 88.3831C44.4627 88.3224 44.3297 88.2336 44.2176 88.1215C44.1056 88.0094 44.0167 87.8764 43.956 87.73C43.8954 87.5836 43.8642 87.4266 43.8643 87.2681V75.2001C43.8643 74.8801 43.9914 74.5732 44.2177 74.3468C44.444 74.1205 44.7509 73.9934 45.071 73.9934C45.391 73.9934 45.6979 74.1205 45.9243 74.3468C46.1506 74.5732 46.2777 74.8801 46.2777 75.2001V87.2681C46.2777 87.4266 46.2465 87.5836 46.1859 87.73C46.1253 87.8764 46.0364 88.0094 45.9243 88.1215C45.8123 88.2336 45.6792 88.3224 45.5328 88.3831C45.3864 88.4437 45.2295 88.4749 45.071 88.4749Z" fill="white"/>
</svg>
