<svg width="115" height="115" viewBox="0 0 115 115" fill="none" xmlns="http://www.w3.org/2000/svg">
<g clip-path="url(#clip0_7_4069)">
<path d="M2.13184 93.1897H6.09735V97.1552H2.13184V93.1897Z" fill="black"/>
<path d="M10.063 101.121H14.0285V105.086H10.063V101.121Z" fill="black"/>
<path d="M17.9939 111.034H21.9594V115H17.9939V111.034Z" fill="black"/>
<path d="M109.201 93.1897H113.166V97.1552H109.201V93.1897Z" fill="black"/>
<path d="M101.27 101.121H105.235V105.086H101.27V101.121Z" fill="black"/>
<path d="M93.3389 111.034H97.3044V115H93.3389V111.034Z" fill="black"/>
<path d="M47.7354 0H51.7009V3.96552H47.7354V0Z" fill="black"/>
<path d="M59.6319 87.2415H53.6836V95.1725H59.6319C61.8189 95.1725 63.5974 93.394 63.5974 91.207C63.5974 89.0199 61.8189 87.2415 59.6319 87.2415Z" fill="black"/>
<path d="M53.6836 75.3447V83.2758H59.6319C61.8189 83.2758 63.5974 81.4973 63.5974 79.3102C63.5974 77.1232 61.8189 75.3447 59.6319 75.3447H53.6836Z" fill="black"/>
<path d="M54.9838 53.6689C55.4281 51.6804 55.6663 49.6405 55.6663 47.5861H41.0289L35.6993 58.2454L29.9534 44.8356L21.5228 65.9131L15.3857 41.3706L11.2876 49.5688H0.249756C0.454034 52.4442 1.11624 55.1899 2.13183 57.7574V89.224H6.09734V64.6593C7.27654 66.1648 8.6029 67.5405 10.0629 68.7739V97.1551H14.0284V71.566C15.2908 72.3009 16.6133 72.9398 17.9939 73.4714V107.069H21.9594V74.6748C23.7611 75.0707 25.6248 75.3031 27.5408 75.3273C31.4521 63.4995 42.1355 54.7455 54.9838 53.6689Z" fill="black"/>
<path d="M16.6336 30.0087L22.3931 53.0525L29.8246 34.4748L35.9752 48.8236L38.5766 43.6208H55.3468C54.8153 39.9273 53.5344 36.4807 51.6988 33.404V7.93115H47.7333V28.2147C46.5212 26.9716 45.191 25.8515 43.7678 24.8524V11.8967H39.8023V22.5259C36.195 20.8036 32.1646 19.8277 27.9057 19.8277C13.2684 19.8277 1.27113 31.2228 0.247803 45.6036H8.83524L16.6336 30.0087Z" fill="black"/>
<path d="M57.649 57.5C42.3417 57.5 29.8904 69.9513 29.8904 85.2586C29.8904 100.566 42.3417 113.017 57.649 113.017C72.9554 113.017 85.4076 100.566 85.4076 85.2586C85.4076 69.9513 72.9554 57.5 57.649 57.5ZM57.649 109.052C44.5287 109.052 33.8559 98.3789 33.8559 85.2586C33.8559 79.7053 35.8125 74.3002 39.3695 70.0346L42.4133 72.575C39.4527 76.1281 37.8214 80.6309 37.8214 85.2586C37.8214 96.1919 46.7158 105.086 57.649 105.086C62.2767 105.086 66.7796 103.454 70.3307 100.494L72.8702 103.538C68.6074 107.095 63.2023 109.052 57.649 109.052ZM67.5628 79.3103C67.5628 81.6755 66.5211 83.8054 64.8714 85.2586C66.5211 86.7118 67.5628 88.8417 67.5628 91.2069C67.5628 95.581 64.0049 99.1379 59.6318 99.1379V103.103H55.6662V99.1379H49.718V71.3793H55.6662V67.4138H59.6318V71.3793C64.0049 71.3793 67.5628 74.9363 67.5628 79.3103ZM75.9276 100.483L72.8837 97.9423C75.8443 94.3911 77.4766 89.8863 77.4766 85.2586C77.4766 74.3254 68.5813 65.431 57.649 65.431C53.0213 65.431 48.5184 67.0633 44.9673 70.0229L42.4269 66.9791C46.6896 63.4221 52.0967 61.4655 57.6509 61.4655C70.7703 61.4655 81.444 72.1383 81.444 85.2586C81.4421 90.8119 79.4845 96.219 75.9276 100.483Z" fill="black"/>
<path d="M85.4077 48.8011V36.2908L78.5823 46.527L85.4077 48.8011Z" fill="black"/>
<path d="M85.4077 58.8815V52.9817L80.3491 51.2942L85.4077 58.8815Z" fill="black"/>
<path d="M89.3733 36.2908V48.8011L96.1977 46.527L89.3733 36.2908Z" fill="black"/>
<path d="M115.149 47.5863C115.149 32.279 102.697 19.8277 87.3905 19.8277C83.1287 19.8277 79.1061 20.821 75.4939 22.5443V11.8967H71.5284V24.8378C70.1023 25.835 68.774 26.9561 67.5629 28.1954V7.93115H63.5974V33.3624C61.0966 37.5273 59.6318 42.3835 59.6318 47.5863C59.6318 49.6446 59.869 51.6825 60.3134 53.6692C73.1616 54.7458 83.8451 63.4978 87.7564 75.3256C89.6704 75.2994 91.536 75.0777 93.3387 74.6827V107.067H97.3042V73.4648C98.68 72.9362 100.008 72.3137 101.27 71.5818V97.1553H105.235V68.8177C106.696 67.5882 108.019 66.2008 109.201 64.6992V89.2243H113.166V57.8351C114.433 54.6606 115.149 51.2091 115.149 47.5863ZM87.3905 69.0065L73.1103 47.5863L87.3905 26.169L101.67 47.5883L87.3905 69.0065Z" fill="black"/>
<path d="M89.3733 58.8815L94.4309 51.2942L89.3733 52.9817V58.8815Z" fill="black"/>
<path d="M63.5974 0H67.5629V3.96552H63.5974V0Z" fill="black"/>
</g>
<defs>
<clipPath id="clip0_7_4069">
<rect width="115" height="115" fill="white"/>
</clipPath>
</defs>
</svg>
