<svg width="217" height="68" viewBox="0 0 217 68" fill="none" xmlns="http://www.w3.org/2000/svg">
<path d="M6.76 0H209.41C213.14 0 216.17 3.01999 216.17 6.75999V60.8C216.17 64.53 213.15 67.56 209.41 67.56H6.76C3.03 67.56 0 64.54 0 60.8V6.75999C0.01 3.01999 3.03 0 6.76 0Z" fill="black"/>
<path fill-rule="evenodd" clip-rule="evenodd" d="M42.48 11.48C42.84 13.94 41.84 16.35 40.52 18.06C39.11 19.89 36.67 21.31 34.31 21.23C33.88 18.87 34.98 16.44 36.33 14.81C37.79 13.01 40.32 11.63 42.48 11.48ZM49.57 46.13C50.79 44.26 51.24 43.32 52.19 41.22C45.32 38.61 44.21 28.83 51.02 25.08C48.94 22.48 46.03 20.97 43.28 20.97C41.3 20.97 39.94 21.49 38.7 21.96C37.67 22.35 36.73 22.71 35.58 22.71C34.34 22.71 33.24 22.32 32.09 21.9C30.83 21.45 29.5 20.97 27.85 20.97C24.76 20.97 21.47 22.86 19.39 26.08C16.46 30.62 16.96 39.17 21.71 46.45C23.41 49.05 25.68 51.98 28.65 52.01C29.88 52.02 30.7 51.65 31.59 51.26C32.61 50.8 33.71 50.31 35.62 50.3C37.54 50.29 38.63 50.79 39.63 51.25C40.49 51.65 41.3 52.02 42.52 52C45.48 51.98 47.87 48.74 49.57 46.13Z" fill="white"/>
<path d="M69.1199 14.19V22.29H71.9799C74.6199 22.29 75.5799 20.57 75.5799 18.22C75.5799 15.85 74.5899 14.18 71.9799 14.18H69.1199V14.19ZM70.5599 15.39H71.8099C73.5399 15.39 74.1099 16.57 74.1099 18.25C74.1099 20.25 73.3199 21.09 71.8099 21.09H70.5599V15.39ZM79.0499 17.72C79.0499 16.08 79.8799 15.24 80.9999 15.24C82.1299 15.24 82.9499 16.08 82.9499 17.72V18.82C82.9499 20.46 82.1299 21.24 80.9999 21.24C79.8799 21.24 79.0499 20.46 79.0499 18.82V17.72ZM77.5999 18.81C77.5999 21.1 78.8899 22.45 80.9999 22.45C83.1099 22.45 84.4099 21.1 84.4099 18.81V17.73C84.4099 15.43 83.1199 14.03 81.0099 14.03C78.9099 14.03 77.5999 15.43 77.5999 17.73V18.81ZM89.4899 22.29L91.0499 16.45H91.0999L92.6599 22.29H93.9699L96.1399 14.19H94.5999L93.2599 20.14H93.1999L91.7199 14.19H90.4299L88.9499 20.14H88.8999L87.5499 14.19H86.0099L88.1699 22.29H89.4899ZM99.4199 22.29V16.6H99.4599L103.22 22.29H104.45V14.19H103.11V19.86H103.06L99.3099 14.19H98.0699V22.29H99.4199ZM112.17 21.06H108.64V14.19H107.2V22.29H112.16V21.06H112.17ZM115.21 17.72C115.21 16.08 116.04 15.24 117.16 15.24C118.29 15.24 119.11 16.08 119.11 17.72V18.82C119.11 20.46 118.29 21.24 117.16 21.24C116.04 21.24 115.21 20.46 115.21 18.82V17.72ZM113.75 18.81C113.75 21.1 115.04 22.45 117.15 22.45C119.26 22.45 120.56 21.1 120.56 18.81V17.73C120.56 15.43 119.27 14.03 117.16 14.03C115.06 14.03 113.75 15.43 113.75 17.73V18.81ZM123.52 22.29L124.21 20.11H127.01L127.7 22.29H129.24L126.48 14.19H124.85L122.08 22.29H123.52ZM125.64 15.64L126.7 19.01H124.53L125.59 15.64H125.64ZM131.21 14.19V22.29H134.07C136.71 22.29 137.67 20.57 137.67 18.22C137.67 15.85 136.68 14.18 134.07 14.18H131.21V14.19ZM132.64 15.39H133.89C135.62 15.39 136.19 16.57 136.19 18.25C136.19 20.25 135.4 21.09 133.89 21.09H132.64V15.39ZM144.52 17.72C144.52 16.08 145.35 15.24 146.47 15.24C147.6 15.24 148.42 16.08 148.42 17.72V18.82C148.42 20.46 147.6 21.24 146.47 21.24C145.35 21.24 144.52 20.46 144.52 18.82V17.72ZM143.07 18.81C143.07 21.1 144.36 22.45 146.47 22.45C148.58 22.45 149.88 21.1 149.88 18.81V17.73C149.88 15.43 148.59 14.03 146.48 14.03C144.38 14.03 143.07 15.43 143.07 17.73V18.81ZM153.66 22.29V16.6H153.7L157.46 22.29H158.69V14.19H157.35V19.86H157.3L153.55 14.19H152.31V22.29H153.66ZM167.83 22.29V15.4H170.19V14.18H164.05V15.4H166.4V22.29H167.83ZM178.64 22.29V14.19H177.2V17.53H173.59V14.19H172.15V22.29H173.59V18.74H177.2V22.29H178.64ZM186.51 21.09H182.82V18.74H186.29V17.61H182.82V15.38H186.51V14.18H181.39V22.28H186.51V21.09Z" fill="white"/>
<path d="M66.46 52.01L73.53 31.3H77.7L84.76 52.01H80.83L79.07 46.4301H71.92L70.16 52.01H66.46ZM72.7299 43.64H78.28L75.58 35.0201H75.44L72.7299 43.64ZM87.02 57.4301V35.95H90.52V38.2701H90.66C90.99 37.5001 91.57 36.8901 92.39 36.4301C93.21 35.9601 94.22 35.73 95.42 35.73C97.25 35.73 98.71 36.37 99.8 37.66C100.9 38.94 101.45 40.73 101.45 43.03V44.9601C101.45 47.2601 100.9 49.0401 99.8 50.3201C98.71 51.5901 97.23 52.23 95.35 52.23C94.18 52.23 93.21 52 92.44 51.55C91.67 51.09 91.1 50.5 90.74 49.76H90.59V57.44H87.02V57.4301ZM90.6 44.76C90.6 46.09 90.93 47.1801 91.59 48.0401C92.26 48.8901 93.15 49.31 94.28 49.31C95.35 49.31 96.21 48.9201 96.84 48.1301C97.49 47.3301 97.81 46.17 97.81 44.66V43.31C97.81 41.81 97.49 40.66 96.85 39.87C96.21 39.06 95.33 38.66 94.21 38.66C93.1 38.66 92.22 39.07 91.57 39.89C90.92 40.7 90.6 41.78 90.6 43.14V44.76ZM104.61 57.4301V35.95H108.11V38.2701H108.25C108.58 37.5001 109.16 36.8901 109.98 36.4301C110.8 35.9601 111.81 35.73 113.01 35.73C114.84 35.73 116.3 36.37 117.39 37.66C118.49 38.94 119.04 40.73 119.04 43.03V44.9601C119.04 47.2601 118.49 49.0401 117.39 50.3201C116.3 51.5901 114.82 52.23 112.94 52.23C111.77 52.23 110.8 52 110.03 51.55C109.26 51.09 108.69 50.5 108.33 49.76H108.18V57.44H104.61V57.4301ZM108.19 44.76C108.19 46.09 108.52 47.1801 109.18 48.0401C109.85 48.8901 110.74 49.31 111.87 49.31C112.94 49.31 113.8 48.9201 114.43 48.1301C115.08 47.3301 115.4 46.17 115.4 44.66V43.31C115.4 41.81 115.08 40.66 114.44 39.87C113.8 39.06 112.92 38.66 111.8 38.66C110.69 38.66 109.81 39.07 109.16 39.89C108.51 40.7 108.19 41.78 108.19 43.14V44.76ZM126.87 46.22H130.44C130.52 47.14 130.96 47.91 131.74 48.53C132.53 49.14 133.61 49.44 134.97 49.44C136.27 49.44 137.28 49.16 138 48.61C138.74 48.05 139.11 47.3001 139.11 46.3501C139.11 45.6001 138.85 45 138.32 44.56C137.8 44.11 136.99 43.76 135.86 43.48L132.54 42.6801C131.82 42.5201 131.16 42.3 130.57 42.01C129.98 41.72 129.44 41.35 128.95 40.92C128.46 40.47 128.09 39.92 127.81 39.2701C127.54 38.6101 127.4 37.87 127.4 37.05C127.4 35.77 127.75 34.65 128.45 33.7C129.15 32.74 130.06 32.03 131.2 31.56C132.33 31.09 133.59 30.86 134.98 30.86C136.38 30.86 137.64 31.1001 138.76 31.5701C139.89 32.0501 140.79 32.75 141.46 33.69C142.14 34.62 142.49 35.7 142.51 36.94H139.02C138.95 36.04 138.56 35.3001 137.87 34.7101C137.17 34.1201 136.2 33.83 134.96 33.83C133.8 33.83 132.86 34.09 132.15 34.62C131.45 35.14 131.1 35.85 131.1 36.76C131.1 38.11 132.05 39 133.95 39.45L137.29 40.25C138.12 40.44 138.85 40.6801 139.48 40.9601C140.11 41.2401 140.68 41.61 141.19 42.05C141.72 42.5 142.12 43.05 142.39 43.72C142.66 44.39 142.8 45.16 142.8 46.03C142.8 48.03 142.06 49.6 140.58 50.73C139.11 51.86 137.16 52.4301 134.72 52.4301C133.6 52.4301 132.58 52.3 131.67 52.05C130.77 51.8 130.03 51.47 129.44 51.06C128.86 50.66 128.38 50.18 127.98 49.6301C127.59 49.0701 127.3 48.5201 127.13 47.9601C126.96 47.4001 126.88 46.81 126.87 46.22ZM144.75 38.89V36.08H147.05V32.0701H150.54V36.08H153.66V38.89H150.54V47.1301C150.54 47.9701 150.72 48.55 151.07 48.86C151.43 49.16 152.07 49.3201 152.97 49.3201C153.36 49.3201 153.63 49.3101 153.76 49.2901V52.01C153.24 52.09 152.69 52.1301 152.09 52.1301C150.78 52.1301 149.76 51.9601 149.01 51.6301C148.26 51.3001 147.74 50.81 147.43 50.16C147.14 49.5 146.99 48.62 146.99 47.5V38.9H144.75V38.89ZM155.74 44.53V43.39C155.74 41.89 156 40.5701 156.51 39.4301C157.04 38.2901 157.85 37.38 158.95 36.7C160.05 36.02 161.39 35.6801 162.96 35.6801C165.31 35.6801 167.09 36.3801 168.32 37.7701C169.55 39.1601 170.17 41.02 170.17 43.37V44.5201C170.17 46.93 169.56 48.8201 168.33 50.2101C167.11 51.5901 165.32 52.2701 162.96 52.2701C160.6 52.2701 158.81 51.5801 157.57 50.2101C156.35 48.8501 155.74 46.95 155.74 44.53ZM159.34 44.44C159.34 45.13 159.4 45.7501 159.52 46.3201C159.64 46.8901 159.83 47.41 160.1 47.9C160.36 48.38 160.74 48.75 161.22 49.0201C161.71 49.2901 162.29 49.4301 162.96 49.4301C163.63 49.4301 164.2 49.3001 164.69 49.0401C165.18 48.7701 165.55 48.39 165.8 47.9C166.06 47.41 166.25 46.8901 166.36 46.3201C166.48 45.7501 166.54 45.13 166.54 44.44V43.51C166.54 42.81 166.48 42.18 166.36 41.61C166.25 41.04 166.06 40.52 165.8 40.03C165.54 39.54 165.16 39.17 164.68 38.91C164.2 38.64 163.63 38.5 162.97 38.5C162.31 38.5 161.72 38.64 161.23 38.91C160.74 39.18 160.37 39.56 160.11 40.05C159.85 40.53 159.66 41.0501 159.53 41.6301C159.41 42.2001 159.35 42.82 159.35 43.51V44.44H159.34ZM173.45 52.01V35.9601H177.03V38.0401H177.17C177.78 36.4901 179.05 35.72 180.98 35.72C181.39 35.72 181.79 35.76 182.16 35.83V38.97C181.91 38.89 181.41 38.8501 180.67 38.8501C178.28 38.8501 177.09 40.09 177.09 42.58V52.0201H173.45V52.01ZM183.46 44.7V43.3501C183.46 41.0001 184.08 39.14 185.31 37.7701C186.54 36.3801 188.25 35.69 190.42 35.69C192.63 35.69 194.34 36.3801 195.55 37.7701C196.76 39.1601 197.37 41.01 197.37 43.34V44.78H186.99V45.28C186.99 46.46 187.3 47.45 187.93 48.25C188.56 49.05 189.45 49.45 190.62 49.45C191.54 49.45 192.26 49.25 192.77 48.84C193.3 48.44 193.62 47.92 193.74 47.31H197.2C197.15 47.77 197.03 48.22 196.85 48.66C196.68 49.1101 196.42 49.55 196.08 50C195.74 50.45 195.32 50.83 194.84 51.17C194.36 51.5 193.76 51.7801 193.03 51.9901C192.3 52.1901 191.5 52.2901 190.63 52.2901C188.34 52.2901 186.57 51.6201 185.32 50.2701C184.08 48.91 183.46 47.06 183.46 44.7ZM187 42.36H193.89V42.33C193.89 41.18 193.58 40.2401 192.96 39.5201C192.34 38.8 191.51 38.44 190.46 38.44C189.4 38.44 188.55 38.8 187.93 39.53C187.31 40.25 187 41.1801 187 42.3201V42.36Z" fill="white"/>
</svg>
