<svg width="217" height="68" viewBox="0 0 217 68" fill="none" xmlns="http://www.w3.org/2000/svg">
<path d="M6.92992 0H209.58C213.31 0 216.34 3.02 216.34 6.76V60.8C216.34 64.53 213.32 67.56 209.58 67.56H6.92992C3.19992 67.56 0.169922 64.54 0.169922 60.8V6.75C0.179922 3.02 3.19992 0 6.92992 0Z" fill="black"/>
<path fill-rule="evenodd" clip-rule="evenodd" d="M42.6899 16.41L42.2199 17.1C45.7499 18.7 48.1399 21.74 48.1399 25.21H24.8299C24.8299 21.74 27.2199 18.7 30.7599 17.1L30.2899 16.42L29.8199 15.75L28.7799 14.23C28.6499 14.04 28.7099 13.79 28.8999 13.67C29.0899 13.55 29.3499 13.6 29.4799 13.78L30.5899 15.41L31.0599 16.09L31.5299 16.78C33.0399 16.21 34.7199 15.89 36.4799 15.89C38.2499 15.89 39.9299 16.21 41.4299 16.78L41.9099 16.09L43.4899 13.78C43.6099 13.59 43.8699 13.54 44.0599 13.67C44.2499 13.79 44.3099 14.04 44.1799 14.23L43.1399 15.75L42.6899 16.41ZM24.8299 26.83H25.0099H48.1499V44.66C48.1499 46.08 46.9699 47.23 45.5099 47.23H43.5999C43.6699 47.44 43.6999 47.67 43.6999 47.9V53.03C43.6999 54.37 42.5799 55.46 41.1999 55.46C39.8199 55.46 38.6999 54.37 38.6999 53.03V47.9C38.6999 47.66 38.7399 47.44 38.7999 47.23H34.1599C34.2199 47.44 34.2599 47.67 34.2599 47.9V53.03C34.2599 54.37 33.1399 55.46 31.7599 55.46C30.3799 55.46 29.2599 54.37 29.2599 53.03V47.9C29.2599 47.66 29.2999 47.44 29.3599 47.23H27.4599C25.9999 47.23 24.8199 46.08 24.8199 44.66V26.83H24.8299ZM20.6599 26.83C19.2799 26.83 18.1599 27.92 18.1599 29.26V39.66C18.1599 41 19.2799 42.09 20.6599 42.09C22.0399 42.09 23.1599 41 23.1599 39.66V29.26C23.1599 27.92 22.0399 26.83 20.6599 26.83ZM49.8099 29.26C49.8099 27.92 50.9299 26.83 52.3099 26.83C53.6899 26.83 54.8099 27.92 54.8099 29.26V39.66C54.8099 41 53.6899 42.09 52.3099 42.09C50.9299 42.09 49.8099 41 49.8099 39.66V29.26ZM29.4599 21.97C28.7699 21.97 28.2099 21.43 28.2099 20.75C28.2099 20.07 28.7699 19.54 29.4599 19.54C30.1499 19.54 30.7099 20.08 30.7099 20.75C30.7099 21.42 30.1499 21.97 29.4599 21.97ZM38.2099 20.75C38.2099 21.42 38.7699 21.97 39.4599 21.97C40.1499 21.97 40.7099 21.43 40.7099 20.75C40.7099 20.07 40.1499 19.54 39.4599 19.54C38.7599 19.54 38.2099 20.08 38.2099 20.75Z" fill="white"/>
<path d="M68.6199 22.96V14.86H71.4799C72.1199 14.86 72.6699 14.96 73.1399 15.16C73.6099 15.35 73.9899 15.63 74.2699 16C74.5499 16.36 74.7599 16.79 74.8899 17.27C75.0199 17.75 75.0899 18.29 75.0899 18.9C75.0899 19.38 75.0499 19.83 74.9699 20.23C74.8899 20.63 74.7599 21 74.5799 21.35C74.3999 21.69 74.1699 21.98 73.8899 22.22C73.6199 22.46 73.2799 22.64 72.8699 22.78C72.4599 22.91 71.9999 22.98 71.4899 22.98H68.6199V22.96ZM70.0499 21.76H71.2999C72.0699 21.76 72.6399 21.53 73.0199 21.08C73.3999 20.62 73.5999 19.9 73.5999 18.92C73.5999 18.48 73.5599 18.09 73.4799 17.76C73.3999 17.42 73.2699 17.12 73.0999 16.86C72.9299 16.6 72.6899 16.4 72.3799 16.26C72.0799 16.12 71.7199 16.05 71.2999 16.05H70.0499V21.76ZM77.0899 19.48V18.4C77.0899 17.25 77.3899 16.35 77.9999 15.69C78.6099 15.03 79.4399 14.7 80.4899 14.7C81.5399 14.7 82.3699 15.03 82.9799 15.69C83.5899 16.35 83.8899 17.26 83.8899 18.4V19.48C83.8899 20.62 83.5899 21.51 82.9799 22.16C82.3699 22.8 81.5399 23.12 80.4799 23.12C79.4199 23.12 78.5899 22.8 77.9899 22.16C77.3999 21.52 77.0899 20.63 77.0899 19.48ZM78.5399 19.49C78.5399 20.28 78.7199 20.88 79.0699 21.29C79.4299 21.7 79.8999 21.9 80.4899 21.9C81.0799 21.9 81.5499 21.7 81.8999 21.29C82.2599 20.88 82.4299 20.28 82.4299 19.49V18.39C82.4299 17.59 82.2499 16.98 81.8899 16.56C81.5299 16.13 81.0599 15.92 80.4799 15.92C79.8899 15.92 79.4199 16.13 79.0599 16.56C78.6999 16.99 78.5299 17.6 78.5299 18.39V19.49H78.5399ZM85.4899 14.86H87.0699L88.3799 20.81H88.4299L89.9099 14.86H91.2099L92.6899 20.81H92.7499L94.0499 14.86H95.6299L93.4599 22.96H92.1399L90.5799 17.12H90.5299L88.9699 22.96H87.6499L85.4899 14.86ZM97.5499 22.96V14.86H98.7899L102.51 20.53H102.56V14.86H103.93V22.96H102.7L98.9699 17.27H98.9299V22.96H97.5499ZM106.69 22.96V14.86H108.13V21.73H111.66V22.96H106.69ZM113.12 19.48V18.4C113.12 17.25 113.42 16.35 114.03 15.69C114.64 15.03 115.47 14.7 116.52 14.7C117.57 14.7 118.4 15.03 119.01 15.69C119.62 16.35 119.92 17.26 119.92 18.4V19.48C119.92 20.62 119.62 21.51 119.01 22.16C118.4 22.8 117.57 23.12 116.51 23.12C115.45 23.12 114.62 22.8 114.02 22.16C113.42 21.52 113.12 20.63 113.12 19.48ZM114.57 19.49C114.57 20.28 114.75 20.88 115.1 21.29C115.46 21.7 115.93 21.9 116.52 21.9C117.11 21.9 117.58 21.7 117.93 21.29C118.29 20.88 118.46 20.28 118.46 19.49V18.39C118.46 17.59 118.28 16.98 117.92 16.56C117.56 16.13 117.09 15.92 116.51 15.92C115.92 15.92 115.45 16.13 115.09 16.56C114.73 16.99 114.56 17.6 114.56 18.39V19.49H114.57ZM121.43 22.96L124.2 14.86H125.83L128.59 22.96H127.05L126.36 20.78H123.56L122.87 22.96H121.43ZM123.89 19.69H126.06L125 16.32H124.95L123.89 19.69ZM130.57 22.96V14.86H133.43C134.07 14.86 134.62 14.96 135.09 15.16C135.56 15.35 135.94 15.63 136.22 16C136.5 16.36 136.71 16.79 136.84 17.27C136.98 17.75 137.04 18.29 137.04 18.9C137.04 19.38 137 19.83 136.92 20.23C136.84 20.63 136.71 21 136.53 21.35C136.35 21.69 136.12 21.98 135.84 22.22C135.57 22.46 135.23 22.64 134.82 22.78C134.41 22.91 133.95 22.98 133.44 22.98H130.57V22.96ZM132.01 21.76H133.26C134.03 21.76 134.6 21.53 134.98 21.08C135.36 20.62 135.56 19.9 135.56 18.92C135.56 18.48 135.52 18.09 135.44 17.76C135.36 17.42 135.23 17.12 135.06 16.86C134.89 16.6 134.65 16.4 134.34 16.26C134.04 16.12 133.68 16.05 133.26 16.05H132.01V21.76ZM141.96 22.96L144.73 14.86H146.36L149.12 22.96H147.58L146.89 20.78H144.09L143.4 22.96H141.96ZM144.41 19.69H146.58L145.52 16.32H145.47L144.41 19.69ZM151.1 22.96V14.86H154.26C155.09 14.86 155.74 15.11 156.22 15.6C156.7 16.09 156.94 16.73 156.94 17.51C156.94 18.29 156.7 18.92 156.21 19.41C155.73 19.9 155.07 20.14 154.24 20.14H152.53V22.97H151.1V22.96ZM152.53 18.99H153.57C154.21 18.99 154.69 18.88 155.01 18.67C155.33 18.45 155.48 18.07 155.48 17.51C155.48 17.04 155.35 16.67 155.09 16.42C154.83 16.16 154.47 16.03 154.01 16.03H152.53V18.99ZM159.1 22.96V14.86H160.54V18.58H160.61L163.82 14.86H165.42L162.49 18.34L165.55 22.96H163.8L161.42 19.3L160.54 20.28V22.96H159.1ZM170.39 19.13C170.39 17.71 170.67 16.61 171.24 15.85C171.81 15.09 172.58 14.7 173.54 14.7C173.93 14.7 174.29 14.76 174.62 14.89C174.95 15.02 175.22 15.18 175.43 15.39C175.64 15.6 175.81 15.82 175.93 16.07C176.05 16.32 176.12 16.56 176.14 16.82H174.77C174.74 16.58 174.61 16.36 174.38 16.16C174.15 15.96 173.86 15.86 173.5 15.86C172.97 15.86 172.55 16.12 172.23 16.64C171.92 17.16 171.75 17.89 171.74 18.84H171.79C171.92 18.52 172.15 18.24 172.48 18.01C172.82 17.78 173.24 17.66 173.73 17.66C174.07 17.66 174.39 17.72 174.69 17.84C175 17.96 175.27 18.13 175.52 18.34C175.77 18.55 175.96 18.83 176.11 19.18C176.26 19.52 176.33 19.9 176.33 20.31C176.33 20.89 176.2 21.39 175.94 21.82C175.68 22.25 175.33 22.58 174.89 22.79C174.46 23 173.97 23.11 173.43 23.11C172.48 23.11 171.73 22.77 171.19 22.09C170.66 21.42 170.39 20.43 170.39 19.13ZM171.93 20.38C171.93 20.87 172.08 21.26 172.38 21.55C172.68 21.83 173.04 21.97 173.47 21.97C173.89 21.97 174.25 21.83 174.54 21.55C174.83 21.27 174.97 20.88 174.97 20.37C174.97 19.87 174.82 19.48 174.52 19.19C174.23 18.9 173.87 18.76 173.45 18.76C173.02 18.76 172.66 18.9 172.36 19.19C172.07 19.49 171.93 19.88 171.93 20.38ZM178.56 22.85C178.4 22.7 178.32 22.5 178.32 22.25C178.32 22 178.4 21.81 178.56 21.66C178.72 21.51 178.92 21.43 179.16 21.43C179.4 21.43 179.61 21.51 179.77 21.66C179.93 21.81 180.01 22.01 180.01 22.25C180.01 22.5 179.93 22.7 179.77 22.85C179.61 23 179.4 23.08 179.16 23.08C178.92 23.08 178.72 23 178.56 22.85ZM181.94 19.21V18.63C181.94 17.43 182.21 16.48 182.74 15.77C183.27 15.06 184.01 14.71 184.97 14.71C185.92 14.71 186.66 15.06 187.18 15.77C187.7 16.47 187.96 17.43 187.96 18.64V19.22C187.96 19.99 187.85 20.67 187.63 21.26C187.41 21.84 187.07 22.3 186.61 22.64C186.15 22.98 185.6 23.14 184.95 23.14C184 23.14 183.26 22.79 182.74 22.08C182.2 21.36 181.94 20.41 181.94 19.21ZM183.38 19.19C183.38 20.07 183.52 20.75 183.79 21.23C184.07 21.7 184.46 21.94 184.94 21.94C185.42 21.94 185.81 21.7 186.09 21.23C186.37 20.75 186.51 20.08 186.51 19.2V18.63C186.51 17.75 186.37 17.08 186.09 16.61C185.81 16.13 185.43 15.9 184.94 15.9C184.45 15.9 184.07 16.14 183.79 16.61C183.51 17.08 183.38 17.76 183.38 18.63V19.19ZM189.87 20.3V19.12H192.23V16.67H193.42V19.12H195.8V20.3H193.42V22.85H192.23V20.3H189.87Z" fill="white"/>
<path d="M66.6299 52.01L73.6999 31.3H77.8699L84.9299 52.01H80.9999L79.2399 46.43H72.0899L70.3299 52.01H66.6299ZM72.8999 43.64H78.4499L75.7499 35.02H75.6099L72.8999 43.64ZM87.1699 52.01V35.96H90.6899V38.22H90.8299C91.1299 37.53 91.6899 36.94 92.4999 36.44C93.3099 35.94 94.2999 35.7 95.4599 35.7C97.1099 35.7 98.4499 36.2 99.4999 37.2C100.55 38.19 101.08 39.59 101.08 41.4V52.01H97.4799V42.53C97.4799 40.04 96.3699 38.8 94.1599 38.8C93.0999 38.8 92.2599 39.13 91.6599 39.79C91.0599 40.45 90.7599 41.4 90.7599 42.64V52.02H87.1699V52.01ZM104.13 44.88V43.06C104.13 40.82 104.67 39.04 105.74 37.72C106.81 36.39 108.32 35.73 110.28 35.73C111.47 35.73 112.47 35.97 113.27 36.44C114.07 36.91 114.61 37.51 114.89 38.26H115.03V30.2H118.61V52H115.11V49.54H114.97C114.75 50.29 114.22 50.92 113.38 51.44C112.54 51.96 111.51 52.21 110.28 52.21C108.34 52.21 106.83 51.55 105.74 50.24C104.66 48.93 104.13 47.14 104.13 44.88ZM107.78 44.52C107.78 46.02 108.09 47.2 108.71 48.06C109.33 48.91 110.23 49.33 111.41 49.33C112.53 49.33 113.41 48.92 114.05 48.09C114.7 47.25 115.02 46.07 115.02 44.55V43.35C115.02 41.89 114.69 40.75 114.03 39.91C113.38 39.07 112.49 38.65 111.34 38.65C110.18 38.65 109.29 39.08 108.68 39.94C108.07 40.8 107.77 41.97 107.77 43.44V44.52H107.78ZM122.7 52.01V35.96H126.28V38.04H126.42C127.03 36.49 128.3 35.72 130.23 35.72C130.64 35.72 131.04 35.76 131.41 35.83V38.97C131.16 38.89 130.66 38.85 129.92 38.85C127.53 38.85 126.34 40.09 126.34 42.58V52.02H122.7V52.01ZM132.71 44.53V43.39C132.71 41.89 132.97 40.57 133.48 39.43C134.01 38.29 134.82 37.38 135.92 36.7C137.02 36.02 138.36 35.68 139.93 35.68C142.28 35.68 144.06 36.38 145.29 37.77C146.52 39.16 147.14 41.02 147.14 43.37V44.52C147.14 46.93 146.53 48.82 145.3 50.21C144.08 51.59 142.29 52.27 139.93 52.27C137.57 52.27 135.78 51.58 134.54 50.21C133.32 48.84 132.71 46.95 132.71 44.53ZM136.31 44.44C136.31 45.13 136.37 45.75 136.49 46.32C136.61 46.89 136.8 47.41 137.07 47.9C137.33 48.38 137.71 48.75 138.19 49.02C138.68 49.29 139.26 49.43 139.93 49.43C140.6 49.43 141.17 49.3 141.66 49.04C142.15 48.77 142.52 48.39 142.77 47.9C143.03 47.41 143.22 46.89 143.33 46.32C143.45 45.75 143.51 45.13 143.51 44.44V43.51C143.51 42.81 143.45 42.18 143.33 41.61C143.22 41.04 143.03 40.52 142.77 40.03C142.51 39.54 142.13 39.17 141.65 38.91C141.17 38.64 140.6 38.5 139.94 38.5C139.28 38.5 138.69 38.64 138.2 38.91C137.71 39.18 137.34 39.56 137.08 40.05C136.82 40.53 136.62 41.05 136.5 41.63C136.38 42.2 136.32 42.82 136.32 43.51V44.44H136.31ZM150.79 33.36C150.4 33 150.2 32.54 150.2 31.98C150.2 31.42 150.4 30.97 150.79 30.61C151.19 30.25 151.7 30.06 152.32 30.06C152.97 30.06 153.49 30.24 153.88 30.61C154.28 30.96 154.49 31.42 154.49 31.98C154.49 32.54 154.29 33 153.9 33.36C153.51 33.71 152.98 33.89 152.32 33.89C151.7 33.89 151.19 33.72 150.79 33.36ZM150.56 52.01V35.96H154.14V52.01H150.56ZM157.6 44.88V43.06C157.6 40.82 158.14 39.04 159.21 37.72C160.28 36.39 161.79 35.73 163.75 35.73C164.94 35.73 165.94 35.97 166.74 36.44C167.54 36.91 168.08 37.51 168.36 38.26H168.5V30.2H172.08V52H168.58V49.54H168.44C168.22 50.29 167.69 50.92 166.85 51.44C166.01 51.96 164.98 52.21 163.75 52.21C161.81 52.21 160.3 51.55 159.21 50.24C158.13 48.93 157.6 47.14 157.6 44.88ZM161.25 44.52C161.25 46.02 161.56 47.2 162.18 48.06C162.8 48.91 163.7 49.33 164.88 49.33C166 49.33 166.88 48.92 167.52 48.09C168.17 47.25 168.49 46.07 168.49 44.55V43.35C168.49 41.89 168.16 40.75 167.5 39.91C166.85 39.07 165.96 38.65 164.82 38.65C163.66 38.65 162.77 39.08 162.16 39.94C161.55 40.8 161.25 41.97 161.25 43.44V44.52Z" fill="white"/>
</svg>
