<svg width="115" height="115" viewBox="0 0 115 115" fill="none" xmlns="http://www.w3.org/2000/svg">
<path d="M25.9289 80.3551C25.5404 80.43 25.469 80.4567 23.596 81.0272C24.0387 79.8105 24.1374 77.8657 23.0045 77.2525C22.5221 77.0064 21.8971 77.0713 21.3707 77.4185C20.9098 77.7295 20.608 78.1909 20.3736 78.6011C19.6538 79.8611 19.23 81.2926 19.1327 82.7593C18.2948 83.6067 18.1863 85.0533 18.8873 86.0142C18.3404 87.002 18.5807 88.3282 19.4254 89.0689C18.8163 89.8701 18.9003 90.8779 19.5338 91.5352C19.176 92.5825 19.7529 93.794 21.0006 94.0855C21.1002 94.0855 21.1959 94.024 21.2359 93.9322C21.2369 93.9292 21.2379 93.9258 21.2398 93.9229L24.7607 92.5144V103.215L27.5709 105.199V105.376C27.5709 105.514 27.6832 105.626 27.8209 105.626H40.9908C41.1285 105.626 41.2408 105.514 41.2408 105.376V83.6353C41.2408 83.4971 41.1285 83.3853 40.9908 83.3853H27.9052C28.0489 83.0006 28.1648 82.5994 28.1803 82.1846C28.2176 81.1879 27.6473 80.2886 26.4764 80.2987C30.4561 68.2139 41.8658 59.8482 56.065 59.5952C63.436 59.4786 70.7297 61.1188 77.2176 64.338C77.1889 64.3787 77.1607 64.4215 77.1607 64.4751V64.9431L72.9778 67.4603V102.137L77.1607 104.879V105.376C77.1607 105.514 77.273 105.626 77.4107 105.626H93.7604C93.898 105.626 94.0104 105.514 94.0104 105.376V82.4765L95.4273 83.043C95.4616 83.1499 95.5949 83.2258 95.7193 83.1963C96.8304 82.9421 97.5106 81.7747 97.1334 80.6587C97.4146 80.3653 97.6041 79.92 97.6471 79.6016C97.7115 79.1289 97.5484 78.5835 97.2398 78.187C98.0816 77.4463 98.3238 76.1221 97.7848 75.1353C98.4879 74.1732 98.3745 72.7271 97.5298 71.8825C97.4443 70.4374 97.0228 69.0006 96.2975 67.7212C95.7812 66.8189 95.0344 66.0583 94.0104 66.2574V64.4751C94.0104 64.3369 93.898 64.2251 93.7604 64.2251H78.1369C71.408 60.7388 63.8016 58.9735 56.0563 59.0952C41.4669 59.3551 29.8801 68.0419 25.9289 80.3551ZM20.8072 78.8492C21.0133 78.4888 21.275 78.0865 21.648 77.8345C22.0191 77.5904 22.4615 77.5371 22.7711 77.6953C23.2701 77.9644 23.3707 78.6646 23.3912 78.9561C23.4547 79.7228 23.3048 80.5183 22.9782 81.2146C21.1091 81.784 20.2909 81.988 19.6822 82.3396C19.8238 81.1139 20.1983 79.9158 20.8072 78.8492ZM19.3125 86.3008C19.3155 86.2992 19.3189 86.3 19.3219 86.2984C21.796 84.9447 24.5893 84.1622 27.4056 84.0296C27.8885 84.5343 28.1189 85.499 27.6148 86.2232C27.5022 86.387 27.3462 86.5235 27.1736 86.6452C27.144 86.6344 27.1188 86.6113 27.0865 86.6138C24.5434 86.7231 22.0597 87.4758 19.8781 88.7834C19.1333 88.2363 18.8893 87.1189 19.3125 86.3008ZM19.5182 90.4097C19.4698 90.0725 19.6055 89.6642 19.8405 89.3655C19.8607 89.3592 19.8819 89.36 19.901 89.3482C21.9738 88.0527 24.3484 87.2963 26.7864 87.1381C26.8087 87.1921 26.8424 87.2403 26.8961 87.2681C27.3362 87.4928 27.5215 88.1882 26.9527 88.9229C26.7662 89.1664 26.4408 89.3256 26.1147 89.5884C24.0572 90.0573 22.0266 90.6967 20.0662 91.4798C20.0709 91.3981 20.0492 91.3168 19.9801 91.2652C19.7643 91.1035 19.5533 90.7149 19.5182 90.4097ZM20.8687 93.5313C20.3021 93.308 19.8934 92.7494 19.9413 92.0643C21.9089 91.2586 23.9544 90.6092 26.0266 90.1255C26.063 90.4215 26.0436 90.7253 25.9234 90.9922C25.7496 91.376 25.4713 91.6763 25.1676 91.8135C24.4041 92.1187 20.6275 93.6277 20.8687 93.5313ZM40.7408 83.8853V105.126H28.0709V86.4247C28.2303 86.1723 28.3397 85.9003 28.3785 85.6084C28.3785 85.606 28.3785 85.6035 28.3795 85.6011C28.4342 85.0692 28.3186 84.5235 28.0709 84.0876V83.8853H40.7408ZM27.1471 80.9566C27.4908 81.1729 27.6998 81.6475 27.6803 82.166C27.6638 82.625 27.4919 83.0912 27.3079 83.5351C24.5294 83.677 21.7771 84.4383 19.3173 85.7397C18.7286 84.9608 18.8194 83.7166 19.5355 83.0548C19.5398 83.0509 19.5423 83.0471 19.5463 83.0429C20.1367 82.5249 20.9545 82.3508 23.0416 81.7183C25.8086 80.8737 26.5284 80.5648 27.1471 80.9566ZM95.7975 82.6509C95.0402 82.3485 91.2739 80.8446 91.5152 80.9409C91.1988 80.7974 90.9176 80.4947 90.7428 80.1094C90.6206 79.8411 90.6025 79.5392 90.6412 79.246C92.7095 79.729 94.7546 80.378 96.7228 81.1834C96.7734 81.9143 96.3451 82.4382 95.7975 82.6509ZM96.6861 80.3907C96.6194 80.4413 96.5982 80.5205 96.6017 80.6004C94.6438 79.8183 92.6175 79.1803 90.566 78.7121C90.2519 78.4625 89.9062 78.2961 89.7096 78.041C89.1505 77.3176 89.33 76.615 89.7701 76.3941C89.8266 76.3659 89.861 76.315 89.883 76.2583C94.0383 76.5292 96.5475 78.3969 96.8263 78.4853C97.0618 78.7772 97.1986 79.1867 97.151 79.5342C97.11 79.8374 96.8971 80.2295 96.6861 80.3907ZM96.7874 77.9021C94.6054 76.5958 92.1228 75.8436 89.5816 75.7339C89.5461 75.7359 89.5213 75.7574 89.4906 75.7694C89.0975 75.4902 88.8423 75.106 88.7896 74.669C88.7199 74.0916 88.912 73.5046 89.2604 73.1501C92.0779 73.282 94.8718 74.0647 97.3453 75.419C97.3495 75.4213 97.3543 75.4203 97.3587 75.4224C97.7746 76.2403 97.5281 77.3553 96.7874 77.9021ZM97.3534 74.862C94.8943 73.5594 92.1415 72.7982 89.3616 72.6559C89.1814 72.2091 89.0079 71.7494 88.9908 71.2827C88.9713 70.7647 89.1803 70.2901 89.524 70.0738C90.1931 69.6499 91.0288 70.074 93.4249 70.7761C93.5962 70.8282 95.5583 71.4247 95.4576 71.3941C96.0221 71.5659 96.6627 71.7603 97.1158 72.1665C97.8503 72.8257 97.9475 74.079 97.3534 74.862ZM95.8629 67.9683C96.4758 69.0498 96.8482 70.2505 96.9823 71.461C96.3871 71.1143 95.8052 70.9795 93.6921 70.3349C93.3594 69.6438 93.2066 68.8479 93.2701 68.0772C93.3023 67.7134 93.4244 67.0664 93.8854 66.8179C94.6811 66.4089 95.4207 67.195 95.8629 67.9683ZM93.5104 66.4842C92.5264 67.2044 92.6472 69.0051 93.0694 70.1455C91.2084 69.6106 90.1608 69.0808 89.2564 69.6509C88.7584 69.9654 88.4645 70.5977 88.4908 71.3013C88.5113 71.835 88.6969 72.3443 88.8814 72.8037C88.4342 73.2691 88.2057 74.003 88.2936 74.729C88.3639 75.3174 88.693 75.8374 89.2145 76.1988C88.7679 76.6828 88.6801 77.5267 89.3141 78.3472C89.5442 78.6442 89.8676 78.8214 90.1471 79.021C89.9302 80.0518 90.544 81.0503 91.3189 81.4004L93.5104 82.2766V105.126H77.6607V64.7251H93.5104V66.4842Z" fill="#040F2A"/>
<path d="M43.2008 30.5457C42.7408 30.4557 42.3008 30.2557 41.8208 30.2157C40.5108 30.1157 39.4308 31.4357 39.3008 32.7557C38.9885 35.1529 40.931 37.8052 42.8908 39.3257C43.2508 39.6057 43.6308 39.8657 43.8608 40.2657C44.0808 40.6557 44.0708 41.2257 43.7108 41.4857C43.3308 41.7657 42.8008 41.5957 42.3508 41.7257C41.6908 41.9257 41.3808 42.7557 41.5308 43.4257C42.0208 45.6957 44.7808 47.8457 46.8208 48.6257C47.0373 48.7109 47.2632 48.774 47.4912 48.8166C49.8406 51.9504 53.4119 53.7596 57.2263 53.7596C63.4912 53.7591 69.1965 48.7933 69.9027 41.7428C69.9749 41.6722 70.0442 41.6049 70.1008 41.5457C70.2508 37.9757 69.4008 33.7157 67.4708 31.3957C64.6208 27.9657 59.6608 26.3157 55.1208 27.2857C52.6285 27.8146 50.2331 29.2735 48.4508 31.8357C48.4508 31.8457 48.4508 31.8557 48.4408 31.8557C47.9964 32.545 47.6568 33.2878 47.4082 34.0535C47.2874 33.9127 47.1562 33.787 47.0039 33.6947C48.2944 30.0658 51.5672 27.5368 55.0208 26.7957C59.7308 25.7857 64.8908 27.5057 67.8508 31.0757C69.7308 33.3357 70.6308 37.3457 70.6008 40.8857C71.3188 39.8807 71.5272 39.1467 71.9908 38.0457C72.7508 36.2757 73.9608 34.8157 74.1108 32.8157C74.2108 31.3957 73.4508 29.8257 72.0808 29.4457C71.7008 29.3357 71.2908 29.3257 70.9508 29.1357C70.4208 28.8357 70.1908 28.1757 70.2208 27.5757C70.2508 26.9657 70.4808 26.3957 70.6808 25.8257C71.0208 24.8057 71.2508 23.7157 71.1108 22.6457C70.9808 21.5757 70.4408 20.5157 69.5308 19.9357C68.6208 19.3557 67.3208 19.3657 66.5308 20.0957C65.9508 20.6257 65.6308 21.4857 64.8808 21.6957C64.2408 21.8757 63.5508 21.4457 63.2308 20.8557C62.2966 19.1625 63.8556 15.6762 62.7408 13.0557C61.9308 11.1557 59.6708 10.0157 57.6608 10.4657C55.6508 10.9257 54.1208 12.9457 54.2108 15.0057C54.2408 15.6157 54.3908 16.2157 54.3708 16.8257C54.3206 18.355 53.1567 19.0318 51.6908 18.1157C51.1208 17.7657 50.6208 17.2957 50.0008 17.0657C48.5908 16.5657 46.8708 17.7557 46.8408 19.2457C46.8208 20.2157 47.3808 21.0857 47.7108 21.9957C48.0508 22.9057 48.0608 24.1157 47.2508 24.6457C46.4208 25.1757 45.4208 24.6457 44.5608 24.9757C43.5808 25.3557 42.9408 26.6557 42.9008 27.6357C42.8508 28.7057 43.3808 29.7657 44.2408 30.3857C43.9508 30.5857 43.5508 30.6057 43.2008 30.5457ZM49.9608 37.9557C50.1008 36.9757 50.2308 35.9857 50.3708 35.0057C50.4808 34.1857 50.3008 33.1657 50.6008 32.3957C50.8108 31.8657 51.3908 31.4457 51.9408 31.6057C52.2908 31.7157 52.5308 32.0257 52.7808 32.2857C54.1908 33.7357 56.8108 33.7457 58.2308 32.3157C58.6008 31.9357 58.9408 31.4557 59.4508 31.3257C60.3008 31.1057 61.0308 31.9457 61.4308 32.7257C61.8208 33.5057 62.2208 34.4357 63.0708 34.6557C63.7108 34.8357 64.3808 34.5157 65.0008 34.2757C65.6308 34.0357 66.4108 33.8957 66.9008 34.3457C67.8508 35.1957 66.7408 37.0757 67.6708 37.9457C68.1182 38.3593 68.9668 38.3365 69.3844 38.775C70.4089 47.2115 63.3732 54.3237 55.4987 53.1288C49.2312 52.1674 44.8521 46.2891 45.4018 39.6738C45.8902 39.7952 46.3294 39.8068 46.8347 39.6576C47.1473 39.5649 47.0151 39.0881 46.6921 39.1781C45.0514 39.6674 43.4296 38.1729 43.5642 36.2474C43.6995 34.3687 45.4112 33.3355 46.7351 34.1136C47.4636 34.5428 47.7702 35.9408 47.7497 37.1356C47.7484 37.2316 47.8099 37.3 47.8885 37.3434L47.6708 37.7457C47.6285 38.4214 47.4597 39.1557 47.8508 39.5957C48.3852 40.1968 49.696 39.9858 49.9608 37.9557Z" fill="#040F2A"/>
<path d="M58.988 44.0525C59.156 44.1023 59.365 44.1638 59.5808 44.1775C60.0454 44.2123 60.4184 43.9932 60.237 43.5369C59.4743 41.6043 59.2693 38.843 60.531 37.0305C60.6101 36.9172 60.5818 36.761 60.4685 36.6824C60.3581 36.6038 60.1999 36.6316 60.1208 36.7444C58.7722 38.6809 58.9538 41.5789 59.7536 43.6746C59.5554 43.6994 59.3295 43.6316 59.1286 43.573C58.9968 43.5349 58.8572 43.6096 58.8181 43.742C58.779 43.8743 58.8552 44.0134 58.988 44.0525Z" fill="#040F2A"/>
<path d="M64.1143 40.2794C64.4379 40.4496 64.764 40.6161 65.0941 40.774C64.7116 41.2787 64.7958 42.0405 65.0965 42.1106C65.3435 42.1684 65.7453 41.6959 65.7016 41.0372C66.035 41.1794 66.481 41.4058 66.8799 41.4081C67.2572 41.4109 67.5732 41.2662 67.5597 40.8481C67.5497 40.4691 67.2668 40.3436 66.9671 40.1579C66.2336 39.702 65.4079 39.4025 64.5849 39.2719C64.2395 39.217 63.8274 39.0559 63.6725 39.4793C63.5205 39.8912 63.7895 40.1083 64.1143 40.2794Z" fill="#040F2A"/>
<path d="M52.5058 38.2016C52.9639 38.256 53.4238 38.2978 53.8843 38.327C53.4259 38.661 53.3673 39.7031 53.754 39.7933C54.1893 39.8951 54.5847 38.7407 54.2378 38.3404C54.6048 38.3546 55.1175 38.4074 55.4924 38.2665C55.845 38.1337 56.0887 37.8854 55.9267 37.4999C55.7796 37.1472 55.4698 37.1335 55.1257 37.0669C54.2656 36.9033 53.3934 36.9213 52.5853 37.0925C52.2428 37.1644 51.801 37.1615 51.8064 37.612C51.8124 38.0513 52.1417 38.1582 52.5058 38.2016Z" fill="#040F2A"/>
<path d="M45.4441 35.0718C45.3386 35.1612 45.3259 35.3194 45.4158 35.4244C45.5706 35.6064 45.6955 35.8433 45.7996 36.105C45.4149 35.9886 44.7631 35.9088 44.8171 36.3072C44.8347 36.4434 44.948 36.5474 45.0984 36.5215C45.5864 36.4596 45.8142 36.6587 45.947 36.6587C45.9542 36.6587 45.9602 36.6535 45.9673 36.6529C46.0184 36.8838 46.058 37.1238 46.071 37.3785C46.0779 37.5123 46.1882 37.6158 46.321 37.6158C46.3249 37.6158 46.3298 37.6158 46.3337 37.6153C46.4714 37.6084 46.5779 37.4908 46.571 37.3531C46.5242 36.4444 46.2419 35.6231 45.7966 35.1001C45.7068 34.9952 45.5495 34.9834 45.4441 35.0718Z" fill="#040F2A"/>
<path d="M55.6795 46.7226C54.9729 46.7412 54.4949 46.0303 54.7645 45.3945C54.8192 45.2675 54.7596 45.1206 54.6326 45.0664C54.5096 45.0127 54.3582 45.0708 54.3055 45.1982C53.904 46.1391 54.5886 47.2236 55.6463 47.2236C56.0507 47.2236 56.01 46.7181 55.6795 46.7226Z" fill="#040F2A"/>
<path d="M47.0606 15.6298C48.8786 16.1822 48.0732 13.547 47.7436 12.6312C46.9884 10.5382 45.0062 10.0953 45.044 12.0898C45.0705 13.4447 45.5992 15.1872 47.0606 15.6298Z" fill="#040F2A"/>
<path d="M51.1753 10.0535C50.8957 9.2771 50.1572 9.10778 50.1716 9.85152C50.1819 10.3557 50.3786 11.0027 50.9207 11.1677C51.5974 11.3722 51.2978 10.3934 51.1753 10.0535Z" fill="#040F2A"/>
<path d="M51.3444 105.625H66.3756C66.5133 105.625 66.6256 105.514 66.6256 105.375V71.0054C66.6256 70.8672 66.5133 70.7554 66.3756 70.7554H51.3444C51.2388 70.7554 51.165 70.83 51.1285 70.923L51.1283 70.8834L48.0386 72.8591V103.195L51.0944 105.203V105.375C51.0944 105.514 51.2067 105.625 51.3444 105.625ZM51.5944 71.2554H66.1256V105.125H51.5944V71.2554Z" fill="#040F2A"/>
<path d="M42.8133 74.8828C42.8123 74.8828 42.8113 74.8828 42.8103 74.8828C42.6726 74.8843 42.5613 74.9976 42.5633 75.1357L42.6746 85.106C42.6765 85.2432 42.7879 85.353 42.9246 85.353H42.9275C43.0652 85.3516 43.1765 85.2383 43.1746 85.1001L43.0633 75.1299C43.0613 74.9927 42.95 74.8828 42.8133 74.8828Z" fill="#040F2A"/>
<path d="M25.3683 42.3448C20.3175 42.6474 16.4682 46.9872 16.7708 52.038C17.0734 57.0888 21.4132 60.9381 26.464 60.6355C29.4663 60.4556 29.9639 59.2249 31.1754 59.5937C32.2085 59.9083 33.2421 60.222 34.2764 60.5329L34.309 60.3587C34.1524 59.1915 33.9964 58.0243 33.8391 56.8571C33.717 55.9505 34.3083 55.2817 34.5993 54.4202C34.9763 53.3042 35.1319 52.1179 35.0615 50.9423C34.7589 45.8915 30.4192 42.0423 25.3683 42.3448ZM21.0472 51.574C19.8579 50.2366 19.6448 46.1112 22.5101 45.9412C23.2669 45.8958 23.8841 46.138 24.3597 46.6673C25.3565 47.7766 25.6161 50.7329 24.1956 51.845C23.4088 52.461 21.9175 52.5506 21.0472 51.574ZM23.8363 56.7092C23.611 56.8219 23.3338 56.697 23.2855 56.4236C23.2448 56.1933 23.02 56.8423 28.5335 45.6536C28.7992 45.0951 29.4854 45.5038 29.222 46.0134C23.7238 57.0489 24.035 56.6074 23.8363 56.7092ZM31.3578 55.7185C30.562 56.327 29.0728 56.4093 28.2103 55.4466C27.7396 54.9216 27.473 54.1487 27.4124 53.1262C27.2796 50.9043 28.3285 49.8866 29.6712 49.8069C31.4046 49.7031 32.2223 51.0919 32.3255 52.8318C32.3899 53.8971 32.198 55.0743 31.3578 55.7185Z" fill="#040F2A"/>
<path d="M29.7133 50.5151C28.4689 50.5897 28.1623 51.8329 28.2387 53.0771C28.3124 54.3219 28.7668 55.5469 30.0112 55.4731C31.2797 55.3956 31.5748 54.1461 31.4994 52.8818C31.424 51.6341 30.96 50.4401 29.7133 50.5151Z" fill="#040F2A"/>
<path d="M23.7912 47.204C23.4768 46.8045 23.0627 46.6185 22.552 46.6493C21.8389 46.6919 21.3851 47.15 21.1868 47.8417C20.9493 48.6705 21.0363 50.3057 21.6233 51.0516C21.9387 51.452 22.3469 51.6371 22.8489 51.6073C24.8015 51.4908 24.5636 48.1856 23.7912 47.204Z" fill="#040F2A"/>
</svg>
