<svg width="162" height="42" viewBox="0 0 162 42" fill="none" xmlns="http://www.w3.org/2000/svg">
<g clip-path="url(#clip0_27_289)">
<path d="M91.0846 0.751204C91.0846 1.07418 90.6898 1.21772 89.8286 1.21772C89.4518 1.21772 88.9135 1.30744 88.6443 1.4151C88.3572 1.50481 87.6036 1.6663 86.9577 1.75602C86.3117 1.84573 85.4684 2.00722 85.0737 2.09694C83.8176 2.40197 82.4181 2.67112 81.2338 2.81466C80.0316 2.97615 79.7446 3.19147 79.8163 3.90919C79.8702 4.30394 79.9599 4.37571 80.8211 4.44748C82.0054 4.55514 82.7769 5.23698 83.2793 6.63654C83.6023 7.55164 83.6203 8.21554 83.6382 23.8081V40.0466L84.1765 40.2619C84.4815 40.3875 85.0019 40.4952 85.3428 40.5131C85.6837 40.5131 86.2579 40.6029 86.5988 40.7105C88.2137 41.2309 95.3371 41.4641 97.7235 41.0873C100.236 40.6926 102.317 39.8134 104.273 38.3061C105.547 37.3372 107.754 34.7534 107.772 34.2151C107.772 34.0536 107.897 33.8204 108.041 33.6948C108.184 33.5692 108.31 33.3359 108.31 33.1744C108.31 33.0129 108.4 32.7797 108.489 32.6899C108.974 32.2055 109.817 27.6659 109.799 25.7101C109.781 24.1849 109.351 21.3678 109.064 20.8295C108.938 20.6142 108.848 20.3271 108.848 20.1836C108.848 19.6632 108.041 18.1022 107.198 16.9897C106.91 16.6309 106.695 16.2541 106.695 16.1823C106.677 15.8414 103.824 13.5985 103.412 13.5985C103.268 13.5985 103.053 13.4729 102.927 13.3293C102.801 13.1858 102.532 13.0602 102.317 13.0602C102.12 13.0422 101.743 12.9346 101.492 12.791C101.169 12.6116 100.361 12.5398 98.531 12.5219C96.0369 12.5219 95.3371 12.6295 93.6684 13.3473C93.3454 13.4729 92.8071 13.6344 92.4483 13.6882C91.8741 13.8138 91.8023 13.7779 91.6947 13.3114C91.5691 12.8449 91.8741 4.7884 92.1074 1.7919L92.215 0.5H91.6408C91.282 0.5 91.0846 0.589716 91.0846 0.751204ZM95.5165 15.4825C95.8575 15.626 96.2522 15.7516 96.3957 15.7516C96.7905 15.7516 98.1901 16.7923 98.7104 17.4921C99.3743 18.3534 100.236 20.04 100.236 20.4527C100.236 20.6501 100.325 20.9731 100.451 21.1884C101.187 22.4983 101.169 30.6624 100.451 32.026C100.325 32.2414 100.236 32.6361 100.236 32.9232C100.236 33.1923 100.11 33.5871 99.9664 33.7665C99.8229 33.9639 99.6973 34.251 99.6973 34.4125C99.6973 34.574 99.4999 35.0764 99.2487 35.507C99.0154 35.9376 98.7283 36.458 98.6386 36.6554C98.3515 37.2834 97.3108 38.3061 96.3419 38.8803C95.4627 39.4186 95.3371 39.4545 93.8299 39.4007L92.2509 39.3468L92.1432 36.9245C91.6588 26.7867 91.4973 16.3617 91.8203 16.0387C91.9279 15.9131 94.2426 15.2672 94.6373 15.2313C94.7629 15.2134 95.1577 15.339 95.5165 15.4825ZM133.305 1.70219C133.179 1.73807 133.071 1.91751 133.071 2.09694C133.071 2.25842 132.946 2.56346 132.802 2.76083C132.659 2.94026 132.533 3.22735 132.533 3.38884C132.533 3.55033 132.408 3.78359 132.264 3.90919C132.12 4.03479 131.995 4.286 131.995 4.44748C131.995 4.62692 131.869 5.00372 131.744 5.29081C131.6 5.55996 131.439 5.91882 131.385 6.06236C131.331 6.20591 131.205 6.45711 131.134 6.60066C130.595 7.55164 130.38 8.12582 130.38 8.59234C130.38 9.02298 130.452 9.11269 130.829 9.11269C131.187 9.11269 131.349 8.93326 131.726 8.12582L132.192 7.13895H135.404L135.817 7.80285C136.05 8.17965 136.283 8.62823 136.355 8.80766C136.445 9.04092 136.624 9.11269 136.965 9.07681C137.378 9.04092 137.45 8.95121 137.414 8.5744C137.378 8.3232 137.234 7.85668 137.091 7.55164C136.947 7.22867 136.714 6.70832 136.57 6.38534C136.427 6.06236 136.068 5.25492 135.781 4.57309C135.476 3.90919 135.225 3.26324 135.225 3.11969C135.225 2.99409 135.099 2.77878 134.955 2.65317C134.812 2.52757 134.686 2.29431 134.686 2.11488C134.686 1.64836 133.951 1.43304 133.305 1.70219ZM134.381 4.32188C134.561 4.73457 134.794 5.21904 134.884 5.39847C135.171 5.91882 134.92 6.06236 133.771 6.06236C132.713 6.06236 132.569 5.97265 132.874 5.38053C132.964 5.21904 133.179 4.73457 133.359 4.32188C133.556 3.89125 133.789 3.55033 133.879 3.55033C133.987 3.55033 134.202 3.90919 134.381 4.32188ZM148.018 1.75602C147.785 1.84573 147.605 2.04311 147.605 2.18665C147.605 2.3302 147.498 2.67112 147.354 2.95821C147.103 3.47856 146.995 3.69387 145.721 6.69037C145.542 7.08512 145.291 7.64136 145.165 7.9105C144.77 8.7 144.842 9.11269 145.345 9.11269C145.793 9.11269 146.367 8.48468 146.601 7.73107C146.762 7.21072 147.193 7.10307 148.826 7.17484L150.153 7.22867L150.638 8.12582C151.05 8.87943 151.23 9.04092 151.696 9.07681C152.019 9.11269 152.271 9.07681 152.271 8.98709C152.271 8.68206 151.786 7.47987 151.589 7.2825C151.463 7.15689 151.373 6.88775 151.373 6.67243C151.373 6.45711 151.248 6.18797 151.104 6.06236C150.961 5.93676 150.835 5.72145 150.835 5.5779C150.835 5.43436 150.727 5.09344 150.602 4.84223C150.458 4.57309 150.207 4.03479 150.046 3.64004C149.166 1.63042 148.897 1.39716 148.018 1.75602ZM148.951 4.21422C149.131 4.59103 149.382 5.11138 149.525 5.39847C149.848 6.00853 149.651 6.11619 148.395 6.02648C147.641 5.97265 147.516 5.91882 147.552 5.61379C147.605 5.11138 148.305 3.55033 148.485 3.55033C148.556 3.55033 148.772 3.85536 148.951 4.21422ZM153.742 1.72013C153.58 1.84573 153.527 2.707 153.562 5.4523L153.616 9.02298L154.119 9.07681L154.603 9.13064V6.97746C154.603 4.6628 154.675 4.23217 155.052 4.37571C155.195 4.42954 155.877 5.25492 156.595 6.20591C158.282 8.48468 158.892 9.11269 159.394 9.11269C159.968 9.11269 160.004 8.80766 159.95 5.07549L159.896 1.84573H158.82L158.73 3.99891C158.64 6.02648 158.622 6.15208 158.282 6.09825C158.084 6.06236 157.905 5.95471 157.869 5.88293C157.797 5.7035 156.918 4.51926 156.523 4.07068C156.38 3.90919 155.931 3.31707 155.5 2.76083C155.088 2.2046 154.675 1.75602 154.603 1.75602C154.513 1.75602 154.352 1.72013 154.208 1.6663C154.083 1.61247 153.868 1.64836 153.742 1.72013ZM0.29248 2.38403C0.29248 3.11969 0.651343 3.3709 1.72793 3.3709C3.05572 3.3709 4.63471 4.48337 5.19095 5.84705C5.33449 6.20591 5.5857 7.2825 5.76513 8.23348C6.01633 9.7407 6.07016 11.4274 6.05222 21.2422C6.05222 31.5416 6.01633 32.6899 5.69336 34.4125C5.51392 35.4532 5.24478 36.4939 5.10123 36.7451C4.27585 38.2523 3.55813 38.7547 1.94325 38.97C0.705172 39.1315 0.29248 39.4007 0.29248 40.0107C0.29248 40.3696 0.400139 40.5311 0.705172 40.6029C0.920489 40.6567 5.5857 40.6746 11.0583 40.6567L21.0168 40.6029L21.0706 40.1004C21.1603 39.3289 20.8553 39.1315 19.4378 38.988C18.738 38.9162 17.9485 38.7368 17.6973 38.5753C17.0155 38.1446 16.2618 37.4269 16.2618 37.1757C16.2618 37.0681 16.1542 36.8707 16.0106 36.763C15.8671 36.6374 15.7235 36.2606 15.6697 35.8838C15.6159 35.525 15.4903 34.8072 15.4006 34.3048C15.2929 33.8024 15.1494 30.9674 15.0776 28.0247C14.9699 23.1442 14.9879 22.6418 15.257 22.4085C15.4723 22.2291 15.9389 22.1932 17.2128 22.265C19.994 22.4265 20.9809 22.6956 21.878 23.4672C22.6496 24.149 23.7979 26.1766 23.7979 26.8584C23.7979 27.7376 25.3052 28.1862 25.5025 27.3788C25.5564 27.1455 25.5743 24.2208 25.5564 20.8654L25.5025 14.7648L24.8745 14.7109C24.1748 14.6392 23.7979 14.998 23.7979 15.7516C23.7979 16.0028 23.6723 16.3797 23.5288 16.577C23.3853 16.7565 23.2597 17.0256 23.2597 17.1692C23.2597 17.4562 22.2369 18.784 21.7345 19.1608C20.622 19.9862 20.2811 20.058 17.6255 20.058C16.0645 20.058 15.0058 19.9862 14.9699 19.8786C14.8802 19.6094 15.1494 4.96783 15.257 4.69869C15.4006 4.32188 24.1209 4.33983 24.6233 4.71663C24.8028 4.86018 25.0899 4.98578 25.2513 4.98578C25.5743 4.98578 27.1354 5.97265 27.6916 6.52888C28.1222 6.95952 29.0912 8.21554 29.2347 8.5744C29.3065 8.71795 29.5577 9.20241 29.8089 9.63304C30.0601 10.0637 30.2575 10.5302 30.2575 10.6558C30.2575 10.7814 30.3831 11.1044 30.5266 11.3915C30.6702 11.6606 30.8316 12.1092 30.8855 12.3783C31.0111 13.0063 31.6391 13.1858 32.3927 12.809L32.9489 12.5039V1.75602H0.29248L0.29248 2.38403ZM128.029 1.97134C128.029 2.09694 128.029 3.22735 128.047 4.48337C128.065 6.78009 127.958 7.2825 127.33 7.80285C126.917 8.14377 126.433 8.07199 125.805 7.58753L125.23 7.15689L124.818 7.58753C124.333 8.10788 124.459 8.35908 125.553 8.91532C126.433 9.38184 127.061 9.38184 127.94 8.95121C129.124 8.34114 129.303 7.74902 129.303 4.5372V1.75602H128.675C128.299 1.75602 128.047 1.84573 128.029 1.97134ZM139.029 5.38053L139.082 9.02298L139.513 9.07681C140.069 9.16652 140.249 8.86149 140.249 7.85668C140.249 7.39015 140.338 6.94158 140.464 6.81598C140.59 6.69037 141.182 6.60066 141.864 6.60066C142.833 6.60066 143.155 6.51094 143.712 6.15208C144.071 5.90088 144.376 5.5779 144.376 5.4523C144.376 5.30875 144.501 5.11138 144.645 4.98578C145.022 4.68074 144.986 3.94508 144.555 3.10175C143.963 1.93545 143.514 1.75602 141.092 1.75602H138.993L139.029 5.38053ZM143.012 3.17352C143.478 3.69387 143.425 4.73457 142.922 5.16521C142.581 5.4523 142.276 5.50613 141.415 5.47024L140.338 5.43436L140.285 4.37571C140.213 2.86849 140.231 2.8326 141.559 2.8326C142.474 2.8326 142.779 2.90438 143.012 3.17352ZM41.5257 12.0912C41.4719 12.1451 40.826 12.2886 40.1082 12.4322C34.7971 13.4011 31.2443 16.8282 29.5756 22.57C29.1629 24.0234 29.0553 29.7293 29.45 30.6803C29.5936 31.0571 29.7192 31.5595 29.7192 31.8107C29.7192 32.2234 30.0063 33.0129 30.5446 34.1074C30.6881 34.3945 30.7958 34.6996 30.7958 34.7893C30.7958 35.1481 32.931 37.7499 33.864 38.5394C34.7612 39.293 36.3222 40.1543 37.7936 40.6926C40.0185 41.5 45.8141 41.5 48.0211 40.6746C52.2198 39.1315 54.4986 36.9066 56.3467 32.5643C56.5082 32.1875 56.6338 31.7031 56.6338 31.4878C56.6518 31.2724 56.7594 30.8956 56.903 30.6444C57.1003 30.3035 57.1542 29.3705 57.1542 26.5175C57.1542 23.6646 57.1003 22.7315 56.903 22.3906C56.7594 22.1394 56.6518 21.7626 56.6338 21.5473C56.6338 21.1525 56.3288 20.3451 55.8084 19.2864C55.6649 18.9993 55.5572 18.6943 55.5572 18.6046C55.5572 18.156 53.2785 15.4825 52.2737 14.7468C50.7664 13.6344 48.38 12.5219 47.5008 12.5219C47.2316 12.5219 46.6036 12.3963 46.1192 12.2527C45.2758 12.0015 41.7411 11.858 41.5257 12.0912ZM43.8583 13.9753C45.6526 14.4059 47.5546 17.205 48.0391 20.1477C48.1109 20.6322 48.2544 21.4396 48.3621 21.942C48.5953 23.1083 48.5953 31.3801 48.3621 32.4387C48.2723 32.8873 48.1288 33.6409 48.0391 34.1433C47.7161 35.9735 46.9446 37.6064 45.9397 38.5932C45.0426 39.4904 44.1813 39.7057 42.5844 39.5083C41.8487 39.4007 41.5796 39.2392 40.8798 38.5394C40.4133 38.0729 39.8929 37.409 39.7314 37.0501C38.8702 35.2738 38.5113 34.2151 38.3139 32.977C38.2242 32.4387 38.0807 31.5775 37.9909 31.093C37.7577 29.9267 37.7756 22.9648 37.9909 21.6729C38.0807 21.1346 38.2063 20.2374 38.278 19.6991C38.3319 19.1608 38.4934 18.5508 38.619 18.3534C38.7625 18.156 38.8702 17.7972 38.8702 17.528C38.8702 17.2589 38.9958 16.9538 39.1393 16.8282C39.2828 16.7026 39.4085 16.4514 39.4085 16.272C39.4085 15.7516 41.0413 14.2444 41.8487 14.0112C42.7997 13.76 42.9074 13.742 43.8583 13.9753Z" fill="black"/>
<path d="M69.1939 12.1451C69.0504 12.2349 68.3506 12.3963 67.6688 12.504C66.1077 12.7552 64.6902 13.0244 63.6316 13.2756C63.183 13.3832 62.3755 13.5268 61.8373 13.5806C61.299 13.6524 60.6709 13.7959 60.4556 13.9215C60.2403 14.0471 59.6661 14.1368 59.1996 14.1368C58.0871 14.1368 57.6565 14.4239 57.7462 15.1237C57.8001 15.6261 57.8539 15.662 58.6793 15.7158C59.7917 15.7876 60.7427 16.4874 61.1016 17.4742C61.4784 18.5508 61.6758 24.4721 61.5502 30.806C61.4425 35.7044 61.3887 36.5298 61.1016 37.1758C60.6351 38.2524 59.9173 38.8445 58.9305 38.988C57.9436 39.1316 57.6565 39.4007 57.7462 40.1005L57.8001 40.6029H66.2154C74.0386 40.6029 74.6486 40.585 74.8281 40.2799C74.9716 40.0646 74.9716 39.8852 74.8281 39.6699C74.5948 39.311 74.0386 39.1316 72.5672 38.988C70.7011 38.7907 70.1987 37.9294 69.8758 34.3228C69.6246 31.4519 69.5887 23.1981 69.804 21.5832C70.0193 20.1298 70.109 20.0042 71.2574 19.448C72.1007 19.0532 72.4955 18.9815 73.8232 18.9815C74.8639 18.9815 75.5637 19.0712 75.9046 19.2506C76.1738 19.3942 76.5327 19.5198 76.6941 19.5198C76.8377 19.5198 77.1068 19.6274 77.2504 19.771C77.4119 19.8966 77.7528 20.0581 78.0219 20.1298C78.4346 20.2195 78.5243 20.1478 78.8653 19.4659C79.0806 19.0353 79.2421 18.5688 79.2421 18.4073C79.2421 18.2458 79.3677 18.0305 79.5112 17.9049C79.6548 17.7793 79.7804 17.5101 79.7804 17.2948C79.7804 17.0795 79.906 16.7386 80.0495 16.5412C80.1931 16.3618 80.3187 16.0567 80.3187 15.8952C80.3187 15.7338 80.4263 15.3749 80.5699 15.0878C81.2876 13.5985 81.4311 13.2576 81.3594 12.9705C81.1979 12.1631 77.7887 11.6966 76.2276 12.2707C73.895 13.1141 72.4237 14.2445 71.1318 16.2182C70.7191 16.8462 70.2705 17.3666 70.1449 17.3666C69.9834 17.3666 69.9116 16.7027 69.8758 14.7289C69.8399 13.1858 69.7502 12.0734 69.6425 12.0554C69.5528 12.0195 69.3375 12.0734 69.1939 12.1451ZM124.602 12.0734C124.548 12.1272 123.902 12.2887 123.185 12.4322C121.857 12.6655 120.834 12.9705 120.332 13.2576C120.188 13.3473 119.937 13.4729 119.793 13.5268C119.65 13.5806 119.453 13.6703 119.345 13.7062C118.268 14.1368 115.182 16.8821 114.751 17.8152C114.662 18.0125 114.429 18.4073 114.231 18.7123C114.034 18.9994 113.836 19.3762 113.765 19.5198C113.711 19.6633 113.549 20.0042 113.406 20.2734C113.262 20.5246 113.155 20.8834 113.155 21.0808C113.155 21.2602 113.029 21.5653 112.885 21.7447C112.742 21.9421 112.616 22.3548 112.616 22.6419C112.616 22.9469 112.491 23.5928 112.347 24.0773C112.024 25.118 111.988 28.5631 112.275 29.6576C112.383 30.0524 112.527 30.7521 112.598 31.2366C112.67 31.7031 112.832 32.1876 112.939 32.2953C113.065 32.4209 113.155 32.69 113.155 32.9053C113.155 33.1206 113.28 33.3898 113.424 33.5154C113.567 33.641 113.693 33.8742 113.693 34.0537C113.693 34.2331 113.818 34.4664 113.962 34.592C114.106 34.7176 114.231 34.897 114.231 34.9867C114.231 35.2379 115.236 36.4939 116.205 37.4629C117.264 38.5215 118.753 39.6519 119.435 39.9031C119.578 39.957 119.955 40.1005 120.242 40.2261C122.18 41.0515 123.526 41.2847 126.253 41.3027C128.316 41.3027 130.254 41.0694 131.098 40.7285C131.349 40.6209 131.995 40.3697 132.533 40.1543C133.879 39.5981 135.26 38.7009 136.409 37.6064C137.485 36.5837 137.665 35.9736 136.965 35.6506C136.606 35.4891 136.391 35.5609 135.53 36.0992C134.973 36.4581 134.381 36.7451 134.202 36.7451C134.022 36.7631 133.681 36.8707 133.43 37.0143C133.107 37.1937 132.336 37.2655 130.739 37.2834C128.442 37.2834 127.671 37.1399 125.984 36.3504C124.459 35.6686 122.485 33.623 121.857 32.0799C120.996 30.0165 120.691 28.7246 120.691 27.0738V25.441L129.267 25.4051L137.826 25.3513L137.88 24.2209C137.916 23.557 137.808 22.6777 137.647 22.1215C137.503 21.6012 137.378 20.9373 137.378 20.6502C137.378 20.3631 137.252 19.9683 137.109 19.771C136.965 19.5915 136.839 19.3044 136.839 19.143C136.839 18.9815 136.642 18.497 136.391 18.0664C136.14 17.6357 135.888 17.1513 135.817 17.0077C135.601 16.5233 134.614 15.3211 133.986 14.7648C133.646 14.4598 133.251 14.083 133.089 13.9036C132.946 13.7421 132.677 13.5985 132.533 13.5985C132.372 13.5985 132.156 13.5088 132.031 13.3832C131.762 13.1141 130.739 12.7373 129.303 12.3963C128.083 12.1093 124.8 11.876 124.602 12.0734ZM127.455 14.7289C128.119 15.3749 128.496 16.1823 128.765 17.5101C128.855 17.9228 129.016 18.4252 129.124 18.6047C129.321 18.9994 129.375 23.0546 129.178 23.1622C129.088 23.216 127.186 23.2699 124.907 23.3058L120.78 23.3775L120.727 22.4086C120.691 21.8882 120.762 21.2064 120.87 20.8834C120.978 20.5784 121.139 19.9683 121.229 19.5198C121.301 19.0712 121.48 18.4252 121.588 18.0843C121.713 17.7434 121.857 17.3666 121.893 17.2769C121.929 17.1692 122.108 16.8462 122.306 16.5591C122.503 16.2541 122.736 15.8594 122.826 15.662C123.023 15.2134 124.172 14.2624 124.692 14.1009C124.907 14.0292 125.481 13.9933 125.948 14.0292C126.666 14.083 126.935 14.1907 127.455 14.7289ZM148.951 12.2528C148.556 12.3963 148 12.504 147.695 12.5219C147.408 12.5219 146.995 12.6475 146.816 12.7911C146.618 12.9346 146.278 13.0602 146.062 13.0602C145.829 13.0602 145.596 13.15 145.542 13.2397C145.47 13.3473 145.147 13.5447 144.806 13.6882C144.124 13.9753 141.917 15.985 141.666 16.5591C141.576 16.7565 141.433 17.0436 141.343 17.1872C140.536 18.6226 140.518 18.6764 140.518 21.0449C140.518 22.9648 140.59 23.4672 140.841 23.8261C141.002 24.0594 141.146 24.3644 141.146 24.5079C141.146 25.2077 144.25 28.1325 145.004 28.1325C145.129 28.1325 145.327 28.2581 145.452 28.4016C145.578 28.5451 145.847 28.6707 146.062 28.6707C146.26 28.6707 146.601 28.7963 146.78 28.9399C146.977 29.0834 147.3 29.209 147.516 29.209C147.731 29.209 148.054 29.3346 148.251 29.4782C148.431 29.6217 148.718 29.7473 148.861 29.7473C149.633 29.7653 152.558 31.5237 153.168 32.3491C153.903 33.336 154.19 34.7535 153.814 35.5071C153.652 35.83 153.527 36.1889 153.527 36.3325C153.527 36.781 152.611 37.8038 151.714 38.36C150.889 38.8624 150.709 38.8983 149.13 38.8983C147.695 38.8983 147.282 38.8265 146.547 38.4677C145.38 37.9114 144.178 36.9246 143.55 35.9736C143.263 35.5609 142.994 35.1841 142.94 35.1303C142.797 34.9867 142.402 34.3408 142.294 34.0537C142.097 33.5333 141.72 32.7079 141.397 32.0261C141.128 31.5058 140.966 31.3622 140.59 31.3622C140.32 31.3622 140.033 31.4699 139.944 31.5955C139.746 31.8287 139.944 39.4366 140.141 39.7596C140.195 39.8493 140.464 39.9749 140.733 40.0287C141.02 40.0646 141.487 40.1902 141.774 40.2979C143.748 40.9797 145.955 41.2668 149.489 41.2668C150.871 41.2847 152.576 41.195 153.257 41.1053C154.531 40.9079 155.985 40.4414 156.29 40.1364C156.397 40.0467 156.577 39.9749 156.702 39.9749C157.761 39.9749 161.063 36.3145 161.063 35.1303C161.063 34.6099 161.26 34.2331 161.529 34.2331C161.727 34.2331 161.78 33.7845 161.78 31.9902C161.78 30.1241 161.727 29.7473 161.511 29.7473C161.368 29.7473 161.188 29.532 161.134 29.2449C160.901 28.3119 160.309 27.4147 159.304 26.4996C158.748 25.9972 158.138 25.5128 157.941 25.423C157.564 25.2616 157.348 25.1539 156.667 24.7591C156.29 24.5259 156.254 24.5079 155.052 24.0594C154.37 23.8082 153.85 23.5928 152.593 23.0366C152.271 22.8931 151.876 22.7316 151.732 22.6777C150.997 22.3907 149.633 21.4576 148.969 20.8117C148.467 20.3093 148.108 19.753 147.91 19.1071C147.623 18.174 147.623 18.1023 147.964 17.0077C148.359 15.7517 148.61 15.4108 149.651 14.6572C150.297 14.1727 150.476 14.1368 151.912 14.1368C152.988 14.1368 153.562 14.2086 153.814 14.406C153.993 14.5495 154.298 14.6751 154.46 14.6751C154.639 14.6751 155.285 15.1775 155.913 15.7876C157.007 16.8642 157.366 17.4742 158.604 20.2734C158.927 21.009 159.412 21.1705 159.825 20.6681C160.022 20.4349 160.058 19.6633 160.022 17.1154C159.968 14.3521 159.914 13.8138 159.645 13.5626C159.286 13.1679 157.815 12.7373 156.128 12.504C155.446 12.4143 154.639 12.2528 154.352 12.1631C153.598 11.9119 149.812 11.9837 148.951 12.2528Z" fill="black"/>
</g>
<defs>
<clipPath id="clip0_27_289">
<rect width="161.927" height="41" fill="white" transform="translate(0.0727539 0.5)"/>
</clipPath>
</defs>
</svg>
