<svg width="137" height="137" viewBox="0 0 137 137" fill="none" xmlns="http://www.w3.org/2000/svg">
<rect x="0.428711" y="0.428589" width="135.714" height="135.714" rx="67.8571" fill="white"/>
<g clip-path="url(#clip0_4_488)">
<path d="M45.7061 91.7075V95.7999C45.7061 98.0361 47.046 100.092 49.3824 101.441C51.1756 102.477 53.334 103 55.4255 103C57.2844 103 59.0905 102.586 60.5385 101.75L94.8925 81.9157C96.889 80.7632 98.0342 78.9129 98.0342 76.8396V72.7472L45.7061 91.7075Z" fill="url(#paint0_linear_4_488)"/>
<path d="M94.3573 67.1057C90.97 65.1502 86.2782 65.0202 83.2014 66.7968L48.8467 86.6313C46.8506 87.784 45.7056 89.6342 45.7056 91.7075C45.7056 93.9437 47.0455 96 49.3819 97.349C51.1751 98.3842 53.3335 98.9078 55.425 98.9077C57.2839 98.9077 59.0901 98.4939 60.538 97.6578L94.8922 77.8232C96.8887 76.6707 98.0339 74.8205 98.0339 72.7471C98.0337 70.5109 96.6939 68.4547 94.3573 67.1057Z" fill="#E9E5F6"/>
<path d="M53.4023 84.0011L57.1052 86.1389L58.3447 85.4244L58.4302 81.0984L53.4023 84.0011Z" fill="url(#paint1_linear_4_488)"/>
<path d="M85.0531 70.0043L50.6987 89.8387C48.7886 90.9415 49.0281 92.8679 51.2337 94.1413C53.4394 95.4147 56.7758 95.553 58.6859 94.4501L93.0404 74.6158C94.9505 73.513 94.7109 71.5867 92.5052 70.3133C90.2997 69.0397 86.9632 68.9015 85.0531 70.0043Z" fill="#221C36"/>
<path d="M58.3639 94.6166L87.5372 33.711L86.457 33.0899C86.2539 32.9614 85.9852 32.9654 85.6893 33.1362L58.3811 48.9027C57.7495 49.2673 57.2373 50.2458 57.2373 51.088V95.0008C57.6413 94.9073 58.02 94.7786 58.3639 94.6166Z" fill="url(#paint2_linear_4_488)"/>
<path d="M58.4854 52.3024V94.2439L60.6362 93.3245L87.8003 77.6502V35.3773L58.4854 52.3024Z" fill="url(#paint3_linear_4_488)"/>
<path d="M86.7967 33.776L59.4885 49.5424C58.8569 49.907 58.3447 50.8855 58.3447 51.7277V94.6252C58.4623 94.5704 58.5773 94.5131 58.6861 94.4502L60.636 93.3245V61.0754C61.4078 61.289 62.3246 61.1434 63.3091 60.5749C66.0509 58.9918 68.2735 54.7451 68.2735 51.0893C68.2735 49.7766 67.9857 48.7204 67.4913 47.9767L78.7936 41.4513C78.2992 42.7659 78.0114 44.1544 78.0114 45.4672C78.0114 49.1229 80.2341 50.8032 82.9758 49.2203C83.9604 48.6518 84.8772 47.7388 85.649 46.6341V78.892L87.9402 77.5692V34.6406C87.9405 33.7984 87.4285 33.4112 86.7967 33.776Z" fill="url(#paint4_linear_4_488)"/>
<path d="M81.0214 81.5639C82.3643 78.4988 83.167 75.155 83.167 72.0229C83.167 64.5708 78.6362 61.1457 73.0472 64.3724C67.4581 67.5993 62.9274 76.2562 62.9272 83.7083C62.9272 86.8404 63.7298 89.2574 65.0728 90.7719L81.0214 81.5639Z" fill="url(#paint5_linear_4_488)"/>
<path d="M79.9138 72.5036L78.4387 73.3552C78.1814 70.9616 77.0919 69.6939 75.2308 70.7685C71.4175 72.9701 72.4163 79.8384 70.6609 80.8519C70.1767 81.1315 69.9347 80.6862 69.9346 79.7986C69.9346 79.1071 70.109 78.0614 70.3827 76.9377C70.7272 75.5234 70.6035 74.5568 70.0586 74.5258C69.3756 74.4868 68.1653 76.5197 67.9066 78.1448C67.8328 78.6085 67.7766 79.0732 67.7405 79.5319L66.434 80.2862C66.0327 80.5178 65.5312 81.5797 65.5312 82.1974C65.5312 82.9977 65.8514 83.3059 66.3714 83.0058L67.7557 82.2065C68.0735 84.6055 69.2386 85.5468 70.9182 84.5771C74.671 82.4104 73.5815 75.5945 75.3822 74.5549C75.9421 74.2317 76.2447 74.7431 76.2447 75.8324C76.2447 76.6882 76.0199 77.919 75.6475 79.1913C75.1803 80.7873 75.2678 81.9364 75.8556 81.9861L75.8657 81.987C76.4687 82.0381 77.5306 80.407 77.9334 78.8136C78.1672 77.8888 78.3352 76.9512 78.4237 76.0474L79.8512 75.2232C80.2524 74.9916 80.7539 73.9299 80.7539 73.3122C80.7539 72.5117 80.4336 72.2035 79.9138 72.5036Z" fill="white"/>
<path d="M56.4034 68.2534C56.3813 68.2376 56.358 68.224 56.3342 68.2117L52.7033 66.0285V61.2233C52.7033 59.9174 52.2635 59.003 51.5712 58.619L51.5713 58.6179L47.3632 56.089C46.7935 55.7242 46.0353 55.7389 45.2029 56.2194C43.433 57.2414 41.998 59.983 41.998 62.3431V71.1098L39.0451 72.8146C38.1589 73.3262 37.6517 74.9663 38.1812 75.6081L44.339 83.0711C44.3837 83.1253 44.4332 83.1678 44.4864 83.2005V83.2007L48.779 85.7802L48.7791 85.7799C49.2375 86.0665 49.9754 85.5704 50.3623 84.6548L56.5201 70.0812C56.8693 69.2545 56.7674 68.5147 56.4034 68.2534Z" fill="url(#paint6_linear_4_488)"/>
<path d="M41.998 71.1095L39.045 72.8144C38.1588 73.3261 37.6517 74.9661 38.1812 75.6078L44.339 83.071C44.3838 83.125 44.4332 83.1677 44.4864 83.2004V83.2006L48.779 85.7801L48.7791 85.7798L46.2934 73.6906L41.998 71.1095Z" fill="url(#paint7_linear_4_488)"/>
<path d="M42.4766 78.189L48.6345 85.6521C49.0653 86.1742 49.9314 85.6741 50.3622 84.6546L56.52 70.081C57.0495 68.8279 56.5423 67.7734 55.6562 68.2851L52.7032 69.99V61.2233C52.7032 58.8633 51.2683 57.7786 49.4983 58.8005C47.7283 59.8225 46.2933 62.5641 46.2933 64.9242V73.6908L43.3403 75.3957C42.4542 75.9072 41.9471 77.5473 42.4766 78.189Z" fill="url(#paint8_linear_4_488)"/>
<path d="M58.3447 83.3596V94.6252C58.4623 94.5704 58.5773 94.5131 58.6861 94.4502L63.4566 91.6959V91.7047L87.9404 77.5691V66.2725L58.3447 83.3596Z" fill="url(#paint9_linear_4_488)"/>
</g>
<defs>
<linearGradient id="paint0_linear_4_488" x1="45.7061" y1="87.8735" x2="98.0341" y2="87.8735" gradientUnits="userSpaceOnUse">
<stop stop-color="#7662BD"/>
<stop offset="0.2216" stop-color="#E9E5F6"/>
<stop offset="0.3753" stop-color="#A996EB"/>
<stop offset="0.437" stop-color="#BBACEF"/>
<stop offset="0.5523" stop-color="#D9D1F5"/>
<stop offset="0.646" stop-color="#EBE7F9"/>
<stop offset="0.7058" stop-color="#F2EFFA"/>
<stop offset="0.7637" stop-color="#E9E4F8"/>
<stop offset="0.8662" stop-color="#D0C6F3"/>
<stop offset="1" stop-color="#A996EB"/>
</linearGradient>
<linearGradient id="paint1_linear_4_488" x1="61.0682" y1="85.5241" x2="55.9959" y2="82.5956" gradientUnits="userSpaceOnUse">
<stop stop-color="#7662BD"/>
<stop offset="1" stop-color="#7662BD" stop-opacity="0"/>
</linearGradient>
<linearGradient id="paint2_linear_4_488" x1="67.446" y1="55.7977" x2="69.1681" y2="52.8149" gradientUnits="userSpaceOnUse">
<stop stop-color="#1A4C4E"/>
<stop offset="1" stop-color="#236568"/>
</linearGradient>
<linearGradient id="paint3_linear_4_488" x1="60.3673" y1="57.4347" x2="87.3556" y2="73.0164" gradientUnits="userSpaceOnUse">
<stop stop-color="#06DAAE"/>
<stop offset="1" stop-color="#9BF0DF"/>
</linearGradient>
<linearGradient id="paint4_linear_4_488" x1="64.1106" y1="59.0699" x2="96.0645" y2="77.5184" gradientUnits="userSpaceOnUse">
<stop stop-color="#2F878A"/>
<stop offset="1" stop-color="#06DAAE"/>
</linearGradient>
<linearGradient id="paint5_linear_4_488" x1="61.2035" y1="75.0258" x2="84.9314" y2="83.2434" gradientUnits="userSpaceOnUse">
<stop stop-color="#2F878A"/>
<stop offset="1" stop-color="#06DAAE"/>
</linearGradient>
<linearGradient id="paint6_linear_4_488" x1="49.6078" y1="66.6084" x2="53.0466" y2="60.652" gradientUnits="userSpaceOnUse">
<stop stop-color="#00395E"/>
<stop offset="1" stop-color="#0197F8"/>
</linearGradient>
<linearGradient id="paint7_linear_4_488" x1="43.9486" y1="79.0009" x2="45.2295" y2="76.7822" gradientUnits="userSpaceOnUse">
<stop stop-color="#00395E"/>
<stop offset="1" stop-color="#0197F8"/>
</linearGradient>
<linearGradient id="paint8_linear_4_488" x1="49.4984" y1="89.8271" x2="49.4984" y2="66.1252" gradientUnits="userSpaceOnUse">
<stop stop-color="#0072BC"/>
<stop offset="1" stop-color="#2F97F7"/>
</linearGradient>
<linearGradient id="paint9_linear_4_488" x1="75.8544" y1="85.1457" x2="71.4153" y2="77.4569" gradientUnits="userSpaceOnUse">
<stop stop-color="#1A4C4E"/>
<stop offset="1" stop-color="#1A4C4E" stop-opacity="0"/>
</linearGradient>
<clipPath id="clip0_4_488">
<rect width="70" height="70" fill="white" transform="translate(33 33)"/>
</clipPath>
</defs>
</svg>
