<svg width="137" height="137" viewBox="0 0 137 137" fill="none" xmlns="http://www.w3.org/2000/svg">
<rect x="0.428711" y="0.428589" width="135.714" height="135.714" rx="67.8571" fill="white"/>
<g clip-path="url(#clip0_4_526)">
<path d="M68 103C87.33 103 103 87.33 103 68C103 48.67 87.33 33 68 33C48.67 33 33 48.67 33 68C33 87.33 48.67 103 68 103Z" fill="url(#paint0_linear_4_526)"/>
<path d="M92.6444 49.5908C91.4434 48.7085 90.1699 47.8995 88.8354 47.1647C88.1005 45.8302 87.2914 44.5566 86.4092 43.3556C81.5101 36.6864 74.9721 33.0134 68 33.0134C61.0278 33.0134 54.49 36.6864 49.5908 43.3556C48.7085 44.5566 47.8994 45.83 47.1645 47.1647C45.83 47.8995 44.5566 48.7087 43.3554 49.5909C36.6864 54.49 33.0134 61.0278 33.0134 68C33.0134 74.9721 36.6864 81.51 43.3556 86.4092C44.5566 87.2914 45.83 88.1005 47.1647 88.8354C47.8995 90.1699 48.7087 91.4434 49.5909 92.6445C54.4901 99.3137 61.028 102.987 68.0001 102.987C74.9723 102.987 81.5103 99.3137 86.4093 92.6445C87.2916 91.4435 88.1007 90.1701 88.8355 88.8354C90.1701 88.1005 91.4435 87.2914 92.6445 86.4093C99.3137 81.5101 102.987 74.9723 102.987 68.0001C102.987 61.028 99.3136 54.49 92.6444 49.5908ZM68 101.339C66.0785 101.339 64.042 98.4773 62.432 93.5935C64.2569 93.8082 66.1168 93.9195 68 93.9195C69.8831 93.9195 71.7432 93.8083 73.5681 93.5935C71.958 98.4773 69.9214 101.339 68 101.339ZM68 92.2723C65.9182 92.2723 63.8811 92.1313 61.9039 91.8642C60.8067 87.9846 60.0101 83.3274 59.5543 78.2426C62.2836 78.4378 65.1152 78.5383 68 78.5383C70.8848 78.5383 73.7164 78.4377 76.4457 78.2426C75.9899 83.3274 75.1932 87.9844 74.096 91.8642C72.119 92.1313 70.0817 92.2723 68 92.2723ZM68 34.6605C69.9214 34.6605 71.958 37.5227 73.5681 42.4065C71.7432 42.1918 69.8831 42.0805 68 42.0805C66.1168 42.0805 64.2568 42.1918 62.432 42.4065C64.042 37.5227 66.0785 34.6605 68 34.6605ZM68 43.7277C70.0817 43.7277 72.119 43.8686 74.096 44.1357C75.1932 48.0155 75.9899 52.6726 76.4457 57.7573C73.7164 57.5622 70.8847 57.4617 68 57.4617C65.1152 57.4617 62.2836 57.5623 59.5543 57.7573C60.0101 52.6726 60.8067 48.0154 61.9039 44.1357C63.8811 43.8686 65.9182 43.7277 68 43.7277ZM59.1086 68C59.1086 65.0633 59.2144 62.1856 59.4185 59.4187C62.1854 59.2146 65.0633 59.1087 68 59.1087C70.9367 59.1087 73.8145 59.2146 76.5814 59.4187C76.7855 62.1856 76.8914 65.0634 76.8914 68C76.8914 70.9367 76.7855 73.8144 76.5814 76.5813C73.8145 76.7854 70.9367 76.8912 68 76.8912C65.0633 76.8912 62.1856 76.7854 59.4185 76.5813C59.2144 73.8144 59.1086 70.9367 59.1086 68ZM57.7573 76.4457C52.6726 75.9899 48.0154 75.1932 44.1357 74.096C43.8686 72.1189 43.7277 70.0817 43.7277 68C43.7277 65.9182 43.8686 63.8811 44.1357 61.9039C48.0154 60.8067 52.6726 60.0101 57.7573 59.5543C57.5622 62.2836 57.4617 65.1152 57.4617 68C57.4615 70.8848 57.5622 73.7164 57.7573 76.4457ZM78.2428 59.5543C83.3275 60.0101 87.9846 60.8067 91.8644 61.9039C92.1315 63.8811 92.2724 65.9182 92.2724 68C92.2724 70.0817 92.1315 72.1189 91.8644 74.096C87.9846 75.1932 83.3275 75.9899 78.2428 76.4457C78.4379 73.7164 78.5384 70.8848 78.5384 68C78.5384 65.1152 78.4379 62.2836 78.2428 59.5543ZM78.1107 57.8894C77.677 52.9055 76.921 48.3097 75.8803 44.4145C80.1754 45.1753 84.1471 46.5429 87.6144 48.3858C89.4572 51.8532 90.8249 55.8248 91.5856 60.1198C87.6904 59.0791 83.0946 58.3231 78.1107 57.8894ZM57.8892 57.8894C52.9054 58.3231 48.3095 59.0791 44.4144 60.1198C45.175 55.8248 46.5428 51.853 48.3856 48.3858C51.8529 46.5431 55.8245 45.1753 60.1195 44.4146C59.0791 48.3095 58.3231 52.9054 57.8892 57.8894ZM42.4065 73.568C37.5227 71.958 34.6605 69.9214 34.6605 68C34.6605 66.0785 37.5227 64.042 42.4065 62.432C42.1918 64.2569 42.0805 66.1168 42.0805 68C42.0805 69.8831 42.1918 71.7432 42.4065 73.568ZM57.8892 78.1107C58.323 83.0946 59.079 87.6904 60.1196 91.5856C55.8246 90.8249 51.8529 89.4572 48.3857 87.6144C46.5429 84.1471 45.1752 80.1754 44.4145 75.8803C48.3095 76.9209 52.9054 77.6769 57.8892 78.1107ZM78.1107 78.1107C83.0946 77.677 87.6904 76.921 91.5856 75.8803C90.8249 80.1753 89.4572 84.1469 87.6144 87.6143C84.1471 89.4572 80.1754 90.8248 75.8803 91.5856C76.921 87.6904 77.677 83.0946 78.1107 78.1107ZM93.5935 62.432C98.4773 64.0421 101.339 66.0785 101.339 68C101.339 69.9214 98.4773 71.9579 93.5935 73.568C93.8082 71.7432 93.9195 69.8831 93.9195 68C93.9195 66.1168 93.8082 64.2568 93.5935 62.432ZM100.95 64.2908C99.339 62.9166 96.7844 61.6812 93.3448 60.6242C92.7458 56.8318 91.6855 53.2186 90.2015 49.9092C95.8328 53.5761 99.7492 58.6115 100.95 64.2908ZM86.0909 45.7986C82.7815 44.3146 79.1683 43.2543 75.3758 42.6553C74.3188 39.2157 73.0834 36.661 71.7092 35.0495C77.3886 36.2507 82.424 40.1672 86.0909 45.7986ZM64.2908 35.0493C62.9166 36.6608 61.6812 39.2156 60.624 42.6552C56.8317 43.2542 53.2184 44.3144 49.9091 45.7984C53.5761 40.1672 58.6113 36.2507 64.2908 35.0493ZM45.7984 49.9091C44.3144 53.2184 43.2542 56.8317 42.6552 60.624C39.2156 61.681 36.6608 62.9165 35.0493 64.2907C36.2507 58.6115 40.1672 53.5761 45.7984 49.9091ZM35.0493 71.7092C36.6608 73.0834 39.2156 74.3188 42.6552 75.3759C43.2542 79.1683 44.3144 82.7815 45.7984 86.0909C40.1672 82.4238 36.2507 77.3886 35.0493 71.7092ZM49.9091 90.2015C53.2184 91.6855 56.8317 92.7458 60.624 93.3448C61.6812 96.7844 62.9165 99.3391 64.2908 100.951C58.6113 99.7492 53.5761 95.8328 49.9091 90.2015ZM71.7092 100.951C73.0835 99.3391 74.3188 96.7844 75.3758 93.3448C79.1683 92.7458 82.7815 91.6855 86.0909 90.2015C82.424 95.8328 77.3886 99.7492 71.7092 100.951ZM90.2015 86.0907C91.6855 82.7814 92.7458 79.1683 93.3448 75.3758C96.7844 74.3188 99.339 73.0834 100.95 71.7092C99.7492 77.3885 95.8328 82.4238 90.2015 86.0907Z" fill="url(#paint1_linear_4_526)"/>
<path d="M68 99.242C85.2545 99.242 99.242 85.2545 99.242 68C99.242 50.7456 85.2545 36.7581 68 36.7581C50.7456 36.7581 36.7581 50.7456 36.7581 68C36.7581 85.2545 50.7456 99.242 68 99.242Z" fill="url(#paint2_linear_4_526)"/>
<path d="M96.164 88.7803L66.0345 58.6509C65.1562 57.5666 63.8147 56.8729 62.3106 56.8729C59.6649 56.8729 57.52 59.0177 57.52 61.6635C57.52 63.1661 58.2126 64.5058 59.2953 65.3837C59.5068 65.6452 61.6276 67.7517 61.7348 67.861V69.6931C60.5071 69.9576 59.5864 71.0482 59.5864 72.3551C59.5864 73.2892 60.057 74.113 60.7735 74.6037L84.8516 98.6817C89.3021 96.2319 93.1617 92.8426 96.164 88.7803Z" fill="url(#paint3_linear_4_526)"/>
<path d="M64.7294 69.4576L66.0844 70.8124C66.58 71.308 66.8583 71.9802 66.8583 72.681C66.8583 74.1404 68.0415 75.3236 69.5009 75.3236C71.0229 75.3236 72.2569 76.5573 72.2569 78.0794C72.2569 80.0584 71.844 82.0157 71.0445 83.8261L66.1662 94.8735C65.4984 96.3857 63.52 96.7555 62.351 95.5865C60.6473 93.8828 59.6901 91.5719 59.6901 89.1624V87.8774C59.6901 84.5275 58.3592 81.3146 55.9905 78.9459L55.8461 78.8015C53.6168 76.5723 52.3645 73.5487 52.3645 70.3961V69.9356C52.3645 67.7487 54.1373 65.976 56.3242 65.976C59.4766 65.976 62.5002 67.2284 64.7294 69.4576Z" fill="url(#paint4_linear_4_526)"/>
<path d="M69.5008 75.3237C68.0414 75.3237 66.8582 74.1406 66.8582 72.6811C66.8582 71.9803 66.5799 71.3082 66.0842 70.8125L64.7293 69.4577C63.5652 68.2936 62.1835 67.399 60.6809 66.8069C61.2041 67.332 61.6851 67.8104 61.7346 67.861V69.6931C60.5069 69.9576 59.5862 71.0482 59.5862 72.3551C59.5862 73.2892 60.0568 74.113 60.7733 74.6036L70.7232 84.5535L71.0442 83.8264C71.8436 82.016 72.2566 80.0587 72.2566 78.0796C72.2567 76.5575 71.0228 75.3237 69.5008 75.3237Z" fill="url(#paint5_linear_4_526)"/>
<path d="M55.9624 35.1259C47.1995 38.3357 40.0783 44.9496 36.1991 53.366C35.7393 54.3634 35.5117 55.4522 35.5117 56.5504C35.5117 58.5962 36.3244 60.5581 37.7709 62.0047L38.4863 62.72C41.6919 65.9256 46.0397 67.7265 50.5731 67.7265C51.2503 67.7265 51.7993 67.1775 51.7993 66.5003C51.7993 65.8231 51.2503 65.2741 50.5731 65.2741H46.8035C45.0649 65.2741 43.6556 63.8647 43.6556 62.1261C43.6556 60.3875 45.0651 58.9782 46.8035 58.9782H49.7478C53.2781 58.9782 56.6638 57.5757 59.1602 55.0795L63.7061 50.5336C64.696 49.5437 66.0386 48.9875 67.4384 48.9875C69.4636 48.9875 71.3103 47.8288 72.1912 46.0054C73.271 43.7706 71.6427 41.1757 69.1607 41.1757H63.2954C61.5709 41.1757 60.173 39.7777 60.173 38.0533C60.173 35.877 58.0059 34.3774 55.9624 35.1259Z" fill="url(#paint6_linear_4_526)"/>
<path d="M69.1607 41.1756H63.2954C61.571 41.1756 60.173 39.7777 60.173 38.0532C60.173 37.9507 60.1667 37.8503 60.1574 37.751C48.7231 40.7072 39.8287 49.9753 37.4116 61.6167C37.5272 61.7493 37.6458 61.8796 37.7708 62.0047L38.4862 62.7201C41.6918 65.9257 46.0396 67.7266 50.573 67.7266C51.2502 67.7266 51.7992 67.1776 51.7992 66.5004C51.7992 65.8232 51.2502 65.2742 50.573 65.2742H46.8034C45.0648 65.2742 43.6555 63.8647 43.6555 62.1262C43.6555 60.3876 45.065 58.9783 46.8034 58.9783H49.7477C53.278 58.9783 56.6637 57.5758 59.1601 55.0795L63.706 50.5337C64.6958 49.5438 66.0385 48.9876 67.4383 48.9876C69.4635 48.9876 71.31 47.8289 72.1911 46.0055C73.2708 43.7706 71.6427 41.1756 69.1607 41.1756Z" fill="url(#paint7_linear_4_526)"/>
<path d="M102.185 60.4588C101.702 58.2579 99.734 56.7012 97.4805 56.7012H92.5466H89.9093C85.4267 56.7012 81.7927 60.3351 81.7927 64.8177V65.8053C81.7927 69.7426 84.9846 72.9343 88.9219 72.9343C90.9239 72.9343 92.5466 74.5572 92.5466 76.5592V86.0249C92.5466 88.4915 95.7494 89.4741 97.1201 87.4234C99.9688 83.1617 101.907 78.2391 102.655 72.9343C102.882 71.3229 103 69.6745 103 68C103 65.4105 102.719 62.8875 102.185 60.4588Z" fill="url(#paint8_linear_4_526)"/>
<path d="M99.2419 52.2061H88.7872C86.9171 52.2061 85.4011 50.6901 85.4011 48.82C85.4011 46.9499 86.9171 45.434 88.7872 45.434H94.755C96.4996 47.4996 98.0094 49.7712 99.2419 52.2061Z" fill="url(#paint9_linear_4_526)"/>
<path d="M62.3107 75.0791C63.8152 75.0791 65.0349 73.8594 65.0349 72.3548C65.0349 70.8503 63.8152 69.6306 62.3107 69.6306C60.8061 69.6306 59.5864 70.8503 59.5864 72.3548C59.5864 73.8594 60.8061 75.0791 62.3107 75.0791Z" fill="url(#paint10_linear_4_526)"/>
<path d="M62.3107 74.6284C63.5664 74.6284 64.5844 73.6105 64.5844 72.3548C64.5844 71.0991 63.5664 70.0812 62.3107 70.0812C61.055 70.0812 60.0371 71.0991 60.0371 72.3548C60.0371 73.6105 61.055 74.6284 62.3107 74.6284Z" fill="url(#paint11_linear_4_526)"/>
<path d="M63.5294 69.918C63.7132 70.2847 63.8167 70.6985 63.8167 71.1367C63.8167 72.6412 62.5971 73.8609 61.0925 73.8609C60.6543 73.8609 60.2405 73.7573 59.8738 73.5736C60.3211 74.4663 61.2443 75.0792 62.3107 75.0792C63.8153 75.0792 65.035 73.8595 65.035 72.3549C65.035 71.2883 64.4221 70.3651 63.5294 69.918Z" fill="url(#paint12_linear_4_526)"/>
<path d="M62.3106 72.5727C61.9926 72.5727 61.7349 72.3149 61.7349 71.9969V65.41H62.8866V71.9969C62.8864 72.3149 62.6287 72.5727 62.3106 72.5727Z" fill="url(#paint13_linear_4_526)"/>
<path d="M62.4927 72.5428C62.7213 72.4666 62.8864 72.2511 62.8864 71.9968V65.4099H62.0989V71.9968C62.0989 72.2512 62.264 72.4666 62.4927 72.5428Z" fill="url(#paint14_linear_4_526)"/>
<path d="M61.7349 66.4197L62.8864 67.5713V65.41H61.7349V66.4197Z" fill="url(#paint15_linear_4_526)"/>
<path d="M62.3106 66.454C64.9564 66.454 67.1012 64.3092 67.1012 61.6634C67.1012 59.0176 64.9564 56.8728 62.3106 56.8728C59.6648 56.8728 57.52 59.0176 57.52 61.6634C57.52 64.3092 59.6648 66.454 62.3106 66.454Z" fill="url(#paint16_linear_4_526)"/>
<path d="M62.3106 65.6615C64.5187 65.6615 66.3087 63.8715 66.3087 61.6634C66.3087 59.4553 64.5187 57.6653 62.3106 57.6653C60.1025 57.6653 58.3125 59.4553 58.3125 61.6634C58.3125 63.8715 60.1025 65.6615 62.3106 65.6615Z" fill="url(#paint17_linear_4_526)"/>
<path d="M64.4537 57.3779C64.7768 58.0228 64.959 58.7505 64.959 59.5209C64.959 62.1666 62.8142 64.3115 60.1684 64.3115C59.3979 64.3115 58.6702 64.1294 58.0254 63.8063C58.8119 65.376 60.4353 66.4539 62.3108 66.4539C64.9565 66.4539 67.1014 64.3092 67.1014 61.6633C67.1014 59.788 66.0235 58.1645 64.4537 57.3779Z" fill="url(#paint18_linear_4_526)"/>
<path d="M83.6565 36.6912C86.017 41.4024 87.3477 46.7193 87.3477 52.3477C87.3477 71.6777 71.6777 87.3477 52.3477 87.3477C46.7193 87.3477 41.4024 86.0171 36.6912 83.6565C42.4378 95.1257 54.2984 103 68 103C87.33 103 103 87.33 103 68C103 54.2984 95.1255 42.4378 83.6565 36.6912Z" fill="url(#paint19_linear_4_526)"/>
</g>
<defs>
<linearGradient id="paint0_linear_4_526" x1="51.0511" y1="51.0511" x2="93.472" y2="93.472" gradientUnits="userSpaceOnUse">
<stop stop-color="#18CFFC"/>
<stop offset="1" stop-color="#4A98F7"/>
</linearGradient>
<linearGradient id="paint1_linear_4_526" x1="73.3494" y1="106.534" x2="60.7555" y2="15.8159" gradientUnits="userSpaceOnUse">
<stop stop-color="#18CFFC" stop-opacity="0"/>
<stop offset="1" stop-color="#65E1DC"/>
</linearGradient>
<linearGradient id="paint2_linear_4_526" x1="75.5566" y1="75.5566" x2="40.6846" y2="40.6846" gradientUnits="userSpaceOnUse">
<stop stop-color="#18CFFC" stop-opacity="0"/>
<stop offset="1" stop-color="#65E1DC"/>
</linearGradient>
<linearGradient id="paint3_linear_4_526" x1="81.6262" y1="80.847" x2="33.682" y2="61.4225" gradientUnits="userSpaceOnUse">
<stop stop-color="#0469BC" stop-opacity="0"/>
<stop offset="1" stop-color="#0469BC"/>
</linearGradient>
<linearGradient id="paint4_linear_4_526" x1="45.7573" y1="69.8224" x2="100.903" y2="108.951" gradientUnits="userSpaceOnUse">
<stop stop-color="#92F37F"/>
<stop offset="1" stop-color="#4AB272"/>
</linearGradient>
<linearGradient id="paint5_linear_4_526" x1="83.1604" y1="88.2274" x2="52.2048" y2="65.5481" gradientUnits="userSpaceOnUse">
<stop stop-color="#4AB272" stop-opacity="0"/>
<stop offset="1" stop-color="#009245"/>
</linearGradient>
<linearGradient id="paint6_linear_4_526" x1="57.0049" y1="53.9707" x2="112.15" y2="93.0989" gradientUnits="userSpaceOnUse">
<stop stop-color="#92F37F"/>
<stop offset="1" stop-color="#4AB272"/>
</linearGradient>
<linearGradient id="paint7_linear_4_526" x1="59.4207" y1="56.8471" x2="43.7985" y2="41.2249" gradientUnits="userSpaceOnUse">
<stop stop-color="#92F37F" stop-opacity="0"/>
<stop offset="1" stop-color="#FFEE83"/>
</linearGradient>
<linearGradient id="paint8_linear_4_526" x1="87.1078" y1="70.9856" x2="111.82" y2="75.3331" gradientUnits="userSpaceOnUse">
<stop stop-color="#92F37F"/>
<stop offset="1" stop-color="#4AB272"/>
</linearGradient>
<linearGradient id="paint9_linear_4_526" x1="91.0257" y1="48.7152" x2="115.738" y2="53.0627" gradientUnits="userSpaceOnUse">
<stop stop-color="#92F37F"/>
<stop offset="1" stop-color="#4AB272"/>
</linearGradient>
<linearGradient id="paint10_linear_4_526" x1="61.2914" y1="71.3356" x2="64.8197" y2="74.864" gradientUnits="userSpaceOnUse">
<stop stop-color="#FF7044"/>
<stop offset="1" stop-color="#F92814"/>
</linearGradient>
<linearGradient id="paint11_linear_4_526" x1="62.5821" y1="72.6263" x2="60.1167" y2="70.1609" gradientUnits="userSpaceOnUse">
<stop stop-color="#FF7044" stop-opacity="0"/>
<stop offset="1" stop-color="#FFA425"/>
</linearGradient>
<linearGradient id="paint12_linear_4_526" x1="62.4053" y1="73.3989" x2="66.1499" y2="66.4344" gradientUnits="userSpaceOnUse">
<stop stop-color="#F92814" stop-opacity="0"/>
<stop offset="1" stop-color="#C1272D"/>
</linearGradient>
<linearGradient id="paint13_linear_4_526" x1="61.7568" y1="68.9913" x2="62.8702" y2="68.9913" gradientUnits="userSpaceOnUse">
<stop stop-color="#F9F7FC"/>
<stop offset="1" stop-color="#F0DDFC"/>
</linearGradient>
<linearGradient id="paint14_linear_4_526" x1="61.6164" y1="69.107" x2="63.2971" y2="68.7839" gradientUnits="userSpaceOnUse">
<stop stop-color="white"/>
<stop offset="1" stop-color="#E9EDF5" stop-opacity="0"/>
</linearGradient>
<linearGradient id="paint15_linear_4_526" x1="63.9773" y1="67.5814" x2="61.4785" y2="65.0827" gradientUnits="userSpaceOnUse">
<stop stop-color="#F0DDFC" stop-opacity="0"/>
<stop offset="0.2889" stop-color="#C8B7E0" stop-opacity="0.289"/>
<stop offset="0.5915" stop-color="#A595C8" stop-opacity="0.592"/>
<stop offset="0.8395" stop-color="#8F81B8" stop-opacity="0.84"/>
<stop offset="1" stop-color="#8779B3"/>
</linearGradient>
<linearGradient id="paint16_linear_4_526" x1="60.5182" y1="59.871" x2="66.7228" y2="66.0756" gradientUnits="userSpaceOnUse">
<stop stop-color="#FFDA45"/>
<stop offset="1" stop-color="#FFA425"/>
</linearGradient>
<linearGradient id="paint17_linear_4_526" x1="62.7878" y1="62.1406" x2="58.4525" y2="57.8053" gradientUnits="userSpaceOnUse">
<stop stop-color="#FFDA45" stop-opacity="0"/>
<stop offset="1" stop-color="#FCEE21"/>
</linearGradient>
<linearGradient id="paint18_linear_4_526" x1="62.4771" y1="63.4992" x2="69.0621" y2="51.2524" gradientUnits="userSpaceOnUse">
<stop stop-color="#FFDA45" stop-opacity="0"/>
<stop offset="1" stop-color="#B53759"/>
</linearGradient>
<linearGradient id="paint19_linear_4_526" x1="74.4352" y1="71.7058" x2="122.544" y2="-17.7705" gradientUnits="userSpaceOnUse">
<stop stop-color="#0469BC" stop-opacity="0"/>
<stop offset="1" stop-color="#0469BC"/>
</linearGradient>
<clipPath id="clip0_4_526">
<rect width="70" height="70" fill="white" transform="translate(33 33)"/>
</clipPath>
</defs>
</svg>
