<svg width="137" height="137" viewBox="0 0 137 137" fill="none" xmlns="http://www.w3.org/2000/svg">
<rect x="0.643066" y="0.428711" width="135.714" height="135.714" rx="67.8571" fill="white"/>
<path d="M91.2993 91.8662H85.0493C84.6181 91.8662 84.2681 91.5146 84.2681 91.085V70.7725C84.2681 70.3428 84.6181 69.9912 85.0493 69.9912C85.4806 69.9912 85.8306 70.3428 85.8306 70.7725V90.3037H90.5181V56.71C90.5181 56.2771 90.8681 55.9287 91.2993 55.9287C91.7306 55.9287 92.0806 56.2771 92.0806 56.71V91.085C92.0806 91.5146 91.7306 91.8662 91.2993 91.8662Z" fill="#040F2A"/>
<path d="M78.0181 90.3037H73.3306V86.3975C73.3306 85.9662 72.9806 85.6162 72.5493 85.6162C72.1181 85.6162 71.7681 85.9662 71.7681 86.3975V91.085C71.7681 91.5146 72.1181 91.8662 72.5493 91.8662H78.7993C79.2306 91.8662 79.5806 91.5146 79.5806 91.085V80.1475C79.5806 79.7162 79.2306 79.3662 78.7993 79.3662C78.3681 79.3662 78.0181 79.7162 78.0181 80.1475V90.3037Z" fill="#040F2A"/>
<path d="M89.7275 90.3037H45.9775C45.5463 90.3037 45.1963 90.6537 45.1963 91.085C45.1963 91.5162 45.5463 91.8662 45.9775 91.8662H89.7275C90.1588 91.8662 90.5088 91.5162 90.5088 91.085C90.5088 90.6537 90.1604 90.3037 89.7275 90.3037Z" fill="#040F2A"/>
<path d="M60.0493 86.3975C59.6181 86.3975 59.2681 86.0459 59.2681 85.6162V69.21C59.2681 68.7771 59.6181 68.4287 60.0493 68.4287H66.2993C66.7306 68.4287 67.0806 68.7771 67.0806 69.21V81.71C67.0806 82.1396 66.7306 82.4912 66.2993 82.4912C65.8681 82.4912 65.5181 82.1396 65.5181 81.71V69.9912H60.8306V85.6162C60.8306 86.0459 60.4806 86.3975 60.0493 86.3975Z" fill="#040F2A"/>
<path d="M47.5493 88.7412C47.1181 88.7412 46.7681 88.3896 46.7681 87.96V75.46C46.7681 75.0271 47.1181 74.6787 47.5493 74.6787H53.7993C54.2306 74.6787 54.5806 75.0271 54.5806 75.46V87.1787C54.5806 87.6084 54.2306 87.96 53.7993 87.96C53.3681 87.96 53.0181 87.6084 53.0181 87.1787V76.2412H48.3306V87.96C48.3306 88.3896 47.9806 88.7412 47.5493 88.7412Z" fill="#040F2A"/>
<path d="M72.5493 74.6787C72.1181 74.6787 71.7681 74.3303 71.7681 73.8975V62.96C71.7681 62.5271 72.1181 62.1787 72.5493 62.1787H75.6743C76.1056 62.1787 76.4556 62.5271 76.4556 62.96C76.4556 63.3896 76.1056 63.7412 75.6743 63.7412H73.3306V73.8975C73.3306 74.3303 72.9806 74.6787 72.5493 74.6787Z" fill="#040F2A"/>
<path d="M49.1118 91.8664C48.6806 91.8664 48.3306 91.5164 48.3306 91.0852C48.3306 90.6539 48.6806 90.3039 49.1118 90.3039C65.0509 90.3039 78.0181 77.3367 78.0181 61.3977V57.4914H75.6743C75.3946 57.4914 75.1384 57.343 74.9978 57.1023C74.8587 56.8617 74.8571 56.5633 74.9946 56.3227L81.2446 45.3852C81.5259 44.8977 82.3212 44.8977 82.6024 45.3852L88.8524 56.3227C88.9899 56.5633 88.9884 56.8617 88.8493 57.1023C88.7103 57.343 88.454 57.4914 88.1743 57.4914H85.8306V61.3977C85.8306 61.8289 85.4806 62.1789 85.0493 62.1789C84.6181 62.1789 84.2681 61.8289 84.2681 61.3977V56.7102C84.2681 56.2789 84.6181 55.9289 85.0493 55.9289H86.829L81.9243 47.3477L77.0196 55.9289H78.7993C79.2306 55.9289 79.5806 56.2789 79.5806 56.7102V61.3977C79.5806 78.1977 65.9118 91.8664 49.1118 91.8664Z" fill="#040F2A"/>
<path d="M85.0493 65.3037C85.4808 65.3037 85.8306 64.9539 85.8306 64.5225C85.8306 64.091 85.4808 63.7412 85.0493 63.7412C84.6178 63.7412 84.2681 64.091 84.2681 64.5225C84.2681 64.9539 84.6178 65.3037 85.0493 65.3037Z" fill="#040F2A"/>
</svg>
