<svg width="340" height="340" viewBox="0 0 340 340" fill="none" xmlns="http://www.w3.org/2000/svg">
<path d="M340 260.032H0V260.202H340V260.032Z" fill="#EBEBEB"/>
<path d="M305.932 270.973H283.41V271.143H305.932V270.973Z" fill="#EBEBEB"/>
<path d="M225.23 272.823H219.32V272.993H225.23V272.823Z" fill="#EBEBEB"/>
<path d="M282.731 264.663H269.682V264.833H282.731V264.663Z" fill="#EBEBEB"/>
<path d="M65.0421 265.805H35.6729V265.975H65.0421V265.805Z" fill="#EBEBEB"/>
<path d="M75.405 265.805H71.1006V265.975H75.405V265.805Z" fill="#EBEBEB"/>
<path d="M153.102 268.675H89.3994V268.845H153.102V268.675Z" fill="#EBEBEB"/>
<path d="M161.16 229.704H29.8584C28.8298 229.702 27.844 229.292 27.1173 228.564C26.3906 227.836 25.9824 226.85 25.9824 225.821V41.2487C25.9914 40.226 26.4035 39.2481 27.1292 38.5275C27.8549 37.8069 28.8357 37.4017 29.8584 37.3999H161.16C162.189 37.3999 163.177 37.809 163.905 38.5371C164.633 39.2653 165.042 40.2529 165.042 41.2827V225.821C165.042 226.851 164.633 227.839 163.905 228.567C163.177 229.295 162.189 229.704 161.16 229.704ZM29.8584 37.5359C28.8749 37.5377 27.9323 37.9297 27.2375 38.6258C26.5427 39.3218 26.1524 40.2652 26.1524 41.2487V225.821C26.1524 226.805 26.5427 227.748 27.2375 228.444C27.9323 229.14 28.8749 229.532 29.8584 229.534H161.16C162.144 229.532 163.087 229.14 163.783 228.444C164.479 227.749 164.871 226.805 164.872 225.821V41.2487C164.871 40.2646 164.479 39.3212 163.783 38.6253C163.087 37.9294 162.144 37.5377 161.16 37.5359H29.8584Z" fill="#EBEBEB"/>
<path d="M308.25 229.704H176.942C175.913 229.702 174.927 229.292 174.199 228.565C173.471 227.837 173.061 226.85 173.06 225.821V41.2487C173.07 40.2254 173.484 39.2475 174.211 38.5271C174.938 37.8066 175.919 37.4016 176.942 37.3999H308.25C309.272 37.4034 310.251 37.8094 310.975 38.5299C311.699 39.2503 312.111 40.2272 312.12 41.2487V225.821C312.12 226.849 311.712 227.834 310.987 228.562C310.262 229.29 309.278 229.7 308.25 229.704ZM176.942 37.5359C175.958 37.5377 175.015 37.9294 174.319 38.6253C173.623 39.3212 173.231 40.2646 173.23 41.2487V225.821C173.231 226.805 173.623 227.749 174.319 228.444C175.015 229.14 175.958 229.532 176.942 229.534H308.25C309.235 229.532 310.178 229.14 310.874 228.444C311.57 227.749 311.961 226.805 311.963 225.821V41.2487C311.961 40.2646 311.57 39.3212 310.874 38.6253C310.178 37.9294 309.235 37.5377 308.25 37.5359H176.942Z" fill="#EBEBEB"/>
<path d="M101.613 134.973H97.0361V260.202H101.613V134.973Z" fill="#F5F5F5"/>
<path d="M119.707 150.872H115.131V260.202H119.707V150.872Z" fill="#F5F5F5"/>
<path d="M137.632 166.77H133.056V260.202H137.632V166.77Z" fill="#F5F5F5"/>
<path d="M155.564 156.169H150.987V260.202H155.564V156.169Z" fill="#F5F5F5"/>
<path d="M173.495 150.872H168.919V260.202H173.495V150.872Z" fill="#F5F5F5"/>
<path d="M191.42 140.27H186.844V260.202H191.42V140.27Z" fill="#F5F5F5"/>
<path d="M209.352 145.574H204.775V260.202H209.352V145.574Z" fill="#F5F5F5"/>
<path d="M227.283 140.27H222.707V260.202H227.283V140.27Z" fill="#F5F5F5"/>
<path d="M245.208 129.669H240.632V260.195H245.208V129.669Z" fill="#F5F5F5"/>
<path d="M263.14 119.075H258.563V260.202H263.14V119.075Z" fill="#F5F5F5"/>
<path d="M281.065 108.474H276.488V260.202H281.065V108.474Z" fill="#F5F5F5"/>
<path d="M135.32 159.324C135.065 159.314 134.822 159.21 134.64 159.031L96.3284 121.679C96.1345 121.49 96.0238 121.231 96.0206 120.96C96.0174 120.689 96.122 120.428 96.3113 120.234C96.5007 120.04 96.7593 119.929 97.0303 119.926C97.3013 119.923 97.5625 120.028 97.7563 120.217L135.449 156.971L188.536 118.211C188.742 118.064 188.994 117.999 189.245 118.026C189.496 118.054 189.728 118.173 189.896 118.361L207.277 138.04L279.221 96.8183C279.338 96.7517 279.466 96.7088 279.599 96.6919C279.732 96.6751 279.868 96.6846 279.997 96.7199C280.126 96.7553 280.248 96.8158 280.354 96.898C280.46 96.9802 280.549 97.0825 280.615 97.1991C280.682 97.3156 280.725 97.4441 280.741 97.5772C280.758 97.7103 280.749 97.8455 280.713 97.9749C280.678 98.1044 280.618 98.2256 280.535 98.3316C280.453 98.4377 280.351 98.5265 280.234 98.5931L207.57 140.236C207.365 140.352 207.128 140.394 206.897 140.355C206.665 140.317 206.454 140.201 206.298 140.025L188.985 120.441L135.945 159.127C135.764 159.259 135.544 159.329 135.32 159.324Z" fill="#F0F0F0"/>
<path d="M131.002 259.42L97.5664 127.561L99.2392 120.972H97.4984V83.3135H93.0104V120.972H91.2696L92.9424 127.561L59.5 259.42H64.1308L93.0104 145.533V260.113H97.4984V145.533L126.378 259.42H131.002Z" fill="#E0E0E0"/>
<path d="M120.448 126.251C123.732 112.336 115.114 98.3934 101.199 95.1092C87.284 91.8249 73.3412 100.443 70.057 114.358C66.7728 128.273 75.3907 142.216 89.3057 145.5C103.221 148.784 117.163 140.166 120.448 126.251Z" fill="#E6E6E6"/>
<path d="M95.2543 142.412C107.46 142.412 117.354 132.518 117.354 120.312C117.354 108.107 107.46 98.2124 95.2543 98.2124C83.0488 98.2124 73.1543 108.107 73.1543 120.312C73.1543 132.518 83.0488 142.412 95.2543 142.412Z" fill="#F5F5F5"/>
<path d="M95.2543 137.612C104.808 137.612 112.553 129.866 112.553 120.312C112.553 110.758 104.808 103.013 95.2543 103.013C85.7002 103.013 77.9551 110.758 77.9551 120.312C77.9551 129.866 85.7002 137.612 95.2543 137.612Z" fill="#E6E6E6"/>
<path d="M100.684 133.408C107.918 130.412 111.353 122.118 108.357 114.884C105.36 107.649 97.0664 104.214 89.8322 107.211C82.5979 110.207 79.1626 118.501 82.1591 125.735C85.1556 132.969 93.4493 136.405 100.684 133.408Z" fill="#F5F5F5"/>
<path d="M104.828 122.565C106.077 117.276 102.801 111.976 97.512 110.728C92.2231 109.48 86.9236 112.755 85.6753 118.044C84.427 123.333 87.7026 128.633 92.9915 129.881C98.2805 131.129 103.58 127.854 104.828 122.565Z" fill="#E6E6E6"/>
<path d="M97.9612 126.837C101.566 125.344 103.278 121.211 101.785 117.606C100.292 114.001 96.1587 112.289 92.5538 113.782C88.9488 115.275 87.2369 119.408 88.7301 123.013C90.2233 126.618 94.3563 128.33 97.9612 126.837Z" fill="#F5F5F5"/>
<path d="M98.4573 120.312C98.4573 120.947 98.2689 121.568 97.9159 122.096C97.5629 122.624 97.0612 123.036 96.4744 123.278C95.8875 123.521 95.2418 123.584 94.619 123.46C93.9962 123.335 93.4243 123.029 92.9757 122.58C92.5271 122.13 92.222 121.557 92.0989 120.934C91.9759 120.311 92.0404 119.666 92.2844 119.079C92.5283 118.493 92.9408 117.992 93.4695 117.64C93.9982 117.289 94.6194 117.101 95.2545 117.103C95.6757 117.103 96.0927 117.186 96.4817 117.347C96.8707 117.509 97.2241 117.745 97.5216 118.043C97.8191 118.341 98.0549 118.695 98.2154 119.085C98.376 119.474 98.4582 119.891 98.4573 120.312Z" fill="#E6E6E6"/>
<path d="M62.0297 98.9602L62.7301 103.639L57.8613 105.277L62.7301 107.834L67.5853 106.127L66.7353 101.517L62.0297 98.9602Z" fill="#E6E6E6"/>
<path d="M95.2548 120.992C95.1463 120.991 95.0394 120.965 94.942 120.918L60.1056 103.061C59.9506 102.976 59.8348 102.833 59.7829 102.664C59.731 102.495 59.747 102.313 59.8275 102.155C59.908 101.998 60.0467 101.878 60.2141 101.821C60.3816 101.764 60.5646 101.774 60.7244 101.85L95.5608 119.68C95.721 119.761 95.8424 119.903 95.8984 120.074C95.9545 120.245 95.9407 120.431 95.86 120.591C95.8074 120.708 95.7226 120.808 95.6155 120.879C95.5083 120.95 95.3833 120.989 95.2548 120.992Z" fill="#E0E0E0"/>
<path d="M143.194 91.2288C143.191 90.2932 143.407 89.3698 143.826 88.5331C144.245 87.6964 144.854 86.9696 145.605 86.4113C146.356 85.853 147.227 85.4787 148.149 85.3186C149.071 85.1585 150.017 85.2171 150.912 85.4896C150.647 83.6853 150.773 81.845 151.282 80.0939C151.792 78.3428 152.673 76.7221 153.866 75.3424C155.059 73.9626 156.535 72.8561 158.193 72.0984C159.852 71.3406 161.655 70.9493 163.479 70.9512C164.261 70.9509 165.042 71.0238 165.811 71.1688C167.063 69.1122 168.949 67.5183 171.186 66.6276C173.422 65.7369 175.888 65.5976 178.211 66.2309C180.533 66.8641 182.587 68.2355 184.062 70.1382C185.537 72.0409 186.354 74.3716 186.388 76.7788H186.578C189.291 76.7788 191.892 77.8563 193.81 79.7743C195.728 81.6923 196.806 84.2936 196.806 87.006C196.806 89.7184 195.728 92.3198 193.81 94.2377C191.892 96.1557 189.291 97.2332 186.578 97.2332H149.015C147.454 97.1889 145.971 96.5363 144.884 95.4147C143.796 94.293 143.19 92.791 143.194 91.2288Z" fill="#F0F0F0"/>
<path d="M249.88 87.9375C249.88 87.171 250.184 86.4359 250.726 85.8939C251.268 85.352 252.004 85.0475 252.77 85.0475C253.051 85.05 253.33 85.0912 253.6 85.1699C253.556 84.8771 253.534 84.5818 253.532 84.2859C253.531 83.3863 253.729 82.4977 254.111 81.6833C254.493 80.8689 255.05 80.1487 255.742 79.5741C256.435 78.9995 257.245 78.5845 258.116 78.3588C258.986 78.133 259.896 78.102 260.78 78.2679C261.386 77.279 262.297 76.5137 263.375 76.0871C264.454 75.6606 265.641 75.5958 266.76 75.9026C267.878 76.2094 268.866 76.8712 269.576 77.7883C270.286 78.7055 270.678 79.8283 270.695 80.9879H270.783C272.091 80.9879 273.345 81.5073 274.269 82.4318C275.194 83.3564 275.713 84.6104 275.713 85.9179C275.713 87.2254 275.194 88.4794 274.269 89.4039C273.345 90.3285 272.091 90.8479 270.783 90.8479H252.688C251.932 90.8283 251.214 90.5122 250.688 89.9677C250.163 89.4232 249.873 88.6941 249.88 87.9375Z" fill="#F0F0F0"/>
<path d="M64.4098 91.5348C64.4098 91.2797 64.4601 91.0272 64.5579 90.7916C64.6558 90.556 64.7991 90.3421 64.9798 90.162C65.1605 89.982 65.3749 89.8394 65.6108 89.7424C65.8468 89.6454 66.0995 89.5959 66.3546 89.5968C66.5435 89.5963 66.7314 89.6238 66.9122 89.6784C66.8826 89.4803 66.8667 89.2803 66.8646 89.08C66.8735 88.0007 67.3062 86.9681 68.0694 86.2048C68.8326 85.4416 69.8652 85.0089 70.9446 85C71.2002 85.001 71.4552 85.0261 71.7062 85.0748C72.1098 84.4062 72.7204 83.8874 73.4454 83.5971C74.1704 83.3068 74.9703 83.2608 75.7238 83.4661C76.4773 83.6714 77.1433 84.1168 77.6209 84.7347C78.0985 85.3527 78.3615 86.1095 78.3702 86.8904H78.4314C79.2846 86.9291 80.0901 87.2952 80.6802 87.9127C81.2703 88.5301 81.5996 89.3513 81.5996 90.2054C81.5996 91.0595 81.2703 91.8807 80.6802 92.4982C80.0901 93.1156 79.2846 93.4818 78.4314 93.5204H66.3002C66.0457 93.5142 65.7948 93.458 65.5621 93.3548C65.3293 93.2517 65.1191 93.1037 64.9436 92.9193C64.768 92.7349 64.6305 92.5177 64.5389 92.2802C64.4473 92.0426 64.4035 91.7893 64.4098 91.5348Z" fill="#F0F0F0"/>
<path d="M170 290.741C242.817 290.741 301.846 287.295 301.846 283.043C301.846 278.792 242.817 275.346 170 275.346C97.1844 275.346 38.1553 278.792 38.1553 283.043C38.1553 287.295 97.1844 290.741 170 290.741Z" fill="#F5F5F5"/>
<path d="M94.0986 153.381L98.7634 150.715C98.7634 150.715 100.559 147.948 101.096 147.818C101.633 147.689 107.549 147.818 107.549 147.818C107.549 147.818 106.658 151.654 106.563 152.408C106.468 153.163 100.824 152.408 100.824 152.408L96.2542 155.128L94.0986 153.381Z" fill="#EBB376"/>
<path d="M50.6531 277.44L45.7707 276.468C45.6836 276.467 45.5989 276.497 45.5308 276.551C45.4627 276.605 45.4154 276.682 45.3967 276.767L44.0843 281.649C44.0567 281.816 44.0922 281.987 44.184 282.129C44.2758 282.271 44.4173 282.374 44.5807 282.418H44.7235C46.4507 282.418 47.7087 282.282 49.8711 282.282C51.2311 282.282 55.2295 282.424 57.0723 282.424C58.9151 282.424 59.1599 280.602 58.4323 280.439C55.0323 279.698 52.5027 278.678 51.4215 277.719C51.2121 277.528 50.936 277.428 50.6531 277.44Z" fill="#263238"/>
<path d="M110.405 277.277H105.074C104.986 277.275 104.901 277.304 104.832 277.359C104.764 277.413 104.717 277.49 104.7 277.576L103.829 281.52C103.804 281.687 103.841 281.857 103.934 281.998C104.027 282.138 104.169 282.24 104.332 282.282H104.475C106.202 282.248 107.454 282.146 109.623 282.146C110.983 282.146 114.981 282.282 116.824 282.282C118.667 282.282 118.905 280.466 118.15 280.296C114.75 279.562 112.22 278.535 111.139 277.576C111.043 277.479 110.929 277.403 110.802 277.351C110.676 277.3 110.541 277.275 110.405 277.277Z" fill="#263238"/>
<path d="M60.0646 187.456L82.6406 181.73C87.761 192.909 106.549 238.809 111.105 276.998L103.462 278.936C103.462 278.936 89.9302 222.618 78.581 206.176C78.581 206.176 77.9758 231.173 76.745 234.811C75.7318 237.803 52.4962 277.834 52.4962 277.834L44.9482 276.984C44.9482 276.984 63.9202 236.13 65.0354 231.037C65.8242 227.569 62.3698 202.096 62.3698 202.096C61.7646 199.825 60.8534 190.42 60.8534 190.42C60.8534 190.42 60.1734 187.925 60.0646 187.456Z" fill="#4580FF"/>
<path opacity="0.2" d="M78.5882 206.19C80.504 209.088 82.1758 212.14 83.5862 215.315C82.0222 206.516 77.1738 197.996 77.1738 197.996L78.5882 206.19Z" fill="black"/>
<path opacity="0.3" d="M60.0646 187.456L82.6406 181.73C87.761 192.909 106.549 238.809 111.105 276.998L103.462 278.936C103.462 278.936 89.9302 222.618 78.581 206.176C78.581 206.176 77.9758 231.173 76.745 234.811C75.7318 237.803 52.4962 277.834 52.4962 277.834L44.9482 276.984C44.9482 276.984 63.9202 236.13 65.0354 231.037C65.8242 227.569 62.3698 202.096 62.3698 202.096C61.7646 199.825 60.8534 190.42 60.8534 190.42C60.8534 190.42 60.1734 187.925 60.0646 187.456Z" fill="black"/>
<path d="M99.314 153.768C99.314 153.768 89.0187 160.718 86.3055 161.085C85.2243 161.235 82.994 160.867 80.6888 160.405C77.1936 159.657 73.5488 158.61 73.5488 158.61L73.0932 155.162L72.6104 151.477C73.4264 151.205 84.0752 155.557 85.6664 156.237C87.2576 156.917 97.5459 150.797 97.5459 150.797L99.314 153.768Z" fill="#263238"/>
<path d="M67.477 185.864L68.1434 188.475L60.8538 190.42L60.1738 187.714L67.477 185.864Z" fill="black"/>
<path d="M78.9757 182.947L79.6081 185.422L68.9525 188.265L68.2861 185.66L78.9757 182.947Z" fill="black"/>
<path d="M83.803 184.307L80.4098 185.211L79.7842 182.743L82.8986 181.954L83.803 184.307Z" fill="black"/>
<path d="M73.1785 187.139L77.3838 186.072L76.6149 183.04L72.4096 184.107L73.1785 187.139Z" fill="white"/>
<path d="M82.8919 181.947L60.1663 187.714C59.0579 184.715 57.9291 181.696 56.8275 178.751C56.0183 176.596 55.2227 174.481 54.4475 172.434C54.2525 171.908 54.0553 171.392 53.8559 170.884L53.1759 169.075C52.6727 167.751 52.1876 166.475 51.7207 165.247L50.4695 161.976L49.8779 160.425L48.7559 157.501L72.6171 151.449C80.4847 165.179 82.8919 181.947 82.8919 181.947Z" fill="#263238"/>
<path d="M57.4193 156.917C59.8741 158.093 64.4029 156.019 64.4029 156.019C64.4029 156.019 65.9057 154.36 65.0081 153.625C63.1857 153.863 63.3013 153.265 62.6417 152.333C62.2646 151.745 62.0059 151.089 61.8801 150.402C61.7986 150.023 61.7373 149.639 61.6965 149.253L54.5361 146.683C56.1613 149.307 58.6841 154.278 57.4193 156.917Z" fill="#EBB376"/>
<path opacity="0.2" d="M56.7119 149.029C58.0039 152.463 61.1727 152.565 62.6415 152.334C62.2643 151.746 62.0056 151.09 61.8799 150.402L56.7119 149.029Z" fill="black"/>
<path d="M66.042 136C66.042 136 67.912 141.644 65.2124 144.398C62.5128 147.152 60.6836 136.36 60.6836 136.36L66.042 136Z" fill="#263238"/>
<path d="M57.0662 150.545C57.874 151.388 58.9359 151.943 60.0892 152.125C61.2424 152.306 62.4235 152.105 63.4514 151.551C64.7991 150.855 65.8303 149.671 66.3346 148.24C66.4026 148.049 66.4638 147.845 66.5182 147.641C67.4294 143.84 66.8582 137.564 62.717 135.877C61.8043 135.501 60.8104 135.365 59.83 135.481C58.8496 135.597 57.9153 135.962 57.1159 136.542C56.3164 137.121 55.6785 137.895 55.2627 138.791C54.847 139.686 54.6672 140.673 54.7406 141.657C54.9854 145.894 54.931 148.383 57.0662 150.545Z" fill="#EBB376"/>
<path d="M61.1523 142.861C61.1523 143.201 61.3291 143.48 61.5603 143.48C61.7915 143.48 61.9615 143.201 61.9683 142.861C61.9751 142.521 61.7847 142.236 61.5603 142.236C61.3359 142.236 61.1523 142.514 61.1523 142.861Z" fill="#263238"/>
<path d="M65.042 142.861C65.042 143.208 65.2256 143.487 65.45 143.487C65.6744 143.487 65.8512 143.201 65.858 142.861C65.8648 142.521 65.6676 142.242 65.45 142.242C65.2324 142.242 65.042 142.535 65.042 142.861Z" fill="#263238"/>
<path d="M63.8046 143.031C64.2112 144.084 64.7628 145.075 65.4434 145.975C65.2073 146.145 64.9369 146.26 64.6513 146.313C64.3657 146.365 64.072 146.355 63.791 146.281L63.8046 143.031Z" fill="#D58745"/>
<path d="M66.4631 141.27C66.4304 141.287 66.3943 141.295 66.3577 141.295C66.321 141.295 66.2849 141.287 66.2523 141.27C66.0512 141.115 65.8165 141.01 65.5673 140.963C65.3181 140.916 65.0612 140.928 64.8175 140.998C64.7679 141.017 64.7128 141.015 64.6643 140.994C64.6159 140.972 64.578 140.932 64.5591 140.882C64.5401 140.833 64.5417 140.778 64.5633 140.729C64.585 140.681 64.6251 140.643 64.6747 140.624C64.9796 140.528 65.3033 140.506 65.6182 140.562C65.9332 140.618 66.23 140.749 66.4835 140.944C66.5057 140.958 66.5249 140.977 66.5397 140.999C66.5546 141.021 66.5649 141.045 66.5699 141.071C66.575 141.097 66.5748 141.124 66.5693 141.15C66.5638 141.176 66.5531 141.201 66.5379 141.222C66.515 141.241 66.4899 141.257 66.4631 141.27Z" fill="#263238"/>
<path d="M60.3839 141.318C60.345 141.312 60.3078 141.298 60.2751 141.277C60.2377 141.239 60.2168 141.187 60.2168 141.134C60.2168 141.081 60.2377 141.029 60.2751 140.991C60.5128 140.774 60.7995 140.617 61.1109 140.534C61.4223 140.451 61.7491 140.445 62.0635 140.515C62.1131 140.531 62.1549 140.565 62.1801 140.611C62.2054 140.656 62.2124 140.71 62.1995 140.76C62.1837 140.811 62.1488 140.855 62.1021 140.881C62.0553 140.908 62.0001 140.916 61.9479 140.903C61.6999 140.853 61.4435 140.863 61.2 140.931C60.9565 141 60.7327 141.125 60.5471 141.297C60.5228 141.312 60.4958 141.321 60.4677 141.325C60.4396 141.328 60.411 141.326 60.3839 141.318Z" fill="#263238"/>
<path d="M57.8408 136.408L58.2488 137.19C56.8888 137.714 57.2288 139.318 57.5688 140.032C58.2488 141.569 57.4668 144.038 56.3176 145.064C56.3176 145.064 56.2428 144.384 55.6784 144.575C55.114 144.765 55.4404 148.288 56.6372 149.92C56.6372 149.92 54.876 148.471 53.7472 144.813C52.7068 141.413 52.462 138.577 53.108 137.217L57.8408 136.408Z" fill="#263238"/>
<path d="M52.8904 145.139C53.1218 145.614 53.4444 146.039 53.84 146.389C54.2355 146.739 54.6962 147.007 55.1956 147.179C56.5556 147.628 57.2356 146.452 56.9636 145.139C56.678 143.99 55.6512 142.324 54.2436 142.453C53.9468 142.486 53.663 142.593 53.4178 142.763C53.1726 142.934 52.9738 143.163 52.8394 143.43C52.7051 143.696 52.6394 143.992 52.6483 144.291C52.6572 144.589 52.7404 144.881 52.8904 145.139Z" fill="#EBB376"/>
<path d="M57.8003 152.245C59.7995 153.646 63.6959 154.101 65.6067 151.565C67.5175 149.029 66.9055 144.955 66.9055 144.955C66.686 145.865 66.268 146.715 65.6815 147.444C64.6003 146.139 62.7643 146.88 62.7643 146.88C62.3774 146.376 61.8223 146.029 61.2003 145.901C60.3095 145.812 57.8003 145.962 57.8003 145.962C56.9979 145.452 56.9639 143.181 56.9639 143.181L56.4743 143.589C56.4743 143.589 55.7943 150.837 57.8003 152.245Z" fill="#263238"/>
<path d="M63.1451 137.85C63.1451 137.85 67.9051 135.538 67.3407 133.226C66.7763 130.914 65.3891 133.552 65.3891 133.552C65.3891 133.552 66.0283 131.798 64.7771 131.512C63.5259 131.226 63.9203 132.348 63.2403 133.022C62.5603 133.695 55.9643 132.716 53.8359 134.035C51.7075 135.354 53.3327 139.917 53.3327 139.917C54.5898 138.655 56.1877 137.787 57.9307 137.42C59.6736 137.053 61.4858 137.202 63.1451 137.85Z" fill="#263238"/>
<path opacity="0.2" d="M57.8003 152.245C59.7995 153.646 63.6959 154.101 65.6067 151.565C67.5175 149.029 66.9055 144.955 66.9055 144.955C66.686 145.865 66.268 146.715 65.6815 147.444C64.6003 146.139 62.7643 146.88 62.7643 146.88C62.3774 146.376 61.8223 146.029 61.2003 145.901C60.3095 145.812 57.8003 145.962 57.8003 145.962C56.9979 145.452 56.9639 143.181 56.9639 143.181L56.4743 143.589C56.4743 143.589 55.7943 150.837 57.8003 152.245Z" fill="white"/>
<path d="M62.9686 148.172C62.6027 148.662 62.2731 149.178 61.9826 149.715L61.6766 149.6C60.3166 149.103 59.827 148.423 59.7182 147.811C59.6742 147.515 59.6998 147.212 59.793 146.927C59.8425 146.763 59.9134 146.605 60.0038 146.458C60.7191 147.141 61.5723 147.663 62.5062 147.988C62.785 148.111 62.9686 148.172 62.9686 148.172Z" fill="#263238"/>
<path d="M62.5062 147.995L62.2002 148.444C60.9082 147.975 60.0582 147.471 59.793 146.934C59.8425 146.769 59.9134 146.612 60.0038 146.465C60.719 147.148 61.5723 147.67 62.5062 147.995Z" fill="white"/>
<path d="M61.6762 149.6C60.3162 149.104 59.8266 148.424 59.7178 147.812C60.2371 148.014 60.7178 148.303 61.139 148.668C61.4115 148.915 61.5995 149.241 61.6762 149.6Z" fill="#DE5753"/>
<path d="M65.3003 156.026L64.8991 159.548L72.2431 175.195L71.5155 177.269L69.1151 176.161L63.8791 160.201L60.0303 157.597L62.8319 156.06L65.3003 156.026Z" fill="#4580FF"/>
<path d="M57.5828 153.619L62.4448 155.625L62.642 152.333L66.2256 153.217L66.5316 158.229L63.084 156.821L61.6424 160.031L55.5156 155.937L57.5828 153.619Z" fill="#263238"/>
<path opacity="0.2" d="M57.5828 153.619L62.4448 155.625L62.642 152.333L66.2256 153.217L66.5316 158.229L63.084 156.821L61.6424 160.031L55.5156 155.937L57.5828 153.619Z" fill="white"/>
<path opacity="0.2" d="M53.1691 169.075C52.6659 167.751 52.1808 166.475 51.7139 165.247L50.4627 161.976L49.8711 160.425C50.5511 160.092 52.2851 160.289 52.7679 161.105C54.5359 164.193 53.1691 169.075 53.1691 169.075Z" fill="black"/>
<path opacity="0.2" d="M61.6894 172.53C61.3989 173.866 60.8109 175.119 59.9691 176.196C59.1274 177.273 58.0535 178.147 56.8274 178.752C56.0182 176.596 55.2226 174.481 54.4474 172.434C54.2524 171.909 54.0552 171.392 53.8558 170.884L53.1758 169.075L61.0502 170.075L61.6894 172.53Z" fill="black"/>
<path opacity="0.2" d="M80.6894 160.378C77.1942 159.63 73.5494 158.583 73.5494 158.583L73.0938 155.135C73.0938 155.135 79.5198 155.822 80.6894 160.378Z" fill="black"/>
<path d="M48.7493 240.72C48.5361 240.727 48.3261 240.667 48.1487 240.549C47.9714 240.43 47.8356 240.259 47.7606 240.059C47.6855 239.86 47.6749 239.642 47.7303 239.436C47.7857 239.23 47.9043 239.046 48.0693 238.911C59.4185 229.595 59.2009 214.995 58.9901 200.872C58.8269 190.223 58.6773 180.159 63.6889 173.318C70.7201 163.703 99.0013 148.451 103.687 148.015C107.039 147.682 209.291 119.265 262.895 104.285C263.156 104.212 263.434 104.245 263.67 104.378C263.906 104.51 264.08 104.731 264.153 104.992C264.226 105.252 264.192 105.531 264.06 105.767C263.927 106.003 263.706 106.177 263.446 106.25C257.101 108.025 108.079 149.661 103.877 150.049C99.8445 150.423 71.8489 165.614 65.3345 174.529C60.7309 180.819 60.8737 190.549 61.0301 200.845C61.2341 214.771 61.4721 230.561 49.3613 240.495C49.1879 240.636 48.9726 240.715 48.7493 240.72Z" fill="#263238"/>
<path opacity="0.4" d="M263.48 106.243L249.499 110.16C211.045 120.89 107.379 149.736 103.911 150.056C99.8783 150.43 71.8827 165.621 65.3683 174.536C60.7647 180.826 60.9075 190.556 61.0639 200.852C61.2679 214.778 61.5059 230.568 49.3951 240.502C49.2046 240.66 48.9625 240.743 48.7151 240.734C48.502 240.741 48.2919 240.681 48.1146 240.562C47.9372 240.444 47.8014 240.273 47.7264 240.073C47.6513 239.873 47.6407 239.655 47.6961 239.449C47.7515 239.243 47.8701 239.06 48.0351 238.925C59.3843 229.609 59.1667 215.009 58.9559 200.886C58.7927 190.237 58.6431 180.173 63.6547 173.332C70.6859 163.717 98.9671 148.464 103.652 148.029C106.808 147.716 197.397 122.57 252.763 107.12L262.861 104.298C263.121 104.225 263.4 104.259 263.636 104.391C263.872 104.524 264.046 104.745 264.119 105.006C264.192 105.266 264.158 105.545 264.026 105.781C263.893 106.017 263.672 106.191 263.412 106.264L263.48 106.243Z" fill="white"/>
<path opacity="0.2" d="M263.48 106.243L249.499 110.16C250.479 109.01 251.598 107.987 252.831 107.114L262.929 104.292C263.19 104.218 263.469 104.252 263.704 104.385C263.94 104.517 264.114 104.738 264.187 104.999C264.26 105.259 264.227 105.538 264.094 105.774C263.961 106.01 263.74 106.184 263.48 106.257V106.243Z" fill="black"/>
<path d="M55.6992 170.544L61.044 170.075C61.044 170.075 63.8388 168.307 64.376 168.422C64.9132 168.538 70.2376 171.142 70.2376 171.142C70.2376 171.142 67.8236 174.25 67.4224 174.896C67.0212 175.542 62.2136 172.496 62.2136 172.496L56.9164 173.06L55.6992 170.544Z" fill="#EBB376"/>
<path d="M48.7494 157.501C46.3218 159.235 39.9978 173.373 40.671 175.555C41.3442 177.738 61.0234 173.434 61.0234 173.434L60.153 169.755H49.5654L52.0814 165.784C52.0814 165.784 53.6318 164.274 52.6798 160.765C51.993 158.236 48.7494 157.501 48.7494 157.501Z" fill="#263238"/>
<path d="M253.783 158.923L249.751 157.012C249.751 157.012 247.711 153.109 247.112 152.483C246.514 151.858 243.624 154.285 243.624 154.707C243.624 155.128 245.718 159.072 246.262 159.31C247.072 159.429 247.894 159.429 248.704 159.31L252.539 161.167L253.783 158.923Z" fill="#9F5B53"/>
<path d="M263.195 134.735L264.004 131.845C264.004 131.845 265.282 128.078 265.146 127.208C264.896 126.177 264.573 125.166 264.181 124.182C264.181 124.182 260.645 128.486 260.645 129.023C260.645 129.56 262.045 131.512 262.045 131.512L261.365 134.735H263.195Z" fill="#9F5B53"/>
<path d="M266.302 156.264C266.302 156.264 263.256 152.476 262.358 148.954C261.461 145.432 264.174 133.994 264.174 133.994L261.311 133.232C261.311 133.232 257.911 144.935 257.796 149.206C257.68 153.476 264.031 166.008 264.031 166.008L266.302 156.264Z" fill="#4580FF"/>
<path opacity="0.2" d="M264.459 164.125L264.024 165.981C264.024 165.981 261.834 161.663 260.046 157.23C261.907 158.567 263.31 160.445 264.065 162.609C264.237 163.102 264.369 163.61 264.459 164.125Z" fill="black"/>
<path d="M282.432 164.56C282.393 165.35 282.298 166.136 282.146 166.913C281.833 168.613 281.303 170.619 280.698 172.829C280.371 173.992 280.018 175.236 279.705 176.548C278.188 182.444 277.366 184.79 276.244 192.318L254.722 187.211C255.885 180.767 257.659 174.449 260.019 168.341C260.644 166.716 261.379 165.09 262.12 163.486C263.308 160.969 264.707 158.558 266.302 156.278C266.302 156.278 269.784 159.46 280.718 161.371C282.044 161.575 282.5 162.731 282.432 164.56Z" fill="#4580FF"/>
<path opacity="0.2" d="M279.725 162.105C279.725 162.785 282.302 166.022 282.146 166.865C281.853 167.063 281.507 167.28 281.112 167.545C273.829 171.782 264.275 169.633 260.032 168.321C260.658 166.695 262.072 163.71 262.807 162.105L267.913 163.241C267.913 163.241 276.264 161.337 279.725 162.105Z" fill="black"/>
<path d="M270.974 157.563C271.756 157.264 278.175 158.862 277.699 158.998C277.223 159.134 274.83 166.478 271.477 165.927C268.125 165.376 268.186 158.624 270.974 157.563Z" fill="#4580FF"/>
<path d="M241.911 277.889L237.871 278.766L235.512 269.477L239.558 268.6L241.911 277.889Z" fill="#9F5B53"/>
<path d="M236.864 277.08H241.89C241.972 277.08 242.051 277.108 242.114 277.16C242.178 277.212 242.221 277.285 242.236 277.365L243.052 281.044C243.07 281.123 243.072 281.204 243.058 281.283C243.044 281.363 243.015 281.439 242.971 281.507C242.927 281.574 242.871 281.633 242.804 281.678C242.737 281.724 242.662 281.755 242.583 281.772H242.447C240.822 281.772 239.639 281.642 237.599 281.642C236.341 281.642 232.546 281.772 230.799 281.772C229.051 281.772 228.84 280.058 229.548 279.902C232.737 279.222 235.137 278.242 236.157 277.331C236.253 277.244 236.364 277.178 236.486 277.134C236.607 277.091 236.736 277.073 236.864 277.08Z" fill="#263238"/>
<path d="M235.498 277.807C235.216 277.828 234.936 277.754 234.702 277.596C234.626 277.534 234.567 277.453 234.531 277.361C234.495 277.27 234.484 277.17 234.498 277.073C234.495 277.015 234.509 276.958 234.538 276.909C234.567 276.859 234.61 276.819 234.661 276.794C235.124 276.556 236.456 277.379 236.606 277.474C236.623 277.483 236.637 277.496 236.646 277.514C236.654 277.531 236.657 277.55 236.654 277.569C236.651 277.589 236.643 277.607 236.629 277.622C236.616 277.637 236.598 277.647 236.579 277.651C236.225 277.743 235.863 277.796 235.498 277.807ZM234.879 276.95C234.839 276.937 234.796 276.937 234.756 276.95C234.756 276.95 234.695 276.984 234.688 277.066C234.681 277.131 234.69 277.196 234.714 277.256C234.737 277.317 234.775 277.37 234.824 277.413C235.287 277.624 235.812 277.651 236.293 277.488C235.861 277.219 235.381 277.036 234.879 276.95Z" fill="#4580FF"/>
<path d="M236.552 277.658H236.504C236.083 277.426 235.253 276.515 235.335 276.08C235.35 276.007 235.391 275.941 235.449 275.894C235.507 275.847 235.579 275.822 235.654 275.822C235.729 275.812 235.804 275.818 235.876 275.841C235.948 275.863 236.014 275.9 236.069 275.951C236.545 276.338 236.647 277.528 236.654 277.583C236.655 277.601 236.651 277.618 236.643 277.634C236.634 277.649 236.622 277.662 236.606 277.671C236.597 277.674 236.587 277.674 236.577 277.672C236.568 277.67 236.559 277.665 236.552 277.658ZM235.722 275.978H235.675C235.546 275.978 235.539 276.053 235.532 276.08C235.478 276.352 236.008 277.039 236.43 277.358C236.406 276.895 236.243 276.449 235.96 276.08C235.93 276.048 235.893 276.022 235.852 276.004C235.811 275.987 235.767 275.978 235.722 275.978Z" fill="#4580FF"/>
<path d="M276.42 192.882C276.42 192.882 272.932 209.515 264.772 213.962C263.836 214.489 262.81 214.837 261.746 214.989C261.746 214.989 253.47 218.389 246.317 221.605C241.965 223.57 238.028 225.488 236.62 226.562C232.894 229.398 242.019 273.666 242.019 273.666L235.818 273.734C235.818 273.734 222.768 234.539 224.938 224.25C227.107 213.962 250.526 198.213 250.526 198.213L254.13 188.299L276.42 192.882Z" fill="#263238"/>
<path opacity="0.2" d="M264.772 213.982C263.835 214.509 262.809 214.857 261.746 215.009C261.746 215.009 253.47 218.409 246.316 221.626C250.92 213.16 259.128 207.658 259.128 207.658L264.772 213.982Z" fill="black"/>
<path d="M293.904 277.889L289.864 278.766L287.505 269.477L291.551 268.6L293.904 277.889Z" fill="#9F5B53"/>
<path d="M288.858 277.08H293.883C293.965 277.08 294.044 277.108 294.107 277.16C294.171 277.212 294.214 277.285 294.23 277.365L295.046 281.044C295.064 281.123 295.066 281.204 295.052 281.283C295.038 281.363 295.008 281.439 294.964 281.507C294.921 281.574 294.864 281.633 294.797 281.678C294.731 281.724 294.656 281.755 294.576 281.772H294.44C292.815 281.772 291.632 281.642 289.592 281.642C288.334 281.642 284.54 281.772 282.792 281.772C281.044 281.772 280.834 280.058 281.541 279.902C284.73 279.222 287.13 278.242 288.15 277.331C288.246 277.244 288.357 277.178 288.479 277.134C288.6 277.091 288.729 277.073 288.858 277.08Z" fill="#263238"/>
<path d="M287.491 277.807C287.209 277.828 286.929 277.754 286.695 277.596C286.619 277.534 286.56 277.453 286.524 277.361C286.489 277.27 286.477 277.17 286.491 277.073C286.488 277.015 286.502 276.958 286.531 276.909C286.56 276.859 286.603 276.819 286.654 276.794C287.117 276.556 288.45 277.379 288.599 277.474C288.616 277.483 288.63 277.496 288.639 277.514C288.647 277.531 288.65 277.55 288.647 277.569C288.644 277.589 288.636 277.607 288.622 277.622C288.609 277.637 288.591 277.647 288.572 277.651C288.219 277.743 287.856 277.796 287.491 277.807ZM286.872 276.95C286.832 276.937 286.789 276.937 286.75 276.95C286.75 276.95 286.688 276.984 286.682 277.066C286.674 277.131 286.683 277.196 286.707 277.256C286.731 277.317 286.769 277.37 286.818 277.413C287.28 277.624 287.805 277.651 288.286 277.488C287.854 277.219 287.374 277.036 286.872 276.95Z" fill="#4580FF"/>
<path d="M288.545 277.658H288.497C288.076 277.426 287.246 276.515 287.328 276.08C287.343 276.007 287.384 275.941 287.442 275.894C287.5 275.847 287.573 275.822 287.647 275.822C287.722 275.812 287.797 275.818 287.869 275.841C287.941 275.863 288.007 275.9 288.062 275.951C288.538 276.338 288.64 277.528 288.647 277.583C288.648 277.601 288.644 277.618 288.636 277.634C288.627 277.649 288.615 277.662 288.599 277.671C288.59 277.674 288.58 277.674 288.57 277.672C288.561 277.67 288.552 277.665 288.545 277.658ZM287.715 275.978H287.641C287.511 275.978 287.505 276.053 287.498 276.08C287.443 276.352 287.974 277.039 288.395 277.358C288.369 276.888 288.198 276.436 287.906 276.066C287.854 276.017 287.787 275.986 287.715 275.978Z" fill="#4580FF"/>
<path d="M277.814 161.085C276.801 161.765 272.13 161.507 272.13 161.507L269.96 163.88L269.75 159.957C269.75 159.957 268.288 159.351 268.689 158.93C269.197 158.968 269.708 158.904 270.192 158.741C270.675 158.579 271.121 158.322 271.504 157.985C272.449 157.06 272.633 155.571 272.619 154.095C272.619 154.095 272.619 154.054 272.619 154.041L276.611 152.001L279.372 150.579C278.073 153.381 276.216 158.637 277.814 161.085Z" fill="#9F5B53"/>
<path opacity="0.2" d="M277.93 152.932C276.611 156.271 273.17 157.76 271.477 157.978C272.422 157.053 272.605 155.564 272.592 154.088C272.595 154.068 272.595 154.047 272.592 154.027L276.583 151.987C276.59 152.531 278.12 152.422 277.93 152.932Z" fill="black"/>
<path d="M280.466 152.796C280.466 152.796 283.057 154.156 283.92 152.531C284.784 150.906 283.553 150.811 284.825 150.226C286.096 149.641 287.905 149.233 287.49 148.002C287.076 146.771 285.79 146.642 287.218 145.282C288.646 143.922 288.959 142.005 286.824 141.631C284.689 141.257 285.505 139.591 285.396 138.911C285.287 138.231 284.09 137.755 282.792 138.027C281.493 138.299 280.949 136.374 280.146 135.776C279.344 135.177 278.236 135.912 277.943 136.721C277.651 137.53 276.882 136.456 275.74 136.32C274.598 136.184 274.863 137.387 274.509 138.509C274.156 139.631 273.455 138.904 272.639 139.829C271.823 140.753 271.748 147.064 280.466 152.796Z" fill="#263238"/>
<path d="M281.595 148.92C279.643 151.98 278.535 154 276.345 154.992C276.05 155.128 275.746 155.242 275.434 155.332C271.177 156.584 267.668 152.483 268.79 148.424C269.004 147.691 269.277 146.977 269.606 146.288C271.13 143.099 274.06 139.835 277.562 140.264C278.294 140.347 279.001 140.574 279.645 140.932C280.288 141.289 280.855 141.77 281.312 142.347C281.769 142.923 282.108 143.584 282.31 144.292C282.511 145 282.571 145.741 282.486 146.472C282.383 147.346 282.078 148.184 281.595 148.92Z" fill="#9F5B53"/>
<path d="M275.605 146.88C275.462 147.186 275.156 147.322 274.965 147.22C274.775 147.118 274.755 146.785 274.911 146.499C275.067 146.214 275.367 146.057 275.55 146.159C275.734 146.261 275.768 146.601 275.605 146.88Z" fill="#263238"/>
<path d="M272.306 145.064C272.264 145.192 272.174 145.299 272.054 145.361C271.935 145.423 271.796 145.436 271.667 145.398C271.483 145.289 271.456 144.969 271.619 144.677C271.783 144.384 272.068 144.235 272.259 144.344C272.449 144.452 272.463 144.786 272.306 145.064Z" fill="#263238"/>
<path d="M273.279 145.792C272.434 146.487 271.499 147.063 270.498 147.506C270.618 147.76 270.792 147.985 271.008 148.165C271.224 148.345 271.477 148.475 271.749 148.546L273.279 145.792Z" fill="#892B29"/>
<path d="M277.577 146.118C277.541 146.124 277.505 146.12 277.471 146.107C277.438 146.094 277.409 146.072 277.386 146.044C277.249 145.84 277.065 145.673 276.849 145.555C276.634 145.436 276.394 145.371 276.149 145.364C276.12 145.369 276.091 145.368 276.063 145.361C276.035 145.354 276.009 145.34 275.986 145.322C275.964 145.303 275.946 145.28 275.934 145.254C275.921 145.227 275.915 145.199 275.915 145.17C275.915 145.141 275.921 145.112 275.934 145.086C275.946 145.06 275.964 145.037 275.986 145.018C276.009 145 276.035 144.986 276.063 144.979C276.091 144.972 276.12 144.971 276.149 144.976C276.459 144.978 276.763 145.055 277.037 145.201C277.311 145.347 277.545 145.556 277.72 145.812C277.736 145.832 277.747 145.855 277.754 145.88C277.761 145.905 277.763 145.93 277.76 145.956C277.757 145.981 277.749 146.006 277.736 146.028C277.723 146.05 277.706 146.069 277.685 146.084C277.653 146.104 277.615 146.116 277.577 146.118Z" fill="#263238"/>
<path d="M272.544 150.369C273.001 150.517 273.487 150.553 273.96 150.474C274.434 150.394 274.881 150.202 275.264 149.913C275.282 149.893 275.291 149.868 275.291 149.842C275.291 149.815 275.282 149.79 275.264 149.77C275.245 149.751 275.22 149.741 275.193 149.741C275.166 149.741 275.141 149.751 275.122 149.77C274.759 150.031 274.34 150.204 273.898 150.275C273.457 150.346 273.005 150.312 272.578 150.178C272.566 150.173 272.553 150.17 272.54 150.17C272.527 150.171 272.514 150.174 272.503 150.18C272.491 150.186 272.481 150.194 272.473 150.204C272.465 150.215 272.459 150.227 272.456 150.239C272.451 150.251 272.448 150.264 272.448 150.277C272.449 150.29 272.452 150.303 272.458 150.315C272.463 150.327 272.472 150.337 272.482 150.345C272.492 150.353 272.504 150.359 272.517 150.362L272.544 150.369Z" fill="#263238"/>
<path d="M272 142.243C271.99 142.205 271.99 142.165 272 142.127C272.022 142.081 272.062 142.045 272.11 142.027C272.158 142.009 272.211 142.011 272.258 142.032C272.544 142.159 272.794 142.354 272.988 142.599C273.182 142.844 273.315 143.132 273.374 143.439C273.379 143.491 273.365 143.542 273.333 143.583C273.301 143.624 273.255 143.65 273.204 143.657C273.152 143.663 273.101 143.648 273.06 143.616C273.019 143.585 272.993 143.538 272.986 143.487C272.933 143.247 272.823 143.023 272.668 142.833C272.512 142.643 272.313 142.492 272.088 142.392C272.064 142.375 272.044 142.352 272.029 142.327C272.013 142.301 272.004 142.272 272 142.243Z" fill="#263238"/>
<path d="M274.802 140.549C275.795 140.671 276.284 141.909 276.284 141.909C277.485 142.348 278.645 142.889 279.752 143.527C280.09 143.803 280.344 144.167 280.486 144.579C280.628 144.991 280.651 145.435 280.555 145.86C280.521 146.186 279.718 146.485 279.718 146.485C279.718 146.485 278.249 149.953 277.848 150.912L278.052 154.115C280.751 152.408 282.913 149.973 284.288 147.091C286.607 142.263 276.93 138.013 276.93 138.013L274.802 140.549Z" fill="#263238"/>
<path d="M281.01 153.762C280.106 154.257 279.043 154.374 278.052 154.088C276.74 153.694 276.815 152.347 277.787 151.484C278.658 150.736 280.405 149.994 281.418 150.865C281.64 151.054 281.811 151.296 281.914 151.569C282.017 151.842 282.05 152.136 282.009 152.425C281.969 152.714 281.856 152.988 281.681 153.221C281.507 153.455 281.276 153.641 281.01 153.762Z" fill="#9F5B53"/>
<path d="M277.699 158.998L272.293 160.555L269.961 163.717L270.593 159.848C270.593 159.848 270.015 158.957 270.974 157.563L267.683 158.243L265.697 161.561L269.56 160.657L269.825 164.513L272.076 161.861L273.918 164.771L279.399 161.296L277.699 158.998Z" fill="#4580FF"/>
<path opacity="0.2" d="M277.699 158.998L272.293 160.555L269.961 163.717L270.593 159.848C270.593 159.848 270.015 158.957 270.974 157.563L267.683 158.243L265.697 161.561L269.56 160.657L269.825 164.513L272.076 161.861L273.918 164.771L279.399 161.296L277.699 158.998Z" fill="black"/>
<path d="M255.007 184.96L254.164 188.319L276.414 192.882L276.747 189.149L255.007 184.96Z" fill="black"/>
<path d="M264.942 186.721C264.765 186.47 259.815 185.402 259.346 185.756C259.346 185.756 258.387 189.067 258.55 189.414C258.713 189.761 263.528 190.434 263.99 190.529C264.452 190.624 265.119 187 264.942 186.721ZM263.582 190.121C263.215 190.046 259.257 189.496 259.121 189.21C258.985 188.924 259.801 186.204 259.801 186.204C260.189 185.912 264.255 186.789 264.398 186.993C264.541 187.197 263.949 190.162 263.582 190.087V190.121Z" fill="white"/>
<path d="M263.772 187.85L262.786 187.646C262.697 187.629 262.604 187.646 262.526 187.694C262.448 187.741 262.39 187.816 262.365 187.904C262.351 187.954 262.347 188.005 262.354 188.056C262.361 188.107 262.378 188.155 262.405 188.199C262.432 188.242 262.468 188.28 262.51 188.309C262.552 188.338 262.6 188.357 262.65 188.367L263.636 188.557C263.732 188.576 263.831 188.556 263.912 188.502C263.993 188.448 264.049 188.364 264.068 188.268C264.087 188.173 264.067 188.073 264.013 187.992C263.959 187.911 263.875 187.855 263.779 187.836L263.772 187.85Z" fill="white"/>
<path d="M276.413 192.882C276.413 192.882 276.842 218.042 276.135 225.386C275.427 232.73 293.76 272.925 293.76 272.925H287.824C287.824 272.925 269.838 243.494 265.717 234.437C261.596 225.379 258.55 203.769 258.55 203.769L276.413 192.882Z" fill="#263238"/>
<path d="M282.506 162.792C281.588 160.711 267.492 163.792 266.22 163.431C264.948 163.071 251.716 157.529 251.716 157.529L250.566 160.48C250.566 160.48 262.432 167.28 265.03 168.354C267.628 169.429 278.011 168.912 280.67 167.763C281.125 167.567 281.535 167.28 281.876 166.92C282.217 166.561 282.482 166.136 282.653 165.671C282.825 165.206 282.901 164.711 282.875 164.216C282.85 163.721 282.724 163.237 282.506 162.792Z" fill="#4580FF"/>
<path d="M280.01 108.752L275.74 81.5522L253.245 97.4574L260.725 100.626C253.504 117.177 230.078 165.668 189.767 201.423C138.298 247.085 66.2589 269.552 65.5381 269.769L69.5229 282.778C72.5829 281.839 145.057 259.263 198.818 211.575C241.658 173.577 265.744 123.461 273.305 105.917L280.01 108.752Z" fill="#4580FF"/>
<path opacity="0.4" d="M275.93 103.992L275.74 81.5522L253.245 97.4575L260.725 100.626C253.504 117.177 230.078 165.668 189.767 201.423C138.298 247.085 66.2589 269.552 65.5381 269.769L66.8029 278.018C69.8629 277.079 142.337 256.543 196.098 208.855C238.938 170.857 261.664 120.061 269.225 102.517L275.93 103.992Z" fill="white"/>
<path d="M271.999 109.901C271.893 109.902 271.788 109.886 271.686 109.854L258.624 105.631C258.489 105.596 258.363 105.534 258.253 105.449C258.144 105.363 258.052 105.257 257.986 105.135C257.919 105.013 257.877 104.879 257.864 104.74C257.851 104.602 257.866 104.462 257.909 104.33C257.951 104.198 258.021 104.076 258.112 103.971C258.204 103.867 258.316 103.782 258.441 103.722C258.567 103.663 258.703 103.629 258.842 103.624C258.981 103.619 259.12 103.643 259.249 103.693L272.312 107.909C272.545 107.983 272.743 108.137 272.871 108.345C273 108.552 273.05 108.799 273.012 109.04C272.974 109.281 272.851 109.5 272.665 109.658C272.479 109.816 272.243 109.903 271.999 109.901Z" fill="#263238"/>
<path opacity="0.4" d="M271.999 109.901C271.893 109.902 271.788 109.886 271.686 109.854L258.624 105.631C258.489 105.596 258.363 105.534 258.253 105.449C258.144 105.363 258.052 105.257 257.986 105.135C257.919 105.013 257.877 104.879 257.864 104.74C257.851 104.602 257.866 104.462 257.909 104.33C257.951 104.198 258.021 104.076 258.112 103.971C258.204 103.867 258.316 103.782 258.441 103.722C258.567 103.663 258.703 103.629 258.842 103.624C258.981 103.619 259.12 103.643 259.249 103.693L272.312 107.909C272.545 107.983 272.743 108.137 272.871 108.345C273 108.552 273.05 108.799 273.012 109.04C272.974 109.281 272.851 109.5 272.665 109.658C272.479 109.816 272.243 109.903 271.999 109.901Z" fill="white"/>
<path d="M115.553 237.198C115.283 237.198 115.023 237.09 114.832 236.899C114.641 236.708 114.533 236.448 114.533 236.178C114.533 203.715 123.965 199.458 125.733 198.934L155.721 177.956L155.789 177.915L270.994 109.603C271.227 109.47 271.502 109.434 271.76 109.503C272.019 109.571 272.24 109.738 272.377 109.968C272.513 110.199 272.554 110.473 272.49 110.733C272.426 110.992 272.262 111.217 272.035 111.357L156.884 179.649L126.753 200.729C126.624 200.819 126.478 200.879 126.324 200.906C126.25 200.906 116.573 203.286 116.573 236.198C116.568 236.465 116.458 236.719 116.267 236.906C116.077 237.093 115.82 237.198 115.553 237.198Z" fill="#263238"/>
<path opacity="0.4" d="M115.553 237.198C115.283 237.198 115.023 237.09 114.832 236.899C114.641 236.708 114.533 236.448 114.533 236.178C114.533 203.715 123.965 199.458 125.733 198.934L155.721 177.956L155.789 177.915L270.994 109.603C271.227 109.47 271.502 109.434 271.76 109.503C272.019 109.571 272.24 109.738 272.377 109.968C272.513 110.199 272.554 110.473 272.49 110.733C272.426 110.992 272.262 111.217 272.035 111.357L156.884 179.649L126.753 200.729C126.624 200.819 126.478 200.879 126.324 200.906C126.25 200.906 116.573 203.286 116.573 236.198C116.568 236.465 116.458 236.719 116.267 236.906C116.077 237.093 115.82 237.198 115.553 237.198Z" fill="white"/>
<path d="M123.387 203.51C123.387 203.51 118.144 206.91 114.159 207.937C113.176 208.27 112.12 208.328 111.106 208.107C108.141 207.169 109.902 201.43 111.67 197.805C111.956 197.214 112.242 196.683 112.507 196.234L117.688 199.437C117.688 199.437 114.547 203.918 114.907 204.197C115.268 204.476 120.109 201.776 120.347 201.688C120.585 201.6 123.387 203.51 123.387 203.51Z" fill="#4580FF"/>
<path opacity="0.2" d="M123.386 203.511C123.386 203.511 118.144 206.911 114.159 207.937C113.052 204.634 112.22 201.245 111.67 197.805C111.956 197.214 112.241 196.683 112.506 196.235L117.688 199.437C117.688 199.437 114.546 203.919 114.907 204.197C115.267 204.476 120.109 201.777 120.347 201.688C120.585 201.6 123.386 203.511 123.386 203.511Z" fill="black"/>
<path d="M148.921 183.777L151.995 181.057C152.24 180.28 152.578 179.536 153.001 178.84C153.334 178.561 158.93 178.126 158.93 178.126C158.93 178.126 159.039 181.084 158.597 181.852C158.155 182.621 153.586 182.954 153.586 182.954L151.138 185.314L148.921 183.777Z" fill="#EEC1BB"/>
<path d="M165.295 248.234C164.418 260.855 162.072 278.766 162.072 278.766L159.053 279.446C159.053 279.446 156.265 264.452 156.707 250.539C156.786 247.506 157.072 244.482 157.563 241.489C157.563 241.489 147.105 237.47 139.843 233.873C136.375 232.159 133.634 230.534 133.111 229.487C131.492 226.257 138.85 218.668 138.85 218.668C139.081 218.851 143.521 221.68 148.689 225.033C155.551 229.48 163.69 234.852 165.009 236.191C165.798 236.96 165.73 241.937 165.295 248.234Z" fill="#EEC1BB"/>
<path opacity="0.2" d="M165.295 248.234C162.504 249.246 159.631 250.013 156.707 250.526C156.786 247.493 157.072 244.469 157.564 241.475C157.564 241.475 147.105 237.456 139.843 233.859L148.683 225.019C155.544 229.466 163.684 234.838 165.003 236.178C165.798 236.96 165.73 241.937 165.295 248.234Z" fill="black"/>
<path d="M141.753 216.56C141.753 216.56 170.769 233.24 174.713 237.007C178.657 240.774 201.423 275.978 201.423 275.978L199.505 277.807C199.505 277.807 180.601 261.582 173.06 246.16L141.78 231.044L141.753 216.56Z" fill="#EEC1BB"/>
<path d="M119.68 185.763C119.727 185.795 119.777 185.822 119.83 185.844C120.542 186.248 121.329 186.505 122.142 186.599C124.508 186.81 126.032 186.279 126.902 185.096C128.112 183.342 128.085 180.54 127.419 177.242C127.198 175.922 126.769 174.646 126.147 173.461C126.147 173.461 126.147 173.414 126.147 173.407L126.066 173.271C125.687 172.608 125.148 172.05 124.499 171.648C123.849 171.247 123.109 171.014 122.346 170.973C121.682 170.918 121.014 170.936 120.354 171.027C113.894 171.863 114.24 182.757 119.68 185.763Z" fill="#EEC1BB"/>
<path opacity="0.2" d="M119.857 185.844C120.571 186.225 121.356 186.457 122.163 186.524C124.522 186.735 126.039 186.123 126.923 184.933C125.6 185.46 124.142 185.543 122.768 185.171C122.263 185.054 121.739 185.054 121.235 185.171C120.73 185.287 120.259 185.518 119.857 185.844Z" fill="black"/>
<path d="M119.422 191.162C118.857 192.984 121.19 193.95 121.19 193.95C125.27 192.59 126.188 190.597 126.188 190.597C123.06 188.557 124.433 183.838 124.433 183.838L123.753 184.11L118.993 184.613C118.993 184.613 120.074 187.218 120.197 187.803C120.795 190.869 119.422 191.162 119.422 191.162Z" fill="#EBB376"/>
<path d="M126.188 173.4C126.188 173.4 127.181 177.895 123.148 180.445C123.148 180.445 121.958 185.429 119.245 185.885C115.546 186.497 111.541 181.676 112.071 176.113C112.765 168.919 123.25 166.872 126.188 173.4Z" fill="#263238"/>
<path d="M125.121 178.84C125.019 178.16 124.285 177.018 123.203 177.337C122.122 177.657 121.843 180.561 124.74 180.799C125.182 180.88 125.359 180.336 125.121 178.84Z" fill="#EBB376"/>
<path d="M200.158 273.816L197.03 276.223C196.966 276.274 196.921 276.346 196.903 276.426C196.884 276.506 196.893 276.59 196.928 276.665L198.52 280.065C198.554 280.137 198.602 280.201 198.661 280.255C198.72 280.308 198.79 280.349 198.865 280.376C198.94 280.402 199.02 280.414 199.099 280.409C199.179 280.405 199.257 280.385 199.329 280.35C199.369 280.332 199.408 280.309 199.444 280.282C200.709 279.269 200.75 279.113 202.362 277.875C203.348 277.114 206.442 274.91 207.802 273.856C209.162 272.802 208.305 271.313 207.652 271.619C204.714 272.979 202.212 273.707 200.852 273.605C200.603 273.586 200.355 273.661 200.158 273.816Z" fill="#263238"/>
<path d="M200.839 273.755C200.821 273.763 200.802 273.766 200.783 273.763C200.764 273.76 200.746 273.751 200.732 273.738C200.718 273.725 200.708 273.707 200.704 273.689C200.7 273.67 200.702 273.65 200.709 273.632C200.771 273.469 201.328 272.007 201.831 271.919C201.887 271.907 201.945 271.911 201.998 271.932C202.052 271.952 202.097 271.988 202.131 272.034C202.2 272.103 202.251 272.189 202.278 272.283C202.306 272.377 202.309 272.476 202.287 272.571C202.206 272.849 202.031 273.09 201.791 273.251C201.494 273.455 201.174 273.624 200.839 273.755ZM200.981 273.476C201.461 273.313 201.861 272.972 202.097 272.524C202.11 272.459 202.107 272.393 202.088 272.33C202.069 272.267 202.035 272.21 201.988 272.163C201.933 272.109 201.886 272.095 201.865 272.116C201.823 272.124 201.783 272.143 201.75 272.17C201.413 272.553 201.152 272.996 200.981 273.476Z" fill="#4580FF"/>
<path d="M200.832 273.789C200.815 273.789 200.798 273.786 200.783 273.779C200.767 273.772 200.754 273.761 200.743 273.748C200.743 273.7 200.063 272.701 200.206 272.102C200.222 272.029 200.253 271.961 200.296 271.9C200.339 271.839 200.394 271.788 200.458 271.749C200.516 271.702 200.588 271.677 200.662 271.677C200.736 271.677 200.808 271.702 200.866 271.749C201.199 272.041 201.097 273.258 200.9 273.7L200.866 273.734L200.832 273.789ZM200.376 272.116C200.374 272.586 200.514 273.046 200.777 273.435C200.94 272.927 200.916 272.377 200.709 271.885C200.709 271.885 200.635 271.81 200.539 271.885H200.499C200.431 271.944 200.388 272.027 200.376 272.116Z" fill="#4580FF"/>
<path d="M162.602 276.76L158.651 276.835C158.57 276.839 158.493 276.87 158.431 276.923C158.37 276.976 158.327 277.048 158.311 277.127L157.57 280.806C157.548 280.96 157.585 281.116 157.675 281.243C157.765 281.369 157.9 281.456 158.052 281.486C158.098 281.493 158.143 281.493 158.188 281.486C159.8 281.425 159.929 281.323 161.962 281.282C163.214 281.282 166.988 281.316 168.715 281.282C170.442 281.248 170.632 279.535 169.925 279.392C166.736 278.766 164.336 277.855 163.302 276.964C163.103 276.809 162.853 276.736 162.602 276.76Z" fill="#263238"/>
<path d="M162.956 277.195C162.936 277.192 162.918 277.182 162.904 277.168C162.891 277.153 162.882 277.134 162.881 277.114C162.876 277.095 162.877 277.076 162.885 277.059C162.892 277.041 162.905 277.027 162.922 277.018C163.065 276.923 164.377 276.08 164.84 276.304C164.892 276.328 164.937 276.366 164.968 276.414C164.999 276.463 165.016 276.519 165.016 276.576C165.03 276.673 165.019 276.772 164.984 276.863C164.95 276.955 164.893 277.036 164.819 277.1C164.591 277.265 164.311 277.344 164.03 277.324C163.668 277.322 163.308 277.279 162.956 277.195ZM163.235 277.052C163.717 277.207 164.24 277.17 164.697 276.95C164.745 276.906 164.781 276.851 164.803 276.789C164.824 276.727 164.83 276.661 164.819 276.597C164.819 276.522 164.778 276.488 164.758 276.488C164.715 276.478 164.671 276.478 164.629 276.488C164.133 276.587 163.66 276.778 163.235 277.052Z" fill="#4580FF"/>
<path d="M162.928 277.216C162.912 277.208 162.899 277.195 162.89 277.179C162.882 277.163 162.878 277.145 162.88 277.127C162.88 277.073 162.955 275.89 163.424 275.489C163.48 275.438 163.546 275.401 163.618 275.378C163.689 275.356 163.765 275.35 163.839 275.359C163.913 275.358 163.986 275.382 164.044 275.428C164.103 275.474 164.143 275.539 164.159 275.611C164.247 276.039 163.479 276.971 163.023 277.202H162.976C162.962 277.213 162.945 277.217 162.928 277.216ZM163.554 275.604C163.273 275.981 163.112 276.434 163.091 276.903C163.513 276.577 164.023 275.876 163.962 275.611C163.962 275.611 163.962 275.516 163.819 275.516H163.771C163.69 275.517 163.613 275.549 163.554 275.604Z" fill="#4580FF"/>
<path d="M140.944 212.092L126.549 218.138C120.599 203.348 112.507 196.235 112.507 196.235C118.273 189.319 128.922 186.137 128.922 186.137C130.495 187.417 131.852 188.941 132.941 190.652C134.141 192.51 135.188 194.464 136.069 196.493C138.208 201.518 139.841 206.744 140.944 212.092Z" fill="#4580FF"/>
<path d="M126.052 176.406C126.052 176.406 130.574 171.795 126.242 168.756C121.911 165.716 117.613 169.776 117.613 169.776C117.613 169.776 107.325 172.366 109.582 179.2C111.84 186.034 113.282 186.599 110.052 190.148C106.822 193.698 103.53 198.934 106.903 202.232C110.276 205.53 121.904 201.994 125.392 196.935C128.881 191.876 122.53 181.152 126.052 176.406Z" fill="#263238"/>
<path d="M139.897 207.658L124.257 213.024C124.257 213.024 127.718 230.058 130.227 232.907C132.736 235.756 149.512 248.948 151.885 247.908C154.258 246.867 170 232.907 170 232.907L143.365 214.642L139.897 207.658Z" fill="#263238"/>
<path d="M137.619 210.861L140.944 209.76L140.121 208.114L136.973 209.222L137.619 210.861Z" fill="black"/>
<path d="M127.677 212.493L124.271 213.69L124.726 215.145L128.058 214.037L127.677 212.493Z" fill="black"/>
<path d="M128.772 213.799L136.952 211.086L136.34 209.44L128.323 212.262L128.772 213.799Z" fill="black"/>
<path opacity="0.2" d="M136.068 196.52C132.627 196.119 130.689 190.944 130.689 190.944C131.434 190.811 132.185 190.722 132.94 190.679C134.141 192.537 135.187 194.491 136.068 196.52Z" fill="black"/>
<path d="M128.922 186.136C132.662 185.579 141.026 188.612 141.753 188.578C142.481 188.544 150.593 182.165 150.593 182.165L152.701 184.022C152.701 184.022 144.201 192.787 142.454 192.862C140.706 192.936 131.574 192.277 131.574 192.277C131.574 192.277 129.336 191.481 128.908 189.462C128.647 188.368 128.652 187.228 128.922 186.136Z" fill="#4580FF"/>
</svg>
