<svg width="137" height="137" viewBox="0 0 137 137" fill="none" xmlns="http://www.w3.org/2000/svg">
<rect x="0.643066" y="0.428711" width="135.714" height="135.714" rx="67.8571" fill="white"/>
<g clip-path="url(#clip0_4_1343)">
<path d="M60.8506 81.2717C60.8379 81.2092 60.8193 81.1477 60.7949 81.0881C60.7705 81.0295 60.7402 80.9729 60.7051 80.9202C60.6699 80.8665 60.6289 80.8167 60.584 80.7717C60.5391 80.7268 60.4893 80.6858 60.4355 80.6506C60.3828 80.6155 60.3262 80.5852 60.2666 80.5608C60.208 80.5364 60.1465 80.5168 60.084 80.5051C59.958 80.4797 59.8281 80.4797 59.7031 80.5051C59.6406 80.5168 59.5791 80.5364 59.5195 80.5608C59.4609 80.5852 59.4043 80.6155 59.3516 80.6506C59.2979 80.6858 59.248 80.7268 59.2031 80.7717C59.1582 80.8167 59.1172 80.8665 59.082 80.9202C59.0459 80.9729 59.0166 81.0295 58.9922 81.0881C58.9678 81.1477 58.9482 81.2092 58.9365 81.2717C58.9238 81.3342 58.917 81.3987 58.917 81.4622C58.917 81.5256 58.9238 81.5901 58.9365 81.6526C58.9482 81.7151 58.9678 81.7766 58.9922 81.8352C59.0166 81.8948 59.0459 81.9514 59.082 82.0042C59.1172 82.0579 59.1582 82.1077 59.2031 82.1526C59.248 82.1975 59.2979 82.2385 59.3516 82.2737C59.4043 82.3089 59.4609 82.3392 59.5195 82.3636C59.5791 82.388 59.6406 82.4076 59.7031 82.4193C59.7656 82.432 59.8301 82.4388 59.8936 82.4388C59.957 82.4388 60.0215 82.432 60.084 82.4193C60.1465 82.4076 60.208 82.388 60.2666 82.3636C60.3262 82.3392 60.3828 82.3088 60.4355 82.2737C60.4893 82.2385 60.5391 82.1975 60.584 82.1526C60.6289 82.1077 60.6699 82.0579 60.7051 82.0042C60.7402 81.9514 60.7705 81.8948 60.7949 81.8352C60.8193 81.7766 60.8379 81.7151 60.8506 81.6526C60.8633 81.5901 60.8701 81.5256 60.8701 81.4622C60.8701 81.3987 60.8633 81.3342 60.8506 81.2717Z" fill="black"/>
<path d="M88.9212 81.5725C88.9174 81.5627 88.9135 81.5531 88.9094 81.5435C88.0105 79.4403 85.9025 78.6629 83.4078 79.515L76.6043 81.3964C76.2109 80.2052 75.2298 79.1916 73.8425 78.6767C73.8339 78.6736 73.8253 78.6705 73.8166 78.6675L66.338 76.1292C65.7155 75.3247 63.7657 73.2659 60.115 73.2659C57.5638 73.2659 55.3068 75.0161 54.0156 76.9238H44.9766C44.4372 76.9238 44 77.361 44 77.9003V90.2125C44 90.7519 44.4372 91.1891 44.9766 91.1891H50.7829C51.3223 91.1891 51.7595 90.7519 51.7595 90.2125V89.3694H54.4824C55.0218 89.3694 55.459 88.9322 55.459 88.3928V88.1118C57.0463 88.2502 57.5684 88.5513 59.0262 89.3919C60.1473 90.0384 61.8417 91.0155 64.8931 92.3875C64.9072 92.3938 64.9216 92.3999 64.9359 92.4055C65.5216 92.6359 66.6664 92.9978 68.0778 92.9978C69.0603 92.9978 70.1721 92.8223 71.3133 92.305L86.3515 86.9207C86.3782 86.9111 86.4046 86.9003 86.4304 86.8884C87.8676 86.2272 90.0093 84.3636 88.9212 81.5725ZM49.8063 89.2359H45.9531V78.8768H49.8063V89.2359ZM53.5059 87.4162H51.7595V78.8768H53.5059V87.4162ZM85.65 85.0971L70.6186 90.4791C70.6054 90.4837 70.5875 90.4908 70.5745 90.496C70.5613 90.5014 70.5481 90.5071 70.5352 90.513C68.4417 91.4751 66.4518 90.8992 65.6719 90.5959C62.7244 89.2697 61.1513 88.3625 60.0019 87.6998C58.4038 86.7783 57.6338 86.3341 55.459 86.1545V78.2891C56.3847 76.7719 58.1798 75.2189 60.1151 75.2189C63.4341 75.2189 64.8404 77.3776 64.8957 77.4647C65.0149 77.6586 65.1982 77.8048 65.4138 77.878L73.175 80.5122C74.4146 80.9774 75.0696 82.0389 74.7686 83.0975C74.6296 83.5864 74.3085 83.9918 73.8645 84.2392C73.4244 84.4844 72.9156 84.5451 72.4307 84.4109L63.6813 81.6382C63.1669 81.4752 62.6183 81.76 62.4554 82.2742C62.2924 82.7883 62.5771 83.3372 63.0913 83.5001L71.8559 86.2776C71.8651 86.2805 71.8744 86.2833 71.8838 86.286C72.2337 86.3855 72.5899 86.4347 72.944 86.4347C73.5923 86.4347 74.2334 86.2696 74.8152 85.9454C75.7149 85.4441 76.3655 84.6224 76.6472 83.6317C76.6696 83.5526 76.6896 83.4735 76.7068 83.3944L84.0392 81.3631C85.0981 81.0014 86.4883 80.871 87.1072 82.2965C87.7479 83.9701 86.0828 84.8907 85.65 85.0971Z" fill="black"/>
<path d="M79.0645 55.8459C79.0518 55.7834 79.0332 55.7219 79.0078 55.6624C78.9834 55.6038 78.9541 55.5471 78.918 55.4944C78.8828 55.4407 78.8418 55.3909 78.7969 55.3459C78.752 55.301 78.7021 55.26 78.6484 55.2249C78.5957 55.1897 78.5391 55.1594 78.4805 55.135C78.4209 55.1106 78.3594 55.0911 78.2979 55.0793C78.1719 55.054 78.042 55.054 77.916 55.0793C77.8535 55.0911 77.792 55.1106 77.7334 55.135C77.6738 55.1594 77.6172 55.1897 77.5645 55.2249C77.5107 55.26 77.4609 55.301 77.416 55.3459C77.3711 55.3909 77.3301 55.4407 77.2949 55.4944C77.2598 55.5471 77.2295 55.6038 77.2051 55.6624C77.1807 55.7219 77.1611 55.7834 77.1494 55.8459C77.1367 55.9084 77.1299 55.9729 77.1299 56.0364C77.1299 56.0999 77.1367 56.1643 77.1494 56.2268C77.1611 56.2893 77.1807 56.3508 77.2051 56.4094C77.2295 56.469 77.2598 56.5256 77.2949 56.5784C77.3301 56.6321 77.3711 56.6819 77.416 56.7268C77.4609 56.7717 77.5107 56.8127 77.5645 56.8479C77.6172 56.8831 77.6738 56.9133 77.7334 56.9377C77.792 56.9622 77.8535 56.9807 77.916 56.9934C77.9785 57.0061 78.043 57.0129 78.1064 57.0129C78.1699 57.0129 78.2344 57.0061 78.2979 56.9934C78.3594 56.9807 78.4209 56.9622 78.4805 56.9377C78.5391 56.9133 78.5957 56.8831 78.6484 56.8479C78.7021 56.8127 78.752 56.7717 78.7969 56.7268C78.8418 56.6819 78.8828 56.6321 78.918 56.5784C78.9541 56.5256 78.9834 56.469 79.0078 56.4094C79.0332 56.3508 79.0518 56.2893 79.0645 56.2268C79.0771 56.1643 79.083 56.0999 79.083 56.0364C79.083 55.9729 79.0771 55.9084 79.0645 55.8459Z" fill="black"/>
<path d="M93.0234 46.3096H87.217C86.6777 46.3096 86.2405 46.7468 86.2405 47.2862V48.1293H83.5175C82.9781 48.1293 82.5409 48.5665 82.5409 49.1059V49.3869C80.9536 49.2484 80.4316 48.9474 78.9739 48.1068C77.8528 47.4603 76.1583 46.4832 73.1069 45.1113C73.0927 45.1048 73.0784 45.0989 73.0639 45.0932C72.0706 44.7024 69.4674 43.9334 66.687 45.1935L62.7574 46.6005L59.4449 43.2882C59.0636 42.9069 58.4452 42.9069 58.0639 43.2882L47.1891 54.1629C46.8373 54.5148 46.7699 55.1248 47.1891 55.5441L65.7718 74.1268C66.0692 74.4242 66.7655 74.5142 67.153 74.1268L77.0812 64.1987C77.3393 64.2209 77.6072 64.2329 77.8848 64.2329C80.4362 64.2329 82.693 62.4827 83.9841 60.5751H93.0234C93.5627 60.5751 93.9999 60.1379 93.9999 59.5986V47.2862C93.9999 46.7468 93.5627 46.3096 93.0234 46.3096ZM58.7543 45.3598L60.9801 47.5856C60.3185 47.9948 59.5535 48.2137 58.7543 48.2137C57.955 48.2137 57.1902 47.9948 56.5285 47.5856L58.7543 45.3598ZM51.4866 57.0793L49.2608 54.8534L51.4866 52.6277C51.8957 53.2893 52.1147 54.0542 52.1147 54.8534C52.1147 55.6527 51.8958 56.4176 51.4866 57.0793ZM66.4624 72.0551L64.237 69.8297C65.5957 68.9912 67.3289 68.9912 68.6877 69.8297L66.4624 72.0551ZM70.0948 68.4229C67.9367 66.8574 64.9881 66.8574 62.8301 68.4229L52.8935 58.4862C53.6561 57.4373 54.0678 56.1775 54.0678 54.8534C54.0678 53.5293 53.6562 52.2696 52.8935 51.2207L55.1217 48.9926C56.1705 49.7552 57.4303 50.1669 58.7544 50.1669C60.0785 50.1669 61.3383 49.7552 62.3871 48.9926L64.4993 51.1048C64.0436 51.1721 63.5991 51.3223 63.1847 51.5532C62.4847 51.9433 61.9355 52.5274 61.5935 53.234C60.4919 53.438 59.4721 53.9713 58.6721 54.7712C56.5017 56.9417 56.5017 60.4733 58.6722 62.6438C59.7574 63.7289 61.1828 64.2716 62.6084 64.2716C64.0339 64.2716 65.4595 63.729 66.5448 62.6438C67.2508 61.9377 67.7454 61.0699 67.9932 60.1242L71.2905 61.2433C70.9193 62.9628 71.2994 64.7718 72.3249 66.1927L70.0948 68.4229ZM64.1574 58.822C64.166 58.8251 64.1746 58.8282 64.1833 58.8312L66.1361 59.494C65.9886 60.1595 65.6549 60.7714 65.1637 61.2627C63.7547 62.6715 61.4621 62.6717 60.0533 61.2627C58.6444 59.8538 58.6444 57.5614 60.0533 56.1524C60.3932 55.8123 60.7943 55.5466 61.2313 55.3664C61.4115 56.8666 62.4917 58.2038 64.1574 58.822ZM73.7321 64.7855C73.3551 64.1712 73.1418 63.4701 73.1081 62.7546C73.5759 63.0928 74.1476 63.4241 74.8304 63.6871L73.7321 64.7855ZM82.5408 59.2092C81.6153 60.7266 79.8201 62.2796 77.8848 62.2796C77.5227 62.2796 77.1833 62.2538 76.866 62.2079C76.8648 62.2077 76.8635 62.2075 76.8622 62.2073C74.7533 61.901 73.6188 60.7024 73.2448 60.2278C73.2249 60.1985 73.1401 60.0874 73.1275 60.069C73.0137 59.8657 72.8272 59.7022 72.5893 59.6214L64.8248 56.9862C63.5858 56.5211 62.9308 55.4601 63.231 54.4019C63.2312 54.4012 63.2314 54.4005 63.2316 54.3998C63.2319 54.399 63.2321 54.3982 63.2323 54.3974C63.3718 53.9101 63.6923 53.5059 64.1353 53.2591C64.5753 53.0139 65.084 52.9531 65.5692 53.0875L74.3185 55.8601C74.8327 56.0233 75.3816 55.7383 75.5445 55.2241C75.7073 54.71 75.4227 54.1612 74.9085 53.9982L67.95 51.7931L67.8893 51.7323C67.8887 51.7318 67.8881 51.7311 67.8874 51.7305L64.2849 48.128L67.3814 47.0192C67.3918 47.0154 67.4047 47.0106 67.4151 47.0064C67.4177 47.0053 67.4228 47.0033 67.4253 47.0023C67.4386 46.9969 67.4517 46.9912 67.4647 46.9853C69.558 46.0232 71.5479 46.599 72.3279 46.9024C75.2754 48.2286 76.8487 49.1358 77.9981 49.7986C79.5961 50.7201 80.3661 51.1642 82.5408 51.3438V59.2092ZM86.2405 58.6218H84.4941V50.0824H86.2405V58.6218ZM92.0468 58.6218H88.1936V48.2627H92.0468V58.6218Z" fill="black"/>
</g>
<defs>
<clipPath id="clip0_4_1343">
<rect width="50" height="50" fill="white" transform="translate(44 43)"/>
</clipPath>
</defs>
</svg>
