<svg width="60" height="61" viewBox="0 0 60 61" fill="none" xmlns="http://www.w3.org/2000/svg">
<path d="M0 30.4399C0 13.8714 13.4315 0.439941 30 0.439941C46.5685 0.439941 60 13.8714 60 30.4399C60 47.0085 46.5685 60.4399 30 60.4399C13.4315 60.4399 0 47.0085 0 30.4399Z" fill="#E9EFFD"/>
<path fill-rule="evenodd" clip-rule="evenodd" d="M25.6252 23.4572C25.6251 23.4515 25.625 23.4457 25.625 23.4399V22.2732C25.625 19.8569 27.5838 17.8982 30 17.8982C32.4162 17.8982 34.375 19.8569 34.375 22.2732V23.4399C34.375 23.4457 34.3749 23.4515 34.3748 23.4572C35.8766 23.5023 36.7956 23.6643 37.4971 24.2466C38.4692 25.0533 38.7252 26.4188 39.2373 29.1498L40.1123 33.8165C40.8323 37.6568 41.1924 39.577 40.1427 40.8418C39.093 42.1065 37.1394 42.1065 33.2322 42.1065H26.7678C22.8606 42.1065 20.9069 42.1065 19.8573 40.8418C18.8076 39.577 19.1676 37.6568 19.8877 33.8165L20.7627 29.1498C21.2748 26.4188 21.5308 25.0533 22.5028 24.2466C23.2044 23.6643 24.1234 23.5023 25.6252 23.4572ZM27.375 22.2732C27.375 20.8234 28.5503 19.6482 30 19.6482C31.4497 19.6482 32.625 20.8234 32.625 22.2732V23.4399C32.625 23.4399 32.625 23.4399 32.625 23.4399C32.5372 23.4398 32.4479 23.4399 32.3572 23.4399H27.6428C27.5521 23.4399 27.4628 23.4399 27.375 23.4399C27.375 23.4399 27.375 23.4399 27.375 23.4399V22.2732ZM34.3632 29.1295C34.2838 28.6528 33.8329 28.3308 33.3563 28.4102C32.8796 28.4897 32.5576 28.9405 32.637 29.4172L33.8037 36.4172C33.8831 36.8939 34.334 37.2159 34.8106 37.1364C35.2873 37.057 35.6093 36.6062 35.5299 36.1295L34.3632 29.1295ZM26.6437 28.4102C26.167 28.3308 25.7162 28.6528 25.6367 29.1295L24.4701 36.1295C24.3906 36.6062 24.7127 37.057 25.1893 37.1364C25.666 37.2159 26.1168 36.8939 26.1963 36.4172L27.3629 29.4172C27.4424 28.9405 27.1204 28.4897 26.6437 28.4102Z" fill="#2F6DFF"/>
</svg>
