<svg width="115" height="115" viewBox="0 0 115 115" fill="none" xmlns="http://www.w3.org/2000/svg">
<path fill-rule="evenodd" clip-rule="evenodd" d="M21.1397 47.353H39.7428C40.8074 47.353 41.8098 47.8544 42.4486 48.7059L47.5221 55.4707C48.4241 56.6732 48.4241 58.3268 47.5221 59.5296L42.4486 66.2944C41.8098 67.1461 40.8074 67.6472 39.7428 67.6472H21.1397C19.2716 67.6472 17.7573 66.1329 17.7573 64.2648V50.7354C17.7573 48.8671 19.2716 47.353 21.1397 47.353ZM34.6691 113.309C34.6691 114.243 33.9119 115 32.978 115H29.5956C28.6617 115 27.9045 114.243 27.9045 113.309V72.7207H34.6693V113.309H34.6691ZM34.6691 42.2793H27.9043V1.69108C27.9043 0.757158 28.6614 0 29.5954 0H32.9778C33.9117 0 34.6688 0.757158 34.6688 1.69108L34.6691 42.2793ZM71.8749 60.8824C70.941 60.8824 70.1839 60.1252 70.1839 59.1913V55.8089C70.1839 54.875 70.941 54.1178 71.8749 54.1178H95.5515C96.4854 54.1178 97.2425 54.875 97.2425 55.8089V59.1913C97.2425 60.1252 96.4854 60.8824 95.5515 60.8824H71.8749ZM82.0219 77.7941C81.088 77.7941 80.3308 77.037 80.3308 76.1031V72.7207C80.3308 71.7867 81.088 71.0296 82.0219 71.0296H95.5512C96.4852 71.0296 97.2423 71.7867 97.2423 72.7207V76.1031C97.2423 77.037 96.4852 77.7941 95.5512 77.7941H82.0219ZM71.8749 94.7059C70.941 94.7059 70.1839 93.9487 70.1839 93.0148V89.6324C70.1839 88.6985 70.941 87.9413 71.8749 87.9413H95.5515C96.4854 87.9413 97.2425 88.6985 97.2425 89.6324V93.0148C97.2425 93.9487 96.4854 94.7059 95.5515 94.7059H71.8749ZM82.0219 111.618C81.088 111.618 80.3308 110.86 80.3308 109.927V106.544C80.3308 105.61 81.088 104.853 82.0219 104.853H95.5512C96.4852 104.853 97.2423 105.61 97.2423 106.544V109.927C97.2423 110.86 96.4852 111.618 95.5512 111.618H82.0219ZM82.0219 43.9707C81.088 43.9707 80.3308 43.2135 80.3308 42.2796V38.8972C80.3308 37.9633 81.088 37.2061 82.0219 37.2061H95.5512C96.4852 37.2061 97.2423 37.9633 97.2423 38.8972V42.2796C97.2423 43.2135 96.4852 43.9707 95.5512 43.9707H82.0219ZM71.8749 27.0589C70.941 27.0589 70.1839 26.3018 70.1839 25.3678V21.9852C70.1839 21.0513 70.941 20.2941 71.8749 20.2941H95.5515C96.4854 20.2941 97.2425 21.0513 97.2425 21.9852V25.3676C97.2425 26.3015 96.4854 27.0587 95.5515 27.0587L71.8749 27.0589ZM82.0219 10.147C81.088 10.147 80.3308 9.38979 80.3308 8.45587V5.07348C80.3308 4.13955 81.088 3.38239 82.0219 3.38239H95.5512C96.4852 3.38239 97.2423 4.13955 97.2423 5.07348V8.45587C97.2423 9.38979 96.4852 10.147 95.5512 10.147H82.0219Z" fill="black"/>
</svg>
