<svg width="24" height="24" viewBox="0 0 24 24" fill="none" xmlns="http://www.w3.org/2000/svg">
<g clip-path="url(#clip0_4028_80)">
<path d="M11.9251 0.75C7.0501 0.75 2.8876 3.9 1.3501 8.25H22.5751C21.0001 3.9 16.8376 0.75 11.9251 0.75Z" fill="#F2B200"/>
<path d="M11.9251 23.25C16.8376 23.25 21.0001 20.1375 22.5376 15.75H1.3501C2.8876 20.1375 7.0501 23.25 11.9251 23.25Z" fill="#83BF4F"/>
<path d="M1.3499 8.25C0.937402 9.4125 0.712402 10.6875 0.712402 12C0.712402 13.3125 0.937402 14.5875 1.3499 15.75H22.5749C22.9874 14.5875 23.2124 13.3125 23.2124 12C23.2124 10.6875 22.9874 9.4125 22.5749 8.25H1.3499Z" fill="white"/>
<path d="M11.925 15C13.5819 15 14.925 13.6569 14.925 12C14.925 10.3431 13.5819 9 11.925 9C10.2682 9 8.92505 10.3431 8.92505 12C8.92505 13.6569 10.2682 15 11.925 15Z" fill="#428BC1"/>
<path d="M11.925 14.625C13.3748 14.625 14.55 13.4497 14.55 12C14.55 10.5503 13.3748 9.375 11.925 9.375C10.4753 9.375 9.30005 10.5503 9.30005 12C9.30005 13.4497 10.4753 14.625 11.925 14.625Z" fill="white"/>
<path d="M10.95 9.75C11.0535 9.75 11.1375 9.66605 11.1375 9.5625C11.1375 9.45895 11.0535 9.375 10.95 9.375C10.8464 9.375 10.7625 9.45895 10.7625 9.5625C10.7625 9.66605 10.8464 9.75 10.95 9.75Z" fill="#428BC1"/>
<path d="M10.3499 10.0874C10.4534 10.0874 10.5374 10.0035 10.5374 9.8999C10.5374 9.79635 10.4534 9.7124 10.3499 9.7124C10.2463 9.7124 10.1624 9.79635 10.1624 9.8999C10.1624 10.0035 10.2463 10.0874 10.3499 10.0874Z" fill="#428BC1"/>
<path d="M9.8623 10.5752C9.96586 10.5752 10.0498 10.4912 10.0498 10.3877C10.0498 10.2841 9.96586 10.2002 9.8623 10.2002C9.75875 10.2002 9.6748 10.2841 9.6748 10.3877C9.6748 10.4912 9.75875 10.5752 9.8623 10.5752Z" fill="#428BC1"/>
<path d="M9.5249 11.1748C9.62846 11.1748 9.7124 11.0909 9.7124 10.9873C9.7124 10.8838 9.62846 10.7998 9.5249 10.7998C9.42135 10.7998 9.3374 10.8838 9.3374 10.9873C9.3374 11.0909 9.42135 11.1748 9.5249 11.1748Z" fill="#428BC1"/>
<path d="M9.3374 11.8501C9.44096 11.8501 9.5249 11.7662 9.5249 11.6626C9.5249 11.559 9.44096 11.4751 9.3374 11.4751C9.23385 11.4751 9.1499 11.559 9.1499 11.6626C9.1499 11.7662 9.23385 11.8501 9.3374 11.8501Z" fill="#428BC1"/>
<path d="M9.3374 12.5249C9.44096 12.5249 9.5249 12.441 9.5249 12.3374C9.5249 12.2338 9.44096 12.1499 9.3374 12.1499C9.23385 12.1499 9.1499 12.2338 9.1499 12.3374C9.1499 12.441 9.23385 12.5249 9.3374 12.5249Z" fill="#428BC1"/>
<path d="M9.5249 13.2002C9.62846 13.2002 9.7124 13.1162 9.7124 13.0127C9.7124 12.9091 9.62846 12.8252 9.5249 12.8252C9.42135 12.8252 9.3374 12.9091 9.3374 13.0127C9.3374 13.1162 9.42135 13.2002 9.5249 13.2002Z" fill="#428BC1"/>
<path d="M9.8623 13.7998C9.96586 13.7998 10.0498 13.7159 10.0498 13.6123C10.0498 13.5088 9.96586 13.4248 9.8623 13.4248C9.75875 13.4248 9.6748 13.5088 9.6748 13.6123C9.6748 13.7159 9.75875 13.7998 9.8623 13.7998Z" fill="#428BC1"/>
<path d="M10.3499 14.2876C10.4534 14.2876 10.5374 14.2037 10.5374 14.1001C10.5374 13.9965 10.4534 13.9126 10.3499 13.9126C10.2463 13.9126 10.1624 13.9965 10.1624 14.1001C10.1624 14.2037 10.2463 14.2876 10.3499 14.2876Z" fill="#428BC1"/>
<path d="M10.95 14.625C11.0535 14.625 11.1375 14.5411 11.1375 14.4375C11.1375 14.3339 11.0535 14.25 10.95 14.25C10.8464 14.25 10.7625 14.3339 10.7625 14.4375C10.7625 14.5411 10.8464 14.625 10.95 14.625Z" fill="#428BC1"/>
<path d="M11.5874 14.7749C11.691 14.7749 11.7749 14.691 11.7749 14.5874C11.7749 14.4838 11.691 14.3999 11.5874 14.3999C11.4838 14.3999 11.3999 14.4838 11.3999 14.5874C11.3999 14.691 11.4838 14.7749 11.5874 14.7749Z" fill="#428BC1"/>
<path d="M12.1123 14.6249C12.1123 14.5124 12.1873 14.4374 12.2623 14.3999C12.3748 14.3999 12.4498 14.4749 12.4873 14.5499C12.4873 14.6624 12.4123 14.7374 12.3373 14.7749C12.1873 14.8124 12.1123 14.7374 12.1123 14.6249Z" fill="#428BC1"/>
<path d="M12.9375 14.625C13.0411 14.625 13.125 14.5411 13.125 14.4375C13.125 14.3339 13.0411 14.25 12.9375 14.25C12.8339 14.25 12.75 14.3339 12.75 14.4375C12.75 14.5411 12.8339 14.625 12.9375 14.625Z" fill="#428BC1"/>
<path d="M13.5374 14.2876C13.6409 14.2876 13.7249 14.2037 13.7249 14.1001C13.7249 13.9965 13.6409 13.9126 13.5374 13.9126C13.4338 13.9126 13.3499 13.9965 13.3499 14.1001C13.3499 14.2037 13.4338 14.2876 13.5374 14.2876Z" fill="#428BC1"/>
<path d="M14.0249 13.7998C14.1285 13.7998 14.2124 13.7159 14.2124 13.6123C14.2124 13.5088 14.1285 13.4248 14.0249 13.4248C13.9213 13.4248 13.8374 13.5088 13.8374 13.6123C13.8374 13.7159 13.9213 13.7998 14.0249 13.7998Z" fill="#428BC1"/>
<path d="M14.3623 13.2002C14.4659 13.2002 14.5498 13.1162 14.5498 13.0127C14.5498 12.9091 14.4659 12.8252 14.3623 12.8252C14.2588 12.8252 14.1748 12.9091 14.1748 13.0127C14.1748 13.1162 14.2588 13.2002 14.3623 13.2002Z" fill="#428BC1"/>
<path d="M14.5498 12.5249C14.6534 12.5249 14.7373 12.441 14.7373 12.3374C14.7373 12.2338 14.6534 12.1499 14.5498 12.1499C14.4463 12.1499 14.3623 12.2338 14.3623 12.3374C14.3623 12.441 14.4463 12.5249 14.5498 12.5249Z" fill="#428BC1"/>
<path d="M14.55 11.8501C14.4375 11.8501 14.3625 11.7751 14.325 11.7001C14.325 11.5876 14.4 11.5126 14.475 11.4751C14.5875 11.4751 14.6625 11.5501 14.7 11.6251C14.7375 11.7376 14.6625 11.8126 14.55 11.8501Z" fill="#428BC1"/>
<path d="M14.3623 11.1748C14.4659 11.1748 14.5498 11.0909 14.5498 10.9873C14.5498 10.8838 14.4659 10.7998 14.3623 10.7998C14.2588 10.7998 14.1748 10.8838 14.1748 10.9873C14.1748 11.0909 14.2588 11.1748 14.3623 11.1748Z" fill="#428BC1"/>
<path d="M14.0249 10.5752C14.1285 10.5752 14.2124 10.4912 14.2124 10.3877C14.2124 10.2841 14.1285 10.2002 14.0249 10.2002C13.9213 10.2002 13.8374 10.2841 13.8374 10.3877C13.8374 10.4912 13.9213 10.5752 14.0249 10.5752Z" fill="#428BC1"/>
<path d="M13.5374 10.0874C13.6409 10.0874 13.7249 10.0035 13.7249 9.8999C13.7249 9.79635 13.6409 9.7124 13.5374 9.7124C13.4338 9.7124 13.3499 9.79635 13.3499 9.8999C13.3499 10.0035 13.4338 10.0874 13.5374 10.0874Z" fill="#428BC1"/>
<path d="M13.1249 9.63749C13.0874 9.74999 12.9749 9.78749 12.8624 9.74999C12.7499 9.71249 12.7124 9.59999 12.7499 9.48749C12.7874 9.37499 12.8999 9.33749 13.0124 9.37499C13.1249 9.44999 13.1624 9.56249 13.1249 9.63749ZM12.4499 9.41249C12.4499 9.52499 12.3374 9.59999 12.2249 9.56249C12.1124 9.56249 12.0374 9.44999 12.0749 9.33749C12.0749 9.22499 12.1874 9.14999 12.2999 9.18749C12.4124 9.22499 12.4874 9.33749 12.4499 9.41249ZM11.7749 9.37499C11.7749 9.48749 11.6999 9.56249 11.6249 9.59999C11.5124 9.59999 11.4374 9.52499 11.3999 9.44999C11.3999 9.33749 11.4749 9.26249 11.5499 9.22499C11.6624 9.18749 11.7749 9.26249 11.7749 9.37499Z" fill="#428BC1"/>
<path d="M11.9248 12.5625C12.2355 12.5625 12.4873 12.3107 12.4873 12C12.4873 11.6893 12.2355 11.4375 11.9248 11.4375C11.6141 11.4375 11.3623 11.6893 11.3623 12C11.3623 12.3107 11.6141 12.5625 11.9248 12.5625Z" fill="#428BC1"/>
<path d="M11.925 9.375L11.85 10.9875L11.925 12L12.0375 10.9875L11.925 9.375ZM11.25 9.45L11.5875 11.0625L11.925 12L11.775 10.9875L11.25 9.45Z" fill="#428BC1"/>
<path d="M10.6124 9.7124L11.3624 11.1749L11.9249 11.9999L11.5124 11.0624L10.6124 9.7124ZM10.0874 10.1249L11.1749 11.3624L11.9249 11.9999L11.2874 11.2124L10.0874 10.1249Z" fill="#428BC1"/>
<path d="M9.6748 10.6875L11.0248 11.5875L11.9248 12L11.0998 11.4L9.6748 10.6875Z" fill="#428BC1"/>
<path d="M9.41231 11.3252L10.9498 11.8127L11.9248 12.0002L10.9873 11.6627L9.41231 11.3252ZM9.2998 12.0002L10.9498 12.0752L11.9248 12.0002L10.9498 11.9252L9.2998 12.0002Z" fill="#428BC1"/>
<path d="M9.41235 12.675L10.9874 12.3375L11.9249 12L10.9499 12.1875L9.41235 12.675ZM9.67485 13.3125L11.0999 12.6L11.9249 12L11.0249 12.4125L9.67485 13.3125Z" fill="#428BC1"/>
<path d="M10.0874 13.8375L11.2874 12.7875L11.9249 12L11.1749 12.6375L10.0874 13.8375ZM10.6124 14.2875L11.5124 12.9L11.9249 12L11.3624 12.825L10.6124 14.2875Z" fill="#428BC1"/>
<path d="M11.25 14.55L11.775 13.0125L11.925 12L11.5875 12.9375L11.25 14.55ZM11.925 14.625L12.0375 13.0125L11.925 12L11.85 13.0125L11.925 14.625ZM12.6 14.55L12.3 12.9375L11.925 12L12.1125 13.0125L12.6 14.55Z" fill="#428BC1"/>
<path d="M13.2373 14.2875L12.5248 12.825L11.9248 12L12.3748 12.9375L13.2373 14.2875ZM13.7998 13.8375L12.7123 12.6375L11.9248 12L12.5998 12.7875L13.7998 13.8375Z" fill="#428BC1"/>
<path d="M14.2123 13.3127L12.8623 12.4127L11.9248 12.0002L12.7498 12.6002L14.2123 13.3127ZM14.4748 12.6752L12.9373 12.1877L11.9248 12.0002L12.8998 12.3377L14.4748 12.6752ZM14.5498 12.0002L12.9373 11.8877L11.9248 12.0002L12.9373 12.0752L14.5498 12.0002ZM14.4748 11.3252L12.8998 11.6627L11.9248 12.0002L12.9373 11.8127L14.4748 11.3252Z" fill="#428BC1"/>
<path d="M14.2123 10.6876L12.7498 11.4001L11.9248 12.0001L12.8623 11.5876L14.2123 10.6876ZM13.7998 10.1626L12.5998 11.2126L11.9248 12.0001L12.7123 11.3626L13.7998 10.1626Z" fill="#428BC1"/>
<path d="M13.2373 9.7124L12.3748 11.0999L11.9248 11.9999L12.5248 11.1749L13.2373 9.7124Z" fill="#428BC1"/>
<path d="M12.6373 9.4502L12.1123 10.9877L11.9248 12.0002L12.2998 11.0627L12.6373 9.4502Z" fill="#428BC1"/>
</g>
<defs>
<clipPath id="clip0_4028_80">
<rect width="24" height="24" fill="white"/>
</clipPath>
</defs>
</svg>
