<svg width="266" height="120" viewBox="0 0 266 120" fill="none" xmlns="http://www.w3.org/2000/svg">
<rect width="266" height="120" rx="8" fill="#F5F5F5"/>
<path fill-rule="evenodd" clip-rule="evenodd" d="M29.7934 66.7131C21.7634 66.3257 15.2881 61.1441 14.8994 54.6688H10.4951V53.2446H29.7921V42.884C24.4814 43.2727 20.2088 47.0288 19.3024 51.9495H15.0285C16.1945 46.1211 22.4103 41.7181 29.7934 41.3294V37.3138H31.3467V53.2433H50.6436V54.6675H46.6293C46.2406 60.8833 40.4122 65.8054 32.9013 66.5814V65.0281C38.0816 63.9938 42.0972 59.8491 42.3554 54.6675H31.3467V70.7261H29.7934V66.7131ZM19.0442 54.6688C19.4328 60.2377 24.0953 64.642 29.7934 65.1585V54.6688H19.0442ZM32.9013 41.4599C39.7653 42.108 45.3342 46.511 46.3698 51.9508H42.2263C41.3199 47.4174 37.5638 43.9209 32.9013 43.0145V41.4599Z" fill="#353B92"/>
<path fill-rule="evenodd" clip-rule="evenodd" d="M254.495 76.6863C252.422 77.7232 249.704 78.6296 246.983 78.6296C240.895 78.6296 237.658 74.8748 237.658 70.8578C237.658 67.8804 240.119 64.123 244.781 64.123C249.962 64.123 249.832 67.2335 252.165 67.2335C253.459 67.2335 254.236 66.4562 254.236 65.5498C254.236 63.4761 249.704 62.8292 246.854 62.8292C238.955 62.8292 233.257 67.4904 233.257 73.1911C233.257 77.3358 238.436 81.3501 244.134 81.3501C248.538 81.3501 252.036 80.5728 254.495 76.8154V76.6863ZM157.621 75.1317C156.584 76.9459 152.829 79.0169 149.202 79.0169C143.764 79.0169 140.914 75.6521 140.914 71.8947V70.7274H157.751C157.751 65.1585 152.441 62.9583 148.039 62.9583C140.008 62.9583 135.993 68.0095 135.993 72.1542C135.993 76.6863 140.528 81.2197 147.779 81.2197C153.346 81.2197 157.36 78.2396 157.621 75.1317ZM147.391 64.2534C150.239 64.2534 152.96 65.6802 152.96 69.435H141.043C141.562 66.7131 143.503 64.2534 147.391 64.2534ZM227.426 75.1317C226.391 76.9459 222.634 79.0169 219.01 79.0169C213.568 79.0169 210.721 75.7799 210.721 71.8947V70.8578H227.556C227.556 65.1598 222.248 62.9583 217.844 62.9583C209.815 62.9583 205.801 68.0095 205.801 72.1542C205.801 76.6863 210.333 81.3501 217.584 81.3501C223.154 81.3501 227.169 78.2396 227.426 75.1317ZM217.195 64.2534C220.044 64.2534 222.764 65.6802 222.764 69.435H210.85C211.368 66.7131 213.311 64.2534 217.195 64.2534ZM66.315 68.7868L66.1846 78.37C66.0555 79.7968 65.796 79.9233 64.6313 79.9233H63.854V80.7006C65.796 80.7006 66.4441 80.5728 68.5165 80.5728C70.4585 80.5728 70.9775 80.7006 72.9195 80.7006V79.9233H72.0131C70.9775 79.9233 70.5889 79.7955 70.5889 78.37V57.002C70.5889 55.5765 70.9775 55.4474 72.0131 55.317H72.9195V54.6688H63.854V55.317H64.6313C65.7973 55.4474 66.0568 55.5765 66.1846 57.002L66.315 68.7868ZM164.872 76.5559L165.132 79.9233C166.946 80.7006 169.536 81.3501 171.736 81.3501C178.212 81.3501 181.192 78.4992 181.192 76.0394C181.192 69.8236 168.499 71.2478 168.499 66.7144C168.499 65.0307 170.57 64.1243 172.773 64.1243C176.271 64.1243 178.342 64.6433 178.989 66.8448H179.636V63.9964C177.434 63.2191 175.104 62.8292 173.291 62.8292C167.333 62.8292 164.872 65.6802 164.872 67.8804C164.872 74.0962 176.789 72.672 176.789 77.3358C176.789 78.6296 175.621 80.0538 172.384 80.0538C168.37 80.0538 166.299 78.8891 165.393 76.5559H164.872ZM194.013 60.1086H189.609V63.6065H186.761L186.891 65.1598H189.609V75.7799C189.609 79.4069 192.589 81.221 196.603 81.221C199.581 81.221 201.655 79.6677 201.785 78.76C201.008 79.1473 200.489 79.6664 198.545 79.6664C196.992 79.6664 193.884 79.2765 193.884 75.7799V65.1598H201.009V63.6065H194.015V60.1086H194.013ZM82.375 78.37C82.2445 79.5373 82.2445 79.9233 80.6912 79.9233H80.0443V80.7006C81.9863 80.7006 82.6332 80.5728 84.7056 80.5728C86.6488 80.5728 87.1666 80.7006 89.1085 80.7006V79.9233H88.4617C87.1666 79.9233 86.7779 79.7955 86.7779 78.37V66.8435C88.5908 66.0662 91.3113 65.0294 93.1242 65.0294C96.2321 65.0294 98.1753 66.0662 98.1753 68.2664V78.3687C98.0449 79.7955 97.7867 79.922 96.4916 79.922H95.8434V80.6993C97.7867 80.6993 98.4336 80.5715 100.377 80.5715C102.449 80.5715 102.967 80.6993 104.91 80.6993V79.922H104.004C102.838 79.922 102.58 79.7942 102.451 78.3687V68.3968C102.451 65.2889 100.896 62.8279 96.2334 62.8279C92.6064 62.8279 89.8871 64.2521 86.7792 65.8054V63.0874C86.7792 62.8279 86.5197 62.6975 86.3906 62.6975C84.0587 63.6039 82.894 64.1217 80.5621 64.6407V65.0281C82.5054 65.1585 82.375 66.5814 82.375 68.0082V78.37ZM120.58 81.4779L128.61 67.1044C129.517 65.4206 129.776 64.2534 131.847 64.1243V63.4774H124.854V64.1243C127.056 64.1243 127.056 64.6433 127.056 65.5511C126.925 66.4575 126.538 67.3652 125.89 68.3994L121.874 75.7812L117.858 68.9185C116.952 67.2348 116.175 66.0675 116.175 65.4206C116.175 64.5142 116.175 64.1243 118.247 64.1243V63.4774H108.793V64.1243C110.735 64.2547 110.994 64.5142 112.419 67.3639L120.58 81.4779Z" fill="#33336E"/>
</svg>
