<svg width="266" height="120" viewBox="0 0 266 120" fill="none" xmlns="http://www.w3.org/2000/svg">
<rect width="266" height="120" rx="8" fill="#F5F5F5"/>
<path fill-rule="evenodd" clip-rule="evenodd" d="M105.107 16.0001L161.024 16.0332C169.801 16.0332 177.033 23.265 176.999 32.075V87.9907C176.999 96.8012 169.768 104 160.958 104L105.009 103.967C96.1988 103.935 89 96.7361 89 87.9256L89.0656 32.0089C89.0656 23.1994 96.2648 15.9671 105.107 16.0001Z" fill="#33348E"/>
<path fill-rule="evenodd" clip-rule="evenodd" d="M164.607 56.1373H158.23L155.6 61.1339H160.071L164.607 56.1373ZM168.848 64.2574H162.635V77.669C162.635 81.7783 159.873 82.9615 157.836 82.9615C155.896 82.9615 153.759 82.238 153.792 78.6544V64.2569H147.579L147.546 79.5421C147.546 85.4586 150.933 88.0883 155.601 88.0883C158.854 88.1214 161.387 86.7074 162.8 84.2098H162.865V87.4644H168.848V64.2574H168.848ZM142.713 70.4036C142.713 64.6514 136.666 63.6325 133.313 63.6325C128.48 63.6325 123.45 64.6514 122.694 71.7515H128.71C128.907 70.4041 129.466 68.53 132.556 68.53C134.167 68.53 136.666 68.6621 136.666 71.2263C136.666 72.5407 135.449 72.9357 134.463 73.0669L128.875 73.8886C124.897 74.4479 121.939 76.7812 121.939 81.3182C121.939 86.117 125.621 88.0893 129.138 88.0893C133.411 88.0893 135.416 86.1501 136.797 84.737C136.928 86.0194 137.027 86.3478 137.389 87.4654L142.747 87.4324C142.747 84.8682 142.714 82.9946 142.714 82.962L142.713 70.4036ZM116.219 56.1373H110.006V64.2238H106.784V68.596H109.973V82.6981C109.973 85.6889 110.926 87.7278 116.317 87.7278H117.139C118.125 87.7278 119.111 87.6612 120.065 87.6292V82.9936C119.638 83.0266 119.178 83.0922 118.783 83.0922C116.252 83.0922 116.186 82.566 116.186 81.185L116.219 68.5955H120.098V64.2233H116.219V56.1373ZM103.925 56.1043H97.2186L97.1855 87.4319H103.892L103.925 56.1043Z" fill="#FFF22D"/>
<path fill-rule="evenodd" clip-rule="evenodd" d="M136.665 79.1476V76.1568C136.04 76.6495 134.988 77.0436 132.424 77.4056C130.09 77.7997 128.184 78.3915 128.184 80.9231C128.184 83.0266 129.893 83.7171 131.076 83.7171C133.838 83.7176 136.665 81.9751 136.665 79.1476Z" fill="#33348E"/>
</svg>
