<svg width="266" height="120" viewBox="0 0 266 120" fill="none" xmlns="http://www.w3.org/2000/svg">
<rect width="266" height="120" rx="8" fill="#F5F5F5"/>
<path fill-rule="evenodd" clip-rule="evenodd" d="M43.2537 40.9996V60.8785C43.2537 65.2715 40.0167 69.8928 32.1584 69.8928C26.8426 69.8928 24.5308 65.9648 24.2989 63.4199C24.067 61.1104 25.6855 58.7974 28.2292 58.7974C30.5399 58.7974 31.9277 60.6466 31.9277 62.0333C32.1584 63.8837 31.0036 65.5022 28.9225 65.7317C27.5359 65.7317 27.5359 64.5758 26.8426 64.8077C25.6867 65.2691 27.9985 68.9676 31.697 68.9676C35.3954 68.7357 35.858 66.1931 35.858 63.6518V40.9996H32.1596V40.3063H46.4908V41.2303C45.1018 40.9996 43.9459 40.9996 43.2537 40.9996ZM106.589 40.0756L99.8853 59.7238L93.1817 40.0756C90.8699 40.3063 88.0966 40.3063 82.0863 40.3063V41.2303C83.473 41.2303 84.6289 40.9996 85.0915 40.9996V68.2754C84.63 68.2754 83.2422 68.0459 81.8556 68.0459V68.9699H89.7151V68.0459C88.0966 68.0459 86.9407 68.2754 86.2474 68.2754V41.2315H86.4781L96.1868 68.9699H97.8053L107.282 41.2315H107.513V68.0459H104.74V68.9699H117.684V68.0459H114.679V41.0008H117.684V40.0756C112.599 40.0756 109.825 40.3063 106.589 40.0756ZM155.362 51.6324C155.594 50.2458 157.442 46.3166 161.14 46.3166C163.685 46.3166 165.071 47.9351 165.303 49.7843C165.532 51.6335 164.147 53.2521 162.528 53.4828C160.678 53.9454 158.83 52.7895 158.598 50.7095C158.598 48.3989 160.448 48.3989 160.216 47.9363C159.987 47.2429 158.368 47.9363 157.442 49.0922C156.75 50.0162 155.133 52.328 155.133 56.7198V68.2766C155.825 68.2766 157.212 68.2766 158.599 68.047V68.9711H145.886V68.2766H149.122V48.1658H145.886V47.4725H152.359C153.283 47.4725 153.745 47.2418 155.134 47.0111V51.6335L155.362 51.6324ZM239.502 68.2754C239.964 68.2754 240.888 68.2754 242.277 68.0459V68.9699H230.95V68.0459C231.71 68.2062 232.485 68.2832 233.261 68.2754V51.171C233.261 49.5524 232.798 47.7032 230.717 47.9351C228.174 47.9351 225.633 50.7084 225.401 54.6387V68.2766C225.862 68.2766 227.019 68.2766 228.175 68.047V68.9711H216.387V68.047C217.542 68.2766 218.466 68.2766 219.161 68.2766V47.9351H216.618V47.2418H222.165C223.321 47.2418 224.245 47.0099 225.401 46.7792V50.9402C225.862 50.2458 227.481 46.5473 233.03 46.5473C236.265 46.5473 239.502 48.3965 239.502 52.5576V68.2754ZM61.0515 41.2315V56.2572C62.2074 56.4879 62.9007 56.4879 64.0567 56.4879C67.5244 56.4879 69.3725 53.9454 69.3725 48.6284C69.3736 43.0807 68.2177 40.7689 61.0515 41.2315V40.3075H67.2925C73.3028 40.3075 77.232 43.3126 77.0012 48.8603C76.5387 55.1013 71.4536 57.645 65.9059 57.645C63.1326 57.645 61.0515 57.1824 61.0515 57.1824V68.047C61.7448 68.2766 62.67 68.047 64.2874 68.047V68.9711H50.6495V68.047C52.0361 68.047 53.192 68.2766 53.8853 68.2766V40.9996H50.4176V40.3063H61.0504L61.0515 41.2315ZM131.785 69.4313C137.332 69.4313 143.343 65.7329 143.343 57.8745C143.572 50.015 137.332 46.3166 131.785 46.3166V47.2418C134.791 47.2418 136.176 49.7843 136.176 55.3308V60.8785C136.176 66.4274 134.791 68.7369 131.785 68.7369C128.78 68.7369 127.393 66.4274 127.393 60.8785V55.3308C127.393 49.7832 128.78 47.2418 131.785 47.2418V46.3166C126.237 46.3166 120.227 50.2458 120.227 57.8745C120.227 65.2714 126.237 69.4313 131.785 69.4313ZM174.548 70.8203H182.176C184.951 70.8203 186.107 72.2058 186.336 74.2869C186.568 77.7558 182.638 80.7597 177.554 80.9916V81.9157H177.784C183.332 81.4542 188.187 78.2172 188.187 71.975C187.955 66.1966 184.718 64.5781 181.482 64.5781L172.005 64.81C170.155 64.81 169.231 63.886 169.463 62.9596C169.692 61.5742 172.467 60.1864 174.546 60.4171C175.473 60.6478 175.934 60.8785 177.091 60.8785C181.251 60.8785 186.106 57.8734 185.874 53.2509C185.874 51.6324 185.179 50.2458 183.562 48.3965C184.026 47.0099 184.718 46.3154 185.412 46.0847C186.107 45.6233 186.568 45.6233 186.568 46.0847C186.568 46.3154 185.412 46.5461 185.644 48.1646C185.644 49.3206 187.03 50.2446 188.416 50.0139C189.804 50.0139 190.728 48.6272 190.496 47.4713C190.496 46.0847 189.343 44.6981 187.263 44.6981C185.18 44.6981 183.794 46.3166 183.1 47.9339C181.945 47.0099 180.558 46.0847 177.093 46.0847V46.778C179.172 46.778 180.096 47.7032 180.326 52.095V54.8682C180.096 59.7226 178.941 59.9533 177.093 59.9533C175.474 59.9533 173.857 59.9533 173.857 55.099V52.3245C173.857 47.9328 174.781 46.778 177.093 46.778V46.0835H176.861C171.545 46.0835 168.537 50.2434 168.537 53.2486C168.537 56.4844 169.925 58.3336 172.468 59.9522C170.388 60.4147 167.384 62.2628 167.384 65.501C167.613 69.1994 171.082 70.1235 172.238 70.5849C170.85 71.0463 166.92 72.4353 166.92 75.6688C166.92 79.3696 171.545 82.1417 177.555 81.911V80.987C172.93 81.2165 169.694 78.2125 169.926 74.9767C169.925 71.5113 173.161 70.8203 174.548 70.8203ZM204.83 56.0253V50.2458C204.83 47.7032 202.75 46.778 199.975 47.0099C197.895 47.4713 196.969 48.3965 197.201 49.0898C197.662 49.7832 199.281 49.7832 199.513 51.8631C199.742 53.2497 199.051 54.6375 197.433 55.1001C196.045 55.3308 193.732 54.6375 193.503 52.3257C193.271 49.7832 195.121 46.3154 202.75 46.0847C206.448 46.0847 211.071 47.7032 210.84 53.2497V65.5022C210.84 67.3502 211.301 67.8117 211.764 67.8117C212.688 67.8117 213.612 66.8876 213.844 65.5022L214.538 65.7317C214.307 67.5821 212.92 69.2006 209.684 69.2006C206.678 69.2006 205.291 67.1207 204.83 65.7317C204.135 66.8876 202.979 68.2743 201.131 68.9676V67.8117C202.285 67.8117 204.83 65.7317 204.83 63.4187V56.947C201.361 56.7163 199.743 57.4096 198.819 59.4907C198.125 60.6466 198.125 63.1892 198.358 64.8077C198.588 66.8876 199.514 68.0435 201.132 67.8117V68.9676C200.438 69.1994 199.745 69.1995 199.053 69.1995C195.352 69.1995 191.653 67.1195 191.653 63.4187C191.653 57.8745 196.969 56.0253 204.83 56.0253Z" fill="#272727"/>
</svg>
