<svg width="137" height="137" viewBox="0 0 137 137" fill="none" xmlns="http://www.w3.org/2000/svg">
<rect x="0.643066" y="0.428711" width="135.714" height="135.714" rx="67.8571" fill="white"/>
<g clip-path="url(#clip0_4_1330)">
<path d="M91.2794 59.9558C90.4014 59.7755 88.5242 60.0043 87.6004 62.1546C87.5941 62.1692 87.5882 62.184 87.5825 62.1989L84.7283 69.8532C84.2401 69.5664 83.6827 69.4134 83.1021 69.4134C82.4845 69.4134 81.8834 69.5903 81.365 69.924L74.045 74.6225C71.2677 76.3139 69.788 78.5349 69 80.4124C68.212 78.5349 66.7323 76.3139 63.955 74.6225L56.6361 69.9248C56.1167 69.5903 55.5155 69.4135 54.898 69.4135C54.3174 69.4135 53.76 69.5665 53.2717 69.8533C53.2717 69.8533 50.4059 62.1693 50.3996 62.1547C49.4758 60.0045 47.5989 59.7757 46.7206 59.9559C44.9374 60.2884 43.8056 61.8246 44.0277 63.6133C44.0326 63.6522 47.1417 76.1602 47.1417 76.1602C47.9624 79.4417 50.1925 82.7518 53.1072 85.0149C53.1174 85.0228 53.1275 85.0303 53.1379 85.0378L58.0722 88.5681V90.3202C58.0722 91.3971 58.9483 92.2733 60.0253 92.2733H77.9747C79.0517 92.2733 79.9278 91.3971 79.9278 90.3202V88.5681L84.8621 85.0378C84.8725 85.0303 84.8827 85.0227 84.8928 85.0149C87.8075 82.7518 90.0375 79.4417 90.8586 76.1591C90.8586 76.1591 93.9674 63.6522 93.9723 63.6133C94.1943 61.8244 93.0626 60.2883 91.2794 59.9558ZM68.0125 85.5424C68.0099 85.5716 68.0085 90.3201 68.0085 90.3201H60.0253V88.066C60.0253 87.7508 59.8733 87.4551 59.6169 87.2717L54.29 83.4605C51.7547 81.4865 49.7424 78.5091 49.0366 75.6874L45.9603 63.3205C45.8907 62.5779 46.3274 62.0132 47.0851 61.8747C47.1043 61.8712 47.0952 61.8737 47.1063 61.8709C47.2935 61.842 48.1065 61.788 48.5964 62.9051L51.8412 71.607C51.4705 72.7008 51.71 73.9485 52.5656 74.8479C52.5976 74.8816 57.6046 78.8347 57.6046 78.8347C58.0278 79.1687 58.6421 79.0961 58.9761 78.6726C59.3101 78.2492 59.2376 77.6351 58.8141 77.3011L53.9405 73.4576C53.5137 72.9634 53.5366 72.2043 54.0022 71.7382C54.2419 71.4985 54.5601 71.3665 54.8981 71.3665C55.1399 71.3665 55.3754 71.4357 55.5801 71.5675C55.5801 71.5675 62.9234 76.2809 62.9303 76.2851C65.236 77.6866 66.7911 79.6577 67.5524 82.1435C68.1308 84.0319 68.0134 85.5306 68.0125 85.5424ZM92.0398 63.3205L88.9636 75.6862C88.2576 78.5092 86.2452 81.4865 83.7099 83.4605L78.383 87.2717C78.1267 87.455 77.9746 87.7508 77.9746 88.066V90.3201H69.9914C69.9914 90.3201 69.99 85.5716 69.9874 85.5424C69.9821 85.484 69.5226 79.6566 75.0696 76.2851C75.0765 76.281 82.421 71.5669 82.421 71.5669C82.6246 71.4358 82.8601 71.3665 83.102 71.3665C83.4399 71.3665 83.7581 71.4985 83.9974 71.7377C84.4633 72.2043 84.4863 72.9634 84.0595 73.4576L79.1859 77.3011C78.7624 77.6351 78.6899 78.2492 79.0239 78.6726C79.3578 79.0962 79.972 79.1686 80.3954 78.8347C80.3954 78.8347 85.4024 74.8816 85.4344 74.8479C86.2899 73.9486 86.5294 72.701 86.1587 71.6071L89.4036 62.905C89.8938 61.7879 90.7071 61.8418 90.8938 61.8708C90.9047 61.8735 90.8957 61.871 90.9149 61.8746C91.6726 62.0133 92.1093 62.578 92.0398 63.3205Z" fill="#040F2A"/>
<path d="M55.6863 64.7852H61.3691V69.0034C61.3691 70.0804 62.2453 70.9565 63.3223 70.9565H64.5585C65.0978 70.9565 65.5351 70.5193 65.5351 69.98C65.5351 69.4406 65.0978 69.0034 64.5585 69.0034H63.3223C63.3223 69.0034 63.3261 63.7497 63.3234 63.7207C63.3486 62.1653 64.6209 60.9076 66.1821 60.9076H71.8174C73.3786 60.9076 74.6509 62.1653 74.6761 63.7207C74.6735 63.7497 74.6772 69.0034 74.6772 69.0034H73.4569C72.9177 69.0034 72.4804 69.4406 72.4804 69.98C72.4804 70.5193 72.9177 70.9565 73.4569 70.9565H74.6772C75.7542 70.9565 76.6304 70.0804 76.6304 69.0034V64.7852H82.3132C83.4256 64.7852 84.3305 63.8802 84.3305 62.7679V57.5965C84.3305 55.3717 82.8127 53.4953 80.7584 52.9466C81.6561 51.9667 82.2049 50.6622 82.2049 49.2317C82.2049 46.1964 79.7354 43.7271 76.7002 43.7271C73.6648 43.7271 71.1954 46.1965 71.1954 49.2317C71.1954 49.638 71.2409 50.0336 71.3249 50.415C70.6181 50.0842 69.8304 49.8982 68.9997 49.8982C68.169 49.8982 67.3814 50.0843 66.6745 50.415C66.7584 50.0336 66.804 49.638 66.804 49.2317C66.804 46.1964 64.3346 43.7271 61.2992 43.7271C58.264 43.7271 55.7945 46.1965 55.7945 49.2317C55.7945 50.6622 56.3434 51.9667 57.241 52.9466C55.1867 53.4953 53.6689 55.3717 53.6689 57.5965V62.7679C53.669 63.8803 54.574 64.7852 55.6863 64.7852ZM82.3774 57.5965V62.7679C82.3774 62.8032 82.3486 62.832 82.3133 62.832H76.5385C76.182 61.0303 74.8171 59.5873 73.0583 59.1175C73.9559 58.1377 74.5046 56.8333 74.5046 55.4028C74.5046 55.1771 74.4894 54.9552 74.4628 54.7365H79.5175C81.0944 54.7366 82.3774 56.0195 82.3774 57.5965ZM76.7003 45.6801C78.6587 45.6801 80.2519 47.2733 80.2519 49.2317C80.2519 51.1901 78.6587 52.7834 76.7003 52.7834C74.7419 52.7834 73.1486 51.1901 73.1486 49.2317C73.1486 47.2733 74.742 45.6801 76.7003 45.6801ZM72.5515 55.4029C72.5515 57.3613 70.9582 58.9546 68.9998 58.9546C67.0414 58.9546 65.4481 57.3613 65.4481 55.4029C65.4481 53.4445 67.0414 51.8513 68.9998 51.8513C70.9582 51.8513 72.5515 53.4445 72.5515 55.4029ZM61.2993 45.6801C63.2577 45.6801 64.851 47.2733 64.851 49.2317C64.851 51.1901 63.2577 52.7834 61.2993 52.7834C59.3409 52.7834 57.7478 51.1901 57.7478 49.2317C57.7478 47.2733 59.3409 45.6801 61.2993 45.6801ZM55.6222 57.5965C55.6222 56.0195 56.9052 54.7366 58.482 54.7366H63.5367C63.5103 54.9553 63.4949 55.1772 63.4949 55.4029C63.4949 56.8333 64.0437 58.1377 64.9412 59.1176C63.1824 59.5874 61.8175 61.0303 61.461 62.8321H55.6863C55.651 62.8321 55.6222 62.8033 55.6222 62.768V57.5965Z" fill="#040F2A"/>
<path d="M69 70.9561C69.5393 70.9561 69.9766 70.5188 69.9766 69.9795C69.9766 69.4402 69.5393 69.0029 69 69.0029C68.4607 69.0029 68.0234 69.4402 68.0234 69.9795C68.0234 70.5188 68.4607 70.9561 69 70.9561Z" fill="#040F2A"/>
</g>
<defs>
<clipPath id="clip0_4_1330">
<rect width="50" height="50" fill="white" transform="translate(44 43)"/>
</clipPath>
</defs>
</svg>
