<svg width="293" height="42" viewBox="0 0 293 42" fill="none" xmlns="http://www.w3.org/2000/svg">
<g clip-path="url(#clip0_27_444)">
<path d="M68.8676 29.2146C68.569 30.8704 67.7118 32.3738 66.439 33.4741C65.1663 34.5745 63.5548 35.2054 61.8732 35.2615C61.1356 35.2842 60.4028 35.1352 59.7325 34.8264C59.0623 34.5176 58.4729 34.0573 58.0109 33.4818C57.5489 32.9063 57.2269 32.2314 57.0703 31.5102C56.9136 30.7891 56.9266 30.0414 57.1082 29.3261C57.395 27.6749 58.2412 26.1727 59.5046 25.0716C60.7681 23.9705 62.3719 23.3376 64.0468 23.2792C64.7943 23.2291 65.5429 23.3591 66.2298 23.6583C66.9166 23.9575 67.5216 24.4172 67.994 24.9987C68.4663 25.5803 68.7922 26.2667 68.9442 27.0003C69.0962 27.7339 69.0699 28.4933 68.8676 29.2146ZM71.0968 17.511L70.5952 19.9632C69.982 18.8433 69.0443 17.9353 67.9054 17.3583C66.7665 16.7814 65.4796 16.5626 64.214 16.7308C60.7764 16.8688 57.4929 18.1936 54.9222 20.4798C52.3514 22.7661 50.6523 25.8724 50.1139 29.2704C48.8878 35.986 52.1202 41.8657 59.5604 41.8657C60.9823 41.9184 62.3974 41.6444 63.6969 41.0647C64.9963 40.485 66.1456 39.6151 67.0563 38.5218L66.6104 41.0297H73.549L77.9239 17.5946H71.0968V17.511ZM81.9645 17.5389H88.5129L88.0671 19.9911C88.7798 18.9174 89.763 18.0507 90.9176 17.4783C92.0722 16.9059 93.3574 16.648 94.6434 16.7308L93.3616 23.7808C90.0734 23.7808 87.7884 24.5053 87.036 28.1L84.6396 40.974H77.5895L81.9645 17.5389Z" fill="#363333"/>
<path d="M99.3525 8.34326L93.3057 40.9741H100.356L102.446 29.6606H102.557L107.071 40.9741H115.013L108.883 27.8214L119.611 17.539H111.335L103.226 26.038H103.114L106.403 8.34326H99.3525Z" fill="#363333"/>
<path d="M123.763 26.651C124.27 25.4539 125.12 24.4338 126.206 23.7197C127.292 23.0055 128.566 22.6292 129.866 22.6384C130.434 22.5718 131.009 22.6257 131.555 22.7965C132.101 22.9674 132.604 23.2515 133.033 23.6301C133.462 24.0087 133.806 24.4735 134.042 24.994C134.279 25.5145 134.404 26.0792 134.408 26.651H123.763ZM130.869 16.7308C127.375 16.9175 124.043 18.2625 121.399 20.5534C118.755 22.8443 116.949 25.9506 116.267 29.3819C115.901 30.8898 115.888 32.462 116.231 33.9755C116.573 35.489 117.261 36.9028 118.24 38.1063C119.22 39.3098 120.465 40.2704 121.877 40.9129C123.29 41.5554 124.832 41.8625 126.382 41.81C128.886 41.7911 131.333 41.0562 133.432 39.6922C135.845 38.1957 137.861 36.1408 139.312 33.7011H132.151C131.575 34.3885 130.854 34.9399 130.04 35.3157C129.225 35.6915 128.338 35.8824 127.441 35.8746C126.832 35.9455 126.215 35.8815 125.633 35.6871C125.052 35.4927 124.52 35.1728 124.076 34.75C123.632 34.3272 123.286 33.8118 123.064 33.2405C122.841 32.6691 122.747 32.0558 122.788 31.444H140.371C140.608 30.852 140.776 30.235 140.873 29.6048C142.21 22.304 138.03 16.7308 130.869 16.7308Z" fill="#363333"/>
<path d="M40.7789 8.34326L28.4065 26.9297H28.295V8.34326H22.3039L0.373535 40.9741H8.87259L21.1893 22.3876H21.3007V40.9741H27.3476L39.6643 22.3876H39.7757V40.9741H46.8258V8.34326H40.7789ZM158.679 17.539H154.248L155.53 10.6004H149.372L148.87 13.387C148.724 14.6034 148.122 15.7192 147.186 16.5102C146.251 17.3011 145.05 17.7085 143.826 17.6504L142.768 22.8335H146.251L142.879 40.9741H149.873L153.245 22.8335H157.732L158.679 17.539Z" fill="#363333"/>
<path d="M273.82 8.37108H280.815L278.697 19.9911C279.421 18.8958 280.427 18.0153 281.608 17.4418C282.79 16.8682 284.104 16.6227 285.413 16.7308C286.538 16.6694 287.662 16.8747 288.694 17.3298C289.725 17.785 290.635 18.4772 291.348 19.3502C292.853 21.6352 292.686 23.7251 291.905 27.905L289.509 41.0019H282.514L284.855 28.2394C285.078 27.1247 285.747 23.3071 282.069 23.3071C280.831 23.3178 279.642 23.7937 278.738 24.6403C277.835 25.4869 277.283 26.6424 277.192 27.8771L274.768 40.974H267.885L273.82 8.37108ZM244.338 17.5389H240.019L241.217 10.6003H235.059L234.446 13.2755C234.3 14.4919 233.698 15.6077 232.762 16.3987C231.827 17.1896 230.626 17.597 229.402 17.5389L228.455 22.8334H231.91L228.566 40.974H235.561L238.905 22.8334H243.391L244.338 17.5389ZM210.593 35.2616C212.299 35.2371 213.943 34.6206 215.244 33.5175C216.546 32.4144 217.423 30.8934 217.727 29.2147C217.929 28.4933 217.955 27.734 217.803 27.0003C217.651 26.2667 217.325 25.5803 216.853 24.9988C216.381 24.4172 215.776 23.9575 215.089 23.6583C214.402 23.3591 213.653 23.2291 212.906 23.2793C211.231 23.3377 209.627 23.9706 208.364 25.0717C207.1 26.1727 206.254 27.675 205.967 29.3261C205.786 30.0414 205.773 30.7891 205.929 31.5103C206.086 32.2314 206.408 32.9064 206.87 33.4818C207.332 34.0573 207.921 34.5176 208.592 34.8265C209.262 35.1353 209.995 35.2842 210.732 35.2616M222.547 40.8347H215.469L215.915 38.3268C215.007 39.4609 213.846 40.3666 212.525 40.9714C211.204 41.5763 209.76 41.8635 208.308 41.81C200.868 41.81 197.608 35.9303 198.861 29.2147C199.411 25.8315 201.111 22.7415 203.675 20.467C206.239 18.1924 209.509 16.8727 212.934 16.7308C214.187 16.5912 215.454 16.8297 216.572 17.4156C217.689 18.0015 218.605 18.9082 219.203 20.019L219.705 17.5668H226.644L222.547 40.8347ZM209.088 0.0113525L195.434 8.37108H199.307L186.935 26.9297V8.37108H180.777L168.404 26.9297V8.37108H161.243V40.974H167.345L179.718 22.304V40.974H185.765L207.751 8.37108H211.206L209.088 0.0113525ZM267.216 32.0849C266.041 34.8838 264.088 37.2874 261.589 39.0109C259.09 40.7345 256.15 41.7059 253.116 41.81C251.527 41.8981 249.939 41.6088 248.483 40.9659C247.027 40.323 245.744 39.3446 244.738 38.1108C243.733 36.8769 243.034 35.4227 242.698 33.8668C242.362 32.311 242.399 30.6977 242.806 29.1589C243.499 25.7174 245.341 22.6134 248.029 20.3554C250.717 18.0975 254.093 16.8195 257.602 16.7308C258.953 16.6433 260.308 16.8333 261.583 17.289C262.858 17.7447 264.026 18.4565 265.015 19.3806C266.004 20.3047 266.794 21.4215 267.336 22.6623C267.877 23.903 268.159 25.2415 268.164 26.5953H261.058C260.855 25.5841 260.284 24.6845 259.455 24.0715C258.625 23.4586 257.598 23.1761 256.571 23.2793C254.934 23.3054 253.361 23.9192 252.138 25.0088C250.915 26.0983 250.125 27.591 249.912 29.2147C249.676 29.9126 249.614 30.6574 249.73 31.3848C249.846 32.1121 250.138 32.8003 250.579 33.3899C251.021 33.9796 251.599 34.453 252.264 34.7693C252.93 35.0857 253.662 35.2355 254.398 35.2058C255.513 35.1917 256.608 34.8988 257.581 34.3537C258.555 33.8086 259.376 33.0286 259.971 32.0849H267.133H267.216Z" fill="#4DB84D"/>
</g>
<defs>
<clipPath id="clip0_27_444">
<rect width="292.479" height="42" fill="white" transform="translate(0.373535)"/>
</clipPath>
</defs>
</svg>
