<svg width="266" height="120" viewBox="0 0 266 120" fill="none" xmlns="http://www.w3.org/2000/svg">
<rect width="266" height="120" rx="8" fill="#F5F5F5"/>
<g clip-path="url(#clip0_4_603)">
<path d="M62.1026 30.0239C60.4261 34.3084 58.6253 38.5308 56.8246 42.8773L54.3409 48.59L51.795 42.8773C49.8701 38.5929 48.0694 34.3084 46.3928 30.0239H32.4217V31.1416C33.9741 31.1416 35.2159 32.4456 35.2159 33.9979C34.9676 36.9163 34.7192 39.8968 34.4708 42.8152L33.5394 51.8189C33.1048 56.1033 32.608 60.3878 31.9871 64.6723H36.4578C36.7062 60.3878 37.0788 56.1033 37.5134 51.8189L38.8795 38.2824C40.8665 42.3806 42.7293 46.5409 44.5921 50.7012L45.0889 51.8189C46.9517 56.0413 48.7524 60.3257 50.491 64.6723H51.8571C53.5336 60.3878 55.3344 56.1033 57.1972 51.8189L58.0044 49.956C59.8051 45.7958 61.668 41.6355 63.5929 37.5373L65.021 51.8189C65.4557 56.1033 65.8282 60.3878 66.0766 64.6723H76.3221C75.7012 60.3878 75.2044 56.1033 74.7698 51.8189L73.8384 42.8152C73.4037 38.5308 73.0311 34.2463 72.7828 29.9618H62.1026V30.0239ZM108.052 61.195C109.17 59.0218 110.412 56.8485 111.654 54.7994L124.072 34.06V33.1907H96.6889V39.5864H97.7445C97.7445 38.034 98.9243 36.7921 100.415 36.73C101.284 36.73 102.153 36.668 102.96 36.668H111.778C110.66 38.7791 109.48 40.8903 108.238 42.9394L95.7575 63.803V64.6723H125.314V60.9467C123.203 61.133 121.154 61.195 119.043 61.195H108.052ZM158.659 64.6723C158.721 64.6723 158.845 64.6723 158.907 64.6723C158.721 62.5611 158.659 60.3878 158.659 58.2766V50.4528H170.891V58.2766C170.891 60.4499 170.829 62.5611 170.643 64.6723H180.081C179.895 62.5611 179.833 60.3878 179.833 58.2766V39.6485C179.833 37.4752 179.895 35.364 180.081 33.1907H168.097V34.1842H168.345C169.711 34.1842 170.767 35.2398 170.829 36.6059C170.829 37.5994 170.891 38.655 170.891 39.6485V47.0376H158.659V39.6485C158.659 37.4752 158.721 35.364 158.907 33.1907H146.923V34.1842H147.171C148.475 34.1842 149.593 35.2398 149.655 36.5438C149.717 37.5373 149.717 38.5929 149.717 39.5864V61.4434C148.475 61.6297 147.171 61.6918 145.929 61.6918C144.563 61.6918 143.197 61.5676 141.831 61.3813C138.043 60.6362 137.485 57.0968 137.485 54.9236V39.5243C137.485 37.4131 137.609 35.364 137.733 33.2528H125.749V34.2463H125.997C127.363 34.2463 128.419 35.3019 128.481 36.6059C128.543 37.5994 128.543 38.655 128.543 39.6485V53.3712C128.543 56.4759 129.537 63.3062 137.919 64.5481C140.527 64.9207 143.197 65.107 145.929 65.107C150.214 65.107 154.436 64.9207 158.659 64.6723ZM220.38 48.9625C220.38 59.7048 211.128 65.107 202 65.107C192.872 65.107 183.62 59.6427 183.62 48.9625C183.62 38.2203 192.872 32.8181 202 32.8181C211.128 32.756 220.38 38.2203 220.38 48.9625ZM211.376 48.9625C211.376 43.1257 208.955 36.2333 201.938 36.2333C194.984 36.2333 192.5 43.1257 192.5 48.9625C192.5 54.7994 194.921 61.6918 201.938 61.6918C208.955 61.6297 211.376 54.7994 211.376 48.9625ZM91.5351 39.6485C91.5351 37.4752 91.5972 35.364 91.7835 33.1907H79.4889V34.3084H79.7373C81.3517 34.3084 82.5936 35.6124 82.5936 37.2268C82.5936 38.034 82.6557 38.8412 82.6557 39.6485V58.2766C82.6557 60.4499 82.5936 62.5611 82.4073 64.6723H91.8456C91.6593 62.5611 91.5972 60.3878 91.5972 58.2766L91.5351 39.6485Z" fill="#183181"/>
<path d="M49.1251 81.9344C73.9626 76.346 99.7316 73.4275 126.184 73.4275C163.564 73.4275 199.641 79.016 233.606 89.4478C233.73 89.5099 233.792 89.6341 233.792 89.7582C233.792 89.8824 233.606 90.0066 233.482 89.9445C198.585 84.2319 162.819 80.9409 126.37 80.32C100.663 79.8853 74.8941 80.7546 49.3114 82.99C49.063 82.99 48.8146 82.8658 48.7525 82.6174C48.6904 82.307 48.8767 81.9965 49.1251 81.9344Z" fill="#ED1A3A"/>
</g>
<defs>
<clipPath id="clip0_4_603">
<rect width="201.785" height="60" fill="white" transform="translate(32 30)"/>
</clipPath>
</defs>
</svg>
