<svg width="266" height="120" viewBox="0 0 266 120" fill="none" xmlns="http://www.w3.org/2000/svg">
<rect width="266" height="120" rx="8" fill="#F5F5F5"/>
<g clip-path="url(#clip0_4_600)">
<path d="M134.752 75.9467V55.204L125.811 68.7527H125.569L116.508 55.4436V76.1866H109.742V44.0534H117.233L125.69 57.4821L134.027 44.0534H141.276V76.0667H134.752V75.9467H134.752ZM160.487 76.3063C151.908 76.3063 146.834 71.5101 146.834 62.278V44.0534H153.6V62.158C153.6 67.3138 156.379 69.9516 160.608 69.9516C164.837 69.9516 167.616 67.4338 167.616 62.3976V44.053H174.261V62.038C174.26 71.6304 169.065 76.3063 160.487 76.3063ZM186.342 50.6474V57.3621H200.479V64.0765H186.342V76.0667H179.577V44.0534H204.465V50.7677H186.342L186.342 50.6474ZM222.468 76.4263C212.561 76.4263 205.795 69.4719 205.795 60.1198V59.9998C205.795 51.0077 212.802 43.5737 222.468 43.5737C228.268 43.5737 231.651 45.1326 234.913 47.8903L230.442 53.1658C228.026 51.1273 225.972 49.9281 222.226 49.9281C217.152 49.9281 213.165 54.4844 213.165 59.7602V59.9998C213.165 65.8749 217.031 70.0716 222.71 70.0716C225.247 70.0716 227.18 69.4723 229.234 68.1534V63.9568H221.864V57.2421H236V71.2708C232.738 74.1482 228.388 76.4263 222.468 76.4263Z" fill="#5A5A5A"/>
<path d="M73.858 36.0201C70.3542 36.0201 66.9714 36.7394 63.9507 38.0582C61.0512 36.7397 57.668 36.0201 54.164 36.0201C40.8739 36.0201 30 46.6908 30 59.9998C30 73.1889 40.8739 83.9799 54.164 83.9799C57.6677 83.9799 61.0508 83.2606 64.0716 81.9414C67.092 83.2603 70.3539 83.9799 73.9789 83.9799C87.2693 83.9799 98.1428 73.1889 98.1428 59.9998C98.0223 46.6908 87.2693 36.0201 73.858 36.0201ZM64.0716 81.7018C51.9893 81.7018 42.2026 71.9897 42.2026 59.9995C42.2026 48.0096 51.9893 38.2975 64.0716 38.2975C76.1536 38.2975 85.9403 48.0096 85.9403 59.9995C85.9403 71.99 76.033 81.7018 64.0716 81.7018ZM74.0998 59.9998C74.1031 61.3076 73.8459 62.6031 73.3432 63.812C72.8404 65.0208 72.1019 66.1192 71.17 67.0439C70.2382 67.9687 69.1315 68.7016 67.9133 69.2006C66.6952 69.6996 65.3897 69.9548 64.0719 69.9515C58.5141 69.9515 54.0437 65.5153 54.0437 59.9998C54.0437 54.4843 58.5141 50.0484 64.0719 50.0484C65.3897 50.0452 66.6952 50.3003 67.9133 50.7993C69.1314 51.2982 70.2382 52.0311 71.17 52.9559C72.1018 53.8806 72.8404 54.9789 73.3431 56.1877C73.8459 57.3966 74.1031 58.6921 74.0998 59.9998Z" fill="#E60000"/>
</g>
<defs>
<clipPath id="clip0_4_600">
<rect width="206" height="48" fill="white" transform="translate(30 36)"/>
</clipPath>
</defs>
</svg>
