<svg width="137" height="137" viewBox="0 0 137 137" fill="none" xmlns="http://www.w3.org/2000/svg">
<rect x="0.428711" y="0.428711" width="135.714" height="135.714" rx="67.8571" fill="white"/>
<g clip-path="url(#clip0_4_398)">
<path fill-rule="evenodd" clip-rule="evenodd" d="M48.2983 82.3372C48.2983 77.2255 59.9173 73.0852 74.2541 73.0852C88.5909 73.0852 100.214 77.2254 100.214 82.3372V90.8375C100.214 95.9492 88.5909 100.09 74.2541 100.09C59.9173 100.09 48.2983 95.9493 48.2983 90.8375C48.2983 88.0041 48.2983 85.1707 48.2983 82.3372Z" fill="#FE9923"/>
<path fill-rule="evenodd" clip-rule="evenodd" d="M74.2541 73.0852C88.5908 73.0852 100.214 77.2254 100.214 82.3372C100.214 87.4451 88.5909 91.5893 74.2541 91.5893C59.9173 91.5893 48.2983 87.4452 48.2983 82.3372C48.2983 77.2255 59.9173 73.0852 74.2541 73.0852Z" fill="#FECD3D"/>
<path fill-rule="evenodd" clip-rule="evenodd" d="M74.254 73.0852C78.6178 73.0852 82.7311 73.4669 86.3394 74.1453V74.7583C86.3394 79.87 74.7166 84.0103 60.3837 84.0103C56.0429 84.0103 51.9528 83.6326 48.3561 82.9617C48.3176 82.7537 48.2983 82.5454 48.2983 82.3372C48.2982 77.2256 59.9172 73.0852 74.254 73.0852Z" fill="#CEA732"/>
<path fill-rule="evenodd" clip-rule="evenodd" d="M74.2538 77.4067C85.6607 77.4067 94.905 79.6157 94.905 82.3372C94.905 85.059 85.6607 87.2639 74.2538 87.2639C62.8507 87.2639 53.6025 85.0588 53.6025 82.3372C53.6025 79.6157 62.8506 77.4067 74.2538 77.4067Z" fill="#FEA832"/>
<path fill-rule="evenodd" clip-rule="evenodd" d="M74.2538 77.4067C78.0316 77.4067 81.5744 77.6497 84.6237 78.0736C80.8806 81.5469 71.4397 84.0103 60.3835 84.0103C58.3557 84.0103 56.3859 83.9294 54.493 83.7714C53.9148 83.3165 53.6025 82.8346 53.6025 82.3374C53.6025 79.6157 62.8506 77.4067 74.2538 77.4067Z" fill="#CE8829"/>
<path d="M93.1935 92.6379V97.1636C93.9915 96.8591 94.7355 96.5391 95.4139 96.196V92.634L93.1935 92.6379ZM87.3917 98.8175C86.6747 98.9678 85.9345 99.1067 85.1751 99.2339V94.9202L87.3917 94.9241V98.8175ZM79.3733 99.9084C78.6447 99.9623 77.9045 100.001 77.1567 100.032V95.9146L79.3733 95.9223V99.9084ZM71.3549 100.032C70.6031 100.001 69.8629 99.9623 69.1344 99.9084V95.9185H71.3549V100.032ZM63.3326 99.2338C62.5732 99.1066 61.833 98.9678 61.116 98.8174V94.92L63.3326 94.9238V99.2338ZM55.3142 97.1638C54.5162 96.8592 53.7722 96.5393 53.0938 96.1961V92.638L55.3142 92.6342V97.1638Z" fill="#C85929"/>
<path fill-rule="evenodd" clip-rule="evenodd" d="M34.4238 64.0376C34.4238 58.9259 46.0466 54.7817 60.3834 54.7817C74.7163 54.7817 86.3392 58.9259 86.3392 64.0376V72.5379C86.3392 77.6458 74.7164 81.7899 60.3834 81.7899C46.0466 81.7899 34.4238 77.6458 34.4238 72.5379C34.4238 69.7045 34.4238 66.871 34.4238 64.0376Z" fill="#FE9923"/>
<path fill-rule="evenodd" clip-rule="evenodd" d="M60.3834 54.7817C74.7163 54.7817 86.3392 58.9259 86.3392 64.0376C86.3392 69.1455 74.7164 73.2895 60.3834 73.2895C46.0466 73.2896 34.4238 69.1456 34.4238 64.0376C34.4238 58.9259 46.0466 54.7817 60.3834 54.7817Z" fill="#FECD3D"/>
<path fill-rule="evenodd" clip-rule="evenodd" d="M60.3834 54.7817C74.7163 54.7817 86.3392 58.9259 86.3392 64.0376C86.3392 64.5387 86.2273 65.0321 86.0077 65.514C83.2668 65.8263 80.3447 65.9921 77.3109 65.9921C61.4861 65.9921 48.6567 61.4201 48.6567 55.7802C52.1762 55.1441 56.1621 54.7817 60.3834 54.7817Z" fill="#CEA732"/>
<path fill-rule="evenodd" clip-rule="evenodd" d="M60.3837 59.1072C71.7867 59.1072 81.0349 61.3161 81.0349 64.0377C81.0349 66.7593 71.7867 68.9644 60.3837 68.9644C48.9768 68.9644 39.7324 66.7593 39.7324 64.0377C39.7324 61.3161 48.9766 59.1072 60.3837 59.1072Z" fill="#FEA832"/>
<path fill-rule="evenodd" clip-rule="evenodd" d="M60.3834 59.1072C71.7865 59.1072 81.0347 61.3161 81.0347 64.0377C81.0347 64.72 80.4487 65.3753 79.3886 65.9651C78.7025 65.9845 78.0085 65.9922 77.3107 65.9922C65.3487 65.9922 55.1021 63.3823 50.8076 59.6699C53.6718 59.3114 56.9255 59.1072 60.3834 59.1072Z" fill="#CE8829"/>
<path d="M79.3233 74.3383V78.8641C80.1213 78.5595 80.8653 78.2357 81.5438 77.8964V74.3345L79.3233 74.3383ZM73.5215 80.5178C72.8045 80.6681 72.0643 80.807 71.3049 80.9341V76.6204L73.5215 76.6243V80.5178ZM65.4993 81.6088C64.7707 81.6628 64.0344 81.7013 63.2826 81.7322V77.6151L65.4993 77.6189V81.6088ZM57.4809 81.7321C56.733 81.7012 55.9928 81.6626 55.2604 81.6087V77.6189L57.4809 77.6151V81.7321ZM49.4586 80.9341C48.6992 80.8069 47.9628 80.6681 47.242 80.5178V76.6204L49.4586 76.6243V80.9341ZM41.444 78.8641C40.6422 78.5595 39.902 78.2357 39.2197 77.8964V74.3383L41.444 74.3345V78.8641Z" fill="#C85929"/>
<path d="M100.159 65.491V67.484H102.148V69.3884H100.159V71.3776H98.2548V69.3884H96.2656V67.484H98.2548V65.491H100.159Z" fill="#FEA832"/>
<path d="M40.4648 85.7065V87.6957H42.454V89.6001H40.4648V91.5893H38.5604V89.6001H36.5674V87.6957H38.5604V85.7065H40.4648Z" fill="#FEA832"/>
<path d="M40.4648 44.0918V46.081H42.454V47.9854H40.4648V49.9784H38.5604V47.9854H36.5674V46.081H38.5604V44.0918H40.4648Z" fill="#FEA832"/>
<path fill-rule="evenodd" clip-rule="evenodd" d="M48.2983 45.734C48.2983 40.6261 59.9173 36.4819 74.2541 36.4819C88.5909 36.4819 100.214 40.626 100.214 45.734V54.2381C100.214 59.3459 88.5909 63.4901 74.2541 63.4901C59.9173 63.4901 48.2983 59.3461 48.2983 54.2381C48.2983 51.4047 48.2983 48.5674 48.2983 45.734Z" fill="#FE9923"/>
<path fill-rule="evenodd" clip-rule="evenodd" d="M74.2541 36.4819C88.5908 36.4819 100.214 40.626 100.214 45.734C100.214 50.8456 88.5909 54.9898 74.2541 54.9898C59.9173 54.9898 48.2983 50.8456 48.2983 45.734C48.2983 40.6261 59.9173 36.4819 74.2541 36.4819Z" fill="#FECD3D"/>
<path fill-rule="evenodd" clip-rule="evenodd" d="M74.2538 40.8074C85.6607 40.8074 94.905 43.0125 94.905 45.734C94.905 48.4596 85.6607 50.6646 74.2538 50.6646C62.8507 50.6646 53.6025 48.4595 53.6025 45.734C53.6025 43.0125 62.8506 40.8074 74.2538 40.8074Z" fill="#FEA832"/>
<path d="M93.1935 56.0385V60.5643C93.9915 60.2597 94.7355 59.9359 95.4139 59.5966V56.0347L93.1935 56.0385ZM87.3917 62.218C86.6747 62.3683 85.9345 62.5072 85.1751 62.6305V58.3206L87.3917 58.3245V62.218ZM79.3733 63.309C78.6447 63.3591 77.9045 63.4015 77.1567 63.4324V59.3153L79.3733 59.3191V63.309ZM71.3549 63.4324C70.6031 63.4015 69.8629 63.3591 69.1344 63.309V59.3191L71.3549 59.3153V63.4324ZM63.3326 62.6305C62.5732 62.5071 61.833 62.3683 61.116 62.218V58.3206L63.3326 58.3245V62.6305ZM55.3142 60.5643C54.5162 60.2597 53.7722 59.9359 53.0938 59.5966V56.0385L55.3142 56.0347V60.5643Z" fill="#C85929"/>
</g>
<defs>
<clipPath id="clip0_4_398">
<rect width="67.8571" height="67.8571" fill="white" transform="translate(34.3574 34.3572)"/>
</clipPath>
</defs>
</svg>
