<svg width="266" height="120" viewBox="0 0 266 120" fill="none" xmlns="http://www.w3.org/2000/svg">
<rect width="266" height="120" rx="8" fill="#F5F5F5"/>
<path fill-rule="evenodd" clip-rule="evenodd" d="M49.2385 99.7603H49.0159C47.8731 99.7603 46.9529 99.3826 46.3841 98.7136C45.8428 98.0139 45.5568 96.4944 45.4935 94.0199L45.2403 84.5039L45.3036 84.4406L60.3384 101.567H62.4942C62.5586 101.188 62.5586 101.029 62.5586 100.647C62.5586 100.139 62.4942 99.5693 62.4024 99.0945L62.2104 98.1416C62.0837 97.5074 61.9877 96.4607 61.9877 95.6671L61.7978 85.613V85.423C61.7978 82.06 62.1787 81.4269 64.5245 81.1103C64.5582 81.1103 64.6205 81.1103 64.6838 81.0776V79.6182H56.5006V81.0776C58.0222 81.1409 58.7503 81.3942 59.2916 82.0273C59.7369 82.5982 60.0524 84.3435 60.1158 87.0702L60.3384 93.0977L60.2751 93.161L48.3468 79.6182H40.5466V81.0776C41.5934 81.2359 42.4809 81.6791 43.6564 82.633L43.783 82.7596L43.9392 94.7491V95.1311C43.9392 96.3636 43.9096 96.9682 43.7503 97.6995C43.4337 99.0618 42.4175 99.7593 40.8326 99.7593H40.6405V101.25H49.2385V99.7603ZM90.5716 79.6193H69.731V81.0787H70.0486C71.9828 81.0787 72.5537 81.8722 72.5537 84.5366V96.3351C72.5537 98.9995 71.9828 99.7603 70.0486 99.7603H69.731V101.251H91.0465L91.9666 95.8908H89.7781L89.5554 96.1451C88.4126 97.5085 87.6191 98.1754 86.4151 98.8402C85.0496 99.6348 84.2888 99.7603 81.7837 99.7603C79.0254 99.7603 78.1696 98.9668 78.1696 96.4311V90.6253H81.1822C82.8632 90.6253 83.5607 90.6907 84.1622 90.9429C85.0824 91.2922 85.8136 92.245 86.0964 93.4807H88.19V86.4698H86.0964C85.8769 87.295 85.7471 87.5493 85.305 88.0875C84.6075 88.9116 83.623 89.168 81.1495 89.168H78.1696V81.0776H82.6079C83.91 81.0776 84.6381 81.2032 85.4 81.5229C86.4162 81.9355 87.1137 82.5064 88.2565 83.932L88.4791 84.1863H90.5716V79.6193ZM95.4584 79.6193V81.0787H95.7116C97.6786 81.0787 98.2505 81.8722 98.2505 84.5366V96.3351C98.2505 98.9995 97.6786 99.7603 95.7116 99.7603H95.4584V101.251H106.592C109.699 101.282 110.809 101.155 112.364 100.745C117.376 99.4427 120.611 95.321 120.611 90.1494C120.611 86.4075 118.866 83.0762 115.949 81.238C115.142 80.741 114.265 80.3669 113.348 80.1279C111.984 79.748 110.872 79.6203 108.59 79.6203L95.4584 79.6193ZM103.863 81.0787H104.687L105.733 81.1114C109.189 81.1409 110.554 81.5535 112.013 83.1089C112.9 84.0228 113.562 85.1304 113.947 86.3442C114.392 87.7709 114.615 89.2946 114.615 90.9123C114.615 95.0034 113.123 98.0794 110.68 99.1262C109.889 99.4744 108.461 99.7266 107.318 99.7266C104.75 99.7266 103.862 98.7431 103.862 95.9858V81.0787H103.863ZM123.529 79.6193V81.0787H123.815C125.75 81.0787 126.321 81.8722 126.321 84.5366V96.3351C126.321 99.0301 125.782 99.7603 123.719 99.7603H123.593V101.251H136.472C139.928 101.282 141.389 100.997 143.069 100.11C144.909 99.1262 146.113 97.2552 146.113 95.321C146.113 92.4645 143.768 90.5303 139.518 89.8961V89.8317C141.229 89.4835 141.797 89.2936 142.911 88.69C144.528 87.8025 145.447 86.3105 145.447 84.6949C145.447 81.4902 142.498 79.6182 137.391 79.6182L123.529 79.6193ZM131.934 89.2946V81.0787H134.692C136.281 81.0787 136.852 81.2369 137.738 81.8722C138.849 82.6963 139.451 83.9647 139.451 85.4874C139.451 86.7241 139.038 87.6147 138.214 88.3418C137.357 89.073 136.66 89.2946 135.075 89.2946H131.934ZM131.934 90.8173H135.011C138.024 90.8173 140.086 92.7209 140.086 95.5088C140.086 98.206 138.246 99.7941 135.108 99.7941C132.948 99.7941 131.934 98.6819 131.934 96.2728V90.8173ZM162.029 93.0998L163.458 96.6844C163.489 96.7804 163.551 96.9703 163.614 97.2552C163.806 97.8905 163.839 97.9833 163.839 98.2366C163.839 99.1272 162.916 99.7276 161.553 99.7603V101.251H172.305V99.7603C170.943 99.7603 170.178 98.9995 169.261 96.6844L162.507 79.3671H156.606L157.431 81.1747L151.592 96.0196C150.483 98.8708 149.977 99.3826 147.914 99.7603V101.251H155.368V99.7603C153.91 99.5704 153.242 98.9995 153.242 97.8567C153.242 97.4135 153.432 96.5556 153.688 95.7959L154.637 93.0987L162.029 93.0998ZM161.331 91.2289H155.369L158.192 83.2672L161.331 91.2289ZM183.214 99.7603H182.989C181.847 99.7603 180.928 99.3826 180.357 98.7136C179.817 98.0139 179.533 96.4944 179.469 94.0199L179.216 84.5039L179.278 84.4406L194.315 101.567H196.471C196.535 101.188 196.535 101.029 196.535 100.647C196.535 100.139 196.471 99.5693 196.375 99.0945L196.183 98.1416C196.041 97.3243 195.967 96.4966 195.962 95.6671L195.77 85.613V85.423C195.77 82.06 196.153 81.4269 198.499 81.1103C198.532 81.1103 198.596 81.1103 198.657 81.0776V79.6182H190.475V81.0776C191.996 81.1409 192.728 81.3942 193.266 82.0273C193.711 82.5982 194.029 84.3435 194.09 87.0702L194.315 93.0977L194.251 93.161L182.323 79.6182H174.519V81.0776C175.566 81.2359 176.456 81.6791 177.629 82.633L177.758 82.7596L177.915 94.7491V95.1311C177.915 96.3636 177.882 96.9682 177.725 97.6995C177.405 99.0618 176.391 99.7593 174.806 99.7593H174.614V101.25H183.212V99.7603H183.214ZM215.757 81.0787H215.98C216.963 81.0787 217.595 81.5535 217.595 82.2848C217.595 83.0118 216.456 84.4417 214.866 85.7406L210.142 89.5806V84.5377C210.142 81.8732 210.713 81.0797 212.679 81.0797H212.932V79.6203H201.735V81.0797H202.088C204.051 81.0797 204.624 81.8732 204.624 84.5377V96.3361C204.624 99.0006 204.051 99.7614 202.088 99.7614H201.735V101.252H212.869V99.7614H212.679C210.713 99.7614 210.142 99.0006 210.142 96.3361V91.1677L216.707 98.8729C217.215 99.4765 217.87 100.013 218.778 100.485C219.641 100.936 221.157 101.253 221.157 101.253H226V99.7624C224.828 99.5725 223.78 98.8096 222.227 97.0653L214.393 88.1202L219.688 83.6808C222.07 81.6812 222.419 81.4923 224.512 81.0797V79.6203H215.757V81.0787ZM110.664 44.3157C110.656 41.3862 111.229 38.4841 112.35 35.7776C113.471 33.0711 115.118 30.614 117.196 28.5486C119.262 26.4716 121.719 24.8251 124.425 23.7043C127.132 22.5834 130.034 22.0106 132.963 22.0188C135.893 22.0108 138.795 22.5837 141.501 23.7045C144.208 24.8254 146.665 26.4718 148.731 28.5486C152.942 32.76 155.261 38.359 155.261 44.3157C155.261 50.2725 152.943 55.8746 148.731 60.0829C146.665 62.1599 144.208 63.8067 141.501 64.9279C138.795 66.049 135.893 66.6224 132.963 66.6147C130.034 66.6226 127.132 66.0493 124.425 64.9281C121.719 63.807 119.262 62.1601 117.196 60.0829C112.982 55.8746 110.664 50.2725 110.664 44.3157ZM107.784 44.3157C107.775 47.6237 108.423 50.9007 109.688 53.9569C110.954 57.0131 112.814 59.7878 115.159 62.1205C119.915 66.8764 126.237 69.4944 132.964 69.4944C139.689 69.4944 146.012 66.8764 150.767 62.1205C155.524 57.3657 158.141 51.0407 158.141 44.3157C158.141 37.5918 155.524 31.2689 150.767 26.513C148.434 24.1679 145.66 22.3087 142.604 21.0429C139.548 19.7772 136.272 19.1301 132.964 19.1391C126.237 19.1391 119.915 21.7571 115.159 26.513C112.814 28.8454 110.955 31.6198 109.689 34.6757C108.423 37.7315 107.776 41.0081 107.784 44.3157Z" fill="#005944"/>
<path fill-rule="evenodd" clip-rule="evenodd" d="M133.33 33.9038L140.794 28.7638L148.799 34.1054V54.5947L141.259 59.6703L133.601 54.7793L125.63 59.8855L117.123 54.7973L117.19 34.174L125.025 28.7491L133.33 33.9038ZM125.298 30.8848L119.024 35.1289L146.926 53.3231L146.982 35.2376L141.1 31.4251V41.3368L125.298 30.8848ZM131.665 53.6724L125.63 49.7058V57.6084L131.665 53.6724Z" fill="#005944"/>
</svg>
