<svg width="266" height="120" viewBox="0 0 266 120" fill="none" xmlns="http://www.w3.org/2000/svg">
<rect width="266" height="120" rx="8" fill="#F5F5F5"/>
<path fill-rule="evenodd" clip-rule="evenodd" d="M43 45.1424V74.1718H48.0292V54.7431L63.458 74.1718H67.572V45.1424H62.8863V61.1429L50.0856 45.1424H43ZM112.945 64.1135L109.288 74.1708H113.975L115.461 70.3992L112.945 64.1135ZM126.546 45.1424H120.49L118.546 50.1715L121.289 57.143L122.203 54.629L129.403 74.1718H137.632L126.546 45.1424ZM126.204 74.1718L115.117 45.1424H109.288L98.4307 74.1718H103.688L111.002 54.629L118.317 74.1718H126.204ZM85.2877 44C75.6869 44 70.8871 51.315 70.8871 59.6581C70.8871 68.1144 75.6869 75.3152 85.2877 75.3152C94.8874 75.3152 99.5741 68.1155 99.5741 59.6581C99.5741 51.3139 94.8874 44 85.2877 44ZM85.2877 71.3143C81.6302 71.3143 78.201 67.772 78.201 59.6581C78.201 51.5432 81.6302 47.9999 85.2877 47.9999C88.83 47.9999 92.3733 51.5432 92.3733 59.6581C92.3733 67.772 88.83 71.3143 85.2877 71.3143ZM174.777 49.2564H177.977C181.519 49.2564 183.12 51.428 183.12 54.5138C183.12 58.1702 181.064 59.543 176.033 59.8854L183.692 74.1708H191.577L184.606 61.3712C188.378 60.1147 190.55 57.942 190.55 53.4845C190.55 48.7988 186.779 45.1413 181.52 45.1413H167.349V74.1708H174.778L174.777 49.2564ZM157.06 64.2297C157.06 68.573 155.574 70.7426 151.461 70.7426C147.232 70.7426 145.861 68.572 145.861 64.2297V45.1424H138.317V64.2297C138.317 72.0012 143.005 75.3152 150.432 75.3152C157.861 75.3152 162.433 72.0022 162.433 64.2297V45.1424H157.06V64.2297ZM204.034 45.1424L192.377 74.1718H197.406L200.605 66.1731H211.234L214.436 74.1718H222.664L210.779 45.1424H204.034ZM202.205 62.057L205.863 52.9139L209.518 62.057H202.205Z" fill="black"/>
</svg>
