<svg width="266" height="120" viewBox="0 0 266 120" fill="none" xmlns="http://www.w3.org/2000/svg">
<rect width="266" height="120" rx="8" fill="#F5F5F5"/>
<path fill-rule="evenodd" clip-rule="evenodd" d="M60.1487 66.8061C60.1487 73.3384 65.7993 77.9533 73.8349 77.9533C81.9219 77.9533 87.5725 73.3373 87.5725 66.8061C87.5725 60.2235 81.9219 55.6075 73.8349 55.6075C65.7993 55.6086 60.1487 60.2235 60.1487 66.8061ZM65.7993 66.8061C65.7993 62.9177 69.0135 60.2738 73.8349 60.2738C78.7077 60.2738 81.9219 62.9177 81.9219 66.8061C81.9219 70.6431 78.7077 73.287 73.8349 73.287C69.0135 73.287 65.7993 70.6431 65.7993 66.8061ZM95.3492 57.8374V56.1778H89.9062V77.3808H95.4006V66.0795C95.4006 64.161 95.6081 62.1912 98.1997 61.2592C99.098 60.9404 100.046 60.7821 100.999 60.7916H101.777V55.6064C101.778 55.6086 98.3035 55.6086 95.3492 57.8374ZM124.07 48.4033V57.8385C121.892 56.3876 118.937 55.6086 115.775 55.6086C107.688 55.6086 102.038 60.17 102.038 66.7558C102.038 73.3384 107.688 77.9008 115.775 77.9008C118.938 77.9008 121.789 77.1754 124.07 75.8796V77.3819H129.462V48.4033H124.07ZM107.687 66.8061C107.687 62.9177 110.953 60.2738 115.774 60.2738C120.596 60.2738 123.861 62.9177 123.861 66.8061C123.861 70.6431 120.596 73.287 115.774 73.287C110.953 73.287 107.687 70.6431 107.687 66.8061ZM161.239 66.7558C161.239 73.4432 166.736 77.9543 174.874 77.9543C178.192 77.9543 181.199 77.3316 183.22 75.931C183.22 76.4499 183.274 77.3819 183.274 77.3819H188.664V66.911C188.664 60.1186 183.17 55.6086 174.98 55.6086C166.89 55.6086 161.239 60.2235 161.239 66.7558ZM166.89 66.7558C166.89 62.9188 170.157 60.2749 174.979 60.2749C179.799 60.2749 183.066 62.9188 183.066 66.7558C183.066 70.6442 179.799 73.2368 174.979 73.2368C170.157 73.2357 166.89 70.6431 166.89 66.7558ZM159.269 68.8808C158.595 72.3015 156.263 74.6866 153.67 76.0872C151.338 77.3829 148.745 77.9543 145.687 77.9543C137.287 77.9008 132.001 72.8205 132.001 66.9121C132.001 60.2246 137.806 55.5584 145.687 55.6097C156.106 55.6622 159.269 62.1945 159.529 66.238C159.529 66.238 139.414 70.5928 139.102 70.6442C140.555 72.3026 142.783 73.2368 145.687 73.2368C149.108 73.2881 151.598 71.9388 152.788 70.2814L159.269 68.8808ZM137.756 66.2369C138.43 66.0806 151.856 63.1788 152.582 63.0237C151.389 61.4679 149.006 60.2749 145.687 60.2246C141.074 60.3798 137.963 62.8139 137.756 66.2369ZM52.6309 77.3819L57.8664 77.4354V51.3051H52.4233V69.1386L35.938 51.2549H30.5977V77.4354H35.9904V59.9635L52.6309 77.3819ZM198.93 49.1288C201.055 56.8541 199.966 63.7481 196.96 67.6364C211.579 62.9188 228.063 47.1578 225.005 38.7081C223.243 33.8354 210.594 33.2127 192.76 37.3086C195.405 40.1077 197.581 44.255 198.93 49.1288Z" fill="#1467A3"/>
<path fill-rule="evenodd" clip-rule="evenodd" d="M226.613 45.8631C228.375 42.2337 228.738 39.0195 227.806 36.2717C227.548 35.5463 227.183 34.976 226.769 34.4057C231.694 35.0798 236.101 42.4413 234.755 50.7359C233.664 57.1119 231.227 62.7112 228.533 66.0303C225.112 64.3194 217.906 63.9053 209.765 65.2C207.951 65.5114 206.501 65.8227 204.84 66.2368C214.069 61.363 223.037 53.1722 226.613 45.8631Z" fill="#1467A3"/>
</svg>
