<svg width="137" height="137" viewBox="0 0 137 137" fill="none" xmlns="http://www.w3.org/2000/svg">
<rect x="0.642578" y="0.428711" width="135.714" height="135.714" rx="67.8571" fill="white"/>
<g clip-path="url(#clip0_4_1291)">
<path d="M98.0604 85.4338H90.9181V67.1722H98.0604C98.1846 67.1736 98.3079 67.1503 98.4231 67.1038C98.5382 67.0572 98.643 66.9882 98.7314 66.9008C98.8197 66.8135 98.8899 66.7095 98.9377 66.5948C98.9856 66.4802 99.0102 66.3572 99.0102 66.2329C99.0102 66.1087 98.9856 65.9857 98.9377 65.871C98.8899 65.7564 98.8197 65.6523 98.7314 65.565C98.643 65.4776 98.5382 65.4086 98.4231 65.3621C98.3079 65.3155 98.1846 65.2922 98.0604 65.2936H90.6813C90.246 65.2941 89.8287 65.4672 89.5209 65.7749C89.2132 66.0827 89.04 66.5 89.0395 66.9353V67.7111H84.7092C84.5152 67.7112 84.3248 67.6585 84.1584 67.5587L72.6711 60.6664C71.9799 60.2515 71.1888 60.0323 70.3826 60.0322H62.8289C62.1517 60.034 61.4841 60.1923 60.8783 60.4949C60.2724 60.7975 59.7448 61.2362 59.3367 61.7766L54.9321 67.5687H48.96V66.9353C48.9595 66.5 48.7864 66.0827 48.4786 65.7749C48.1708 65.4672 47.7535 65.2941 47.3182 65.2936H39.9391C39.8149 65.2922 39.6916 65.3155 39.5764 65.3621C39.4613 65.4086 39.3565 65.4776 39.2681 65.565C39.1798 65.6523 39.1096 65.7564 39.0618 65.871C39.0139 65.9857 38.9893 66.1087 38.9893 66.2329C38.9893 66.3572 39.0139 66.4802 39.0618 66.5948C39.1096 66.7095 39.1798 66.8135 39.2681 66.9008C39.3565 66.9882 39.4613 67.0572 39.5764 67.1038C39.6916 67.1503 39.8149 67.1736 39.9391 67.1722H47.0814V85.4338H39.9391C39.8149 85.4324 39.6916 85.4557 39.5764 85.5023C39.4613 85.5488 39.3565 85.6178 39.2681 85.7052C39.1798 85.7925 39.1096 85.8965 39.0618 86.0112C39.0139 86.1259 38.9893 86.2489 38.9893 86.3731C38.9893 86.4973 39.0139 86.6204 39.0618 86.735C39.1096 86.8497 39.1798 86.9537 39.2681 87.041C39.3565 87.1284 39.4613 87.1974 39.5764 87.244C39.6916 87.2905 39.8149 87.3138 39.9391 87.3124H47.3182C47.7535 87.3119 48.1708 87.1388 48.4786 86.831C48.7864 86.5232 48.9595 86.1059 48.96 85.6706V83.2407H50.4075C50.3158 83.84 50.3978 84.453 50.6439 85.0071C50.89 85.5612 51.2898 86.0331 51.7959 86.3668C52.004 86.5039 52.2579 86.5527 52.5019 86.5025C52.7459 86.4523 52.96 86.3072 53.0971 86.0992C53.2341 85.8911 53.2829 85.6372 53.2327 85.3932C53.1825 85.1492 53.0374 84.9351 52.8294 84.798C52.5443 84.6102 52.3454 84.3168 52.2766 83.9823C52.2078 83.6479 52.2747 83.2998 52.4625 83.0147L53.3088 81.73C53.4974 81.4466 53.7905 81.2495 54.1241 81.1818C54.4576 81.114 54.8044 81.181 55.0886 81.3682C55.3729 81.5555 55.5714 81.8476 55.6408 82.1808C55.7103 82.514 55.6449 82.8611 55.4591 83.1463L54.6126 84.4311C54.1517 85.1326 53.9878 85.9883 54.1569 86.8105C54.3261 87.6326 54.8145 88.3541 55.515 88.8166C55.723 88.9537 55.977 89.0025 56.221 88.9523C56.465 88.9021 56.6791 88.757 56.8161 88.549C56.9532 88.3409 57.002 88.087 56.9518 87.843C56.9016 87.599 56.7565 87.3849 56.5485 87.2479C56.2637 87.0597 56.0652 86.7664 55.9964 86.4321C55.9276 86.0978 55.9942 85.7499 56.1815 85.4646L57.0279 84.1799C57.2167 83.8972 57.5097 83.7007 57.8428 83.6333C58.176 83.5658 58.5223 83.6328 58.8063 83.8197C59.0902 84.0066 59.2887 84.2983 59.3584 84.631C59.4281 84.9637 59.3635 85.3104 59.1785 85.5956L58.3322 86.8805C57.8712 87.582 57.7074 88.4377 57.8765 89.2599C58.0457 90.082 58.5341 90.8035 59.2345 91.2661C59.3375 91.3349 59.4531 91.3827 59.5747 91.4067C59.6962 91.4307 59.8213 91.4304 59.9427 91.4059C60.0642 91.3813 60.1796 91.333 60.2822 91.2636C60.3849 91.1943 60.4729 91.1053 60.541 91.0019C60.6092 90.8984 60.6562 90.7825 60.6794 90.6608C60.7025 90.5391 60.7014 90.414 60.676 90.2927C60.6506 90.1714 60.6015 90.0564 60.5315 89.9542C60.4615 89.852 60.3719 89.7646 60.268 89.6972C59.9832 89.5091 59.7847 89.2157 59.716 88.8814C59.6472 88.5471 59.7138 88.1992 59.9012 87.9139L60.7475 86.6291C60.9353 86.3439 61.2286 86.145 61.5631 86.0761C61.8975 86.0072 62.2456 86.074 62.5308 86.2617C62.816 86.4495 63.0149 86.7428 63.0838 87.0773C63.1527 87.4117 63.0859 87.7598 62.8981 88.045L62.0505 89.331C61.5896 90.0325 61.4257 90.8882 61.5949 91.7104C61.764 92.5325 62.2524 93.254 62.9529 93.7166C63.1609 93.8516 63.4139 93.8989 63.6567 93.8481C63.8995 93.7973 64.1123 93.6525 64.2488 93.4454C64.3852 93.2383 64.4342 92.9856 64.3851 92.7425C64.3359 92.4993 64.1926 92.2855 63.9863 92.1477C63.7016 91.9596 63.5031 91.6662 63.4343 91.3319C63.3656 90.9976 63.4322 90.6497 63.6196 90.3645L64.4659 89.0796C64.6537 88.7945 64.9472 88.5957 65.2816 88.5269C65.616 88.4581 65.9641 88.525 66.2492 88.7128C66.5344 88.9007 66.7332 89.1941 66.802 89.5285C66.8708 89.863 66.8039 90.211 66.616 90.4962C66.5364 90.6171 66.486 90.755 66.469 90.8988C66.4656 90.9055 66.4616 90.9117 66.4584 90.9185C66.3524 91.144 66.3403 91.4023 66.4247 91.6367C66.5091 91.871 66.6832 92.0623 66.9087 92.1683C67.3386 92.3706 67.7778 92.5721 68.2151 92.7677C68.7065 93.0597 69.2641 93.2219 69.8354 93.239C70.4068 93.2561 70.9731 93.1275 71.481 92.8654C71.989 92.6033 72.4219 92.2162 72.7391 91.7406C73.0562 91.2651 73.2471 90.7166 73.2939 90.147C73.689 90.3063 74.1109 90.3885 74.537 90.3892C74.7999 90.3891 75.0619 90.3584 75.3178 90.2979C76.0415 90.1278 76.6888 89.7234 77.1589 89.1474C77.629 88.5714 77.8955 87.8562 77.917 87.1131C78.2459 87.2192 78.5893 87.2736 78.9349 87.2741C79.1978 87.2739 79.4598 87.2432 79.7156 87.1828C80.4471 87.0109 81.1002 86.5997 81.5713 86.0143C82.0425 85.429 82.3047 84.7031 82.3164 83.9518C82.5476 84.002 82.7836 84.0274 83.0203 84.0275C83.2832 84.0274 83.5452 83.9967 83.801 83.9362C84.4509 83.7831 85.0408 83.4408 85.4961 82.9525C85.9515 82.4642 86.2519 81.8519 86.3593 81.1929C86.4668 80.5339 86.3764 79.8579 86.0998 79.2503C85.8231 78.6426 85.3725 78.1306 84.8049 77.779L67.2689 66.8723H67.2681L67.2648 66.8704C67.2594 66.867 67.2538 66.8644 67.2483 66.8612C66.6717 66.5044 65.9834 66.3738 65.3162 66.4947C64.649 66.6156 64.0503 66.9794 63.6356 67.5158L60.1045 72.0428C59.9061 72.2983 59.659 72.512 59.3776 72.6716C59.0962 72.8312 58.786 72.9336 58.4648 72.9728C58.1437 73.0119 57.8179 72.9872 57.5064 72.8999C57.1949 72.8126 56.9037 72.6645 56.6496 72.4642C56.3956 72.2639 56.1837 72.0153 56.0262 71.7327C55.8686 71.4501 55.7686 71.1391 55.7318 70.8177C55.695 70.4963 55.7222 70.1707 55.8117 69.8599C55.9013 69.549 56.0515 69.2589 56.2537 69.0063L60.8383 62.9048C61.071 62.5968 61.3717 62.3468 61.717 62.1743C62.0623 62.0019 62.4429 61.9117 62.8289 61.9107H70.3826C70.8481 61.9107 71.3048 62.0372 71.704 62.2767L83.1914 69.1691C83.6498 69.4441 84.1743 69.5894 84.7089 69.5895H89.0392V85.6706C89.0397 86.1059 89.2128 86.5232 89.5206 86.831C89.8284 87.1388 90.2457 87.3119 90.681 87.3124H98.06C98.1843 87.3138 98.3075 87.2905 98.4227 87.244C98.5379 87.1974 98.6427 87.1284 98.731 87.041C98.8194 86.9537 98.8895 86.8497 98.9374 86.735C98.9852 86.6204 99.0099 86.4973 99.0099 86.3731C99.0099 86.2489 98.9852 86.1259 98.9374 86.0112C98.8895 85.8965 98.8194 85.7925 98.731 85.7052C98.6427 85.6178 98.5379 85.5488 98.4227 85.5023C98.3075 85.4557 98.1843 85.4324 98.06 85.4338H98.0604ZM58.1726 74.8707C58.8314 74.8708 59.4816 74.7202 60.0733 74.4303C60.6649 74.1404 61.1824 73.719 61.5861 73.1982L65.1166 68.67C65.2482 68.4983 65.4391 68.3818 65.652 68.3433C65.8649 68.3049 66.0845 68.3472 66.2679 68.4621L66.2705 68.4635L66.272 68.4646L83.8149 79.3747C83.9823 79.4782 84.1276 79.6137 84.2425 79.7733C84.3575 79.9329 84.4399 80.1137 84.4851 80.3052C84.5302 80.4967 84.5372 80.6952 84.5056 80.8894C84.474 81.0835 84.4045 81.2696 84.301 81.4369C84.1975 81.6043 84.0621 81.7495 83.9024 81.8645C83.7428 81.9795 83.562 82.0619 83.3705 82.107C83.179 82.1522 82.9805 82.1592 82.7863 82.1276C82.5922 82.096 82.4061 82.0265 82.2388 81.923L80.7167 81.0229L76.6114 78.3851C76.406 78.2526 76.157 78.2054 75.9174 78.2536C75.6778 78.3018 75.4664 78.4416 75.3282 78.6432C75.19 78.8449 75.136 79.0925 75.1775 79.3333C75.219 79.5742 75.3529 79.7894 75.5506 79.9331C75.5642 79.9438 75.5789 79.9547 75.596 79.9656L79.716 82.6129L79.7296 82.6215C80.0665 82.831 80.3065 83.1655 80.3971 83.5518C80.4876 83.938 80.4213 84.3444 80.2126 84.6818C80.0038 85.0192 79.6698 85.26 79.2838 85.3514C78.8978 85.4428 78.4912 85.3774 78.1534 85.1694L76.3135 84.1344L73.4004 82.2347C73.297 82.1673 73.1814 82.1209 73.0602 82.0981C72.9389 82.0754 72.8144 82.0767 72.6936 82.1021C72.4498 82.1534 72.2363 82.2995 72.1001 82.5081C71.964 82.7168 71.9163 82.9711 71.9676 83.2149C72.0188 83.4588 72.1649 83.6722 72.3736 83.8084L75.3126 85.725L75.3315 85.7367C75.4988 85.8402 75.6441 85.9757 75.7591 86.1353C75.8741 86.295 75.9565 86.4757 76.0016 86.6672C76.0467 86.8587 76.0537 87.0572 76.0221 87.2514C75.9905 87.4456 75.921 87.6317 75.8175 87.799C75.714 87.9663 75.5785 88.1116 75.4189 88.2266C75.2592 88.3415 75.0785 88.424 74.887 88.4691C74.5003 88.5602 74.0931 88.494 73.7552 88.285L71.7162 87.0239L70.2774 86.0366C70.0785 85.9004 69.8348 85.8458 69.5967 85.8843C69.3587 85.9228 69.1446 86.0514 68.9987 86.2434C68.8529 86.4355 68.7865 86.6762 68.8133 86.9159C68.8401 87.1555 68.958 87.3757 69.1426 87.5307C69.1606 87.5462 69.1817 87.562 69.2045 87.5776C69.2079 87.5801 69.2109 87.5828 69.2144 87.5852L70.6715 88.5852L70.6926 88.5982L70.7294 88.6223C71.0611 88.828 71.2976 89.1568 71.3871 89.5367C71.4766 89.9165 71.4118 90.3163 71.2069 90.6484C70.9976 90.9861 70.6629 91.227 70.2761 91.3181C69.8894 91.4092 69.4824 91.3431 69.1444 91.1343L69.0907 91.1011L69.0331 91.0754C68.8635 90.9997 68.6933 90.9224 68.5238 90.845C68.7109 90.3174 68.7548 89.7496 68.6509 89.1995C68.547 88.6494 68.2991 88.1367 67.9324 87.7137C67.5657 87.2907 67.0935 86.9724 66.5637 86.7915C66.0339 86.6105 65.4657 86.5732 64.9168 86.6835C64.7454 85.8671 64.2583 85.1516 63.5617 84.6927C62.8652 84.2339 62.0155 84.0688 61.1978 84.2336C61.0263 83.4175 60.5395 82.7022 59.8433 82.2433C59.147 81.7844 58.2977 81.6191 57.4802 81.7834C57.3512 81.1721 57.0442 80.6127 56.5978 80.1755C56.1515 79.7384 55.5858 79.4431 54.9719 79.3268C54.3581 79.2105 53.7236 79.2785 53.1483 79.5221C52.573 79.7657 52.0826 80.1741 51.739 80.6959L51.3005 81.3615H48.96V69.4474H53.9763C53.8114 70.0881 53.7952 70.758 53.9287 71.406C54.0623 72.054 54.3422 72.6628 54.7471 73.186C55.1519 73.7093 55.671 74.1331 56.2647 74.4251C56.8583 74.7171 57.5109 74.8695 58.1724 74.8707H58.1726Z" fill="#040F2A"/>
<path d="M69.0444 48.2773C69.1678 48.2773 69.2899 48.253 69.4039 48.2058C69.5178 48.1586 69.6214 48.0894 69.7086 48.0022C69.7958 47.915 69.865 47.8114 69.9122 47.6974C69.9594 47.5835 69.9837 47.4613 69.9837 47.338V43.0675C69.9851 42.9433 69.9618 42.82 69.9152 42.7049C69.8686 42.5897 69.7997 42.4849 69.7123 42.3965C69.6249 42.3082 69.5209 42.2381 69.4063 42.1902C69.2916 42.1423 69.1686 42.1177 69.0444 42.1177C68.9201 42.1177 68.7971 42.1423 68.6825 42.1902C68.5678 42.2381 68.4638 42.3082 68.3764 42.3965C68.2891 42.4849 68.2201 42.5897 68.1735 42.7049C68.1269 42.82 68.1037 42.9433 68.105 43.0675V47.3379C68.105 47.4612 68.1293 47.5834 68.1765 47.6974C68.2237 47.8114 68.2929 47.9149 68.3801 48.0022C68.4674 48.0894 68.5709 48.1586 68.6849 48.2058C68.7989 48.253 68.921 48.2773 69.0444 48.2773Z" fill="#040F2A"/>
<path d="M75.7704 51.1912C75.8938 51.1914 76.0159 51.1672 76.1299 51.12C76.2439 51.0728 76.3475 51.0035 76.4346 50.9162L79.4542 47.8966C79.6304 47.7205 79.7293 47.4815 79.7294 47.2324C79.7294 46.9833 79.6304 46.7443 79.4542 46.5681C79.2781 46.392 79.0391 46.293 78.79 46.293C78.5409 46.293 78.3019 46.3919 78.1257 46.5681L75.1062 49.5876C74.9748 49.719 74.8853 49.8864 74.8491 50.0686C74.8129 50.2508 74.8315 50.4397 74.9026 50.6113C74.9737 50.783 75.0941 50.9297 75.2485 51.0329C75.403 51.1361 75.5846 51.1912 75.7704 51.1912Z" fill="#040F2A"/>
<path d="M61.4469 50.9159C61.5341 51.0032 61.6377 51.0723 61.7516 51.1196C61.8656 51.1668 61.9878 51.191 62.1111 51.191C62.2345 51.191 62.3566 51.1667 62.4706 51.1195C62.5846 51.0723 62.6881 51.0031 62.7754 50.9159C62.8626 50.8286 62.9318 50.7251 62.979 50.6111C63.0262 50.4971 63.0505 50.375 63.0505 50.2516C63.0505 50.1283 63.0262 50.0061 62.979 49.8921C62.9317 49.7782 62.8625 49.6746 62.7753 49.5874L59.7556 46.5678C59.6686 46.4795 59.565 46.4093 59.4508 46.3612C59.3365 46.3131 59.2138 46.2881 59.0899 46.2876C58.9659 46.2871 58.8431 46.3112 58.7285 46.3584C58.6138 46.4057 58.5097 46.4751 58.422 46.5628C58.3344 46.6505 58.265 46.7546 58.2178 46.8692C58.1705 46.9839 58.1465 47.1067 58.147 47.2307C58.1475 47.3546 58.1725 47.4773 58.2206 47.5915C58.2687 47.7058 58.339 47.8094 58.4273 47.8964L61.4469 50.9159Z" fill="#040F2A"/>
<path d="M55.2106 56.4646H59.4809C59.6052 56.466 59.7284 56.4427 59.8436 56.3962C59.9588 56.3496 60.0636 56.2806 60.1519 56.1933C60.2403 56.1059 60.3104 56.0019 60.3583 55.8872C60.4061 55.7726 60.4308 55.6496 60.4308 55.5253C60.4308 55.4011 60.4061 55.2781 60.3583 55.1634C60.3104 55.0488 60.2403 54.9447 60.1519 54.8574C60.0636 54.77 59.9588 54.701 59.8436 54.6545C59.7284 54.6079 59.6052 54.5846 59.4809 54.586H55.2106C55.0864 54.5846 54.9631 54.6079 54.8479 54.6545C54.7327 54.701 54.6279 54.77 54.5396 54.8574C54.4513 54.9447 54.3811 55.0488 54.3333 55.1634C54.2854 55.2781 54.2607 55.4011 54.2607 55.5253C54.2607 55.6496 54.2854 55.7726 54.3333 55.8872C54.3811 56.0019 54.4513 56.1059 54.5396 56.1933C54.6279 56.2806 54.7327 56.3496 54.8479 56.3962C54.9631 56.4427 55.0864 56.466 55.2106 56.4646Z" fill="#040F2A"/>
<path d="M77.8765 55.5253C77.8765 55.7744 77.9755 56.0133 78.1516 56.1895C78.3278 56.3656 78.5667 56.4646 78.8158 56.4646H83.0862C83.2104 56.466 83.3337 56.4427 83.4488 56.3962C83.564 56.3496 83.6688 56.2806 83.7572 56.1933C83.8455 56.1059 83.9156 56.0019 83.9635 55.8872C84.0114 55.7726 84.036 55.6496 84.036 55.5253C84.036 55.4011 84.0114 55.2781 83.9635 55.1634C83.9156 55.0488 83.8455 54.9447 83.7572 54.8574C83.6688 54.77 83.564 54.701 83.4488 54.6545C83.3337 54.6079 83.2104 54.5846 83.0862 54.586H78.8158C78.5667 54.586 78.3278 54.685 78.1517 54.8611C77.9755 55.0373 77.8765 55.2761 77.8765 55.5253Z" fill="#040F2A"/>
</g>
<defs>
<clipPath id="clip0_4_1291">
<rect width="60" height="60" fill="white" transform="translate(38.9995 38)"/>
</clipPath>
</defs>
</svg>
