<svg width="77" height="67" viewBox="0 0 77 67" fill="none" xmlns="http://www.w3.org/2000/svg">
<path d="M2.40792 0H74.5921C75.9207 0 77 2.99497 77 6.70397V60.296C77 63.9951 75.9243 67 74.5921 67H2.40792C1.07929 67 0 64.005 0 60.296V6.69405C0.00356201 2.99497 1.07929 0 2.40792 0Z" fill="black"/>
<path fill-rule="evenodd" clip-rule="evenodd" d="M46.1875 52.7188H53.875C55.998 52.7188 57.7188 50.998 57.7188 48.875V41.1875C57.7188 40.4802 57.1447 39.9062 56.4375 39.9062C55.7303 39.9062 55.1562 40.4802 55.1562 41.1875V48.875C55.1562 49.5822 54.5822 50.1562 53.875 50.1562H46.1875C45.4802 50.1562 44.9062 50.7303 44.9062 51.4375C44.9062 52.1447 45.4802 52.7188 46.1875 52.7188ZM30.8125 50.1562H23.125C22.4178 50.1562 21.8438 49.5822 21.8438 48.875V41.1875C21.8438 40.4802 21.2697 39.9062 20.5625 39.9062C19.8553 39.9062 19.2812 40.4802 19.2812 41.1875V48.875C19.2812 50.998 21.002 52.7188 23.125 52.7188H30.8125C31.5197 52.7188 32.0938 52.1447 32.0938 51.4375C32.0938 50.7303 31.5197 50.1562 30.8125 50.1562ZM37.2188 38.625V46.3125C37.2188 47.0197 37.7927 47.5938 38.5 47.5938C39.2073 47.5938 39.7812 47.0197 39.7812 46.3125V38.625C39.7812 37.9177 39.2073 37.3438 38.5 37.3438C37.7927 37.3438 37.2188 37.9177 37.2188 38.625ZM34.6562 38.625C34.6562 37.9177 34.0822 37.3438 33.375 37.3438H25.6875C24.9802 37.3438 24.4062 37.9177 24.4062 38.625V46.3125C24.4062 47.0197 24.9802 47.5938 25.6875 47.5938H33.375C34.0822 47.5938 34.6562 47.0197 34.6562 46.3125V38.625ZM52.5938 38.625C52.5938 37.9177 52.0197 37.3438 51.3125 37.3438H43.625C42.9177 37.3438 42.3438 37.9177 42.3438 38.625V46.3125C42.3438 47.0197 42.9177 47.5938 43.625 47.5938H51.3125C52.0197 47.5938 52.5938 47.0197 52.5938 46.3125V38.625ZM32.0938 39.9062V45.0312H26.9688V39.9062H32.0938ZM50.0312 39.9062V45.0312H44.9062V39.9062H50.0312ZM37.2188 34.7812H38.5C39.2073 34.7812 39.7812 34.2073 39.7812 33.5C39.7812 32.7927 39.2073 32.2188 38.5 32.2188H37.2188C36.5115 32.2188 35.9375 32.7927 35.9375 33.5C35.9375 34.2073 36.5115 34.7812 37.2188 34.7812ZM25.6875 34.7812H32.0938C32.801 34.7812 33.375 34.2073 33.375 33.5C33.375 32.7927 32.801 32.2188 32.0938 32.2188H25.6875C24.9802 32.2188 24.4062 32.7927 24.4062 33.5C24.4062 34.2073 24.9802 34.7812 25.6875 34.7812ZM48.75 32.2188H50.0312V33.5C50.0312 34.2073 50.6052 34.7812 51.3125 34.7812C52.0197 34.7812 52.5938 34.2073 52.5938 33.5V30.9375C52.5938 30.2303 52.0197 29.6562 51.3125 29.6562H48.75C48.0427 29.6562 47.4688 30.2303 47.4688 30.9375C47.4688 31.6448 48.0427 32.2188 48.75 32.2188ZM44.9062 33.5V27.0938H46.1875C46.8948 27.0938 47.4688 26.5197 47.4688 25.8125C47.4688 25.1053 46.8948 24.5312 46.1875 24.5312H43.625C42.9177 24.5312 42.3438 25.1053 42.3438 25.8125V33.5C42.3438 34.2073 42.9177 34.7812 43.625 34.7812C44.3323 34.7812 44.9062 34.2073 44.9062 33.5ZM37.2188 25.8125V28.375C37.2188 29.0822 37.7927 29.6562 38.5 29.6562C39.2073 29.6562 39.7812 29.0822 39.7812 28.375V25.8125C39.7812 25.1053 39.2073 24.5312 38.5 24.5312C37.7927 24.5312 37.2188 25.1053 37.2188 25.8125ZM34.6562 20.6875C34.6562 19.9802 34.0822 19.4062 33.375 19.4062H25.6875C24.9802 19.4062 24.4062 19.9802 24.4062 20.6875V28.375C24.4062 29.0822 24.9802 29.6562 25.6875 29.6562H33.375C34.0822 29.6562 34.6562 29.0822 34.6562 28.375V20.6875ZM30.8125 14.2812H23.125C21.002 14.2812 19.2812 16.002 19.2812 18.125V25.8125C19.2812 26.5197 19.8553 27.0938 20.5625 27.0938C21.2697 27.0938 21.8438 26.5197 21.8438 25.8125V18.125C21.8438 17.4178 22.4178 16.8438 23.125 16.8438H30.8125C31.5197 16.8438 32.0938 16.2697 32.0938 15.5625C32.0938 14.8553 31.5197 14.2812 30.8125 14.2812ZM32.0938 21.9688V27.0938H26.9688V21.9688H32.0938ZM46.1875 16.8438H53.875C54.5822 16.8438 55.1562 17.4178 55.1562 18.125V25.8125C55.1562 26.5197 55.7303 27.0938 56.4375 27.0938C57.1447 27.0938 57.7188 26.5197 57.7188 25.8125V18.125C57.7188 16.002 55.998 14.2812 53.875 14.2812H46.1875C45.4802 14.2812 44.9062 14.8553 44.9062 15.5625C44.9062 16.2697 45.4802 16.8438 46.1875 16.8438ZM38.5 21.9688H50.0312V25.8125C50.0312 26.5197 50.6052 27.0938 51.3125 27.0938C52.0197 27.0938 52.5938 26.5197 52.5938 25.8125V20.6875C52.5938 19.9802 52.0197 19.4062 51.3125 19.4062H38.5C37.7927 19.4062 37.2188 19.9802 37.2188 20.6875C37.2188 21.3948 37.7927 21.9688 38.5 21.9688Z" fill="white"/>
</svg>
