<svg width="137" height="137" viewBox="0 0 137 137" fill="none" xmlns="http://www.w3.org/2000/svg">
<rect x="0.642578" y="0.428711" width="135.714" height="135.714" rx="67.8571" fill="white"/>
<g clip-path="url(#clip0_4_1306)">
<path d="M51.7316 76.485C51.402 75.3697 50.4407 75.072 49.7388 74.8548C49.2288 74.6968 48.9093 74.5877 48.7735 74.344C48.7199 74.2516 48.6903 74.1473 48.6874 74.0405C48.6845 73.9338 48.7083 73.828 48.7568 73.7328C48.9911 73.3433 49.684 73.3685 50.0169 73.5984C50.1874 73.7153 50.3972 73.7598 50.6004 73.7223C50.8037 73.6849 50.9838 73.5684 51.1013 73.3984C51.2189 73.2285 51.2643 73.0188 51.2276 72.8154C51.191 72.612 51.0752 72.4315 50.9057 72.3132C50.6976 72.1684 50.4677 72.0576 50.2246 71.9853V71.5127C50.2246 71.3055 50.1423 71.1068 49.9958 70.9603C49.8493 70.8138 49.6506 70.7314 49.4434 70.7314C49.2362 70.7314 49.0375 70.8138 48.891 70.9603C48.7444 71.1068 48.6621 71.3055 48.6621 71.5127V71.9891C48.1421 72.1305 47.6964 72.4667 47.4176 72.9279C47.228 73.2591 47.1275 73.6337 47.126 74.0152C47.1245 74.3968 47.2219 74.7722 47.4088 75.1048C47.8559 75.9074 48.6436 76.1514 49.2767 76.3473C49.9462 76.5546 50.1529 76.6558 50.2324 76.9254C50.2535 77.0364 50.2348 77.1514 50.1798 77.2501C50.1247 77.3488 50.0367 77.425 49.9311 77.4653C49.757 77.5356 49.5677 77.5596 49.3817 77.5348C49.1956 77.5099 49.0192 77.4373 48.8696 77.3238C48.7861 77.2641 48.6916 77.2214 48.5915 77.1982C48.4915 77.175 48.3878 77.1718 48.2865 77.1887C48.1852 77.2056 48.0882 77.2424 48.0011 77.2968C47.914 77.3512 47.8385 77.4223 47.7789 77.506C47.7193 77.5896 47.6768 77.6842 47.6537 77.7843C47.6307 77.8844 47.6277 77.9881 47.6448 78.0893C47.6619 78.1906 47.6988 78.2875 47.7533 78.3745C47.8079 78.4616 47.8791 78.5369 47.9629 78.5964C48.1779 78.7481 48.4133 78.8686 48.6621 78.9543V79.3252C48.6621 79.5324 48.7444 79.7311 48.8909 79.8776C49.0374 80.0241 49.2362 80.1065 49.4434 80.1065C49.6506 80.1065 49.8493 80.0241 49.9958 79.8776C50.1423 79.7311 50.2246 79.5324 50.2246 79.3252V79.0134C50.3493 78.9796 50.4712 78.9358 50.5889 78.8825C51.0362 78.6875 51.398 78.3376 51.608 77.8971C51.8179 77.4566 51.8618 76.9552 51.7316 76.485Z" fill="#040F2A"/>
<path d="M88.8015 74.8548C88.2914 74.6968 87.9718 74.5877 87.836 74.3438C87.7824 74.2514 87.7529 74.1471 87.75 74.0404C87.7472 73.9337 87.7711 73.8279 87.8196 73.7328C87.9405 73.6012 88.0962 73.5066 88.2687 73.4599C88.4412 73.4132 88.6234 73.4164 88.7942 73.469C88.8971 73.493 88.9941 73.537 89.0799 73.5986C89.1643 73.6577 89.2596 73.6996 89.3602 73.7218C89.4608 73.744 89.5649 73.7461 89.6663 73.7279C89.7678 73.7097 89.8646 73.6716 89.9513 73.6159C90.0379 73.5601 90.1127 73.4877 90.1713 73.4029C90.2299 73.3182 90.2711 73.2226 90.2926 73.1218C90.3141 73.021 90.3154 72.917 90.2965 72.8157C90.2776 72.7144 90.2388 72.6178 90.1825 72.5315C90.1261 72.4452 90.0532 72.371 89.968 72.313C89.7599 72.1682 89.53 72.0576 89.2871 71.9852V71.5127C89.2871 71.3055 89.2048 71.1068 89.0583 70.9603C88.9117 70.8138 88.713 70.7314 88.5058 70.7314C88.2986 70.7314 88.0999 70.8138 87.9534 70.9603C87.8069 71.1068 87.7246 71.3055 87.7246 71.5127V71.9891C87.2045 72.1304 86.7588 72.4666 86.4802 72.9279C86.2905 73.259 86.19 73.6337 86.1885 74.0152C86.187 74.3968 86.2845 74.7722 86.4715 75.1048C86.9185 75.9074 87.7063 76.1514 88.3391 76.3474C89.0086 76.5546 89.2154 76.656 89.2951 76.925C89.3162 77.0361 89.2975 77.1512 89.2423 77.2499C89.1872 77.3487 89.099 77.425 88.9933 77.4653C88.8192 77.5354 88.6299 77.5592 88.4439 77.5344C88.2578 77.5095 88.0814 77.4369 87.9317 77.3236C87.7629 77.2034 87.5533 77.1552 87.3489 77.1896C87.1446 77.224 86.9622 77.3381 86.8421 77.5069C86.7219 77.6757 86.6736 77.8854 86.708 78.0897C86.7424 78.2941 86.8565 78.4764 87.0253 78.5966C87.2404 78.7482 87.4758 78.8686 87.7246 78.9543V79.3252C87.7246 79.5324 87.8069 79.7311 87.9534 79.8776C88.0999 80.0241 88.2986 80.1064 88.5058 80.1064C88.713 80.1064 88.9117 80.0241 89.0582 79.8776C89.2048 79.7311 89.2871 79.5324 89.2871 79.3252V79.0135C89.4118 78.9797 89.5336 78.9359 89.6514 78.8825C90.0986 78.6874 90.4604 78.3375 90.6704 77.8971C90.8804 77.4567 90.9243 76.9552 90.7943 76.485C90.4647 75.3697 89.5034 75.072 88.8015 74.8548Z" fill="#040F2A"/>
<path d="M61.9683 54.3281C61.9683 52.5512 61.4413 50.8142 60.4541 49.3367C59.4669 47.8592 58.0637 46.7077 56.4221 46.0276C54.7804 45.3476 52.9739 45.1697 51.2311 45.5164C49.4883 45.8631 47.8875 46.7187 46.631 47.9752C45.3745 49.2317 44.5188 50.8326 44.1721 52.5754C43.8255 54.3182 44.0034 56.1246 44.6834 57.7663C45.3634 59.408 46.515 60.8111 47.9924 61.7984C49.4699 62.7856 51.2069 63.3125 52.9839 63.3125C55.3659 63.3098 57.6495 62.3624 59.3338 60.6781C61.0181 58.9937 61.9656 56.7101 61.9683 54.3281ZM46.8512 57.846C46.8094 58.0163 46.7802 58.1893 46.7638 58.3638C46.1353 57.3955 45.7415 56.2939 45.6137 55.1466C45.4859 53.9993 45.6276 52.838 46.0275 51.7551C46.4274 50.6721 47.0745 49.6975 47.9173 48.9086C48.7601 48.1198 49.7754 47.5385 50.8824 47.211C51.9893 46.8836 53.1575 46.8189 54.2938 47.0223C55.4302 47.2256 56.5034 47.6914 57.4281 48.3824C58.3528 49.0735 59.1034 49.9708 59.6204 51.003C60.1373 52.0352 60.4062 53.1737 60.4058 54.3281C60.4061 55.7617 59.9884 57.1642 59.2039 58.364C59.1875 58.1894 59.1583 58.0162 59.1164 57.8459C58.9591 57.2811 58.5882 56.7996 58.0822 56.5035L55.3276 54.8868V53.9359C55.4568 53.6271 55.5231 53.2957 55.523 52.9609V51.0078C55.523 50.3344 55.2554 49.6886 54.7793 49.2124C54.3031 48.7363 53.6573 48.4688 52.9839 48.4688C52.3105 48.4688 51.6647 48.7363 51.1885 49.2124C50.7123 49.6886 50.4448 50.3344 50.4448 51.0078V52.9609C50.4447 53.2956 50.511 53.6271 50.6401 53.9359V54.8868L47.9126 56.4884C47.394 56.7836 47.0126 57.2715 46.8512 57.846ZM53.7651 55.3757V55.7583L52.9826 57.0703L52.2026 55.7597V55.3757C52.7103 55.5414 53.2575 55.5414 53.7651 55.3757ZM48.2964 58.9729C48.2897 58.5803 48.2895 58.071 48.6763 57.8512L50.8278 56.5884C50.8628 56.6297 52.2932 58.9674 52.2932 58.9674C52.3697 59.0848 52.4743 59.1813 52.5975 59.248C52.7208 59.3146 52.8588 59.3494 52.999 59.349C53.1342 59.349 53.2672 59.3139 53.3848 59.2471C53.5024 59.1803 53.6007 59.0841 53.67 58.9679C53.67 58.9679 55.1045 56.6303 55.1401 56.5883C55.1401 56.5883 57.3155 57.8645 57.3185 57.8663C57.693 58.086 57.6712 58.6085 57.6712 58.9865V60.0763C56.3489 61.1586 54.6927 61.75 52.9839 61.75C51.2751 61.75 49.6189 61.1586 48.2966 60.0763L48.2964 58.9729Z" fill="#040F2A"/>
<path d="M85.0151 45.3438C83.2382 45.3438 81.5012 45.8707 80.0237 46.8579C78.5462 47.8451 77.3947 49.2483 76.7147 50.89C76.0347 52.5316 75.8567 54.3381 76.2034 56.0809C76.5501 57.8237 77.4057 59.4246 78.6622 60.681C79.9187 61.9375 81.5196 62.7932 83.2624 63.1399C85.0052 63.4865 86.8116 63.3086 88.4533 62.6286C90.095 61.9486 91.4982 60.797 92.4854 59.3196C93.4726 57.8421 93.9995 56.1051 93.9995 54.3281C93.9968 51.9462 93.0494 49.6625 91.3651 47.9782C89.6808 46.2939 87.3971 45.3465 85.0151 45.3438ZM89.7024 58.9864V60.0763C88.3801 61.1586 86.724 61.75 85.0151 61.75C83.3063 61.75 81.6501 61.1586 80.3278 60.0762L80.3276 58.9729C80.3209 58.5803 80.3207 58.071 80.7076 57.8512L82.859 56.5884C82.894 56.6297 84.3245 58.9674 84.3245 58.9674C84.4009 59.0848 84.5055 59.1813 84.6288 59.248C84.7521 59.3146 84.8901 59.3494 85.0302 59.349C85.1655 59.349 85.2984 59.3139 85.416 59.2471C85.5337 59.1803 85.6319 59.0841 85.7012 58.9679C85.7012 58.9679 87.1358 56.6303 87.1714 56.5883C87.1714 56.5883 89.3467 57.8645 89.3498 57.8663C89.7242 58.0859 89.7024 58.6085 89.7024 58.9864ZM84.2339 55.7597V55.3757C84.7415 55.5414 85.2887 55.5414 85.7964 55.3757V55.7582L85.0138 57.0703L84.2339 55.7597ZM91.2352 58.364C91.2188 58.1894 91.1895 58.0162 91.1476 57.8459C90.9903 57.2811 90.6195 56.7996 90.1135 56.5035L87.3589 54.8868V53.9359C87.488 53.6271 87.5544 53.2957 87.5542 52.9609V51.0078C87.5542 50.3344 87.2867 49.6886 86.8105 49.2124C86.3344 48.7363 85.6885 48.4688 85.0151 48.4688C84.3417 48.4688 83.6959 48.7363 83.2198 49.2124C82.7436 49.6886 82.4761 50.3344 82.4761 51.0078V52.9609C82.4759 53.2956 82.5423 53.627 82.6714 53.9359V54.8868L79.9439 56.4884C79.4252 56.7836 79.0438 57.2715 78.8824 57.8461C78.8407 58.0163 78.8114 58.1893 78.795 58.3638C78.0659 57.2438 77.6528 55.9476 77.5992 54.6122C77.5457 53.2769 77.8537 51.9518 78.4908 50.7769C79.1279 49.6021 80.0703 48.6211 81.2187 47.9375C82.3671 47.2538 83.6788 46.893 85.0152 46.893C86.3517 46.893 87.6634 47.2539 88.8117 47.9376C89.9601 48.6212 90.9026 49.6023 91.5396 50.7771C92.1766 51.952 92.4846 53.2771 92.4311 54.6124C92.3775 55.9478 91.9643 57.244 91.2352 58.364Z" fill="#040F2A"/>
<path d="M74.437 79.4609C74.2918 79.2974 74.1138 79.1663 73.9146 79.0761C73.7154 78.9859 73.4994 78.9387 73.2807 78.9375H64.7182C64.4995 78.9387 64.2836 78.9859 64.0844 79.0761C63.8851 79.1663 63.7071 79.2974 63.562 79.4609C63.4079 79.6325 63.2914 79.8345 63.2201 80.0538C63.1488 80.2731 63.1242 80.505 63.1479 80.7344L63.562 86.082C63.5997 86.4744 63.7807 86.8391 64.0704 87.1065C64.3601 87.3738 64.7381 87.525 65.1323 87.5312H72.8667C73.2649 87.5238 73.6462 87.3685 73.9364 87.0956C74.2266 86.8228 74.405 86.4518 74.437 86.0547L74.8471 80.7578C74.8743 80.5249 74.8518 80.2889 74.7811 80.0654C74.7104 79.8418 74.5931 79.6358 74.437 79.4609ZM68.9995 84.0156C68.845 84.0156 68.6939 83.9698 68.5654 83.884C68.437 83.7981 68.3368 83.6761 68.2777 83.5333C68.2186 83.3906 68.2031 83.2335 68.2332 83.082C68.2634 82.9304 68.3378 82.7912 68.447 82.6819C68.5563 82.5727 68.6955 82.4983 68.8471 82.4681C68.9986 82.438 69.1557 82.4535 69.2984 82.5126C69.4412 82.5717 69.5632 82.6719 69.6491 82.8003C69.7349 82.9288 69.7807 83.0799 69.7807 83.2344C69.7801 83.4414 69.6976 83.6397 69.5512 83.7861C69.4049 83.9325 69.2065 84.015 68.9995 84.0156Z" fill="#040F2A"/>
<path d="M65.4838 72.9175L61.2564 75.2669C60.5539 75.6424 60.0292 76.2815 59.7976 77.0436C59.6745 77.5717 59.6164 78.1129 59.6248 78.6551V84.4062H61.1872L61.1871 78.6413C61.1748 77.8881 61.2566 77.0413 61.9886 76.6467L65.9391 74.4519L68.3916 77.1439C68.4704 77.2241 68.5644 77.2879 68.6682 77.3313C68.7719 77.3748 68.8833 77.3972 68.9958 77.3972C69.1082 77.3972 69.2196 77.3747 69.3233 77.3312C69.427 77.2877 69.521 77.224 69.5999 77.1437L72.0592 74.4515C72.0592 74.4515 76.0249 76.6546 76.0295 76.6572C76.7578 77.0617 76.8237 77.9061 76.8116 78.6551V84.4062H78.3741V78.6692C78.383 78.1223 78.325 77.5764 78.2013 77.0436C77.9739 76.2908 77.4595 75.6577 76.7692 75.281L72.5151 72.9172V70.7102C72.7715 70.1832 72.905 69.6049 72.9057 69.0188V66.675C72.9057 65.639 72.4941 64.6455 71.7616 63.9129C71.029 63.1803 70.0354 62.7688 68.9994 62.7688C67.9634 62.7688 66.9699 63.1803 66.2373 63.9129C65.5047 64.6455 65.0932 65.639 65.0932 66.675V69.0188C65.0938 69.6049 65.2274 70.1832 65.4838 70.7103V72.9175ZM67.0463 72.3966C67.639 72.7427 68.3131 72.9251 68.9994 72.9251C69.6858 72.9251 70.3599 72.7426 70.9526 72.3965V73.3463L68.9964 75.4876L67.0463 73.3471V72.3966Z" fill="#040F2A"/>
<path d="M52.9839 67.2241C53.4154 67.2241 53.7651 66.8743 53.7651 66.4429C53.7651 66.0114 53.4154 65.6616 52.9839 65.6616C52.5524 65.6616 52.2026 66.0114 52.2026 66.4429C52.2026 66.8743 52.5524 67.2241 52.9839 67.2241Z" fill="#040F2A"/>
<path d="M53.8608 70.0237C54.2923 70.0237 54.6421 69.6739 54.6421 69.2424C54.6421 68.811 54.2923 68.4612 53.8608 68.4612C53.4294 68.4612 53.0796 68.811 53.0796 69.2424C53.0796 69.6739 53.4294 70.0237 53.8608 70.0237Z" fill="#040F2A"/>
<path d="M55.7749 72.2466C56.2064 72.2466 56.5562 71.8968 56.5562 71.4653C56.5562 71.0339 56.2064 70.6841 55.7749 70.6841C55.3434 70.6841 54.9937 71.0339 54.9937 71.4653C54.9937 71.8968 55.3434 72.2466 55.7749 72.2466Z" fill="#040F2A"/>
<path d="M58.4526 73.4692C58.8841 73.4692 59.2339 73.1195 59.2339 72.688C59.2339 72.2565 58.8841 71.9067 58.4526 71.9067C58.0212 71.9067 57.6714 72.2565 57.6714 72.688C57.6714 73.1195 58.0212 73.4692 58.4526 73.4692Z" fill="#040F2A"/>
<path d="M85.0151 67.2241C85.4466 67.2241 85.7964 66.8743 85.7964 66.4429C85.7964 66.0114 85.4466 65.6616 85.0151 65.6616C84.5837 65.6616 84.2339 66.0114 84.2339 66.4429C84.2339 66.8743 84.5837 67.2241 85.0151 67.2241Z" fill="#040F2A"/>
<path d="M84.1382 70.0237C84.5697 70.0237 84.9194 69.6739 84.9194 69.2424C84.9194 68.811 84.5697 68.4612 84.1382 68.4612C83.7067 68.4612 83.3569 68.811 83.3569 69.2424C83.3569 69.6739 83.7067 70.0237 84.1382 70.0237Z" fill="#040F2A"/>
<path d="M82.2241 72.2466C82.6556 72.2466 83.0054 71.8968 83.0054 71.4653C83.0054 71.0339 82.6556 70.6841 82.2241 70.6841C81.7926 70.6841 81.4429 71.0339 81.4429 71.4653C81.4429 71.8968 81.7926 72.2466 82.2241 72.2466Z" fill="#040F2A"/>
<path d="M79.5464 73.4692C79.9779 73.4692 80.3276 73.1195 80.3276 72.688C80.3276 72.2565 79.9779 71.9067 79.5464 71.9067C79.1149 71.9067 78.7651 72.2565 78.7651 72.688C78.7651 73.1195 79.1149 73.4692 79.5464 73.4692Z" fill="#040F2A"/>
<path d="M86.187 85.9688H76.0111L75.9911 86.2268C75.9157 87.0057 75.5552 87.7292 74.9788 88.2584C74.4024 88.7876 73.6508 89.0851 72.8684 89.0938H65.1308C64.3516 89.0884 63.6019 88.7951 63.0259 88.2704C62.4499 87.7456 62.0882 87.0264 62.0104 86.251L61.9884 85.9688H51.812C51.3978 85.9692 51.0006 86.134 50.7077 86.4269C50.4148 86.7198 50.25 87.117 50.2495 87.5312V89.0938C50.25 89.508 50.4148 89.9052 50.7077 90.1981C51.0006 90.491 51.3978 90.6558 51.812 90.6562H86.187C86.6013 90.6558 86.9984 90.491 87.2914 90.1981C87.5843 89.9052 87.7491 89.508 87.7495 89.0938V87.5312C87.7491 87.117 87.5843 86.7198 87.2914 86.4269C86.9984 86.134 86.6013 85.9692 86.187 85.9688Z" fill="#040F2A"/>
</g>
<defs>
<clipPath id="clip0_4_1306">
<rect width="50" height="50" fill="white" transform="translate(43.9995 43)"/>
</clipPath>
</defs>
</svg>
