<svg width="137" height="137" viewBox="0 0 137 137" fill="none" xmlns="http://www.w3.org/2000/svg">
<rect x="0.428711" y="0.428711" width="135.714" height="135.714" rx="67.8571" fill="white"/>
<path d="M67.9098 41.4641C67.2856 41.4641 66.6614 41.9323 66.5053 42.5565L60.5751 60.191H41.3801C40.7559 60.191 40.1316 60.6591 39.9756 61.2834L56.9858 71.8952L55.8934 74.5482L49.9632 92.4948C49.8072 93.119 49.9632 93.8993 50.5875 94.2114C51.2117 94.5235 53.8647 92.963 53.8647 92.963L94.4395 63.3121C94.4395 63.3121 96.1562 61.9076 96.0001 61.2834C95.688 60.6591 95.0638 60.191 94.4395 60.191H72.5915L67.9098 41.4641Z" fill="#F1C40F"/>
<path d="M69.3142 42.5565C69.1582 41.9323 68.5339 41.4641 67.9097 41.4641V70.3347L39.9755 61.2834C39.8194 61.9076 39.9755 62.6879 40.5997 63L56.0494 74.3922L68.0658 70.1786L66.3491 82.039L67.9097 83.1314L83.3594 94.2114C83.9836 94.6796 84.6078 94.6796 85.232 94.2114C85.7002 93.7432 86.0123 93.119 85.8563 92.4948L79.9261 74.5482L78.8337 71.8953L67.9097 70.3347L75.2444 60.191L69.3142 42.5565Z" fill="#F39C12"/>
<path d="M67.9095 70.3347L50.5872 94.2114C51.0553 94.6796 51.8356 94.6796 52.4598 94.2114L67.9095 83.1314V70.3347L79.9259 74.5483L95.3755 63.1561C95.8437 62.6879 96.1558 62.0637 95.9998 61.4395L67.9095 70.3347Z" fill="#E67E22"/>
</svg>
