<svg width="137" height="137" viewBox="0 0 137 137" fill="none" xmlns="http://www.w3.org/2000/svg">
<rect x="0.428711" y="0.428711" width="135.714" height="135.714" rx="67.8571" fill="white"/>
<path d="M76.996 59.9422V72.3477C76.996 72.9235 76.5354 73.3946 75.9491 73.3946H73.8763V84.2926C73.8763 84.8683 73.4157 85.3394 72.8294 85.3394C72.2537 85.3394 71.7826 84.8683 71.7826 84.2926V73.3946H69.7202C69.134 73.3946 68.6733 72.9235 68.6733 72.3477V59.9422C68.6733 59.3665 69.134 58.8954 69.7202 58.8954H71.7826V54.0483C71.7826 53.4726 72.2537 53.0015 72.8294 53.0015C73.4157 53.0015 73.8763 53.4726 73.8763 54.0483V58.8954H75.9491C76.5354 58.8954 76.996 59.3665 76.996 59.9422Z" fill="#009245"/>
<path d="M100.31 57.1575V69.563C100.31 70.1388 99.8493 70.6098 99.2631 70.6098H97.2007V84.638C97.2007 85.2242 96.7296 85.6848 96.1539 85.6848C95.5676 85.6848 95.107 85.2242 95.107 84.638V70.6098H93.0342C92.4479 70.6098 91.9873 70.1388 91.9873 69.563V57.1575C91.9873 56.5817 92.4479 56.1106 93.0342 56.1106H95.107V53.2422C95.107 52.6664 95.5676 52.1953 96.1539 52.1953C96.7296 52.1953 97.2007 52.6664 97.2007 53.2422V56.1106H99.2631C99.8493 56.1106 100.31 56.5817 100.31 57.1575Z" fill="#009245"/>
<path d="M88.5429 68.2962V80.7121C88.5429 81.2879 88.0718 81.759 87.496 81.759H85.4232V85.6743C85.4232 86.2501 84.9626 86.7212 84.3763 86.7212C83.8005 86.7212 83.3294 86.2501 83.3294 85.6743V81.759H81.2671C80.6808 81.759 80.2202 81.2879 80.2202 80.7121V68.2962C80.2202 67.7204 80.6808 67.2493 81.2671 67.2493H83.3294V55.3149C83.3294 54.7392 83.8005 54.2681 84.3763 54.2681C84.9626 54.2681 85.4232 54.7392 85.4232 55.3149V67.2493H87.496C88.0718 67.2493 88.5429 67.7204 88.5429 68.2962Z" fill="#ED1C24"/>
<path d="M54.9486 68.0868V80.4922C54.9486 81.068 54.488 81.5391 53.9018 81.5391H51.8394V85.0985C51.8394 85.6743 51.3683 86.1454 50.7925 86.1454C50.2063 86.1454 49.7457 85.6743 49.7457 85.0985V81.5391H47.6729C47.0866 81.5391 46.626 81.068 46.626 80.4922V68.0868C46.626 67.5005 47.0866 67.0399 47.6729 67.0399H49.7457V54.8647C49.7457 54.289 50.2063 53.8179 50.7925 53.8179C51.3683 53.8179 51.8394 54.289 51.8394 54.8647V67.0399H53.9018C54.488 67.0399 54.9486 67.5005 54.9486 68.0868Z" fill="#009245"/>
<path d="M66.4955 66.4432V78.8486C66.4955 79.4244 66.0349 79.8955 65.4486 79.8955H63.3758V84.8577C63.3758 85.4439 62.9152 85.9046 62.3289 85.9046C61.7532 85.9046 61.2821 85.4439 61.2821 84.8577V79.8955H59.2197C58.6335 79.8955 58.1729 79.4244 58.1729 78.8486V66.4432C58.1729 65.8674 58.6335 65.3963 59.2197 65.3963H61.2821V55.5557C61.2821 54.9799 61.7532 54.5088 62.3289 54.5088C62.9152 54.5088 63.3758 54.9799 63.3758 55.5557V65.3963H65.4486C66.0349 65.3963 66.4955 65.8674 66.4955 66.4432Z" fill="#ED1C24"/>
<path d="M100.823 90.9192C100.823 91.495 100.352 91.966 99.7759 91.966H96.541V93.976C96.541 94.5518 96.0804 95.0229 95.4941 95.0229C94.9184 95.0229 94.4473 94.5518 94.4473 93.976V91.966H85.2871V93.976C85.2871 94.5518 84.8265 95.0229 84.2402 95.0229C83.6645 95.0229 83.1934 94.5518 83.1934 93.976V91.966H73.7715V93.976C73.7715 94.5518 73.3109 95.0229 72.7246 95.0229C72.1488 95.0229 71.6777 94.5518 71.6777 93.976V91.966H63.3027V93.976C63.3027 94.5518 62.8421 95.0229 62.2559 95.0229C61.6801 95.0229 61.209 94.5518 61.209 93.976V91.966H51.5254V93.976C51.5254 94.5518 51.0648 95.0229 50.4785 95.0229C49.9027 95.0229 49.4316 94.5518 49.4316 93.976V91.966H42.5432C41.9674 91.966 41.4963 91.495 41.4963 90.9192V82.6279H39.2246C38.6488 82.6279 38.1777 82.1568 38.1777 81.581C38.1777 81.0053 38.6488 80.5342 39.2246 80.5342H41.4963V71.1123H39.2246C38.6488 71.1123 38.1777 70.6412 38.1777 70.0654C38.1777 69.4896 38.6488 69.0185 39.2246 69.0185H41.4963V59.335H39.2246C38.6488 59.335 38.1777 58.8639 38.1777 58.2881C38.1777 57.7123 38.6488 57.2412 39.2246 57.2412H41.4963V47.8193H39.2246C38.6488 47.8193 38.1777 47.3482 38.1777 46.7725C38.1777 46.1967 38.6488 45.7256 39.2246 45.7256H41.4963V45.0242C41.4963 44.4484 41.9674 43.9773 42.5432 43.9773C43.119 43.9773 43.5901 44.4484 43.5901 45.0242V89.8723H99.7759C100.352 89.8723 100.823 90.3434 100.823 90.9192Z" fill="#93278F"/>
</svg>
