<svg width="137" height="137" viewBox="0 0 137 137" fill="none" xmlns="http://www.w3.org/2000/svg">
<rect x="0.643066" y="0.428711" width="135.714" height="135.714" rx="67.8571" fill="white"/>
<path d="M87.0699 63.6683H86.9462V60.6361C86.9462 50.896 79.0503 43 69.31 43C59.5697 43 51.6739 50.896 51.6739 60.6361V63.6683H50.9314C48.2086 63.6683 46.1046 66.0816 46.1046 68.8664V76.6015C46.0361 79.3005 48.1685 81.5441 50.8675 81.6126C50.8888 81.6132 50.91 81.6136 50.9314 81.6138H55.5105C56.1591 81.5834 56.6603 81.0327 56.6297 80.3841C56.6287 80.3608 56.6269 80.3375 56.6244 80.3142V65.1534C56.6244 64.4108 56.1912 63.6682 55.5105 63.6682H54.1491V60.636C54.1491 52.2629 60.937 45.4751 69.31 45.4751C77.6831 45.4751 84.4709 52.2629 84.4709 60.636V63.6682H83.1095C82.4288 63.6682 81.9957 64.4107 81.9957 65.1534V80.3142C81.9266 80.9599 82.394 81.5393 83.0396 81.6084C83.0628 81.6109 83.0862 81.6126 83.1095 81.6137H84.5327L84.409 81.7993C82.5521 84.2671 79.6384 85.7125 76.5501 85.6978C75.874 82.3826 72.6383 80.2432 69.3232 80.9194C66.4882 81.4975 64.4442 83.9803 64.4214 86.8736C64.4552 90.267 67.2159 93 70.6095 92.9998C72.2894 92.9725 73.8906 92.2832 75.0649 91.0814C75.8572 90.2701 76.3763 89.2317 76.5501 88.1111C80.4175 88.1258 84.0648 86.3136 86.3891 83.2225L87.5649 81.4898C90.2258 81.3042 91.8965 79.6334 91.8965 77.22V69.4849C91.8967 66.8243 89.9165 63.6683 87.0699 63.6683ZM54.1491 79.1386H50.9314C49.5989 79.1061 48.5449 77.9997 48.5774 76.6672C48.578 76.6453 48.5788 76.6234 48.5799 76.6014V68.8662C48.5799 67.443 49.57 66.1434 50.9314 66.1434H54.1491V79.1386ZM73.2705 89.3489C72.5847 90.0925 71.6211 90.5183 70.6096 90.5247C68.5963 90.4928 66.9625 88.8862 66.8967 86.8737C66.8959 84.8573 68.5298 83.2221 70.5462 83.2212C72.5626 83.2204 74.1979 84.8543 74.1987 86.8707C74.1987 86.8717 74.1987 86.8727 74.1987 86.8737C74.2502 87.7925 73.9134 88.6906 73.2705 89.3489ZM89.4214 77.2202C89.4214 78.891 87.8125 79.1386 87.0699 79.1386H84.4709V66.1436H87.0699C88.4313 66.1436 89.4214 68.0619 89.4214 69.4851V77.2202Z" fill="#040F2A"/>
</svg>
