<svg width="181" height="50" viewBox="0 0 181 50" fill="none" xmlns="http://www.w3.org/2000/svg">
<g clip-path="url(#clip0_27_434)">
<path fill-rule="evenodd" clip-rule="evenodd" d="M34.0846 12.3783H23.4994L17.296 27.1529L11.0925 12.3783H0.507324C4.35247 21.536 8.1961 30.6952 12.0428 39.8519L7.78171 50H18.3669C23.6603 37.3929 28.8253 24.9037 34.0843 12.3786L34.0846 12.3783ZM168.683 0.0787867H180.075L169.773 24.9701H158.382L168.683 0.0787867ZM161.182 27.3705C164.729 27.3705 167.605 30.246 167.605 33.7932C167.605 37.3403 164.729 40.2158 161.182 40.2158C157.635 40.2158 154.759 37.3403 154.759 33.7932C154.759 30.2463 157.635 27.3705 161.182 27.3705ZM138.783 11.6311C146.76 11.6311 153.226 18.0975 153.226 26.0739C153.226 34.0505 146.76 40.5166 138.783 40.5166C130.807 40.5166 124.341 34.0502 124.341 26.0739C124.341 18.0972 130.807 11.6311 138.783 11.6311ZM138.783 20.4345C141.898 20.4345 144.423 22.9595 144.423 26.0741C144.423 29.1887 141.898 31.7137 138.783 31.7137C135.669 31.7137 133.144 29.1887 133.144 26.0741C133.144 22.9595 135.669 20.4345 138.783 20.4345ZM107.777 11.6311C115.754 11.6311 122.22 18.0975 122.22 26.0739C122.22 34.0505 115.753 40.5166 107.777 40.5166C99.8003 40.5166 93.3342 34.0502 93.3342 26.0739C93.3342 18.0972 99.8005 11.6311 107.777 11.6311ZM107.777 20.4345C110.892 20.4345 113.416 22.9595 113.416 26.0741C113.416 29.1887 110.892 31.7137 107.777 31.7137C104.662 31.7137 102.137 29.1887 102.137 26.0741C102.137 22.9595 104.662 20.4345 107.777 20.4345ZM65.1376 0.000252521H74.6883V14.848C74.6883 14.848 76.3592 11.6311 81.8788 11.6311C87.3984 11.6311 90.9385 14.0596 91.0092 24.0037V40.2158H81.4586V24.0037C81.4586 22.134 79.943 20.6184 78.0733 20.6184C76.1605 20.6184 74.6418 22.1911 74.6895 24.0996L74.688 40.2158H65.1374V0L65.1376 0.000252521ZM52.1331 12.3783H61.6837V40.2161H52.1331V37.5919C49.9942 39.4272 47.3288 40.5171 44.4385 40.5171C37.3951 40.5171 31.6854 34.0508 31.6854 26.0744C31.6854 18.0977 37.3951 11.6316 44.4385 11.6316C47.3288 11.6316 49.9944 12.7213 52.1331 14.5569V12.3789V12.3783ZM46.7536 20.4345C49.8682 20.4345 52.3932 22.9595 52.3932 26.0741C52.3932 29.1887 49.8682 31.7137 46.7536 31.7137C43.639 31.7137 41.114 29.1887 41.114 26.0741C41.114 22.9595 43.639 20.4345 46.7536 20.4345Z" fill="#6101D1"/>
</g>
<defs>
<clipPath id="clip0_27_434">
<rect width="179.598" height="50" fill="white" transform="translate(0.492188)"/>
</clipPath>
</defs>
</svg>
